<svg xmlns="http://www.w3.org/2000/svg" xmlns:xlink="http://www.w3.org/1999/xlink" width="715" height="213" viewBox="0 0 715 213">
  <defs>
    <clipPath id="clip-path">
      <rect id="Rectángulo_413546" data-name="Rectángulo 413546" width="104.753" height="111.053" fill="none"/>
    </clipPath>
    <clipPath id="clip-path-2">
      <rect id="Rectángulo_413547" data-name="Rectángulo 413547" width="86.813" height="86.228" fill="none"/>
    </clipPath>
  </defs>
  <g id="Grupo_1127123" data-name="Grupo 1127123" transform="translate(-705.051 -7150)">
    <path id="Trazado_898394" data-name="Trazado 898394" d="M0,0H715V213H0Z" transform="translate(705.051 7150)" fill="#edf7ed"/>
    <path id="Trazado_898395" data-name="Trazado 898395" d="M-90.781,0H-92.1V-4.6h-5.018V0h-1.312V-9.953h1.313v4.279H-92.1V-9.953h1.319Zm3.507,0h-1.265V-7.4h1.265Zm-1.367-9.358a.755.755,0,0,1,.188-.52.706.706,0,0,1,.557-.212.717.717,0,0,1,.561.212.747.747,0,0,1,.191.52.722.722,0,0,1-.191.513.73.73,0,0,1-.561.205.718.718,0,0,1-.557-.205A.73.73,0,0,1-88.642-9.358ZM-83.877,0h-1.265V-10.5h1.265Zm1.688-3.767a4.369,4.369,0,0,1,.427-1.955,3.187,3.187,0,0,1,1.189-1.34,3.238,3.238,0,0,1,1.74-.472,3.119,3.119,0,0,1,2.444,1.046,4.024,4.024,0,0,1,.933,2.782v.089a4.407,4.407,0,0,1-.414,1.938A3.14,3.14,0,0,1-77.051-.342a3.275,3.275,0,0,1-1.767.479A3.111,3.111,0,0,1-81.255-.909a4,4,0,0,1-.933-2.769Zm1.271.15a3.164,3.164,0,0,0,.571,1.976A1.827,1.827,0,0,0-78.818-.9a1.816,1.816,0,0,0,1.531-.755,3.46,3.46,0,0,0,.567-2.116A3.159,3.159,0,0,0-77.3-5.739a1.836,1.836,0,0,0-1.535-.755,1.816,1.816,0,0,0-1.511.745A3.434,3.434,0,0,0-80.917-3.616Zm11.7-3.78.034.82a2.732,2.732,0,0,1,2.194-.957,2.115,2.115,0,0,1,2.112,1.189,2.8,2.8,0,0,1,.96-.861,2.837,2.837,0,0,1,1.4-.328q2.434,0,2.475,2.577V0H-61.3V-4.881a1.7,1.7,0,0,0-.362-1.186,1.6,1.6,0,0,0-1.217-.393,1.677,1.677,0,0,0-1.169.42,1.706,1.706,0,0,0-.54,1.131V0h-1.271V-4.847A1.411,1.411,0,0,0-67.443-6.46a1.692,1.692,0,0,0-1.7,1.06V0H-70.41V-7.4ZM-53.566,0a2.657,2.657,0,0,1-.178-.779A2.822,2.822,0,0,1-55.85.137a2.611,2.611,0,0,1-1.794-.619,2,2,0,0,1-.7-1.569,2.091,2.091,0,0,1,.878-1.794A4.142,4.142,0,0,1-55-4.484h1.23v-.581a1.42,1.42,0,0,0-.4-1.056,1.593,1.593,0,0,0-1.169-.393,1.844,1.844,0,0,0-1.135.342,1.007,1.007,0,0,0-.458.827h-1.271a1.745,1.745,0,0,1,.393-1.07,2.683,2.683,0,0,1,1.066-.817,3.588,3.588,0,0,1,1.48-.3,2.924,2.924,0,0,1,2,.639,2.306,2.306,0,0,1,.752,1.76v3.4a4.162,4.162,0,0,0,.26,1.62V0Zm-2.1-.964a2.223,2.223,0,0,0,1.128-.308,1.861,1.861,0,0,0,.772-.8V-3.589h-.991q-2.324,0-2.324,1.36a1.151,1.151,0,0,0,.4.93A1.524,1.524,0,0,0-55.665-.964Zm8.723-5.3a3.79,3.79,0,0,0-.622-.048,1.667,1.667,0,0,0-1.688,1.06V0h-1.265V-7.4h1.23l.021.854A1.969,1.969,0,0,1-47.5-7.533a1.292,1.292,0,0,1,.561.1Zm4,5.366a1.822,1.822,0,0,0,1.183-.41A1.443,1.443,0,0,0-41.2-2.331H-40a2.293,2.293,0,0,1-.437,1.21,2.881,2.881,0,0,1-1.077.916,3.107,3.107,0,0,1-1.425.342,3.047,3.047,0,0,1-2.4-1.008,4.016,4.016,0,0,1-.892-2.758v-.212a4.453,4.453,0,0,1,.4-1.921A3.02,3.02,0,0,1-44.7-7.068a3.233,3.233,0,0,1,1.753-.465,2.966,2.966,0,0,1,2.068.745A2.663,2.663,0,0,1-40-4.854h-1.2a1.743,1.743,0,0,0-.543-1.179,1.691,1.691,0,0,0-1.207-.461,1.77,1.77,0,0,0-1.494.694,3.259,3.259,0,0,0-.53,2.006v.239a3.194,3.194,0,0,0,.526,1.969A1.779,1.779,0,0,0-42.943-.9Zm8.928.9a2.657,2.657,0,0,1-.178-.779A2.822,2.822,0,0,1-36.3.137a2.611,2.611,0,0,1-1.794-.619,2,2,0,0,1-.7-1.569,2.091,2.091,0,0,1,.878-1.794,4.142,4.142,0,0,1,2.471-.639h1.23v-.581a1.42,1.42,0,0,0-.4-1.056,1.593,1.593,0,0,0-1.169-.393,1.844,1.844,0,0,0-1.135.342,1.007,1.007,0,0,0-.458.827h-1.271a1.745,1.745,0,0,1,.393-1.07,2.683,2.683,0,0,1,1.066-.817,3.588,3.588,0,0,1,1.48-.3,2.924,2.924,0,0,1,2,.639,2.306,2.306,0,0,1,.752,1.76v3.4a4.162,4.162,0,0,0,.26,1.62V0Zm-2.1-.964a2.223,2.223,0,0,0,1.128-.308,1.861,1.861,0,0,0,.772-.8V-3.589h-.991q-2.324,0-2.324,1.36a1.151,1.151,0,0,0,.4.93A1.524,1.524,0,0,0-36.114-.964Zm4.84-2.8A4.333,4.333,0,0,1-30.468-6.5a2.551,2.551,0,0,1,2.112-1.036,2.565,2.565,0,0,1,2.058.889V-10.5h1.265V0H-26.2l-.062-.793a2.575,2.575,0,0,1-2.112.93,2.526,2.526,0,0,1-2.1-1.053,4.382,4.382,0,0,1-.81-2.748Zm1.265.144a3.281,3.281,0,0,0,.52,1.969,1.68,1.68,0,0,0,1.436.711A1.845,1.845,0,0,0-26.3-2.017v-3.4A1.859,1.859,0,0,0-28.041-6.46a1.687,1.687,0,0,0-1.449.718A3.612,3.612,0,0,0-30.01-3.616Zm6.6-.15a4.369,4.369,0,0,1,.427-1.955,3.187,3.187,0,0,1,1.189-1.34,3.238,3.238,0,0,1,1.74-.472,3.119,3.119,0,0,1,2.444,1.046,4.024,4.024,0,0,1,.933,2.782v.089a4.407,4.407,0,0,1-.414,1.938A3.14,3.14,0,0,1-18.269-.342a3.275,3.275,0,0,1-1.767.479A3.111,3.111,0,0,1-22.473-.909a4,4,0,0,1-.933-2.769Zm1.271.15a3.164,3.164,0,0,0,.571,1.976A1.827,1.827,0,0,0-20.036-.9,1.816,1.816,0,0,0-18.5-1.651a3.46,3.46,0,0,0,.567-2.116,3.159,3.159,0,0,0-.578-1.972,1.836,1.836,0,0,0-1.535-.755,1.816,1.816,0,0,0-1.511.745A3.434,3.434,0,0,0-22.135-3.616ZM-7.595,0H-8.866V-8.429l-2.55.937V-8.641L-7.793-10h.2ZM-.629-3.767A4.369,4.369,0,0,1-.2-5.722,3.187,3.187,0,0,1,.988-7.062a3.238,3.238,0,0,1,1.74-.472A3.119,3.119,0,0,1,5.171-6.487,4.024,4.024,0,0,1,6.1-3.705v.089a4.407,4.407,0,0,1-.414,1.938A3.14,3.14,0,0,1,4.508-.342,3.275,3.275,0,0,1,2.741.137,3.111,3.111,0,0,1,.3-.909,4,4,0,0,1-.629-3.678Zm1.271.15a3.164,3.164,0,0,0,.571,1.976A1.827,1.827,0,0,0,2.741-.9a1.816,1.816,0,0,0,1.531-.755A3.46,3.46,0,0,0,4.84-3.767a3.159,3.159,0,0,0-.578-1.972,1.836,1.836,0,0,0-1.535-.755,1.816,1.816,0,0,0-1.511.745A3.434,3.434,0,0,0,.643-3.616ZM17.548,0H11.026V-.909l3.445-3.828a8.185,8.185,0,0,0,1.056-1.412,2.356,2.356,0,0,0,.291-1.125,1.786,1.786,0,0,0-.472-1.278,1.649,1.649,0,0,0-1.258-.5,1.953,1.953,0,0,0-1.466.537A2.05,2.05,0,0,0,12.1-7.021H10.835a2.936,2.936,0,0,1,.885-2.222,3.282,3.282,0,0,1,2.369-.848,3.153,3.153,0,0,1,2.194.728,2.483,2.483,0,0,1,.807,1.938q0,1.47-1.873,3.5L12.551-1.032h5Zm4.628-3.76A4.333,4.333,0,0,1,22.982-6.5a2.551,2.551,0,0,1,2.112-1.036,2.565,2.565,0,0,1,2.058.889V-10.5h1.265V0H27.255l-.062-.793a2.575,2.575,0,0,1-2.112.93,2.526,2.526,0,0,1-2.1-1.053,4.382,4.382,0,0,1-.81-2.748Zm1.265.144a3.281,3.281,0,0,0,.52,1.969A1.68,1.68,0,0,0,25.4-.937a1.845,1.845,0,0,0,1.757-1.08v-3.4A1.859,1.859,0,0,0,25.409-6.46a1.687,1.687,0,0,0-1.449.718A3.612,3.612,0,0,0,23.44-3.616ZM31.753,0H30.488V-7.4h1.265ZM30.386-9.358a.755.755,0,0,1,.188-.52.706.706,0,0,1,.557-.212.717.717,0,0,1,.561.212.747.747,0,0,1,.191.52.722.722,0,0,1-.191.513.73.73,0,0,1-.561.205.718.718,0,0,1-.557-.205A.73.73,0,0,1,30.386-9.358Zm6.966,3.1a3.79,3.79,0,0,0-.622-.048,1.667,1.667,0,0,0-1.688,1.06V0H33.776V-7.4h1.23l.021.854a1.969,1.969,0,0,1,1.764-.991,1.292,1.292,0,0,1,.561.1Zm4.231,6.4a3.232,3.232,0,0,1-2.447-.988,3.666,3.666,0,0,1-.943-2.642v-.232a4.438,4.438,0,0,1,.42-1.965,3.28,3.28,0,0,1,1.176-1.354,2.956,2.956,0,0,1,1.637-.489,2.77,2.77,0,0,1,2.242.95,4.114,4.114,0,0,1,.8,2.721v.526H39.457A2.629,2.629,0,0,0,40.1-1.569,2.009,2.009,0,0,0,41.651-.9a2.2,2.2,0,0,0,1.135-.273,2.851,2.851,0,0,0,.813-.725l.772.6A3.106,3.106,0,0,1,41.583.137Zm-.157-6.631a1.687,1.687,0,0,0-1.285.557A2.708,2.708,0,0,0,39.5-4.375H43.2v-.1a2.409,2.409,0,0,0-.52-1.494A1.588,1.588,0,0,0,41.426-6.494ZM48.9-.9a1.822,1.822,0,0,0,1.183-.41,1.443,1.443,0,0,0,.561-1.025h1.2a2.293,2.293,0,0,1-.437,1.21,2.881,2.881,0,0,1-1.077.916A3.107,3.107,0,0,1,48.9.137a3.047,3.047,0,0,1-2.4-1.008A4.016,4.016,0,0,1,45.6-3.63v-.212A4.453,4.453,0,0,1,46-5.763a3.02,3.02,0,0,1,1.138-1.306,3.233,3.233,0,0,1,1.753-.465,2.966,2.966,0,0,1,2.068.745,2.663,2.663,0,0,1,.878,1.935h-1.2A1.743,1.743,0,0,0,50.1-6.033a1.691,1.691,0,0,0-1.207-.461A1.77,1.77,0,0,0,47.4-5.8a3.259,3.259,0,0,0-.53,2.006v.239a3.194,3.194,0,0,0,.526,1.969A1.779,1.779,0,0,0,48.9-.9Zm7.328,0a1.822,1.822,0,0,0,1.183-.41,1.443,1.443,0,0,0,.561-1.025h1.2a2.293,2.293,0,0,1-.437,1.21,2.881,2.881,0,0,1-1.077.916,3.107,3.107,0,0,1-1.425.342,3.047,3.047,0,0,1-2.4-1.008,4.016,4.016,0,0,1-.892-2.758v-.212a4.453,4.453,0,0,1,.4-1.921,3.02,3.02,0,0,1,1.138-1.306,3.233,3.233,0,0,1,1.753-.465,2.966,2.966,0,0,1,2.068.745,2.663,2.663,0,0,1,.878,1.935h-1.2a1.743,1.743,0,0,0-.543-1.179,1.691,1.691,0,0,0-1.207-.461,1.77,1.77,0,0,0-1.494.694,3.259,3.259,0,0,0-.53,2.006v.239a3.194,3.194,0,0,0,.526,1.969A1.779,1.779,0,0,0,56.226-.9Zm5.735.9H60.7V-7.4h1.265ZM60.594-9.358a.755.755,0,0,1,.188-.52.706.706,0,0,1,.557-.212.717.717,0,0,1,.561.212.747.747,0,0,1,.191.52.722.722,0,0,1-.191.513.73.73,0,0,1-.561.205.718.718,0,0,1-.557-.205A.73.73,0,0,1,60.594-9.358Zm3.056,5.592a4.369,4.369,0,0,1,.427-1.955,3.187,3.187,0,0,1,1.189-1.34,3.238,3.238,0,0,1,1.74-.472A3.119,3.119,0,0,1,69.45-6.487a4.024,4.024,0,0,1,.933,2.782v.089a4.407,4.407,0,0,1-.414,1.938A3.14,3.14,0,0,1,68.787-.342,3.275,3.275,0,0,1,67.02.137,3.111,3.111,0,0,1,64.583-.909a4,4,0,0,1-.933-2.769Zm1.271.15a3.164,3.164,0,0,0,.571,1.976A1.827,1.827,0,0,0,67.02-.9a1.816,1.816,0,0,0,1.531-.755,3.46,3.46,0,0,0,.567-2.116,3.159,3.159,0,0,0-.578-1.972,1.836,1.836,0,0,0-1.535-.755,1.816,1.816,0,0,0-1.511.745A3.434,3.434,0,0,0,64.921-3.616ZM73.165-7.4l.041.93a2.7,2.7,0,0,1,2.215-1.066q2.345,0,2.365,2.646V0H76.521V-4.895a1.7,1.7,0,0,0-.366-1.183,1.466,1.466,0,0,0-1.118-.383,1.825,1.825,0,0,0-1.08.328,2.228,2.228,0,0,0-.725.861V0H71.969V-7.4Zm9.6,7.533a3.232,3.232,0,0,1-2.447-.988,3.666,3.666,0,0,1-.943-2.642v-.232a4.438,4.438,0,0,1,.42-1.965,3.28,3.28,0,0,1,1.176-1.354,2.956,2.956,0,0,1,1.637-.489,2.77,2.77,0,0,1,2.242.95,4.114,4.114,0,0,1,.8,2.721v.526H80.637a2.629,2.629,0,0,0,.639,1.767A2.009,2.009,0,0,0,82.831-.9a2.2,2.2,0,0,0,1.135-.273,2.851,2.851,0,0,0,.813-.725l.772.6A3.106,3.106,0,0,1,82.763.137Zm-.157-6.631a1.687,1.687,0,0,0-1.285.557,2.708,2.708,0,0,0-.643,1.562h3.705v-.1a2.409,2.409,0,0,0-.52-1.494A1.588,1.588,0,0,0,82.605-6.494Zm8.812,4.532a.931.931,0,0,0-.386-.8,3.718,3.718,0,0,0-1.347-.489,6.367,6.367,0,0,1-1.524-.492,2.169,2.169,0,0,1-.834-.684,1.635,1.635,0,0,1-.27-.943A1.919,1.919,0,0,1,87.825-6.9a3,3,0,0,1,1.965-.629,3.091,3.091,0,0,1,2.041.649,2.063,2.063,0,0,1,.783,1.661H91.342a1.142,1.142,0,0,0-.441-.9,1.652,1.652,0,0,0-1.111-.376,1.729,1.729,0,0,0-1.08.3.947.947,0,0,0-.39.786.767.767,0,0,0,.362.69,4.458,4.458,0,0,0,1.309.444,6.821,6.821,0,0,1,1.535.506,2.239,2.239,0,0,1,.872.708,1.74,1.74,0,0,1,.284,1.008,1.893,1.893,0,0,1-.793,1.589,3.326,3.326,0,0,1-2.058.6,3.725,3.725,0,0,1-1.572-.314,2.557,2.557,0,0,1-1.07-.878,2.117,2.117,0,0,1-.386-1.22h1.265a1.309,1.309,0,0,0,.509,1.008A1.976,1.976,0,0,0,89.831-.9a2.039,2.039,0,0,0,1.152-.291A.893.893,0,0,0,91.417-1.962Zm2.871,3.944L93.57,1.49a3.3,3.3,0,0,0,.67-1.846V-1.5h1.237v.991A3.114,3.114,0,0,1,95.139.875,3.233,3.233,0,0,1,94.288,1.982Zm-192.346,12.4a4.429,4.429,0,0,1-.772,2.721,2.476,2.476,0,0,1-2.092,1.032,2.713,2.713,0,0,1-2.119-.854v3.562h-1.265V10.6h1.155l.062.82a2.605,2.605,0,0,1,2.146-.957,2.522,2.522,0,0,1,2.109,1,4.477,4.477,0,0,1,.776,2.8Zm-1.265-.144a3.268,3.268,0,0,0-.533-1.976,1.718,1.718,0,0,0-1.463-.725,1.859,1.859,0,0,0-1.723,1.019v3.534a1.863,1.863,0,0,0,1.736,1.012,1.71,1.71,0,0,0,1.446-.721A3.567,3.567,0,0,0-99.323,14.24Zm5.94,3.9a3.232,3.232,0,0,1-2.447-.988,3.666,3.666,0,0,1-.943-2.642v-.232a4.438,4.438,0,0,1,.42-1.965,3.28,3.28,0,0,1,1.176-1.354,2.956,2.956,0,0,1,1.637-.489,2.77,2.77,0,0,1,2.242.95,4.114,4.114,0,0,1,.8,2.721v.526h-5.011a2.629,2.629,0,0,0,.639,1.767,2.009,2.009,0,0,0,1.555.673,2.2,2.2,0,0,0,1.135-.273,2.851,2.851,0,0,0,.813-.725l.772.6A3.106,3.106,0,0,1-93.382,18.137Zm-.157-6.631a1.687,1.687,0,0,0-1.285.557,2.708,2.708,0,0,0-.643,1.562h3.705v-.1a2.409,2.409,0,0,0-.52-1.494A1.588,1.588,0,0,0-93.54,11.506Zm8.08.232a3.79,3.79,0,0,0-.622-.048,1.667,1.667,0,0,0-1.688,1.06V18h-1.265V10.6h1.23l.021.854a1.969,1.969,0,0,1,1.764-.991,1.292,1.292,0,0,1,.561.1Zm.69,2.5a4.369,4.369,0,0,1,.427-1.955,3.187,3.187,0,0,1,1.189-1.34,3.238,3.238,0,0,1,1.74-.472,3.119,3.119,0,0,1,2.444,1.046,4.024,4.024,0,0,1,.933,2.782v.089a4.407,4.407,0,0,1-.414,1.938,3.14,3.14,0,0,1-1.183,1.336,3.275,3.275,0,0,1-1.767.479,3.111,3.111,0,0,1-2.437-1.046,4,4,0,0,1-.933-2.769Zm1.271.15a3.164,3.164,0,0,0,.571,1.976A1.827,1.827,0,0,0-81.4,17.1a1.816,1.816,0,0,0,1.531-.755,3.46,3.46,0,0,0,.567-2.116,3.159,3.159,0,0,0-.578-1.972,1.836,1.836,0,0,0-1.535-.755,1.816,1.816,0,0,0-1.511.745A3.435,3.435,0,0,0-83.5,14.384Zm10.213-.144a4.347,4.347,0,0,1,.8-2.751,2.558,2.558,0,0,1,2.119-1.022,2.544,2.544,0,0,1,2.112.957l.062-.82h1.155v7.219a3.009,3.009,0,0,1-.851,2.263,3.141,3.141,0,0,1-2.287.827,3.8,3.8,0,0,1-1.565-.342,2.7,2.7,0,0,1-1.169-.937l.656-.759a2.473,2.473,0,0,0,1.989,1,1.938,1.938,0,0,0,1.439-.52,1.986,1.986,0,0,0,.516-1.463v-.636a2.6,2.6,0,0,1-2.071.875,2.527,2.527,0,0,1-2.1-1.046A4.571,4.571,0,0,1-73.285,14.24Zm1.271.144a3.316,3.316,0,0,0,.513,1.965,1.666,1.666,0,0,0,1.436.714,1.852,1.852,0,0,0,1.757-1.087V12.6a1.874,1.874,0,0,0-1.743-1.06,1.681,1.681,0,0,0-1.442.718A3.612,3.612,0,0,0-72.013,14.384ZM-63.755,18H-65.02V10.6h1.265Zm-1.367-9.358a.755.755,0,0,1,.188-.52.706.706,0,0,1,.557-.212.717.717,0,0,1,.561.212.747.747,0,0,1,.191.52.722.722,0,0,1-.191.513.73.73,0,0,1-.561.205.718.718,0,0,1-.557-.205A.73.73,0,0,1-65.123,8.642Zm6.966,3.1a3.79,3.79,0,0,0-.622-.048,1.667,1.667,0,0,0-1.688,1.06V18h-1.265V10.6h1.23l.021.854a1.969,1.969,0,0,1,1.764-.991,1.292,1.292,0,0,1,.561.1ZM-52.7,18a2.657,2.657,0,0,1-.178-.779,2.822,2.822,0,0,1-2.105.916,2.611,2.611,0,0,1-1.794-.619,2,2,0,0,1-.7-1.569,2.091,2.091,0,0,1,.878-1.794,4.142,4.142,0,0,1,2.471-.639h1.23v-.581a1.42,1.42,0,0,0-.4-1.056,1.593,1.593,0,0,0-1.169-.393,1.844,1.844,0,0,0-1.135.342,1.007,1.007,0,0,0-.458.827H-57.33a1.745,1.745,0,0,1,.393-1.07,2.683,2.683,0,0,1,1.066-.817,3.588,3.588,0,0,1,1.48-.3,2.924,2.924,0,0,1,2,.639,2.306,2.306,0,0,1,.752,1.76v3.4a4.162,4.162,0,0,0,.26,1.62V18Zm-2.1-.964a2.223,2.223,0,0,0,1.128-.308,1.861,1.861,0,0,0,.772-.8V14.411h-.991q-2.324,0-2.324,1.36a1.151,1.151,0,0,0,.4.93A1.524,1.524,0,0,0-54.8,17.036Zm6.344-6.433.041.93A2.7,2.7,0,0,1-46.2,10.467q2.345,0,2.365,2.646V18H-45.1V13.105a1.7,1.7,0,0,0-.366-1.183,1.466,1.466,0,0,0-1.118-.383,1.825,1.825,0,0,0-1.08.328,2.228,2.228,0,0,0-.725.861V18h-1.265V10.6Zm6.221,3.637a4.333,4.333,0,0,1,.807-2.738,2.551,2.551,0,0,1,2.112-1.036,2.565,2.565,0,0,1,2.058.889V7.5h1.265V18h-1.162l-.062-.793a2.575,2.575,0,0,1-2.112.93,2.526,2.526,0,0,1-2.1-1.053,4.382,4.382,0,0,1-.81-2.748Zm1.265.144a3.281,3.281,0,0,0,.52,1.969,1.68,1.68,0,0,0,1.436.711,1.845,1.845,0,0,0,1.757-1.08v-3.4A1.859,1.859,0,0,0-39,11.54a1.687,1.687,0,0,0-1.449.718A3.612,3.612,0,0,0-40.971,14.384Zm6.6-.15a4.369,4.369,0,0,1,.427-1.955,3.187,3.187,0,0,1,1.189-1.34,3.238,3.238,0,0,1,1.74-.472,3.119,3.119,0,0,1,2.444,1.046,4.024,4.024,0,0,1,.933,2.782v.089a4.407,4.407,0,0,1-.414,1.938,3.14,3.14,0,0,1-1.183,1.336A3.275,3.275,0,0,1-31,18.137a3.111,3.111,0,0,1-2.437-1.046,4,4,0,0,1-.933-2.769Zm1.271.15a3.164,3.164,0,0,0,.571,1.976A1.827,1.827,0,0,0-31,17.1a1.816,1.816,0,0,0,1.531-.755,3.46,3.46,0,0,0,.567-2.116,3.159,3.159,0,0,0-.578-1.972,1.836,1.836,0,0,0-1.535-.755,1.816,1.816,0,0,0-1.511.745A3.435,3.435,0,0,0-33.1,14.384Zm13.583,3.753a3.232,3.232,0,0,1-2.447-.988,3.666,3.666,0,0,1-.943-2.642v-.232a4.438,4.438,0,0,1,.42-1.965,3.28,3.28,0,0,1,1.176-1.354,2.956,2.956,0,0,1,1.637-.489,2.77,2.77,0,0,1,2.242.95,4.114,4.114,0,0,1,.8,2.721v.526h-5.011A2.629,2.629,0,0,0-21,16.431a2.009,2.009,0,0,0,1.555.673,2.2,2.2,0,0,0,1.135-.273,2.851,2.851,0,0,0,.813-.725l.772.6A3.106,3.106,0,0,1-19.513,18.137Zm-.157-6.631a1.687,1.687,0,0,0-1.285.557,2.708,2.708,0,0,0-.643,1.562h3.705v-.1a2.409,2.409,0,0,0-.52-1.494A1.588,1.588,0,0,0-19.67,11.506Zm5.7-.9.041.93a2.7,2.7,0,0,1,2.215-1.066q2.345,0,2.365,2.646V18h-1.265V13.105a1.7,1.7,0,0,0-.366-1.183A1.466,1.466,0,0,0-12.1,11.54a1.825,1.825,0,0,0-1.08.328,2.228,2.228,0,0,0-.725.861V18h-1.265V10.6Zm9.687,3.637A4.333,4.333,0,0,1-3.476,11.5a2.551,2.551,0,0,1,2.112-1.036,2.565,2.565,0,0,1,2.058.889V7.5H1.958V18H.8l-.062-.793a2.575,2.575,0,0,1-2.112.93,2.526,2.526,0,0,1-2.1-1.053,4.382,4.382,0,0,1-.81-2.748Zm1.265.144a3.281,3.281,0,0,0,.52,1.969,1.68,1.68,0,0,0,1.436.711,1.845,1.845,0,0,0,1.757-1.08v-3.4A1.859,1.859,0,0,0-1.049,11.54a1.687,1.687,0,0,0-1.449.718A3.612,3.612,0,0,0-3.018,14.384ZM5.294,18H4.03V10.6H5.294ZM3.927,8.642a.755.755,0,0,1,.188-.52.706.706,0,0,1,.557-.212.717.717,0,0,1,.561.212.747.747,0,0,1,.191.52.722.722,0,0,1-.191.513.73.73,0,0,1-.561.205.718.718,0,0,1-.557-.205A.73.73,0,0,1,3.927,8.642ZM11.884,18a2.657,2.657,0,0,1-.178-.779,2.822,2.822,0,0,1-2.105.916,2.611,2.611,0,0,1-1.794-.619,2,2,0,0,1-.7-1.569,2.091,2.091,0,0,1,.878-1.794,4.142,4.142,0,0,1,2.471-.639h1.23v-.581a1.42,1.42,0,0,0-.4-1.056,1.593,1.593,0,0,0-1.169-.393,1.844,1.844,0,0,0-1.135.342,1.007,1.007,0,0,0-.458.827H7.256a1.745,1.745,0,0,1,.393-1.07,2.683,2.683,0,0,1,1.066-.817,3.588,3.588,0,0,1,1.48-.3,2.924,2.924,0,0,1,2,.639,2.306,2.306,0,0,1,.752,1.76v3.4a4.162,4.162,0,0,0,.26,1.62V18Zm-2.1-.964a2.223,2.223,0,0,0,1.128-.308,1.861,1.861,0,0,0,.772-.8V14.411h-.991q-2.324,0-2.324,1.36a1.151,1.151,0,0,0,.4.93A1.524,1.524,0,0,0,9.786,17.036Zm4.847-2.8a4.347,4.347,0,0,1,.8-2.751,2.558,2.558,0,0,1,2.119-1.022,2.544,2.544,0,0,1,2.112.957l.062-.82H20.88v7.219a3.009,3.009,0,0,1-.851,2.263,3.141,3.141,0,0,1-2.287.827,3.8,3.8,0,0,1-1.565-.342,2.7,2.7,0,0,1-1.169-.937l.656-.759a2.473,2.473,0,0,0,1.989,1,1.938,1.938,0,0,0,1.439-.52,1.986,1.986,0,0,0,.516-1.463v-.636a2.6,2.6,0,0,1-2.071.875,2.527,2.527,0,0,1-2.1-1.046A4.571,4.571,0,0,1,14.632,14.24Zm1.271.144a3.316,3.316,0,0,0,.513,1.965,1.666,1.666,0,0,0,1.436.714,1.852,1.852,0,0,0,1.757-1.087V12.6a1.874,1.874,0,0,0-1.743-1.06,1.681,1.681,0,0,0-1.442.718A3.612,3.612,0,0,0,15.9,14.384Zm6.549-.15a4.369,4.369,0,0,1,.427-1.955,3.187,3.187,0,0,1,1.189-1.34,3.238,3.238,0,0,1,1.74-.472,3.119,3.119,0,0,1,2.444,1.046,4.024,4.024,0,0,1,.933,2.782v.089a4.407,4.407,0,0,1-.414,1.938,3.14,3.14,0,0,1-1.183,1.336,3.275,3.275,0,0,1-1.767.479,3.111,3.111,0,0,1-2.437-1.046,4,4,0,0,1-.933-2.769Zm1.271.15a3.164,3.164,0,0,0,.571,1.976,1.934,1.934,0,0,0,3.059-.01,3.46,3.46,0,0,0,.567-2.116,3.159,3.159,0,0,0-.578-1.972,1.836,1.836,0,0,0-1.535-.755,1.816,1.816,0,0,0-1.511.745A3.435,3.435,0,0,0,23.724,14.384Zm8.244-3.78.041.93a2.7,2.7,0,0,1,2.215-1.066q2.345,0,2.365,2.646V18H35.325V13.105a1.7,1.7,0,0,0-.366-1.183,1.466,1.466,0,0,0-1.118-.383,1.825,1.825,0,0,0-1.08.328,2.228,2.228,0,0,0-.725.861V18H30.772V10.6ZM43.063,18a2.657,2.657,0,0,1-.178-.779,2.822,2.822,0,0,1-2.105.916,2.611,2.611,0,0,1-1.794-.619,2,2,0,0,1-.7-1.569,2.091,2.091,0,0,1,.878-1.794,4.142,4.142,0,0,1,2.471-.639h1.23v-.581a1.42,1.42,0,0,0-.4-1.056,1.593,1.593,0,0,0-1.169-.393,1.844,1.844,0,0,0-1.135.342,1.007,1.007,0,0,0-.458.827H38.435a1.745,1.745,0,0,1,.393-1.07,2.683,2.683,0,0,1,1.066-.817,3.588,3.588,0,0,1,1.48-.3,2.924,2.924,0,0,1,2,.639,2.306,2.306,0,0,1,.752,1.76v3.4a4.162,4.162,0,0,0,.26,1.62V18Zm-2.1-.964a2.223,2.223,0,0,0,1.128-.308,1.861,1.861,0,0,0,.772-.8V14.411h-.991q-2.324,0-2.324,1.36a1.151,1.151,0,0,0,.4.93A1.524,1.524,0,0,0,40.964,17.036ZM47.486,18H46.221V7.5h1.265Zm8.559.137a3.232,3.232,0,0,1-2.447-.988,3.666,3.666,0,0,1-.943-2.642v-.232a4.438,4.438,0,0,1,.42-1.965,3.28,3.28,0,0,1,1.176-1.354,2.956,2.956,0,0,1,1.637-.489,2.77,2.77,0,0,1,2.242.95,4.114,4.114,0,0,1,.8,2.721v.526H53.918a2.629,2.629,0,0,0,.639,1.767,2.009,2.009,0,0,0,1.555.673,2.2,2.2,0,0,0,1.135-.273,2.851,2.851,0,0,0,.813-.725l.772.6A3.106,3.106,0,0,1,56.044,18.137Zm-.157-6.631a1.687,1.687,0,0,0-1.285.557,2.708,2.708,0,0,0-.643,1.562h3.705v-.1a2.409,2.409,0,0,0-.52-1.494A1.588,1.588,0,0,0,55.887,11.506ZM61.766,18H60.5V7.5h1.265Zm6.679-7.4.034.82a2.732,2.732,0,0,1,2.194-.957,2.115,2.115,0,0,1,2.112,1.189,2.8,2.8,0,0,1,.96-.861,2.837,2.837,0,0,1,1.4-.328q2.434,0,2.475,2.577V18H76.354V13.119a1.7,1.7,0,0,0-.362-1.186,1.6,1.6,0,0,0-1.217-.393,1.677,1.677,0,0,0-1.169.42,1.706,1.706,0,0,0-.54,1.131V18H71.794V13.153a1.411,1.411,0,0,0-1.579-1.613,1.692,1.692,0,0,0-1.7,1.06V18H67.249V10.6Zm10.746,3.63a4.369,4.369,0,0,1,.427-1.955,3.187,3.187,0,0,1,1.189-1.34,3.238,3.238,0,0,1,1.74-.472,3.119,3.119,0,0,1,2.444,1.046,4.024,4.024,0,0,1,.933,2.782v.089a4.407,4.407,0,0,1-.414,1.938,3.14,3.14,0,0,1-1.183,1.336,3.275,3.275,0,0,1-1.767.479,3.111,3.111,0,0,1-2.437-1.046,4,4,0,0,1-.933-2.769Zm1.271.15a3.164,3.164,0,0,0,.571,1.976,1.934,1.934,0,0,0,3.059-.01,3.46,3.46,0,0,0,.567-2.116,3.159,3.159,0,0,0-.578-1.972,1.836,1.836,0,0,0-1.535-.755,1.816,1.816,0,0,0-1.511.745A3.435,3.435,0,0,0,80.462,14.384ZM88.884,18H87.62V7.5h1.265ZM90.6,14.24a4.333,4.333,0,0,1,.807-2.738,2.745,2.745,0,0,1,4.17-.147V7.5h1.265V18H95.679l-.062-.793a2.575,2.575,0,0,1-2.112.93,2.526,2.526,0,0,1-2.1-1.053,4.382,4.382,0,0,1-.81-2.748Zm1.265.144a3.281,3.281,0,0,0,.52,1.969,1.68,1.68,0,0,0,1.436.711,1.845,1.845,0,0,0,1.757-1.08v-3.4a1.859,1.859,0,0,0-1.743-1.046,1.687,1.687,0,0,0-1.449.718A3.612,3.612,0,0,0,91.865,14.384Zm10.008,3.753a3.232,3.232,0,0,1-2.447-.988,3.666,3.666,0,0,1-.943-2.642v-.232a4.438,4.438,0,0,1,.42-1.965,3.28,3.28,0,0,1,1.176-1.354,2.956,2.956,0,0,1,1.637-.489,2.77,2.77,0,0,1,2.242.95,4.114,4.114,0,0,1,.8,2.721v.526H99.747a2.629,2.629,0,0,0,.639,1.767,2.009,2.009,0,0,0,1.555.673,2.2,2.2,0,0,0,1.135-.273,2.851,2.851,0,0,0,.813-.725l.772.6A3.106,3.106,0,0,1,101.873,18.137Zm-.157-6.631a1.687,1.687,0,0,0-1.285.557,2.708,2.708,0,0,0-.643,1.562h3.705v-.1a2.409,2.409,0,0,0-.52-1.494A1.588,1.588,0,0,0,101.715,11.506Z" transform="translate(851.051 7322)" fill="#12263f"/>
    <path id="Trazado_898397" data-name="Trazado 898397" d="M-58.143,0h-1.319V-4.6H-64.48V0h-1.312V-9.953h1.313v4.279h5.018V-9.953h1.319Zm3.507,0H-55.9V-7.4h1.265ZM-56-9.358a.755.755,0,0,1,.188-.52.706.706,0,0,1,.557-.212.717.717,0,0,1,.561.212.747.747,0,0,1,.191.52.722.722,0,0,1-.191.513.73.73,0,0,1-.561.205.718.718,0,0,1-.557-.205A.73.73,0,0,1-56-9.358ZM-51.239,0H-52.5V-10.5h1.265Zm1.688-3.767a4.369,4.369,0,0,1,.427-1.955,3.187,3.187,0,0,1,1.189-1.34,3.238,3.238,0,0,1,1.74-.472A3.119,3.119,0,0,1-43.75-6.487a4.024,4.024,0,0,1,.933,2.782v.089a4.407,4.407,0,0,1-.414,1.938A3.14,3.14,0,0,1-44.413-.342,3.275,3.275,0,0,1-46.18.137,3.111,3.111,0,0,1-48.617-.909a4,4,0,0,1-.933-2.769Zm1.271.15a3.164,3.164,0,0,0,.571,1.976A1.827,1.827,0,0,0-46.18-.9a1.816,1.816,0,0,0,1.531-.755,3.46,3.46,0,0,0,.567-2.116,3.159,3.159,0,0,0-.578-1.972,1.836,1.836,0,0,0-1.535-.755,1.816,1.816,0,0,0-1.511.745A3.434,3.434,0,0,0-48.279-3.616ZM-34.7.137a3.232,3.232,0,0,1-2.447-.988,3.666,3.666,0,0,1-.943-2.642v-.232a4.438,4.438,0,0,1,.42-1.965A3.28,3.28,0,0,1-36.49-7.044a2.956,2.956,0,0,1,1.637-.489,2.77,2.77,0,0,1,2.242.95,4.114,4.114,0,0,1,.8,2.721v.526h-5.011a2.629,2.629,0,0,0,.639,1.767A2.009,2.009,0,0,0-34.627-.9a2.2,2.2,0,0,0,1.135-.273,2.851,2.851,0,0,0,.813-.725l.772.6A3.106,3.106,0,0,1-34.7.137Zm-.157-6.631a1.687,1.687,0,0,0-1.285.557,2.708,2.708,0,0,0-.643,1.562h3.705v-.1a2.409,2.409,0,0,0-.52-1.494A1.588,1.588,0,0,0-34.853-6.494Zm5.7-.9.041.93A2.7,2.7,0,0,1-26.9-7.533q2.345,0,2.365,2.646V0H-25.8V-4.895a1.7,1.7,0,0,0-.366-1.183,1.466,1.466,0,0,0-1.118-.383,1.825,1.825,0,0,0-1.08.328,2.228,2.228,0,0,0-.725.861V0h-1.265V-7.4Zm11.184,0,.034.82a2.732,2.732,0,0,1,2.194-.957,2.115,2.115,0,0,1,2.112,1.189,2.8,2.8,0,0,1,.96-.861,2.837,2.837,0,0,1,1.4-.328q2.434,0,2.475,2.577V0h-1.265V-4.881a1.7,1.7,0,0,0-.362-1.186,1.6,1.6,0,0,0-1.217-.393,1.677,1.677,0,0,0-1.169.42,1.706,1.706,0,0,0-.54,1.131V0h-1.271V-4.847A1.411,1.411,0,0,0-16.2-6.46,1.692,1.692,0,0,0-17.9-5.4V0h-1.265V-7.4Zm10.746,3.63a4.369,4.369,0,0,1,.427-1.955,3.187,3.187,0,0,1,1.189-1.34,3.238,3.238,0,0,1,1.74-.472A3.119,3.119,0,0,1-1.422-6.487,4.024,4.024,0,0,1-.489-3.705v.089A4.407,4.407,0,0,1-.9-1.678,3.14,3.14,0,0,1-2.085-.342,3.275,3.275,0,0,1-3.852.137,3.111,3.111,0,0,1-6.289-.909a4,4,0,0,1-.933-2.769Zm1.271.15A3.164,3.164,0,0,0-5.38-1.641,1.827,1.827,0,0,0-3.852-.9a1.816,1.816,0,0,0,1.531-.755,3.46,3.46,0,0,0,.567-2.116,3.159,3.159,0,0,0-.578-1.972,1.836,1.836,0,0,0-1.535-.755,1.816,1.816,0,0,0-1.511.745A3.434,3.434,0,0,0-5.951-3.616ZM2.471,0H1.207V-10.5H2.471ZM4.187-3.76A4.333,4.333,0,0,1,4.994-6.5,2.551,2.551,0,0,1,7.106-7.533a2.565,2.565,0,0,1,2.058.889V-10.5h1.265V0H9.266L9.2-.793a2.575,2.575,0,0,1-2.112.93A2.526,2.526,0,0,1,5-.916a4.382,4.382,0,0,1-.81-2.748Zm1.265.144a3.281,3.281,0,0,0,.52,1.969,1.68,1.68,0,0,0,1.436.711,1.845,1.845,0,0,0,1.757-1.08v-3.4A1.859,1.859,0,0,0,7.42-6.46a1.687,1.687,0,0,0-1.449.718A3.612,3.612,0,0,0,5.452-3.616ZM15.459.137a3.232,3.232,0,0,1-2.447-.988,3.666,3.666,0,0,1-.943-2.642v-.232a4.438,4.438,0,0,1,.42-1.965,3.28,3.28,0,0,1,1.176-1.354A2.956,2.956,0,0,1,15.3-7.533a2.77,2.77,0,0,1,2.242.95,4.114,4.114,0,0,1,.8,2.721v.526H13.333a2.629,2.629,0,0,0,.639,1.767A2.009,2.009,0,0,0,15.528-.9a2.2,2.2,0,0,0,1.135-.273,2.851,2.851,0,0,0,.813-.725l.772.6A3.106,3.106,0,0,1,15.459.137ZM15.3-6.494a1.687,1.687,0,0,0-1.285.557,2.708,2.708,0,0,0-.643,1.562H17.08v-.1a2.409,2.409,0,0,0-.52-1.494A1.588,1.588,0,0,0,15.3-6.494ZM29.535-3.616a4.4,4.4,0,0,1-.779,2.724A2.49,2.49,0,0,1,26.664.137,2.578,2.578,0,0,1,24.5-.854L24.435,0H23.273V-10.5h1.265v3.917a2.564,2.564,0,0,1,2.112-.95,2.505,2.505,0,0,1,2.116,1.019,4.53,4.53,0,0,1,.769,2.789ZM28.27-3.76a3.417,3.417,0,0,0-.5-2,1.652,1.652,0,0,0-1.436-.7,1.857,1.857,0,0,0-1.8,1.162v3.2A1.909,1.909,0,0,0,26.349-.937a1.643,1.643,0,0,0,1.415-.7A3.634,3.634,0,0,0,28.27-3.76Zm2.522-.007a4.369,4.369,0,0,1,.427-1.955,3.187,3.187,0,0,1,1.189-1.34,3.238,3.238,0,0,1,1.74-.472,3.119,3.119,0,0,1,2.444,1.046,4.024,4.024,0,0,1,.933,2.782v.089a4.407,4.407,0,0,1-.414,1.938A3.14,3.14,0,0,1,35.93-.342a3.275,3.275,0,0,1-1.767.479A3.111,3.111,0,0,1,31.726-.909a4,4,0,0,1-.933-2.769Zm1.271.15a3.164,3.164,0,0,0,.571,1.976A1.827,1.827,0,0,0,34.163-.9a1.816,1.816,0,0,0,1.531-.755,3.46,3.46,0,0,0,.567-2.116,3.159,3.159,0,0,0-.578-1.972,1.836,1.836,0,0,0-1.535-.755,1.816,1.816,0,0,0-1.511.745A3.434,3.434,0,0,0,32.064-3.616ZM40.486,0H39.221V-10.5h1.265Zm6.33-1.962a.931.931,0,0,0-.386-.8,3.718,3.718,0,0,0-1.347-.489,6.367,6.367,0,0,1-1.524-.492,2.169,2.169,0,0,1-.834-.684,1.635,1.635,0,0,1-.27-.943A1.919,1.919,0,0,1,43.224-6.9a3,3,0,0,1,1.965-.629,3.091,3.091,0,0,1,2.041.649,2.063,2.063,0,0,1,.783,1.661H46.741a1.142,1.142,0,0,0-.441-.9,1.652,1.652,0,0,0-1.111-.376,1.729,1.729,0,0,0-1.08.3.947.947,0,0,0-.39.786.767.767,0,0,0,.362.69,4.458,4.458,0,0,0,1.309.444,6.821,6.821,0,0,1,1.535.506,2.239,2.239,0,0,1,.872.708,1.74,1.74,0,0,1,.284,1.008,1.893,1.893,0,0,1-.793,1.589,3.326,3.326,0,0,1-2.058.6,3.725,3.725,0,0,1-1.572-.314,2.557,2.557,0,0,1-1.07-.878,2.117,2.117,0,0,1-.386-1.22h1.265a1.309,1.309,0,0,0,.509,1.008A1.976,1.976,0,0,0,45.23-.9a2.039,2.039,0,0,0,1.152-.291A.893.893,0,0,0,46.816-1.962ZM51.1,0H49.837V-7.4H51.1ZM49.735-9.358a.755.755,0,0,1,.188-.52.706.706,0,0,1,.557-.212.717.717,0,0,1,.561.212.747.747,0,0,1,.191.52.722.722,0,0,1-.191.513.73.73,0,0,1-.561.205.718.718,0,0,1-.557-.205A.73.73,0,0,1,49.735-9.358ZM54.5,0H53.235V-10.5H54.5Zm3.4,0H56.632V-10.5H57.9Zm1.688-3.767a4.369,4.369,0,0,1,.427-1.955A3.187,3.187,0,0,1,61.2-7.062a3.238,3.238,0,0,1,1.74-.472,3.119,3.119,0,0,1,2.444,1.046,4.024,4.024,0,0,1,.933,2.782v.089a4.407,4.407,0,0,1-.414,1.938A3.14,3.14,0,0,1,64.723-.342a3.275,3.275,0,0,1-1.767.479A3.111,3.111,0,0,1,60.519-.909a4,4,0,0,1-.933-2.769Zm1.271.15a3.164,3.164,0,0,0,.571,1.976A1.827,1.827,0,0,0,62.956-.9a1.816,1.816,0,0,0,1.531-.755,3.46,3.46,0,0,0,.567-2.116,3.159,3.159,0,0,0-.578-1.972,1.836,1.836,0,0,0-1.535-.755,1.816,1.816,0,0,0-1.511.745A3.434,3.434,0,0,0,60.857-3.616Z" transform="translate(1097.051 7331)" fill="#12263f"/>
    <path id="Trazado_898396" data-name="Trazado 898396" d="M-60.8,0V-9.953h3.254a3.777,3.777,0,0,1,2.437.67A2.414,2.414,0,0,1-54.294-7.3a2.022,2.022,0,0,1-.4,1.234,2.57,2.57,0,0,1-1.08.831,2.308,2.308,0,0,1,1.275.858,2.462,2.462,0,0,1,.468,1.507A2.662,2.662,0,0,1-54.9-.766,3.59,3.59,0,0,1-57.35,0Zm1.313-4.655v3.582h2.167a2.087,2.087,0,0,0,1.446-.475,1.669,1.669,0,0,0,.53-1.309q0-1.8-1.955-1.8Zm0-1.053h1.982A2.078,2.078,0,0,0-56.13-6.14a1.447,1.447,0,0,0,.516-1.171,1.423,1.423,0,0,0-.479-1.2,2.35,2.35,0,0,0-1.456-.373H-59.49Zm6.87,1.941a4.369,4.369,0,0,1,.427-1.955A3.187,3.187,0,0,1-51-7.062a3.238,3.238,0,0,1,1.74-.472,3.119,3.119,0,0,1,2.444,1.046,4.024,4.024,0,0,1,.933,2.782v.089A4.407,4.407,0,0,1-46.3-1.678,3.14,3.14,0,0,1-47.482-.342,3.275,3.275,0,0,1-49.25.137,3.111,3.111,0,0,1-51.687-.909a4,4,0,0,1-.933-2.769Zm1.271.15a3.164,3.164,0,0,0,.571,1.976A1.827,1.827,0,0,0-49.25-.9a1.816,1.816,0,0,0,1.531-.755,3.46,3.46,0,0,0,.567-2.116,3.159,3.159,0,0,0-.578-1.972,1.836,1.836,0,0,0-1.535-.755,1.816,1.816,0,0,0-1.511.745A3.434,3.434,0,0,0-51.348-3.616ZM-42.926,0h-1.265V-10.5h1.265Zm6.33-1.962a.931.931,0,0,0-.386-.8,3.718,3.718,0,0,0-1.347-.489,6.367,6.367,0,0,1-1.524-.492,2.169,2.169,0,0,1-.834-.684,1.635,1.635,0,0,1-.27-.943A1.919,1.919,0,0,1-40.188-6.9a3,3,0,0,1,1.965-.629,3.091,3.091,0,0,1,2.041.649A2.063,2.063,0,0,1-35.4-5.223h-1.271a1.142,1.142,0,0,0-.441-.9,1.652,1.652,0,0,0-1.111-.376,1.729,1.729,0,0,0-1.08.3.947.947,0,0,0-.39.786.767.767,0,0,0,.362.69,4.458,4.458,0,0,0,1.309.444,6.821,6.821,0,0,1,1.535.506,2.239,2.239,0,0,1,.872.708,1.74,1.74,0,0,1,.284,1.008,1.893,1.893,0,0,1-.793,1.589,3.326,3.326,0,0,1-2.058.6,3.725,3.725,0,0,1-1.572-.314,2.557,2.557,0,0,1-1.07-.878,2.117,2.117,0,0,1-.386-1.22h1.265a1.309,1.309,0,0,0,.509,1.008A1.976,1.976,0,0,0-38.182-.9a2.039,2.039,0,0,0,1.152-.291A.893.893,0,0,0-36.6-1.962ZM-32.31,0h-1.265V-7.4h1.265Zm-1.367-9.358a.755.755,0,0,1,.188-.52.706.706,0,0,1,.557-.212.717.717,0,0,1,.561.212.747.747,0,0,1,.191.52.722.722,0,0,1-.191.513.73.73,0,0,1-.561.205.718.718,0,0,1-.557-.205A.73.73,0,0,1-33.677-9.358ZM-28.913,0h-1.265V-10.5h1.265Zm3.4,0H-26.78V-10.5h1.265Zm1.688-3.767A4.369,4.369,0,0,1-23.4-5.722a3.187,3.187,0,0,1,1.189-1.34,3.238,3.238,0,0,1,1.74-.472,3.119,3.119,0,0,1,2.444,1.046,4.024,4.024,0,0,1,.933,2.782v.089a4.407,4.407,0,0,1-.414,1.938A3.14,3.14,0,0,1-18.689-.342a3.275,3.275,0,0,1-1.767.479A3.111,3.111,0,0,1-22.894-.909a4,4,0,0,1-.933-2.769Zm1.271.15a3.164,3.164,0,0,0,.571,1.976A1.827,1.827,0,0,0-20.457-.9a1.816,1.816,0,0,0,1.531-.755,3.46,3.46,0,0,0,.567-2.116,3.159,3.159,0,0,0-.578-1.972,1.836,1.836,0,0,0-1.535-.755,1.816,1.816,0,0,0-1.511.745A3.434,3.434,0,0,0-22.555-3.616Zm12.229-5.571V-7.4h1.381v.978h-1.381v4.593a1.027,1.027,0,0,0,.185.667.777.777,0,0,0,.629.222,3.062,3.062,0,0,0,.6-.082V0a3.688,3.688,0,0,1-.971.136A1.575,1.575,0,0,1-11.16-.376a2.2,2.2,0,0,1-.431-1.456V-6.419h-1.347V-7.4h1.347V-9.187ZM-6.094,0H-7.359V-7.4h1.265ZM-7.461-9.358a.755.755,0,0,1,.188-.52.706.706,0,0,1,.557-.212.717.717,0,0,1,.561.212.747.747,0,0,1,.191.52.722.722,0,0,1-.191.513.73.73,0,0,1-.561.205.718.718,0,0,1-.557-.205A.73.73,0,0,1-7.461-9.358Zm4.58,8.326H1.446V0H-4.426V-.93L-.345-6.351h-4.02V-7.4H1.241v.9ZM7.434,0a2.657,2.657,0,0,1-.178-.779A2.822,2.822,0,0,1,5.151.137,2.611,2.611,0,0,1,3.356-.482a2,2,0,0,1-.7-1.569,2.091,2.091,0,0,1,.878-1.794,4.142,4.142,0,0,1,2.471-.639h1.23v-.581a1.42,1.42,0,0,0-.4-1.056A1.593,1.593,0,0,0,5.67-6.515a1.844,1.844,0,0,0-1.135.342,1.007,1.007,0,0,0-.458.827H2.806A1.745,1.745,0,0,1,3.2-6.416a2.683,2.683,0,0,1,1.066-.817,3.588,3.588,0,0,1,1.48-.3,2.924,2.924,0,0,1,2,.639A2.306,2.306,0,0,1,8.5-5.134v3.4a4.162,4.162,0,0,0,.26,1.62V0Zm-2.1-.964a2.223,2.223,0,0,0,1.128-.308,1.861,1.861,0,0,0,.772-.8V-3.589H6.245q-2.324,0-2.324,1.36a1.151,1.151,0,0,0,.4.93A1.524,1.524,0,0,0,5.335-.964Zm4.84-2.8A4.333,4.333,0,0,1,10.982-6.5a2.551,2.551,0,0,1,2.112-1.036,2.565,2.565,0,0,1,2.058.889V-10.5h1.265V0H15.254l-.062-.793a2.575,2.575,0,0,1-2.112.93,2.526,2.526,0,0,1-2.1-1.053,4.382,4.382,0,0,1-.81-2.748Zm1.265.144a3.281,3.281,0,0,0,.52,1.969A1.68,1.68,0,0,0,13.4-.937a1.845,1.845,0,0,0,1.757-1.08v-3.4A1.859,1.859,0,0,0,13.409-6.46a1.687,1.687,0,0,0-1.449.718A3.612,3.612,0,0,0,11.44-3.616Zm6.6-.15a4.369,4.369,0,0,1,.427-1.955,3.187,3.187,0,0,1,1.189-1.34,3.238,3.238,0,0,1,1.74-.472,3.119,3.119,0,0,1,2.444,1.046,4.024,4.024,0,0,1,.933,2.782v.089a4.407,4.407,0,0,1-.414,1.938A3.14,3.14,0,0,1,23.181-.342a3.275,3.275,0,0,1-1.767.479A3.111,3.111,0,0,1,18.977-.909a4,4,0,0,1-.933-2.769Zm1.271.15a3.164,3.164,0,0,0,.571,1.976A1.827,1.827,0,0,0,21.414-.9a1.816,1.816,0,0,0,1.531-.755,3.46,3.46,0,0,0,.567-2.116,3.159,3.159,0,0,0-.578-1.972A1.836,1.836,0,0,0,21.4-6.494a1.816,1.816,0,0,0-1.511.745A3.434,3.434,0,0,0,19.315-3.616ZM32.9.137a3.232,3.232,0,0,1-2.447-.988,3.666,3.666,0,0,1-.943-2.642v-.232a4.438,4.438,0,0,1,.42-1.965A3.28,3.28,0,0,1,31.1-7.044a2.956,2.956,0,0,1,1.637-.489,2.77,2.77,0,0,1,2.242.95,4.114,4.114,0,0,1,.8,2.721v.526H30.772a2.629,2.629,0,0,0,.639,1.767A2.009,2.009,0,0,0,32.966-.9,2.2,2.2,0,0,0,34.1-1.169a2.851,2.851,0,0,0,.813-.725l.772.6A3.106,3.106,0,0,1,32.9.137Zm-.157-6.631a1.687,1.687,0,0,0-1.285.557,2.708,2.708,0,0,0-.643,1.562h3.705v-.1A2.409,2.409,0,0,0,34-5.964,1.588,1.588,0,0,0,32.741-6.494Zm5.7-.9.041.93A2.7,2.7,0,0,1,40.7-7.533q2.345,0,2.365,2.646V0H41.8V-4.895a1.7,1.7,0,0,0-.366-1.183,1.466,1.466,0,0,0-1.118-.383,1.825,1.825,0,0,0-1.08.328,2.228,2.228,0,0,0-.725.861V0H37.246V-7.4ZM49.81,0H48.545V-10.5H49.81ZM56.4,0a2.657,2.657,0,0,1-.178-.779,2.822,2.822,0,0,1-2.105.916,2.611,2.611,0,0,1-1.794-.619,2,2,0,0,1-.7-1.569A2.091,2.091,0,0,1,52.5-3.845a4.142,4.142,0,0,1,2.471-.639H56.2v-.581a1.42,1.42,0,0,0-.4-1.056,1.593,1.593,0,0,0-1.169-.393,1.844,1.844,0,0,0-1.135.342,1.007,1.007,0,0,0-.458.827H51.772a1.745,1.745,0,0,1,.393-1.07,2.683,2.683,0,0,1,1.066-.817,3.588,3.588,0,0,1,1.48-.3,2.924,2.924,0,0,1,2,.639,2.306,2.306,0,0,1,.752,1.76v3.4a4.162,4.162,0,0,0,.26,1.62V0ZM54.3-.964a2.223,2.223,0,0,0,1.128-.308,1.861,1.861,0,0,0,.772-.8V-3.589H55.21q-2.324,0-2.324,1.36a1.151,1.151,0,0,0,.4.93A1.524,1.524,0,0,0,54.3-.964ZM-76.573,8.813V10.6h1.381v.978h-1.381v4.593a1.027,1.027,0,0,0,.185.667.777.777,0,0,0,.629.222,3.062,3.062,0,0,0,.6-.082V18a3.688,3.688,0,0,1-.971.136,1.575,1.575,0,0,1-1.278-.513,2.2,2.2,0,0,1-.431-1.456V11.581h-1.347V10.6h1.347V8.813Zm5.927,9.324a3.232,3.232,0,0,1-2.447-.988,3.666,3.666,0,0,1-.943-2.642v-.232a4.438,4.438,0,0,1,.42-1.965,3.28,3.28,0,0,1,1.176-1.354,2.956,2.956,0,0,1,1.637-.489,2.77,2.77,0,0,1,2.242.95,4.114,4.114,0,0,1,.8,2.721v.526h-5.011a2.629,2.629,0,0,0,.639,1.767,2.009,2.009,0,0,0,1.555.673,2.2,2.2,0,0,0,1.135-.273,2.851,2.851,0,0,0,.813-.725l.772.6A3.106,3.106,0,0,1-70.646,18.137Zm-.157-6.631a1.687,1.687,0,0,0-1.285.557,2.708,2.708,0,0,0-.643,1.562h3.705v-.1a2.409,2.409,0,0,0-.52-1.494A1.588,1.588,0,0,0-70.8,11.506ZM-64.924,18h-1.265V7.5h1.265Zm6.59,0a2.657,2.657,0,0,1-.178-.779,2.822,2.822,0,0,1-2.105.916,2.611,2.611,0,0,1-1.794-.619,2,2,0,0,1-.7-1.569,2.091,2.091,0,0,1,.878-1.794,4.142,4.142,0,0,1,2.471-.639h1.23v-.581a1.42,1.42,0,0,0-.4-1.056,1.593,1.593,0,0,0-1.169-.393,1.844,1.844,0,0,0-1.135.342,1.007,1.007,0,0,0-.458.827h-1.271a1.745,1.745,0,0,1,.393-1.07,2.683,2.683,0,0,1,1.066-.817,3.588,3.588,0,0,1,1.48-.3,2.924,2.924,0,0,1,2,.639,2.306,2.306,0,0,1,.752,1.76v3.4a4.162,4.162,0,0,0,.26,1.62V18Zm-2.1-.964a2.223,2.223,0,0,0,1.128-.308,1.861,1.861,0,0,0,.772-.8V14.411h-.991q-2.324,0-2.324,1.36a1.151,1.151,0,0,0,.4.93A1.524,1.524,0,0,0-60.433,17.036Zm9.987.964H-51.71V10.6h1.265Zm-1.367-9.358a.755.755,0,0,1,.188-.52.706.706,0,0,1,.557-.212.717.717,0,0,1,.561.212.747.747,0,0,1,.191.52.722.722,0,0,1-.191.513.73.73,0,0,1-.561.205.718.718,0,0,1-.557-.205A.73.73,0,0,1-51.813,8.642Zm4.587,1.962.041.93a2.7,2.7,0,0,1,2.215-1.066q2.345,0,2.365,2.646V18H-43.87V13.105a1.7,1.7,0,0,0-.366-1.183,1.466,1.466,0,0,0-1.118-.383,1.825,1.825,0,0,0-1.08.328,2.228,2.228,0,0,0-.725.861V18h-1.265V10.6Zm9.5,6.5a1.822,1.822,0,0,0,1.183-.41,1.443,1.443,0,0,0,.561-1.025h1.2a2.293,2.293,0,0,1-.437,1.21,2.881,2.881,0,0,1-1.077.916,3.107,3.107,0,0,1-1.425.342,3.047,3.047,0,0,1-2.4-1.008,4.016,4.016,0,0,1-.892-2.758v-.212a4.453,4.453,0,0,1,.4-1.921,3.02,3.02,0,0,1,1.138-1.306,3.233,3.233,0,0,1,1.753-.465,2.966,2.966,0,0,1,2.068.745,2.663,2.663,0,0,1,.878,1.935h-1.2a1.743,1.743,0,0,0-.543-1.179,1.691,1.691,0,0,0-1.207-.461,1.77,1.77,0,0,0-1.494.694,3.259,3.259,0,0,0-.53,2.006v.239a3.194,3.194,0,0,0,.526,1.969A1.779,1.779,0,0,0-37.731,17.1ZM-32,18H-33.26V7.5H-32Zm3.4,0h-1.265V10.6H-28.6Zm-1.367-9.358a.755.755,0,0,1,.188-.52.706.706,0,0,1,.557-.212.717.717,0,0,1,.561.212.747.747,0,0,1,.191.52.722.722,0,0,1-.191.513.73.73,0,0,1-.561.205.718.718,0,0,1-.557-.205A.73.73,0,0,1-29.965,8.642Zm4.587,1.962.041.93a2.7,2.7,0,0,1,2.215-1.066q2.345,0,2.365,2.646V18h-1.265V13.105a1.7,1.7,0,0,0-.366-1.183,1.466,1.466,0,0,0-1.118-.383,1.825,1.825,0,0,0-1.08.328,2.228,2.228,0,0,0-.725.861V18h-1.265V10.6ZM-14.284,18a2.657,2.657,0,0,1-.178-.779,2.822,2.822,0,0,1-2.105.916,2.611,2.611,0,0,1-1.794-.619,2,2,0,0,1-.7-1.569,2.091,2.091,0,0,1,.878-1.794,4.142,4.142,0,0,1,2.471-.639h1.23v-.581a1.42,1.42,0,0,0-.4-1.056,1.593,1.593,0,0,0-1.169-.393,1.844,1.844,0,0,0-1.135.342,1.007,1.007,0,0,0-.458.827h-1.271a1.745,1.745,0,0,1,.393-1.07,2.683,2.683,0,0,1,1.066-.817,3.588,3.588,0,0,1,1.48-.3,2.924,2.924,0,0,1,2,.639,2.306,2.306,0,0,1,.752,1.76v3.4a4.162,4.162,0,0,0,.26,1.62V18Zm-2.1-.964a2.223,2.223,0,0,0,1.128-.308,1.861,1.861,0,0,0,.772-.8V14.411h-.991q-2.324,0-2.324,1.36a1.151,1.151,0,0,0,.4.93A1.524,1.524,0,0,0-16.382,17.036Zm4.84-2.8a4.333,4.333,0,0,1,.807-2.738,2.551,2.551,0,0,1,2.112-1.036,2.565,2.565,0,0,1,2.058.889V7.5H-5.3V18H-6.463l-.062-.793a2.575,2.575,0,0,1-2.112.93,2.526,2.526,0,0,1-2.1-1.053,4.382,4.382,0,0,1-.81-2.748Zm1.265.144a3.281,3.281,0,0,0,.52,1.969,1.68,1.68,0,0,0,1.436.711,1.845,1.845,0,0,0,1.757-1.08v-3.4A1.859,1.859,0,0,0-8.309,11.54a1.687,1.687,0,0,0-1.449.718A3.612,3.612,0,0,0-10.278,14.384Zm6.6-.15a4.369,4.369,0,0,1,.427-1.955,3.187,3.187,0,0,1,1.189-1.34,3.238,3.238,0,0,1,1.74-.472,3.119,3.119,0,0,1,2.444,1.046,4.024,4.024,0,0,1,.933,2.782v.089a4.407,4.407,0,0,1-.414,1.938,3.14,3.14,0,0,1-1.183,1.336A3.275,3.275,0,0,1-.3,18.137a3.111,3.111,0,0,1-2.437-1.046,4,4,0,0,1-.933-2.769Zm1.271.15a3.164,3.164,0,0,0,.571,1.976A1.827,1.827,0,0,0-.3,17.1a1.816,1.816,0,0,0,1.531-.755,3.46,3.46,0,0,0,.567-2.116,3.159,3.159,0,0,0-.578-1.972,1.836,1.836,0,0,0-1.535-.755,1.816,1.816,0,0,0-1.511.745A3.435,3.435,0,0,0-2.4,14.384ZM11.18,18.137a3.232,3.232,0,0,1-2.447-.988,3.666,3.666,0,0,1-.943-2.642v-.232a4.438,4.438,0,0,1,.42-1.965,3.28,3.28,0,0,1,1.176-1.354,2.956,2.956,0,0,1,1.637-.489,2.77,2.77,0,0,1,2.242.95,4.114,4.114,0,0,1,.8,2.721v.526H9.054a2.629,2.629,0,0,0,.639,1.767,2.009,2.009,0,0,0,1.555.673,2.2,2.2,0,0,0,1.135-.273,2.851,2.851,0,0,0,.813-.725l.772.6A3.106,3.106,0,0,1,11.18,18.137Zm-.157-6.631a1.687,1.687,0,0,0-1.285.557A2.708,2.708,0,0,0,9.1,13.625H12.8v-.1a2.409,2.409,0,0,0-.52-1.494A1.588,1.588,0,0,0,11.023,11.506Zm5.7-.9.041.93a2.7,2.7,0,0,1,2.215-1.066q2.345,0,2.365,2.646V18H20.081V13.105a1.7,1.7,0,0,0-.366-1.183A1.466,1.466,0,0,0,18.6,11.54a1.825,1.825,0,0,0-1.08.328,2.228,2.228,0,0,0-.725.861V18H15.528V10.6Zm9.687,3.637a4.333,4.333,0,0,1,.807-2.738,2.745,2.745,0,0,1,4.17-.147V7.5h1.265V18H31.49l-.062-.793a2.575,2.575,0,0,1-2.112.93,2.526,2.526,0,0,1-2.1-1.053,4.382,4.382,0,0,1-.81-2.748Zm1.265.144a3.281,3.281,0,0,0,.52,1.969,1.68,1.68,0,0,0,1.436.711,1.845,1.845,0,0,0,1.757-1.08v-3.4a1.859,1.859,0,0,0-1.743-1.046,1.687,1.687,0,0,0-1.449.718A3.612,3.612,0,0,0,27.675,14.384ZM35.988,18H34.723V10.6h1.265ZM34.621,8.642a.755.755,0,0,1,.188-.52.706.706,0,0,1,.557-.212.717.717,0,0,1,.561.212.747.747,0,0,1,.191.52.722.722,0,0,1-.191.513.73.73,0,0,1-.561.205.718.718,0,0,1-.557-.205A.73.73,0,0,1,34.621,8.642ZM42.578,18a2.657,2.657,0,0,1-.178-.779,2.822,2.822,0,0,1-2.105.916,2.611,2.611,0,0,1-1.794-.619,2,2,0,0,1-.7-1.569,2.091,2.091,0,0,1,.878-1.794,4.142,4.142,0,0,1,2.471-.639h1.23v-.581a1.42,1.42,0,0,0-.4-1.056,1.593,1.593,0,0,0-1.169-.393,1.844,1.844,0,0,0-1.135.342,1.007,1.007,0,0,0-.458.827H37.95a1.745,1.745,0,0,1,.393-1.07,2.683,2.683,0,0,1,1.066-.817,3.588,3.588,0,0,1,1.48-.3,2.924,2.924,0,0,1,2,.639,2.306,2.306,0,0,1,.752,1.76v3.4a4.162,4.162,0,0,0,.26,1.62V18Zm-2.1-.964a2.223,2.223,0,0,0,1.128-.308,1.861,1.861,0,0,0,.772-.8V14.411h-.991q-2.324,0-2.324,1.36a1.151,1.151,0,0,0,.4.93A1.524,1.524,0,0,0,40.479,17.036Zm4.847-2.8a4.347,4.347,0,0,1,.8-2.751,2.757,2.757,0,0,1,4.231-.065l.062-.82h1.155v7.219a3.009,3.009,0,0,1-.851,2.263,3.141,3.141,0,0,1-2.287.827,3.8,3.8,0,0,1-1.565-.342,2.7,2.7,0,0,1-1.169-.937l.656-.759a2.473,2.473,0,0,0,1.989,1,1.938,1.938,0,0,0,1.439-.52A1.986,1.986,0,0,0,50.3,17.9v-.636a2.6,2.6,0,0,1-2.071.875,2.526,2.526,0,0,1-2.1-1.046A4.571,4.571,0,0,1,45.326,14.24Zm1.271.144a3.316,3.316,0,0,0,.513,1.965,1.666,1.666,0,0,0,1.436.714A1.852,1.852,0,0,0,50.3,15.977V12.6a1.874,1.874,0,0,0-1.743-1.06,1.681,1.681,0,0,0-1.442.718A3.612,3.612,0,0,0,46.6,14.384Zm6.549-.15a4.369,4.369,0,0,1,.427-1.955,3.187,3.187,0,0,1,1.189-1.34,3.238,3.238,0,0,1,1.74-.472,3.119,3.119,0,0,1,2.444,1.046,4.024,4.024,0,0,1,.933,2.782v.089a4.407,4.407,0,0,1-.414,1.938,3.14,3.14,0,0,1-1.183,1.336,3.275,3.275,0,0,1-1.767.479,3.111,3.111,0,0,1-2.437-1.046,4,4,0,0,1-.933-2.769Zm1.271.15a3.164,3.164,0,0,0,.571,1.976,1.934,1.934,0,0,0,3.059-.01,3.46,3.46,0,0,0,.567-2.116,3.159,3.159,0,0,0-.578-1.972,1.836,1.836,0,0,0-1.535-.755,1.816,1.816,0,0,0-1.511.745A3.435,3.435,0,0,0,54.417,14.384Zm8.244-3.78.041.93a2.7,2.7,0,0,1,2.215-1.066q2.345,0,2.365,2.646V18H66.018V13.105a1.7,1.7,0,0,0-.366-1.183,1.466,1.466,0,0,0-1.118-.383,1.825,1.825,0,0,0-1.08.328,2.228,2.228,0,0,0-.725.861V18H61.465V10.6ZM73.756,18a2.657,2.657,0,0,1-.178-.779,2.822,2.822,0,0,1-2.105.916,2.611,2.611,0,0,1-1.794-.619,2,2,0,0,1-.7-1.569,2.091,2.091,0,0,1,.878-1.794,4.141,4.141,0,0,1,2.471-.639h1.23v-.581a1.42,1.42,0,0,0-.4-1.056,1.593,1.593,0,0,0-1.169-.393,1.844,1.844,0,0,0-1.135.342,1.007,1.007,0,0,0-.458.827H69.128a1.745,1.745,0,0,1,.393-1.07,2.683,2.683,0,0,1,1.066-.817,3.588,3.588,0,0,1,1.48-.3,2.924,2.924,0,0,1,2,.639,2.306,2.306,0,0,1,.752,1.76v3.4a4.162,4.162,0,0,0,.26,1.62V18Zm-2.1-.964a2.223,2.223,0,0,0,1.128-.308,1.861,1.861,0,0,0,.772-.8V14.411h-.991q-2.324,0-2.324,1.36a1.151,1.151,0,0,0,.4.93A1.524,1.524,0,0,0,71.658,17.036ZM78.179,18H76.915V7.5h1.265Z" transform="translate(1301.051 7322)" fill="#12263f"/>
    <g id="Grupo_1126059" data-name="Grupo 1126059" transform="translate(800.051 7172)">
      <path id="Trazado_896363" data-name="Trazado 896363" d="M35.384,0l3.451,12.889,4.246-4.245L81.537,47.1l-4.245,4.245L90.181,54.8,86.729,41.908l-4.245,4.245L44.027,7.7l4.246-4.245Z" transform="translate(11.968 0)" fill="#12263f"/>
      <path id="Trazado_896364" data-name="Trazado 896364" d="M75.336,76.4l.946-.946-50-50L30.525,21.2l-12.89-3.454,3.453,12.89,4.245-4.245Z" transform="translate(5.965 6.003)" fill="#12263f"/>
      <path id="Trazado_896365" data-name="Trazado 896365" d="M0,35.624l50,50-4.245,4.246,12.889,3.453-3.453-12.89-4.245,4.246-50-50Z" transform="translate(0 11.729)" fill="#12263f"/>
    </g>
    <g id="Grupo_1126066" data-name="Grupo 1126066" transform="translate(-26 11)">
      <g id="Grupo_1126062" data-name="Grupo 1126062" transform="translate(1070.05 7158)">
        <path id="Trazado_896366" data-name="Trazado 896366" d="M22.268,36.051l4.3-4.3L13.52,28.259,17.015,41.3l4.3-4.3L60.227,75.925l-4.3,4.3,13.044,3.494L65.48,70.67l-4.3,4.3Z" transform="translate(4.79 10.012)" fill="#12263f"/>
        <g id="Grupo_1126061" data-name="Grupo 1126061" transform="translate(0 0)">
          <g id="Grupo_1126060" data-name="Grupo 1126060" clip-path="url(#clip-path)">
            <path id="Trazado_896367" data-name="Trazado 896367" d="M104.753,1.817,104.422.183h-.857C102.047.2,6.75.754,1.694.249L1.073,0,0,1.079l.385.573C.642,4.163.59,25.3.544,44,.423,93.536.5,93.57,1.5,93.984l.645.255.019-.018c2.067,1.5,9.468,9.255,15.985,16.5l.3.336H87.31l17.3-17.3,0-.427c-.333-34.363-.63-85.823-.13-91.4Zm-18.284,107.2H19.354C7.832,96.234,4.122,93.056,2.78,92.261c-.313-3.945-.253-28.4-.2-48.252C2.645,15.424,2.669,5.688,2.4,2.258c3.678.253,14.858.3,50.2.194,20.222-.062,43.868-.156,49.917-.264-.348,4.534-.618,21.857.049,90.735Z" transform="translate(0 -0.001)" fill="#12263f"/>
          </g>
        </g>
      </g>
      <text id="_2XT_Bolsillo" data-name="2XTBolsillo" transform="translate(1115 7187)" fill="#12263f" font-size="14" font-family="Roboto-Regular, Roboto"><tspan x="0" y="0">2XT</tspan><tspan x="0" y="18">Bolsillo</tspan></text>
    </g>
    <g id="Grupo_1126065" data-name="Grupo 1126065" transform="translate(1258.051 7181)">
      <path id="Trazado_896368" data-name="Trazado 896368" d="M42.147,30.39,34.79,17.648,27.433,30.39h6.619V47.913H27.433l7.357,12.74,7.357-12.74H35.528V30.39Z" transform="translate(13.046 8.392)" fill="#12263f"/>
      <g id="Grupo_1126064" data-name="Grupo 1126064" transform="translate(0 0)">
        <g id="Grupo_1126063" data-name="Grupo 1126063" clip-path="url(#clip-path-2)">
          <path id="Trazado_896369" data-name="Trazado 896369" d="M22.741,22.9C-.328,45.547-.331,45.549.1,46.6l.336.822H.774L39.288,85.939l18.31.289,28.338-28.9.876-16.656L46.137,0l-.931.907S33.965,11.88,22.741,22.9M84.122,41.706,83.359,56.2,56.51,83.58,40.4,83.324,3.125,46.053C7.541,41.45,30.2,19.231,46.115,3.7Z" transform="translate(0 -0.001)" fill="#12263f"/>
        </g>
      </g>
    </g>
  </g>
</svg>
