<svg xmlns="http://www.w3.org/2000/svg" xmlns:xlink="http://www.w3.org/1999/xlink" width="715" height="174" viewBox="0 0 715 174">
  <defs>
    <clipPath id="clip-path">
      <rect id="Rectángulo_413542" data-name="Rectángulo 413542" width="93.503" height="99.127" fill="none"/>
    </clipPath>
    <clipPath id="clip-path-2">
      <rect id="Rectángulo_413543" data-name="Rectángulo 413543" width="113.883" height="55.504" fill="none"/>
    </clipPath>
  </defs>
  <g id="Grupo_1127122" data-name="Grupo 1127122" transform="translate(-705.051 -6604)">
    <path id="Trazado_898390" data-name="Trazado 898390" d="M0,0H715V174H0Z" transform="translate(705.051 6604)" fill="#edf7ed"/>
    <path id="Trazado_898391" data-name="Trazado 898391" d="M-108.77,0h-1.319V-4.6h-5.018V0h-1.312V-9.953h1.313v4.279h5.018V-9.953h1.319Zm3.507,0h-1.265V-7.4h1.265Zm-1.367-9.358a.755.755,0,0,1,.188-.52.706.706,0,0,1,.557-.212.717.717,0,0,1,.561.212.747.747,0,0,1,.191.52.722.722,0,0,1-.191.513.73.73,0,0,1-.561.205.718.718,0,0,1-.557-.205A.73.73,0,0,1-106.63-9.358ZM-101.866,0h-1.265V-10.5h1.265Zm1.688-3.767a4.369,4.369,0,0,1,.427-1.955,3.187,3.187,0,0,1,1.189-1.34,3.238,3.238,0,0,1,1.74-.472,3.119,3.119,0,0,1,2.444,1.046,4.024,4.024,0,0,1,.933,2.782v.089a4.407,4.407,0,0,1-.414,1.938A3.14,3.14,0,0,1-95.04-.342a3.275,3.275,0,0,1-1.767.479A3.111,3.111,0,0,1-99.244-.909a4,4,0,0,1-.933-2.769Zm1.271.15a3.164,3.164,0,0,0,.571,1.976A1.827,1.827,0,0,0-96.807-.9a1.816,1.816,0,0,0,1.531-.755,3.46,3.46,0,0,0,.567-2.116,3.159,3.159,0,0,0-.578-1.972,1.836,1.836,0,0,0-1.535-.755,1.816,1.816,0,0,0-1.511.745A3.434,3.434,0,0,0-98.906-3.616ZM-87.2-7.4l.034.82a2.732,2.732,0,0,1,2.194-.957,2.115,2.115,0,0,1,2.112,1.189,2.8,2.8,0,0,1,.96-.861,2.837,2.837,0,0,1,1.4-.328q2.434,0,2.475,2.577V0h-1.265V-4.881a1.7,1.7,0,0,0-.362-1.186,1.6,1.6,0,0,0-1.217-.393,1.677,1.677,0,0,0-1.169.42,1.706,1.706,0,0,0-.54,1.131V0h-1.271V-4.847A1.411,1.411,0,0,0-85.432-6.46a1.692,1.692,0,0,0-1.7,1.06V0H-88.4V-7.4ZM-71.555,0a2.657,2.657,0,0,1-.178-.779,2.822,2.822,0,0,1-2.105.916,2.611,2.611,0,0,1-1.794-.619,2,2,0,0,1-.7-1.569,2.091,2.091,0,0,1,.878-1.794,4.141,4.141,0,0,1,2.471-.639h1.23v-.581a1.42,1.42,0,0,0-.4-1.056,1.593,1.593,0,0,0-1.169-.393,1.844,1.844,0,0,0-1.135.342,1.007,1.007,0,0,0-.458.827h-1.271a1.745,1.745,0,0,1,.393-1.07,2.683,2.683,0,0,1,1.066-.817,3.588,3.588,0,0,1,1.48-.3,2.924,2.924,0,0,1,2,.639,2.306,2.306,0,0,1,.752,1.76v3.4a4.162,4.162,0,0,0,.26,1.62V0Zm-2.1-.964a2.223,2.223,0,0,0,1.128-.308,1.861,1.861,0,0,0,.772-.8V-3.589h-.991q-2.324,0-2.324,1.36a1.151,1.151,0,0,0,.4.93A1.524,1.524,0,0,0-73.654-.964Zm8.723-5.3a3.79,3.79,0,0,0-.622-.048,1.667,1.667,0,0,0-1.688,1.06V0h-1.265V-7.4h1.23l.021.854a1.969,1.969,0,0,1,1.764-.991,1.292,1.292,0,0,1,.561.1Zm4,5.366a1.822,1.822,0,0,0,1.183-.41,1.443,1.443,0,0,0,.561-1.025h1.2a2.293,2.293,0,0,1-.437,1.21,2.881,2.881,0,0,1-1.077.916,3.107,3.107,0,0,1-1.425.342,3.047,3.047,0,0,1-2.4-1.008,4.016,4.016,0,0,1-.892-2.758v-.212a4.453,4.453,0,0,1,.4-1.921,3.02,3.02,0,0,1,1.138-1.306,3.233,3.233,0,0,1,1.753-.465,2.966,2.966,0,0,1,2.068.745,2.663,2.663,0,0,1,.878,1.935h-1.2a1.743,1.743,0,0,0-.543-1.179,1.691,1.691,0,0,0-1.207-.461,1.77,1.77,0,0,0-1.494.694,3.259,3.259,0,0,0-.53,2.006v.239a3.194,3.194,0,0,0,.526,1.969A1.779,1.779,0,0,0-60.932-.9ZM-52,0a2.657,2.657,0,0,1-.178-.779,2.822,2.822,0,0,1-2.105.916,2.611,2.611,0,0,1-1.794-.619,2,2,0,0,1-.7-1.569A2.091,2.091,0,0,1-55.9-3.845a4.142,4.142,0,0,1,2.471-.639h1.23v-.581a1.42,1.42,0,0,0-.4-1.056,1.593,1.593,0,0,0-1.169-.393,1.844,1.844,0,0,0-1.135.342,1.007,1.007,0,0,0-.458.827h-1.271a1.745,1.745,0,0,1,.393-1.07,2.683,2.683,0,0,1,1.066-.817,3.588,3.588,0,0,1,1.48-.3,2.924,2.924,0,0,1,2,.639,2.306,2.306,0,0,1,.752,1.76v3.4a4.162,4.162,0,0,0,.26,1.62V0Zm-2.1-.964a2.223,2.223,0,0,0,1.128-.308,1.861,1.861,0,0,0,.772-.8V-3.589h-.991q-2.324,0-2.324,1.36a1.151,1.151,0,0,0,.4.93A1.524,1.524,0,0,0-54.1-.964Zm4.84-2.8A4.333,4.333,0,0,1-48.457-6.5a2.551,2.551,0,0,1,2.112-1.036,2.565,2.565,0,0,1,2.058.889V-10.5h1.265V0h-1.162l-.062-.793a2.575,2.575,0,0,1-2.112.93,2.526,2.526,0,0,1-2.1-1.053,4.382,4.382,0,0,1-.81-2.748ZM-48-3.616a3.281,3.281,0,0,0,.52,1.969,1.68,1.68,0,0,0,1.436.711,1.845,1.845,0,0,0,1.757-1.08v-3.4A1.859,1.859,0,0,0-46.03-6.46a1.687,1.687,0,0,0-1.449.718A3.612,3.612,0,0,0-48-3.616Zm6.6-.15a4.369,4.369,0,0,1,.427-1.955,3.187,3.187,0,0,1,1.189-1.34,3.238,3.238,0,0,1,1.74-.472,3.119,3.119,0,0,1,2.444,1.046,4.024,4.024,0,0,1,.933,2.782v.089a4.407,4.407,0,0,1-.414,1.938A3.14,3.14,0,0,1-36.258-.342a3.275,3.275,0,0,1-1.767.479A3.111,3.111,0,0,1-40.462-.909,4,4,0,0,1-41.4-3.678Zm1.271.15a3.164,3.164,0,0,0,.571,1.976A1.827,1.827,0,0,0-38.025-.9a1.816,1.816,0,0,0,1.531-.755,3.46,3.46,0,0,0,.567-2.116A3.159,3.159,0,0,0-36.5-5.739a1.836,1.836,0,0,0-1.535-.755,1.816,1.816,0,0,0-1.511.745A3.434,3.434,0,0,0-40.124-3.616ZM-26.541.137a3.232,3.232,0,0,1-2.447-.988,3.666,3.666,0,0,1-.943-2.642v-.232a4.438,4.438,0,0,1,.42-1.965,3.28,3.28,0,0,1,1.176-1.354A2.956,2.956,0,0,1-26.7-7.533a2.77,2.77,0,0,1,2.242.95,4.114,4.114,0,0,1,.8,2.721v.526h-5.011a2.629,2.629,0,0,0,.639,1.767A2.009,2.009,0,0,0-26.472-.9a2.2,2.2,0,0,0,1.135-.273,2.851,2.851,0,0,0,.813-.725l.772.6A3.106,3.106,0,0,1-26.541.137ZM-26.7-6.494a1.687,1.687,0,0,0-1.285.557,2.708,2.708,0,0,0-.643,1.562h3.705v-.1a2.409,2.409,0,0,0-.52-1.494A1.588,1.588,0,0,0-26.7-6.494Zm5.7-.9.041.93a2.7,2.7,0,0,1,2.215-1.066q2.345,0,2.365,2.646V0H-17.64V-4.895a1.7,1.7,0,0,0-.366-1.183,1.466,1.466,0,0,0-1.118-.383,1.825,1.825,0,0,0-1.08.328,2.228,2.228,0,0,0-.725.861V0h-1.265V-7.4ZM-6.976,0H-8.248V-8.429l-2.55.937V-8.641L-7.174-10h.2ZM.017-3.76A4.333,4.333,0,0,1,.824-6.5,2.551,2.551,0,0,1,2.936-7.533a2.565,2.565,0,0,1,2.058.889V-10.5H6.258V0H5.1L5.035-.793a2.575,2.575,0,0,1-2.112.93A2.526,2.526,0,0,1,.827-.916a4.382,4.382,0,0,1-.81-2.748Zm1.265.144A3.281,3.281,0,0,0,1.8-1.647a1.68,1.68,0,0,0,1.436.711,1.845,1.845,0,0,0,1.757-1.08v-3.4A1.859,1.859,0,0,0,3.25-6.46,1.687,1.687,0,0,0,1.8-5.742,3.612,3.612,0,0,0,1.282-3.616ZM9.594,0H8.33V-7.4H9.594ZM8.227-9.358a.755.755,0,0,1,.188-.52.706.706,0,0,1,.557-.212.717.717,0,0,1,.561.212.747.747,0,0,1,.191.52.722.722,0,0,1-.191.513.73.73,0,0,1-.561.205.718.718,0,0,1-.557-.205A.73.73,0,0,1,8.227-9.358Zm6.966,3.1a3.79,3.79,0,0,0-.622-.048,1.667,1.667,0,0,0-1.688,1.06V0H11.618V-7.4h1.23l.021.854a1.969,1.969,0,0,1,1.764-.991,1.292,1.292,0,0,1,.561.1Zm4.231,6.4a3.232,3.232,0,0,1-2.447-.988,3.666,3.666,0,0,1-.943-2.642v-.232a4.438,4.438,0,0,1,.42-1.965A3.28,3.28,0,0,1,17.63-7.044a2.956,2.956,0,0,1,1.637-.489,2.77,2.77,0,0,1,2.242.95,4.114,4.114,0,0,1,.8,2.721v.526H17.3a2.629,2.629,0,0,0,.639,1.767A2.009,2.009,0,0,0,19.493-.9a2.2,2.2,0,0,0,1.135-.273,2.851,2.851,0,0,0,.813-.725l.772.6A3.106,3.106,0,0,1,19.424.137Zm-.157-6.631a1.687,1.687,0,0,0-1.285.557,2.708,2.708,0,0,0-.643,1.562h3.705v-.1a2.409,2.409,0,0,0-.52-1.494A1.588,1.588,0,0,0,19.267-6.494ZM26.739-.9a1.822,1.822,0,0,0,1.183-.41,1.443,1.443,0,0,0,.561-1.025h1.2a2.293,2.293,0,0,1-.437,1.21,2.881,2.881,0,0,1-1.077.916,3.107,3.107,0,0,1-1.425.342,3.047,3.047,0,0,1-2.4-1.008,4.016,4.016,0,0,1-.892-2.758v-.212a4.453,4.453,0,0,1,.4-1.921,3.02,3.02,0,0,1,1.138-1.306,3.233,3.233,0,0,1,1.753-.465,2.966,2.966,0,0,1,2.068.745,2.663,2.663,0,0,1,.878,1.935h-1.2a1.743,1.743,0,0,0-.543-1.179,1.691,1.691,0,0,0-1.207-.461,1.77,1.77,0,0,0-1.494.694,3.259,3.259,0,0,0-.53,2.006v.239a3.194,3.194,0,0,0,.526,1.969A1.779,1.779,0,0,0,26.739-.9Zm7.328,0a1.822,1.822,0,0,0,1.183-.41,1.443,1.443,0,0,0,.561-1.025h1.2a2.293,2.293,0,0,1-.437,1.21,2.881,2.881,0,0,1-1.077.916,3.107,3.107,0,0,1-1.425.342,3.047,3.047,0,0,1-2.4-1.008,4.016,4.016,0,0,1-.892-2.758v-.212a4.453,4.453,0,0,1,.4-1.921,3.02,3.02,0,0,1,1.138-1.306,3.233,3.233,0,0,1,1.753-.465,2.966,2.966,0,0,1,2.068.745,2.663,2.663,0,0,1,.878,1.935h-1.2a1.743,1.743,0,0,0-.543-1.179,1.691,1.691,0,0,0-1.207-.461,1.77,1.77,0,0,0-1.494.694,3.259,3.259,0,0,0-.53,2.006v.239a3.194,3.194,0,0,0,.526,1.969A1.779,1.779,0,0,0,34.067-.9ZM39.8,0H38.538V-7.4H39.8ZM38.435-9.358a.755.755,0,0,1,.188-.52.706.706,0,0,1,.557-.212.717.717,0,0,1,.561.212.747.747,0,0,1,.191.52.722.722,0,0,1-.191.513.73.73,0,0,1-.561.205.718.718,0,0,1-.557-.205A.73.73,0,0,1,38.435-9.358Zm3.056,5.592a4.369,4.369,0,0,1,.427-1.955,3.187,3.187,0,0,1,1.189-1.34,3.238,3.238,0,0,1,1.74-.472,3.119,3.119,0,0,1,2.444,1.046,4.024,4.024,0,0,1,.933,2.782v.089a4.407,4.407,0,0,1-.414,1.938A3.14,3.14,0,0,1,46.628-.342a3.275,3.275,0,0,1-1.767.479A3.111,3.111,0,0,1,42.424-.909a4,4,0,0,1-.933-2.769Zm1.271.15a3.164,3.164,0,0,0,.571,1.976A1.827,1.827,0,0,0,44.861-.9a1.816,1.816,0,0,0,1.531-.755,3.46,3.46,0,0,0,.567-2.116,3.159,3.159,0,0,0-.578-1.972,1.836,1.836,0,0,0-1.535-.755,1.816,1.816,0,0,0-1.511.745A3.434,3.434,0,0,0,42.762-3.616ZM45.421-10.5h1.531L45.121-8.49l-1.019,0Zm5.585,3.1.041.93a2.7,2.7,0,0,1,2.215-1.066q2.345,0,2.365,2.646V0H54.363V-4.895A1.7,1.7,0,0,0,54-6.077a1.466,1.466,0,0,0-1.118-.383,1.825,1.825,0,0,0-1.08.328,2.228,2.228,0,0,0-.725.861V0H49.81V-7.4Zm6.487,9.379-.718-.492a3.3,3.3,0,0,0,.67-1.846V-1.5h1.237v.991A3.114,3.114,0,0,1,58.345.875,3.233,3.233,0,0,1,57.494,1.982ZM68.055-1.962a.931.931,0,0,0-.386-.8,3.718,3.718,0,0,0-1.347-.489A6.367,6.367,0,0,1,64.8-3.739a2.169,2.169,0,0,1-.834-.684,1.635,1.635,0,0,1-.27-.943A1.919,1.919,0,0,1,64.463-6.9a3,3,0,0,1,1.965-.629,3.091,3.091,0,0,1,2.041.649,2.063,2.063,0,0,1,.783,1.661H67.98a1.142,1.142,0,0,0-.441-.9,1.652,1.652,0,0,0-1.111-.376,1.729,1.729,0,0,0-1.08.3.947.947,0,0,0-.39.786.767.767,0,0,0,.362.69,4.458,4.458,0,0,0,1.309.444,6.821,6.821,0,0,1,1.535.506,2.239,2.239,0,0,1,.872.708,1.74,1.74,0,0,1,.284,1.008,1.893,1.893,0,0,1-.793,1.589,3.326,3.326,0,0,1-2.058.6A3.725,3.725,0,0,1,64.9-.178a2.557,2.557,0,0,1-1.07-.878,2.117,2.117,0,0,1-.386-1.22h1.265a1.309,1.309,0,0,0,.509,1.008A1.976,1.976,0,0,0,66.469-.9a2.039,2.039,0,0,0,1.152-.291A.893.893,0,0,0,68.055-1.962ZM72.341,0H71.077V-7.4h1.265ZM70.974-9.358a.755.755,0,0,1,.188-.52.706.706,0,0,1,.557-.212.717.717,0,0,1,.561.212.747.747,0,0,1,.191.52.722.722,0,0,1-.191.513.73.73,0,0,1-.561.205.718.718,0,0,1-.557-.205A.73.73,0,0,1,70.974-9.358ZM75.561-7.4l.041.93a2.7,2.7,0,0,1,2.215-1.066q2.345,0,2.365,2.646V0H78.917V-4.895a1.7,1.7,0,0,0-.366-1.183,1.466,1.466,0,0,0-1.118-.383,1.825,1.825,0,0,0-1.08.328,2.228,2.228,0,0,0-.725.861V0H74.365V-7.4ZM89.13-6.262a3.79,3.79,0,0,0-.622-.048A1.667,1.667,0,0,0,86.82-5.25V0H85.555V-7.4h1.23l.021.854a1.969,1.969,0,0,1,1.764-.991,1.292,1.292,0,0,1,.561.1Zm.69,2.5a4.369,4.369,0,0,1,.427-1.955,3.187,3.187,0,0,1,1.189-1.34,3.238,3.238,0,0,1,1.74-.472,3.119,3.119,0,0,1,2.444,1.046,4.024,4.024,0,0,1,.933,2.782v.089a4.407,4.407,0,0,1-.414,1.938A3.14,3.14,0,0,1,94.958-.342a3.275,3.275,0,0,1-1.767.479A3.111,3.111,0,0,1,90.754-.909a4,4,0,0,1-.933-2.769Zm1.271.15a3.164,3.164,0,0,0,.571,1.976A1.827,1.827,0,0,0,93.191-.9a1.816,1.816,0,0,0,1.531-.755,3.46,3.46,0,0,0,.567-2.116,3.159,3.159,0,0,0-.578-1.972,1.836,1.836,0,0,0-1.535-.755,1.816,1.816,0,0,0-1.511.745A3.434,3.434,0,0,0,91.092-3.616Zm8.764-5.571V-7.4h1.381v.978H99.856v4.593a1.027,1.027,0,0,0,.185.667.777.777,0,0,0,.629.222,3.062,3.062,0,0,0,.6-.082V0a3.688,3.688,0,0,1-.971.136,1.575,1.575,0,0,1-1.278-.513,2.2,2.2,0,0,1-.431-1.456V-6.419H97.245V-7.4h1.347V-9.187ZM107.28,0a2.657,2.657,0,0,1-.178-.779A2.822,2.822,0,0,1,105,.137,2.611,2.611,0,0,1,103.2-.482a2,2,0,0,1-.7-1.569,2.091,2.091,0,0,1,.878-1.794,4.141,4.141,0,0,1,2.471-.639h1.23v-.581a1.42,1.42,0,0,0-.4-1.056,1.593,1.593,0,0,0-1.169-.393,1.844,1.844,0,0,0-1.135.342,1.007,1.007,0,0,0-.458.827h-1.271a1.745,1.745,0,0,1,.393-1.07,2.683,2.683,0,0,1,1.066-.817,3.588,3.588,0,0,1,1.48-.3,2.924,2.924,0,0,1,2,.639,2.306,2.306,0,0,1,.752,1.76v3.4a4.162,4.162,0,0,0,.26,1.62V0Zm-2.1-.964a2.223,2.223,0,0,0,1.128-.308,1.861,1.861,0,0,0,.772-.8V-3.589h-.991q-2.324,0-2.324,1.36a1.151,1.151,0,0,0,.4.93A1.524,1.524,0,0,0,105.181-.964Zm8.723-5.3a3.79,3.79,0,0,0-.622-.048,1.667,1.667,0,0,0-1.688,1.06V0h-1.265V-7.4h1.23l.021.854a1.969,1.969,0,0,1,1.764-.991,1.292,1.292,0,0,1,.561.1Z" transform="translate(851.051 6758.128)" fill="#12263f"/>
    <path id="Trazado_898392" data-name="Trazado 898392" d="M-58.143,0h-1.319V-4.6H-64.48V0h-1.312V-9.953h1.313v4.279h5.018V-9.953h1.319Zm3.507,0H-55.9V-7.4h1.265ZM-56-9.358a.755.755,0,0,1,.188-.52.706.706,0,0,1,.557-.212.717.717,0,0,1,.561.212.747.747,0,0,1,.191.52.722.722,0,0,1-.191.513.73.73,0,0,1-.561.205.718.718,0,0,1-.557-.205A.73.73,0,0,1-56-9.358ZM-51.239,0H-52.5V-10.5h1.265Zm1.688-3.767a4.369,4.369,0,0,1,.427-1.955,3.187,3.187,0,0,1,1.189-1.34,3.238,3.238,0,0,1,1.74-.472A3.119,3.119,0,0,1-43.75-6.487a4.024,4.024,0,0,1,.933,2.782v.089a4.407,4.407,0,0,1-.414,1.938A3.14,3.14,0,0,1-44.413-.342,3.275,3.275,0,0,1-46.18.137,3.111,3.111,0,0,1-48.617-.909a4,4,0,0,1-.933-2.769Zm1.271.15a3.164,3.164,0,0,0,.571,1.976A1.827,1.827,0,0,0-46.18-.9a1.816,1.816,0,0,0,1.531-.755,3.46,3.46,0,0,0,.567-2.116,3.159,3.159,0,0,0-.578-1.972,1.836,1.836,0,0,0-1.535-.755,1.816,1.816,0,0,0-1.511.745A3.434,3.434,0,0,0-48.279-3.616ZM-34.7.137a3.232,3.232,0,0,1-2.447-.988,3.666,3.666,0,0,1-.943-2.642v-.232a4.438,4.438,0,0,1,.42-1.965A3.28,3.28,0,0,1-36.49-7.044a2.956,2.956,0,0,1,1.637-.489,2.77,2.77,0,0,1,2.242.95,4.114,4.114,0,0,1,.8,2.721v.526h-5.011a2.629,2.629,0,0,0,.639,1.767A2.009,2.009,0,0,0-34.627-.9a2.2,2.2,0,0,0,1.135-.273,2.851,2.851,0,0,0,.813-.725l.772.6A3.106,3.106,0,0,1-34.7.137Zm-.157-6.631a1.687,1.687,0,0,0-1.285.557,2.708,2.708,0,0,0-.643,1.562h3.705v-.1a2.409,2.409,0,0,0-.52-1.494A1.588,1.588,0,0,0-34.853-6.494Zm5.7-.9.041.93A2.7,2.7,0,0,1-26.9-7.533q2.345,0,2.365,2.646V0H-25.8V-4.895a1.7,1.7,0,0,0-.366-1.183,1.466,1.466,0,0,0-1.118-.383,1.825,1.825,0,0,0-1.08.328,2.228,2.228,0,0,0-.725.861V0h-1.265V-7.4Zm11.184,0,.034.82a2.732,2.732,0,0,1,2.194-.957,2.115,2.115,0,0,1,2.112,1.189,2.8,2.8,0,0,1,.96-.861,2.837,2.837,0,0,1,1.4-.328q2.434,0,2.475,2.577V0h-1.265V-4.881a1.7,1.7,0,0,0-.362-1.186,1.6,1.6,0,0,0-1.217-.393,1.677,1.677,0,0,0-1.169.42,1.706,1.706,0,0,0-.54,1.131V0h-1.271V-4.847A1.411,1.411,0,0,0-16.2-6.46,1.692,1.692,0,0,0-17.9-5.4V0h-1.265V-7.4Zm10.746,3.63a4.369,4.369,0,0,1,.427-1.955,3.187,3.187,0,0,1,1.189-1.34,3.238,3.238,0,0,1,1.74-.472A3.119,3.119,0,0,1-1.422-6.487,4.024,4.024,0,0,1-.489-3.705v.089A4.407,4.407,0,0,1-.9-1.678,3.14,3.14,0,0,1-2.085-.342,3.275,3.275,0,0,1-3.852.137,3.111,3.111,0,0,1-6.289-.909a4,4,0,0,1-.933-2.769Zm1.271.15A3.164,3.164,0,0,0-5.38-1.641,1.827,1.827,0,0,0-3.852-.9a1.816,1.816,0,0,0,1.531-.755,3.46,3.46,0,0,0,.567-2.116,3.159,3.159,0,0,0-.578-1.972,1.836,1.836,0,0,0-1.535-.755,1.816,1.816,0,0,0-1.511.745A3.434,3.434,0,0,0-5.951-3.616ZM2.471,0H1.207V-10.5H2.471ZM4.187-3.76A4.333,4.333,0,0,1,4.994-6.5,2.551,2.551,0,0,1,7.106-7.533a2.565,2.565,0,0,1,2.058.889V-10.5h1.265V0H9.266L9.2-.793a2.575,2.575,0,0,1-2.112.93A2.526,2.526,0,0,1,5-.916a4.382,4.382,0,0,1-.81-2.748Zm1.265.144a3.281,3.281,0,0,0,.52,1.969,1.68,1.68,0,0,0,1.436.711,1.845,1.845,0,0,0,1.757-1.08v-3.4A1.859,1.859,0,0,0,7.42-6.46a1.687,1.687,0,0,0-1.449.718A3.612,3.612,0,0,0,5.452-3.616ZM15.459.137a3.232,3.232,0,0,1-2.447-.988,3.666,3.666,0,0,1-.943-2.642v-.232a4.438,4.438,0,0,1,.42-1.965,3.28,3.28,0,0,1,1.176-1.354A2.956,2.956,0,0,1,15.3-7.533a2.77,2.77,0,0,1,2.242.95,4.114,4.114,0,0,1,.8,2.721v.526H13.333a2.629,2.629,0,0,0,.639,1.767A2.009,2.009,0,0,0,15.528-.9a2.2,2.2,0,0,0,1.135-.273,2.851,2.851,0,0,0,.813-.725l.772.6A3.106,3.106,0,0,1,15.459.137ZM15.3-6.494a1.687,1.687,0,0,0-1.285.557,2.708,2.708,0,0,0-.643,1.562H17.08v-.1a2.409,2.409,0,0,0-.52-1.494A1.588,1.588,0,0,0,15.3-6.494ZM29.535-3.616a4.4,4.4,0,0,1-.779,2.724A2.49,2.49,0,0,1,26.664.137,2.578,2.578,0,0,1,24.5-.854L24.435,0H23.273V-10.5h1.265v3.917a2.564,2.564,0,0,1,2.112-.95,2.505,2.505,0,0,1,2.116,1.019,4.53,4.53,0,0,1,.769,2.789ZM28.27-3.76a3.417,3.417,0,0,0-.5-2,1.652,1.652,0,0,0-1.436-.7,1.857,1.857,0,0,0-1.8,1.162v3.2A1.909,1.909,0,0,0,26.349-.937a1.643,1.643,0,0,0,1.415-.7A3.634,3.634,0,0,0,28.27-3.76Zm2.522-.007a4.369,4.369,0,0,1,.427-1.955,3.187,3.187,0,0,1,1.189-1.34,3.238,3.238,0,0,1,1.74-.472,3.119,3.119,0,0,1,2.444,1.046,4.024,4.024,0,0,1,.933,2.782v.089a4.407,4.407,0,0,1-.414,1.938A3.14,3.14,0,0,1,35.93-.342a3.275,3.275,0,0,1-1.767.479A3.111,3.111,0,0,1,31.726-.909a4,4,0,0,1-.933-2.769Zm1.271.15a3.164,3.164,0,0,0,.571,1.976A1.827,1.827,0,0,0,34.163-.9a1.816,1.816,0,0,0,1.531-.755,3.46,3.46,0,0,0,.567-2.116,3.159,3.159,0,0,0-.578-1.972,1.836,1.836,0,0,0-1.535-.755,1.816,1.816,0,0,0-1.511.745A3.434,3.434,0,0,0,32.064-3.616ZM40.486,0H39.221V-10.5h1.265Zm6.33-1.962a.931.931,0,0,0-.386-.8,3.718,3.718,0,0,0-1.347-.489,6.367,6.367,0,0,1-1.524-.492,2.169,2.169,0,0,1-.834-.684,1.635,1.635,0,0,1-.27-.943A1.919,1.919,0,0,1,43.224-6.9a3,3,0,0,1,1.965-.629,3.091,3.091,0,0,1,2.041.649,2.063,2.063,0,0,1,.783,1.661H46.741a1.142,1.142,0,0,0-.441-.9,1.652,1.652,0,0,0-1.111-.376,1.729,1.729,0,0,0-1.08.3.947.947,0,0,0-.39.786.767.767,0,0,0,.362.69,4.458,4.458,0,0,0,1.309.444,6.821,6.821,0,0,1,1.535.506,2.239,2.239,0,0,1,.872.708,1.74,1.74,0,0,1,.284,1.008,1.893,1.893,0,0,1-.793,1.589,3.326,3.326,0,0,1-2.058.6,3.725,3.725,0,0,1-1.572-.314,2.557,2.557,0,0,1-1.07-.878,2.117,2.117,0,0,1-.386-1.22h1.265a1.309,1.309,0,0,0,.509,1.008A1.976,1.976,0,0,0,45.23-.9a2.039,2.039,0,0,0,1.152-.291A.893.893,0,0,0,46.816-1.962ZM51.1,0H49.837V-7.4H51.1ZM49.735-9.358a.755.755,0,0,1,.188-.52.706.706,0,0,1,.557-.212.717.717,0,0,1,.561.212.747.747,0,0,1,.191.52.722.722,0,0,1-.191.513.73.73,0,0,1-.561.205.718.718,0,0,1-.557-.205A.73.73,0,0,1,49.735-9.358ZM54.5,0H53.235V-10.5H54.5Zm3.4,0H56.632V-10.5H57.9Zm1.688-3.767a4.369,4.369,0,0,1,.427-1.955A3.187,3.187,0,0,1,61.2-7.062a3.238,3.238,0,0,1,1.74-.472,3.119,3.119,0,0,1,2.444,1.046,4.024,4.024,0,0,1,.933,2.782v.089a4.407,4.407,0,0,1-.414,1.938A3.14,3.14,0,0,1,64.723-.342a3.275,3.275,0,0,1-1.767.479A3.111,3.111,0,0,1,60.519-.909a4,4,0,0,1-.933-2.769Zm1.271.15a3.164,3.164,0,0,0,.571,1.976A1.827,1.827,0,0,0,62.956-.9a1.816,1.816,0,0,0,1.531-.755,3.46,3.46,0,0,0,.567-2.116,3.159,3.159,0,0,0-.578-1.972,1.836,1.836,0,0,0-1.535-.755,1.816,1.816,0,0,0-1.511.745A3.434,3.434,0,0,0,60.857-3.616Z" transform="translate(1117.051 6758.128)" fill="#12263f"/>
    <path id="Trazado_898393" data-name="Trazado 898393" d="M-58.143,0h-1.319V-4.6H-64.48V0h-1.312V-9.953h1.313v4.279h5.018V-9.953h1.319Zm3.507,0H-55.9V-7.4h1.265ZM-56-9.358a.755.755,0,0,1,.188-.52.706.706,0,0,1,.557-.212.717.717,0,0,1,.561.212.747.747,0,0,1,.191.52.722.722,0,0,1-.191.513.73.73,0,0,1-.561.205.718.718,0,0,1-.557-.205A.73.73,0,0,1-56-9.358ZM-51.239,0H-52.5V-10.5h1.265Zm1.688-3.767a4.369,4.369,0,0,1,.427-1.955,3.187,3.187,0,0,1,1.189-1.34,3.238,3.238,0,0,1,1.74-.472A3.119,3.119,0,0,1-43.75-6.487a4.024,4.024,0,0,1,.933,2.782v.089a4.407,4.407,0,0,1-.414,1.938A3.14,3.14,0,0,1-44.413-.342,3.275,3.275,0,0,1-46.18.137,3.111,3.111,0,0,1-48.617-.909a4,4,0,0,1-.933-2.769Zm1.271.15a3.164,3.164,0,0,0,.571,1.976A1.827,1.827,0,0,0-46.18-.9a1.816,1.816,0,0,0,1.531-.755,3.46,3.46,0,0,0,.567-2.116,3.159,3.159,0,0,0-.578-1.972,1.836,1.836,0,0,0-1.535-.755,1.816,1.816,0,0,0-1.511.745A3.434,3.434,0,0,0-48.279-3.616ZM-34.7.137a3.232,3.232,0,0,1-2.447-.988,3.666,3.666,0,0,1-.943-2.642v-.232a4.438,4.438,0,0,1,.42-1.965A3.28,3.28,0,0,1-36.49-7.044a2.956,2.956,0,0,1,1.637-.489,2.77,2.77,0,0,1,2.242.95,4.114,4.114,0,0,1,.8,2.721v.526h-5.011a2.629,2.629,0,0,0,.639,1.767A2.009,2.009,0,0,0-34.627-.9a2.2,2.2,0,0,0,1.135-.273,2.851,2.851,0,0,0,.813-.725l.772.6A3.106,3.106,0,0,1-34.7.137Zm-.157-6.631a1.687,1.687,0,0,0-1.285.557,2.708,2.708,0,0,0-.643,1.562h3.705v-.1a2.409,2.409,0,0,0-.52-1.494A1.588,1.588,0,0,0-34.853-6.494Zm5.7-.9.041.93A2.7,2.7,0,0,1-26.9-7.533q2.345,0,2.365,2.646V0H-25.8V-4.895a1.7,1.7,0,0,0-.366-1.183,1.466,1.466,0,0,0-1.118-.383,1.825,1.825,0,0,0-1.08.328,2.228,2.228,0,0,0-.725.861V0h-1.265V-7.4Zm11.184,0,.034.82a2.732,2.732,0,0,1,2.194-.957,2.115,2.115,0,0,1,2.112,1.189,2.8,2.8,0,0,1,.96-.861,2.837,2.837,0,0,1,1.4-.328q2.434,0,2.475,2.577V0h-1.265V-4.881a1.7,1.7,0,0,0-.362-1.186,1.6,1.6,0,0,0-1.217-.393,1.677,1.677,0,0,0-1.169.42,1.706,1.706,0,0,0-.54,1.131V0h-1.271V-4.847A1.411,1.411,0,0,0-16.2-6.46,1.692,1.692,0,0,0-17.9-5.4V0h-1.265V-7.4Zm10.746,3.63a4.369,4.369,0,0,1,.427-1.955,3.187,3.187,0,0,1,1.189-1.34,3.238,3.238,0,0,1,1.74-.472A3.119,3.119,0,0,1-1.422-6.487,4.024,4.024,0,0,1-.489-3.705v.089A4.407,4.407,0,0,1-.9-1.678,3.14,3.14,0,0,1-2.085-.342,3.275,3.275,0,0,1-3.852.137,3.111,3.111,0,0,1-6.289-.909a4,4,0,0,1-.933-2.769Zm1.271.15A3.164,3.164,0,0,0-5.38-1.641,1.827,1.827,0,0,0-3.852-.9a1.816,1.816,0,0,0,1.531-.755,3.46,3.46,0,0,0,.567-2.116,3.159,3.159,0,0,0-.578-1.972,1.836,1.836,0,0,0-1.535-.755,1.816,1.816,0,0,0-1.511.745A3.434,3.434,0,0,0-5.951-3.616ZM2.471,0H1.207V-10.5H2.471ZM4.187-3.76A4.333,4.333,0,0,1,4.994-6.5,2.551,2.551,0,0,1,7.106-7.533a2.565,2.565,0,0,1,2.058.889V-10.5h1.265V0H9.266L9.2-.793a2.575,2.575,0,0,1-2.112.93A2.526,2.526,0,0,1,5-.916a4.382,4.382,0,0,1-.81-2.748Zm1.265.144a3.281,3.281,0,0,0,.52,1.969,1.68,1.68,0,0,0,1.436.711,1.845,1.845,0,0,0,1.757-1.08v-3.4A1.859,1.859,0,0,0,7.42-6.46a1.687,1.687,0,0,0-1.449.718A3.612,3.612,0,0,0,5.452-3.616ZM15.459.137a3.232,3.232,0,0,1-2.447-.988,3.666,3.666,0,0,1-.943-2.642v-.232a4.438,4.438,0,0,1,.42-1.965,3.28,3.28,0,0,1,1.176-1.354A2.956,2.956,0,0,1,15.3-7.533a2.77,2.77,0,0,1,2.242.95,4.114,4.114,0,0,1,.8,2.721v.526H13.333a2.629,2.629,0,0,0,.639,1.767A2.009,2.009,0,0,0,15.528-.9a2.2,2.2,0,0,0,1.135-.273,2.851,2.851,0,0,0,.813-.725l.772.6A3.106,3.106,0,0,1,15.459.137ZM15.3-6.494a1.687,1.687,0,0,0-1.285.557,2.708,2.708,0,0,0-.643,1.562H17.08v-.1a2.409,2.409,0,0,0-.52-1.494A1.588,1.588,0,0,0,15.3-6.494ZM29.535-3.616a4.4,4.4,0,0,1-.779,2.724A2.49,2.49,0,0,1,26.664.137,2.578,2.578,0,0,1,24.5-.854L24.435,0H23.273V-10.5h1.265v3.917a2.564,2.564,0,0,1,2.112-.95,2.505,2.505,0,0,1,2.116,1.019,4.53,4.53,0,0,1,.769,2.789ZM28.27-3.76a3.417,3.417,0,0,0-.5-2,1.652,1.652,0,0,0-1.436-.7,1.857,1.857,0,0,0-1.8,1.162v3.2A1.909,1.909,0,0,0,26.349-.937a1.643,1.643,0,0,0,1.415-.7A3.634,3.634,0,0,0,28.27-3.76Zm2.522-.007a4.369,4.369,0,0,1,.427-1.955,3.187,3.187,0,0,1,1.189-1.34,3.238,3.238,0,0,1,1.74-.472,3.119,3.119,0,0,1,2.444,1.046,4.024,4.024,0,0,1,.933,2.782v.089a4.407,4.407,0,0,1-.414,1.938A3.14,3.14,0,0,1,35.93-.342a3.275,3.275,0,0,1-1.767.479A3.111,3.111,0,0,1,31.726-.909a4,4,0,0,1-.933-2.769Zm1.271.15a3.164,3.164,0,0,0,.571,1.976A1.827,1.827,0,0,0,34.163-.9a1.816,1.816,0,0,0,1.531-.755,3.46,3.46,0,0,0,.567-2.116,3.159,3.159,0,0,0-.578-1.972,1.836,1.836,0,0,0-1.535-.755,1.816,1.816,0,0,0-1.511.745A3.434,3.434,0,0,0,32.064-3.616ZM40.486,0H39.221V-10.5h1.265Zm6.33-1.962a.931.931,0,0,0-.386-.8,3.718,3.718,0,0,0-1.347-.489,6.367,6.367,0,0,1-1.524-.492,2.169,2.169,0,0,1-.834-.684,1.635,1.635,0,0,1-.27-.943A1.919,1.919,0,0,1,43.224-6.9a3,3,0,0,1,1.965-.629,3.091,3.091,0,0,1,2.041.649,2.063,2.063,0,0,1,.783,1.661H46.741a1.142,1.142,0,0,0-.441-.9,1.652,1.652,0,0,0-1.111-.376,1.729,1.729,0,0,0-1.08.3.947.947,0,0,0-.39.786.767.767,0,0,0,.362.69,4.458,4.458,0,0,0,1.309.444,6.821,6.821,0,0,1,1.535.506,2.239,2.239,0,0,1,.872.708,1.74,1.74,0,0,1,.284,1.008,1.893,1.893,0,0,1-.793,1.589,3.326,3.326,0,0,1-2.058.6,3.725,3.725,0,0,1-1.572-.314,2.557,2.557,0,0,1-1.07-.878,2.117,2.117,0,0,1-.386-1.22h1.265a1.309,1.309,0,0,0,.509,1.008A1.976,1.976,0,0,0,45.23-.9a2.039,2.039,0,0,0,1.152-.291A.893.893,0,0,0,46.816-1.962ZM51.1,0H49.837V-7.4H51.1ZM49.735-9.358a.755.755,0,0,1,.188-.52.706.706,0,0,1,.557-.212.717.717,0,0,1,.561.212.747.747,0,0,1,.191.52.722.722,0,0,1-.191.513.73.73,0,0,1-.561.205.718.718,0,0,1-.557-.205A.73.73,0,0,1,49.735-9.358ZM54.5,0H53.235V-10.5H54.5Zm3.4,0H56.632V-10.5H57.9Zm1.688-3.767a4.369,4.369,0,0,1,.427-1.955A3.187,3.187,0,0,1,61.2-7.062a3.238,3.238,0,0,1,1.74-.472,3.119,3.119,0,0,1,2.444,1.046,4.024,4.024,0,0,1,.933,2.782v.089a4.407,4.407,0,0,1-.414,1.938A3.14,3.14,0,0,1,64.723-.342a3.275,3.275,0,0,1-1.767.479A3.111,3.111,0,0,1,60.519-.909a4,4,0,0,1-.933-2.769Zm1.271.15a3.164,3.164,0,0,0,.571,1.976A1.827,1.827,0,0,0,62.956-.9a1.816,1.816,0,0,0,1.531-.755,3.46,3.46,0,0,0,.567-2.116,3.159,3.159,0,0,0-.578-1.972,1.836,1.836,0,0,0-1.535-.755,1.816,1.816,0,0,0-1.511.745A3.434,3.434,0,0,0,60.857-3.616Z" transform="translate(1327.051 6758.128)" fill="#12263f"/>
    <g id="Grupo_1126048" data-name="Grupo 1126048" transform="translate(819.051 6640)">
      <path id="Trazado_896355" data-name="Trazado 896355" d="M6.586,0V66.786H0L7.32,79.462l7.32-12.676H8.054V0Z" transform="translate(0)" fill="#12263f"/>
      <path id="Trazado_896356" data-name="Trazado 896356" d="M41.579,0l-7.32,12.677h6.586V79.462h1.468V12.677H48.9Z" transform="translate(16.038)" fill="#12263f"/>
    </g>
    <g id="Grupo_1126054" data-name="Grupo 1126054" transform="translate(0.001 -4)">
      <g id="Grupo_1126051" data-name="Grupo 1126051" transform="translate(15.602)">
        <text id="_2XT_Bolsillo" data-name="2XTBolsillo" transform="translate(1089.051 6680.501)" fill="#12263f" font-size="14" font-family="Roboto-Regular, Roboto"><tspan x="0" y="0">2XT</tspan><tspan x="0" y="18">Bolsillo</tspan></text>
        <g id="Grupo_1126050" data-name="Grupo 1126050" transform="translate(1054.449 6634)">
          <g id="Grupo_1126049" data-name="Grupo 1126049" transform="translate(0 0)" clip-path="url(#clip-path)">
            <path id="Trazado_896357" data-name="Trazado 896357" d="M93.5,1.622l-.3-1.459h-.765C91.088.176,6.025.673,1.512.222L.957,0,0,.963l.343.511c.23,2.241.184,21.106.143,37.8C.377,83.491.448,83.521,1.338,83.891l.575.227.017-.016c1.845,1.339,8.451,8.261,14.268,14.725l.27.3H77.934l15.44-15.44,0-.381c-.3-30.673-.562-76.606-.116-81.581ZM77.183,97.314H17.275C6.991,85.9,3.68,83.063,2.482,82.353,2.2,78.832,2.256,57,2.3,39.283c.062-25.516.083-34.206-.157-37.268,3.283.226,13.262.27,44.811.173C65,2.132,86.11,2.049,91.51,1.952,91.2,6,90.959,21.462,91.553,82.943Z" transform="translate(0 0)" fill="#12263f"/>
            <path id="Trazado_896358" data-name="Trazado 896358" d="M19.859,69.716h1.209V22.291h5.424L20.465,11.853,14.438,22.291h5.422Z" transform="translate(3.015 2.475)" fill="#12263f"/>
          </g>
        </g>
      </g>
    </g>
    <g id="Grupo_1126053" data-name="Grupo 1126053" transform="translate(1270.051 6652)">
      <g id="Grupo_1126052" data-name="Grupo 1126052" transform="translate(0 0)" clip-path="url(#clip-path-2)">
        <path id="Trazado_896359" data-name="Trazado 896359" d="M26.409.137C.628-.1.626-.1.273.733L0,1.388l.19.192V45.016L10.353,55.5l32.277-.316,9.885-8.9V.417L51.478.4S38.952.252,26.409.137M50.416,45.356l-8.6,7.741-30.582.3L2.289,44.166V2.131c5.087-.1,30.395.146,48.127.36Z" transform="translate(0 0)" fill="#12263f"/>
        <path id="Trazado_896360" data-name="Trazado 896360" d="M44.046,1.581V45.017L54.207,55.505l32.276-.316,9.887-8.9V.418L95.331.405S82.8.253,70.263.137C61.3.054,55.452,0,51.623,0c-7.186,0-7.267.189-7.5.735l-.273.655Zm2.1.551c5.087-.1,30.393.146,48.125.358V45.357l-8.6,7.74-30.581.3-8.942-9.232Z" transform="translate(17.515 0)" fill="#12263f"/>
        <path id="Trazado_896361" data-name="Trazado 896361" d="M63.909,43.078h1.4V18.993h6.278L64.609,6.909,57.631,18.993h6.278Z" transform="translate(23.018 2.759)" fill="#12263f"/>
        <path id="Trazado_896362" data-name="Trazado 896362" d="M20.055,43.078h1.4V18.993h6.278L20.755,6.909,13.778,18.993h6.278Z" transform="translate(5.503 2.759)" fill="#12263f"/>
      </g>
    </g>
  </g>
</svg>
