<svg xmlns="http://www.w3.org/2000/svg" xmlns:xlink="http://www.w3.org/1999/xlink" width="204.37" height="169.554" viewBox="0 0 204.37 169.554">
  <defs>
    <clipPath id="clip-path">
      <rect id="Rectángulo_413451" data-name="Rectángulo 413451" width="204.37" height="169.554" fill="none"/>
    </clipPath>
  </defs>
  <g id="Grupo_1124577" data-name="Grupo 1124577" clip-path="url(#clip-path)">
    <path id="Trazado_895446" data-name="Trazado 895446" d="M34.58,60.615a50.788,50.788,0,0,0,1.5,5.483,98.4,98.4,0,0,0,5.375,9.3,5.4,5.4,0,0,0,1.232,1.463c1.465.658,5.519.33,5.519.33a7.522,7.522,0,0,0,.666-1.16,10.378,10.378,0,0,0,.56-6.311,4.992,4.992,0,0,1-2.621-.042c-1.81-.551-3-2.192-6.145-9.271-.836-1.884-1.507-3.472-1.981-4.612L34.58,60.615" transform="translate(4.718 7.612)" fill="#005177"/>
    <rect id="Rectángulo_413441" data-name="Rectángulo 413441" width="68.187" height="132.779" transform="translate(76.183 36.775)" fill="#88b788"/>
    <path id="Trazado_895447" data-name="Trazado 895447" d="M144.935,35.537l3.28-1.56L155.229,48.8,95.267,77.592a16.4,16.4,0,0,1,7.769-21.86Z" transform="translate(12.78 4.636)" fill="#d9f0ff"/>
    <path id="Trazado_895448" data-name="Trazado 895448" d="M140.491,33.3,124.206,35.3l7.91,64.923A16.4,16.4,0,0,0,146.4,81.941Z" transform="translate(16.946 4.544)" fill="#fff"/>
    <path id="Trazado_895449" data-name="Trazado 895449" d="M108.01,17.954a16.014,16.014,0,0,0,17.444,13.987l.977,7.9,16.285-1.993L140.11,16.66l-.318-2.6a16.009,16.009,0,0,0-31.781,3.89M122.8,7.061a8.972,8.972,0,1,1-7.814,10,8.975,8.975,0,0,1,7.814-10" transform="translate(14.72 0)" fill="#ffb74d"/>
    <path id="Trazado_895450" data-name="Trazado 895450" d="M147.694,50.7l7.192-3.41a16.007,16.007,0,1,0,7.4-21.687l-2.363,1.123-19.283,9.159Zm17.658-18.762A8.973,8.973,0,1,1,161.1,43.891a8.976,8.976,0,0,1,4.248-11.955" transform="translate(19.188 3.281)" fill="#ffb74d"/>
    <path id="Trazado_895451" data-name="Trazado 895451" d="M131.976,48.667a2.738,2.738,0,1,1,3.718-1.081,2.738,2.738,0,0,1-3.718,1.081" transform="translate(17.812 5.939)" fill="#ffb74d"/>
    <path id="Trazado_895452" data-name="Trazado 895452" d="M178.978,165.139H90.025L148.065,32.36h30.913Z" transform="translate(12.282 4.415)" fill="#a5d6a7"/>
    <path id="Trazado_895453" data-name="Trazado 895453" d="M79.372,33.551H59.023V26.305A2.674,2.674,0,0,1,61.7,23.631h15a2.674,2.674,0,0,1,2.675,2.674Z" transform="translate(8.053 3.224)" fill="#003650"/>
    <path id="Trazado_895454" data-name="Trazado 895454" d="M91.958,160.137H50.067a4.35,4.35,0,0,1-4.35-4.35V36.71a4.35,4.35,0,0,1,4.35-4.35H91.958a4.35,4.35,0,0,1,4.35,4.35V155.787a4.35,4.35,0,0,1-4.35,4.35" transform="translate(6.237 4.415)" fill="#ffe060"/>
    <path id="Trazado_895455" data-name="Trazado 895455" d="M136.754,123.7h17.71v-6.382a3.254,3.254,0,0,0-3.255-3.255h-11.2a3.254,3.254,0,0,0-3.255,3.255Z" transform="translate(18.658 15.562)" fill="#003650"/>
    <rect id="Rectángulo_413442" data-name="Rectángulo 413442" width="127.631" height="32.446" transform="translate(41.208 137.108)" fill="#ffb200"/>
    <rect id="Rectángulo_413443" data-name="Rectángulo 413443" width="54.3" height="32.446" transform="translate(136.96 137.108)" fill="#ffcc5c"/>
    <rect id="Rectángulo_413444" data-name="Rectángulo 413444" width="15.083" height="32.446" transform="translate(26.983 137.108)" fill="#ff9000"/>
    <rect id="Rectángulo_413445" data-name="Rectángulo 413445" width="2.783" height="10.603" transform="translate(125.693 137.108)" fill="#ff9000"/>
    <rect id="Rectángulo_413446" data-name="Rectángulo 413446" width="2.783" height="10.603" transform="translate(101.061 137.108)" fill="#ff9000"/>
    <rect id="Rectángulo_413447" data-name="Rectángulo 413447" width="2.783" height="10.603" transform="translate(76.426 137.108)" fill="#ff9000"/>
    <rect id="Rectángulo_413448" data-name="Rectángulo 413448" width="2.783" height="10.603" transform="translate(51.792 137.108)" fill="#ff9000"/>
    <rect id="Rectángulo_413449" data-name="Rectángulo 413449" width="2.783" height="10.603" transform="translate(174.96 137.108)" fill="#ff9000"/>
    <rect id="Rectángulo_413450" data-name="Rectángulo 413450" width="2.783" height="10.603" transform="translate(150.327 137.108)" fill="#ff9000"/>
    <path id="Trazado_895456" data-name="Trazado 895456" d="M30.656,54.033s2.951,5.347,7.872,4.643a28.821,28.821,0,0,0,1.544-4.164c.051-.213.1-.418.151-.614.48-1.942.8-3.019.8-3.019l0,0c-.185-.134-6.232-4.443-6.28-4.214-1.117,5.295-4.084,7.37-4.084,7.37" transform="translate(4.182 6.365)" fill="#ffb29f"/>
    <path id="Trazado_895457" data-name="Trazado 895457" d="M34.582,47.91a10.742,10.742,0,0,0,5.106,5.822c.48-1.942.8-3.019.8-3.019l0,0c-.173-.093-6.011-3.2-5.9-2.8" transform="translate(4.718 6.532)" fill="#ff876f"/>
    <path id="Trazado_895458" data-name="Trazado 895458" d="M42,52.095s-7.936.01-7.866-4.931-.907-8.27,4.163-8.485,6.026,1.684,6.4,3.339-.635,9.947-2.7,10.077" transform="translate(4.653 5.275)" fill="#ffb29f"/>
    <path id="Trazado_895459" data-name="Trazado 895459" d="M34.689,49.084c-1.453.465-4.421-2.5-4.892-5.842A7.646,7.646,0,0,1,31.13,37.91c3.254-4.375,11.758-4.57,14.479-1.03.859,1.117,1.418,2.966.666,4.18-1.018,1.646-4.381,2.023-8.3.3.118.153,1.384,1.849.716,3.285a2.112,2.112,0,0,1-.422.6,2.274,2.274,0,0,0-2.415-1.039,1.606,1.606,0,0,0-.969.833,2,2,0,0,0,.9,2.291c-.27,1.173-.689,1.618-1.1,1.749" transform="translate(4.058 4.695)" fill="#003650"/>
    <path id="Trazado_895460" data-name="Trazado 895460" d="M14.286,92.2A45.138,45.138,0,0,0,38.3,92.144a29.893,29.893,0,0,1-.01-14.427C40,71.188,43.87,66.65,42.664,59.74a16.513,16.513,0,0,0-1.046-3.554l-7.186-2.624c-2.46-.9-4.5.928-4.965,1.173-3.576,1.871-5.081,5.536-5.909,7.67-4.245,10.929-8.922,28.47-9.272,29.793" transform="translate(1.949 7.274)" fill="#006a99"/>
    <path id="Trazado_895461" data-name="Trazado 895461" d="M49.1,68.726a21.312,21.312,0,0,0,3.35-.771,28.16,28.16,0,0,0,6.07-3.923c4.93-3.882,10.117-9.019,10.117-9.019,1.347-.139,2.706-1.525,3.318-3.3s.61-1.24,1.072-2.49a.731.731,0,0,0-.5-1.058,1.662,1.662,0,0,0-1.3.1A6.582,6.582,0,0,0,68.1,50.887a1.03,1.03,0,0,0-.3-.718c-.2-.134-.767,1.627-1.007,2.416C65.251,54.4,60,56.853,55.971,58.553c-2.426,1.026-4.413,1.777-4.882,1.951a19.462,19.462,0,0,1-4.272-.192A27.423,27.423,0,0,1,49.1,68.726" transform="translate(6.387 6.56)" fill="#ffb29f"/>
    <path id="Trazado_895462" data-name="Trazado 895462" d="M34.936,69.694c5.954-.663,17.056-1.864,19.707-2.454,1.708-.38,4.288-.457,6.889-1.893C62.767,60.484,58.6,57.3,58.6,57.3c-2.427,1.025-4.414,1.776-4.883,1.95-1.25.466-16.781-1.789-16.781-1.789s-6.178-1.151-8.235,1.763a6.42,6.42,0,0,0-.241,7.056,6.493,6.493,0,0,0,6.471,3.409" transform="translate(3.755 7.81)" fill="#006a99"/>
    <path id="Trazado_895463" data-name="Trazado 895463" d="M38.176,68.984l-3.8-6.246,1.8,11.63Z" transform="translate(4.69 8.559)" fill="#005177"/>
    <path id="Trazado_895464" data-name="Trazado 895464" d="M37.351,87.352s-.663,8.262-1.44,18.192c-1.058,13.489-2.33,30.059-2.456,33.2-.218,5.451-1.091,14.17-1.091,14.17l-11.387-.042L18.85,86.208Z" transform="translate(2.572 11.761)" fill="#003650"/>
    <path id="Trazado_895465" data-name="Trazado 895465" d="M36.7,88.726Q28.034,110.8,19.067,133.068q-3.87,9.606-7.755,19.144-2.436-.859-5.009-1.879-2.519-1-4.84-2.034c3.417-16.165,6.363-27.149,8.505-34.4.769-2.6,2.909-9.709,5.238-19.492,1.109-4.662,1.925-8.516,2.447-11.081Z" transform="translate(0.2 11.369)" fill="#004070"/>
    <path id="Trazado_895466" data-name="Trazado 895466" d="M29.811,144.9s10.132,2.587,10.484,4.845H21.267l-.232-4.845Z" transform="translate(2.87 19.769)" fill="#006a99"/>
    <path id="Trazado_895467" data-name="Trazado 895467" d="M11.512,144.414a2.81,2.81,0,0,0,.016,2.055c.786,1.644,3.98.822,5.049,2.6a2.507,2.507,0,0,1,.331,1.281l-6.552.032L0,145.057q.832-2.279,1.661-4.556,4.926,1.955,9.851,3.913" transform="translate(0 19.169)" fill="#006a99"/>
  </g>
</svg>
