<svg xmlns="http://www.w3.org/2000/svg" xmlns:xlink="http://www.w3.org/1999/xlink" width="190" height="178" viewBox="0 0 190 178">
  <defs>
    <clipPath id="clip-path">
      <rect id="Rectángulo_413439" data-name="Rectángulo 413439" width="190" height="178" transform="translate(1230.051 1387)" fill="#fff" stroke="#707070" stroke-width="1"/>
    </clipPath>
    <clipPath id="clip-path-2">
      <rect id="Rectángulo_413438" data-name="Rectángulo 413438" width="159.885" height="135.199" fill="none"/>
    </clipPath>
  </defs>
  <g id="Enmascarar_grupo_1098747" data-name="Enmascarar grupo 1098747" transform="translate(-1230.051 -1387)" clip-path="url(#clip-path)">
    <g id="Grupo_1124567" data-name="Grupo 1124567" transform="translate(1244.072 1406.749)">
      <g id="Grupo_1124566" data-name="Grupo 1124566" clip-path="url(#clip-path-2)">
        <path id="Trazado_895412" data-name="Trazado 895412" d="M104.752,63.787s2.068-1.306,3.35-1.077c.266-.1.834-.322.69-.452-.186-.168-.682-.661-.632-.809s.545.248,1.265.372.917.273,1.091.545.8.39.8.39h0c.367-.043.675-.086.87-.116.609-.255,1.429-.6,2.334-1,2.6-1.162,5.863-2.72,6.577-3.512,1.653-1.845,3.63-8.024,5.492-12.1.095-.22.192-.435.287-.644.071-.153.142-.3.213-.453a.393.393,0,0,1,.059-.106c.093-.167.167-.319.243-.457,0-.014.016-.029.031-.046a13.257,13.257,0,0,1,1.045-1.569c.411-.441.805-.625,1.17-.473a4.8,4.8,0,0,1,1.071.822q.185.181.377.406a1.14,1.14,0,0,1,.213.259,6.348,6.348,0,0,1,1.13,2.247,7.859,7.859,0,0,1,.265,2.493,13.393,13.393,0,0,1-1.934,5.509,2.416,2.416,0,0,1-.151.275c-2.12,3.731-5.382,7.465-7.371,8.685-1.306.808-4.589,1.3-7.357,1.584-1.17.129-2.254.214-3.06.271-.063.01-.135.02-.222.031a29.1,29.1,0,0,0-3.491.848c-1.907.629-3-.656-3.808-1.053s-.547-.864-.547-.864" transform="translate(6.806 2.744)" fill="#ffb29f"/>
        <path id="Trazado_895413" data-name="Trazado 895413" d="M100.539,124.065H137.7S119.278,69.607,119.676,61.6s9.612-47.26,9.612-47.26l-7.812-4.805L100.657,26.151l-.118-.141" transform="translate(6.534 0.62)" fill="#dfd4f9"/>
        <rect id="Rectángulo_413434" data-name="Rectángulo 413434" width="48.284" height="135.198" transform="translate(59.205)" fill="#d1c4e9"/>
        <path id="Trazado_895414" data-name="Trazado 895414" d="M103.156,123.558H98.384v-1.193h4.772Zm-9.546,0H88.838v-1.193H93.61Zm-9.546,0H79.293v-1.193h4.772Zm-9.546,0H69.747v-1.193h4.772Zm-6.7-2.059-1.133-.378c.359-1.072.879-2.628,1.515-4.549l1.132.375c-.636,1.922-1.156,3.478-1.514,4.552m3.011-9.1-1.135-.371c.466-1.424.963-2.948,1.481-4.549l1.135.367c-.519,1.6-1.015,3.128-1.481,4.552m2.948-9.109-1.137-.363c.476-1.485.961-3.01,1.448-4.558l1.137.359c-.488,1.551-.973,3.076-1.448,4.562m2.878-9.131-1.14-.355c.473-1.522.941-3.05,1.4-4.571l1.142.347c-.462,1.523-.934,3.054-1.407,4.578m2.785-9.164-1.144-.339c.462-1.56.91-3.1,1.339-4.588l1.147.328c-.429,1.5-.879,3.036-1.342,4.6m2.634-9.212-1.151-.315c.444-1.629.851-3.177,1.21-4.615l1.158.289c-.361,1.445-.77,3-1.216,4.641m2.293-9.334-1.169-.237a24.358,24.358,0,0,0,.594-4.264l-.006-.244,1.186-.16c.011.2.013.3.013.4a24.89,24.89,0,0,1-.618,4.5m-1.185-9.511c-.228-1.4-.51-2.985-.833-4.7l1.173-.222c.325,1.723.609,3.317.838,4.728Zm-1.744-9.385c-.306-1.52-.627-3.09-.961-4.681l1.167-.245c.333,1.6.657,3.168.963,4.69ZM79.481,38.2c-.337-1.573-.678-3.14-1.015-4.67l1.165-.257c.337,1.534.678,3.1,1.017,4.674Zm-2.049-9.338c-.368-1.654-.722-3.222-1.049-4.666l1.163-.263c.327,1.443.683,3.014,1.052,4.668Zm25.688-1.136-1.325-1.058.743-.933.872.7-.259.325.459.389Zm-5.057-4.035-3.73-2.977.743-.933,3.73,2.978ZM75.315,19.53c-.584-2.536-.946-4.081-.946-4.083l-.1-.417.882-.543.625,1.016-.148.092c.144.621.444,1.906.849,3.669ZM90.6,17.735l-3.731-2.977.743-.932L91.347,16.8ZM79.842,13l-.624-1.016,3.44-2.117,1.229.981-.743.932-.574-.456Z" transform="translate(4.334 0.641)" fill="#714e55"/>
        <path id="Trazado_895415" data-name="Trazado 895415" d="M27.334,107.015l1.966,2.964a3.537,3.537,0,0,0,6.482-1.813l.143-3.555Z" transform="translate(1.777 6.799)" fill="#fff"/>
        <path id="Trazado_895416" data-name="Trazado 895416" d="M32.3,112.207a4.12,4.12,0,0,1-3.439-1.851l-2.421-3.647,10.172-2.846-.176,4.374a4.141,4.141,0,0,1-4.136,3.969m-3.958-4.791,1.513,2.281a2.939,2.939,0,0,0,5.387-1.506l.111-2.735Z" transform="translate(1.718 6.75)" fill="#ff5a19"/>
        <rect id="Rectángulo_413435" data-name="Rectángulo 413435" width="20.583" height="5.489" transform="translate(1.94 38.363) rotate(-15.63)" fill="#003650"/>
        <path id="Trazado_895417" data-name="Trazado 895417" d="M38.828,92.907c0,.146,0,.293-.005.439a5.687,5.687,0,0,1-.112.927l0,.017-2.264,11.082-8.591,2.4-7.684-8.3-.012-.013a5.744,5.744,0,0,1-.579-.735c-.082-.12-.157-.245-.23-.372Z" transform="translate(1.257 6.038)" fill="#fff"/>
        <path id="Trazado_895418" data-name="Trazado 895418" d="M27.717,108.494l-7.979-8.616a6.243,6.243,0,0,1-.6-.774c-.086-.128-.171-.265-.251-.408l-.374-.662,20.944-5.859.025.761c0,.161,0,.324,0,.486a6.094,6.094,0,0,1-.112.958l-.015.073L37.01,105.9Zm-7.024-9.338,7.4,7.994,7.889-2.208,2.191-10.724c.033-.16.059-.314.076-.469l-17.9,5.009q.142.179.3.347Z" transform="translate(1.203 5.991)" fill="#ff5a19"/>
        <path id="Trazado_895419" data-name="Trazado 895419" d="M21.773,31.427,1.948,36.972.192,30.7a5.147,5.147,0,0,1,3.57-6.343l9.912-2.773a5.147,5.147,0,0,1,6.343,3.57Z" transform="translate(0 1.39)" fill="#ff2b4b"/>
        <path id="Trazado_895420" data-name="Trazado 895420" d="M9.825,39.25l17.007,60.793L27.1,101a1.364,1.364,0,0,0-.921.853l-.7,1.938a1.372,1.372,0,0,1-2.15.6l-2.7-2.172c-.081-.12-.157-.245-.229-.373a6.039,6.039,0,0,1-.567-1.359L3.217,41.1Z" transform="translate(0.209 2.551)" fill="#ffb200"/>
        <path id="Trazado_895421" data-name="Trazado 895421" d="M22.236,35.778,38.848,95.164a6.1,6.1,0,0,1,.222,1.456c0,.147,0,.294-.005.439l-1.178,3.256a1.372,1.372,0,0,1-2.151.6l-1.6-1.292a1.36,1.36,0,0,0-1.229-.251l-.266-.953L15.628,37.628Z" transform="translate(1.016 2.325)" fill="#ffda94"/>
        <path id="Trazado_895422" data-name="Trazado 895422" d="M9.423,39.363,26.7,101.108a1.362,1.362,0,0,1,1.23.252l1.6,1.292a1.372,1.372,0,0,0,2.151-.6l.7-1.936a1.363,1.363,0,0,1,.92-.855L16.031,37.514Z" transform="translate(0.612 2.438)" fill="#ffcc5c"/>
        <path id="Trazado_895423" data-name="Trazado 895423" d="M46.243,25.81l-1.095-3.385a3.537,3.537,0,0,0-6.731,0L37.323,25.81Z" transform="translate(2.426 1.298)" fill="#003650"/>
        <rect id="Rectángulo_413436" data-name="Rectángulo 413436" width="20.583" height="5.489" transform="translate(33.926 101.6)" fill="#fff"/>
        <path id="Trazado_895424" data-name="Trazado 895424" d="M53.072,101.522H31.295V94.84H53.072Zm-20.583-1.193h19.39v-4.3H32.489Z" transform="translate(2.034 6.164)" fill="#ff5a19"/>
        <path id="Trazado_895425" data-name="Trazado 895425" d="M32.014,36.816c.035-.142.076-.283.121-.421a5.693,5.693,0,0,1,.359-.863.044.044,0,0,1,.007-.016l5.165-10.062h8.921l5.165,10.062.007.016a5.659,5.659,0,0,1,.359.864c.047.137.086.278.121.42Z" transform="translate(2.081 1.654)" fill="#f7eedc"/>
        <path id="Trazado_895426" data-name="Trazado 895426" d="M31.846,100.553H52.432v6.519a5.147,5.147,0,0,1-5.147,5.147H36.992a5.146,5.146,0,0,1-5.146-5.147Z" transform="translate(2.07 6.535)" fill="#fff"/>
        <path id="Trazado_895427" data-name="Trazado 895427" d="M47.322,112.851H37.028a5.749,5.749,0,0,1-5.742-5.744V99.993H53.064v7.114a5.749,5.749,0,0,1-5.742,5.744M32.479,101.186v5.921a4.556,4.556,0,0,0,4.55,4.551H47.322a4.556,4.556,0,0,0,4.55-4.551v-5.921Z" transform="translate(2.033 6.499)" fill="#ff5a19"/>
        <path id="Trazado_895428" data-name="Trazado 895428" d="M44.733,99.482V35.367a1.363,1.363,0,0,0,1.117-.573l1.2-1.678a1.374,1.374,0,0,1,2.233,0l2.014,2.82c.046.137.085.278.12.419a6.042,6.042,0,0,1,.18,1.462V99.483Z" transform="translate(2.907 2.115)" fill="#ffda94"/>
        <path id="Trazado_895429" data-name="Trazado 895429" d="M31.846,99.483V37.817a6.026,6.026,0,0,1,.18-1.461c.035-.142.076-.283.121-.421l2.012-2.819a1.374,1.374,0,0,1,2.233,0l1.2,1.678a1.364,1.364,0,0,0,1.117.573V99.482Z" transform="translate(2.07 2.115)" fill="#ffb200"/>
        <path id="Trazado_895430" data-name="Trazado 895430" d="M45.151,99.483V35.367a1.365,1.365,0,0,1-1.117-.574l-1.2-1.677a1.373,1.373,0,0,0-2.233,0l-1.2,1.677a1.364,1.364,0,0,1-1.116.574V99.483Z" transform="translate(2.489 2.115)" fill="#ffcc5c"/>
        <rect id="Rectángulo_413437" data-name="Rectángulo 413437" width="58.731" height="74.472" transform="translate(2.913 60.727)" fill="#dfd4f9"/>
        <path id="Trazado_895431" data-name="Trazado 895431" d="M16.494,130.428H7.556V77.055a4.469,4.469,0,1,1,8.938,0Z" transform="translate(0.491 4.718)" fill="#d1c4e9"/>
        <path id="Trazado_895432" data-name="Trazado 895432" d="M35.05,130.428H26.112V77.055a4.469,4.469,0,1,1,8.938,0Z" transform="translate(1.697 4.718)" fill="#d1c4e9"/>
        <path id="Trazado_895433" data-name="Trazado 895433" d="M53.605,130.428H44.667V77.055a4.469,4.469,0,1,1,8.938,0Z" transform="translate(2.903 4.718)" fill="#d1c4e9"/>
        <path id="Trazado_895434" data-name="Trazado 895434" d="M126.073,127.591l2.009.749s8.728-12.106,9.8-22.757a16.235,16.235,0,0,0-.285-5.445s.085-.487.234-1.348c.068-.4.153-.886.25-1.44.284-1.626.674-3.851,1.12-6.385,1.028-5.829,2.357-13.28,3.392-18.758l-.542-.174-5.86-1.89-1.21-3.846-4.362-1.148s-.974,1.906-1.847,10.911c-.16,1.182-.3,2.485-.416,3.9a77.087,77.087,0,0,0,.415,15.775c.2,1.564.454,3.181.767,4.841a21.69,21.69,0,0,1,.167,4.78c-.439,8.707-3.635,22.238-3.635,22.238" transform="translate(8.194 4.234)" fill="#003650"/>
        <path id="Trazado_895435" data-name="Trazado 895435" d="M132.133,67.7l.219-1.881c3.673.976,13.49-2.726,13.49-2.726s3.558,3.128,3.092,10.628c-.228,3.66-.645,19.215-1.08,23.818-.158,1.668-.3,2.855-.351,3.329v0a.66.66,0,0,0,.107.408,21.637,21.637,0,0,1,1.606,3.377c4.271,11.382-.657,25.4-.657,25.4l-1.279-.516s-2.805-15.6-5.084-22.488a13.567,13.567,0,0,0-1.1-2.636,29.789,29.789,0,0,1-2.744-7.321,180.188,180.188,0,0,1-3.692-19.419c-.116.005-2.526-9.974-2.526-9.974" transform="translate(8.588 4.101)" fill="#003650"/>
        <path id="Trazado_895436" data-name="Trazado 895436" d="M140.572,127.3h10.121a5.558,5.558,0,0,0-.285-2.713c-.507-1.124-1.3-1.634-1.111-2.993a3.64,3.64,0,0,1-3.153,1.207,11.14,11.14,0,0,1-1.756,2.277c-.662.475-3.611.306-3.815,2.222" transform="translate(9.136 7.903)" fill="#006a99"/>
        <path id="Trazado_895437" data-name="Trazado 895437" d="M120.167,127.268h10.121a4.2,4.2,0,0,0-.285-2.713,1.951,1.951,0,0,1,.072-2.33,3.933,3.933,0,0,1-1.7.322,3.563,3.563,0,0,1-1.506-.53,36.285,36.285,0,0,1-2.883,3.03c-.661.475-3.611.306-3.815,2.222" transform="translate(7.81 7.93)" fill="#006a99"/>
        <path id="Trazado_895438" data-name="Trazado 895438" d="M129.138,46.794a11.423,11.423,0,0,0,4.045,1.588c6.2,1.25,8.416-4.024,9.2-7.623a5.321,5.321,0,0,0-2.105-.583c-.447-.039-.916-.061-1.3-.069a9.711,9.711,0,0,1-1.2-1.937,9.964,9.964,0,0,1-.914-4.584l-5.109,2.062s.266,1.537.416,2.993a5.779,5.779,0,0,1-.049,2.5c-.377.094-.6.153-.6.153l0,0a31.373,31.373,0,0,0-2.372,5.493" transform="translate(8.393 2.183)" fill="#ffb29f"/>
        <path id="Trazado_895439" data-name="Trazado 895439" d="M131.587,35.635s.266,1.536.416,2.993a5.89,5.89,0,0,0,4.479-4.823l-4.9,1.831" transform="translate(8.552 2.197)" fill="#dd8d80"/>
        <path id="Trazado_895440" data-name="Trazado 895440" d="M125.525,45.539c.07-.153.142-.3.212-.453a.383.383,0,0,1,.06-.107c.092-.167.167-.321.243-.457,0-.015.015-.03.03-.046a13.352,13.352,0,0,1,1.046-1.569,2.785,2.785,0,0,1,.72-.612h0a12.441,12.441,0,0,1,3.9-1.4c-.063.143-1.793,4.111-1.508,5.047.3.952,8.7-.777,9.238-1.365.428-.476.841-3.285.984-4.364.048-.271.064-.444.064-.444a11.892,11.892,0,0,1,4.619.952,13.279,13.279,0,0,0-1.349,2.888c-.048.159-.08.3-.127.445a9.49,9.49,0,0,0-.159.952,1.893,1.893,0,0,0,.412,1.222,9.693,9.693,0,0,0,1.064,1.175c.269.271.571.556.873.857-.08.667-.207,1.46-.333,2.381a51.671,51.671,0,0,0-.6,5.872,5.63,5.63,0,0,0,.46,2.444,4.664,4.664,0,0,0,.477.873c1.476,2.238,4.015,6.635,2.983,8.983-.095.572-1.428,1.016-3.348,1.318-5.731.92-16.793.571-16.206-1.287,0,0-.873-14.555-1.968-18.19-.032-.127-.064-.269-.1-.4a7.668,7.668,0,0,1,.232-3.663,5.7,5.7,0,0,0-1.921-1.062" transform="translate(8.158 2.585)" fill="#a5d6a7"/>
        <path id="Trazado_895441" data-name="Trazado 895441" d="M122.908,70.326c2.272-.332,13.9-3.512,14.9-4.289.805-.521,3.245-2.674,5.6-7.266.327-.634.636-1.271.941-1.887a48.641,48.641,0,0,0,2.638-6.576,19.155,19.155,0,0,0,.772-3.175,7.78,7.78,0,0,0,.1-.906c.014-.164.024-.325.032-.481a8.229,8.229,0,0,0-5.763-2.114c-.06.1-.117.2-.177.3-1.22,2.2-6.111,16.587-6.37,17.156-.24.525-10.277,5.821-12.8,6.955-1.048.479.129,2.279.129,2.279" transform="translate(7.952 2.835)" fill="#ffb29f"/>
        <path id="Trazado_895442" data-name="Trazado 895442" d="M138.361,48.954a9.7,9.7,0,0,1,8.253.462c1.507-8.077-3.254-9.133-3.254-9.133-.993-.52-6.437,4.7-5,8.671" transform="translate(8.977 2.616)" fill="#a5d6a7"/>
        <path id="Trazado_895443" data-name="Trazado 895443" d="M123.145,66.6a15.31,15.31,0,0,1-1.431-.561c-.435-.222-1.339-.007-2-.126s-.74.131-.512.314,1.2.445,1.357.638-1.945.377-2.936.056-1.072-.154-.716.562,2.017,2.1,3.129,2.051a20.015,20.015,0,0,0,3.238-.656Z" transform="translate(7.586 4.282)" fill="#ffb29f"/>
        <path id="Trazado_895444" data-name="Trazado 895444" d="M136.743,22.839a2.78,2.78,0,0,1,.561-1.215,3.63,3.63,0,0,1,4.672-.515A3.541,3.541,0,0,1,143.44,24.1c-.044,1.212-.75,2.82-1.892,2.934a2.369,2.369,0,0,1-.933-.133,6.328,6.328,0,0,1,.443,1.153c.763,2.776-.352,6.283-2.254,7.149,0,0-.113.052-1.732.648-1.348-.33-7.093-1.849-8.925-5.733-.372-.788-1.006-2.133-.4-3.354a3.322,3.322,0,0,1,2.123-1.555,9.5,9.5,0,0,1,1.666-1.169,10.04,10.04,0,0,1,5.2-1.2" transform="translate(8.286 1.332)" fill="#003650"/>
        <path id="Trazado_895445" data-name="Trazado 895445" d="M131.109,37.016c2.675.8,6.225-2.119,6.042-3.988-.1-1-1.216-1.268-3.029-2.994a16.8,16.8,0,0,1-3.213-4.226,3.45,3.45,0,0,0-1.921.992,3.835,3.835,0,0,0-.875,2.738c-.024,1.086-.145,6.54,3,7.478" transform="translate(8.326 1.677)" fill="#ffb29f"/>
      </g>
    </g>
  </g>
</svg>
