<svg id="Grupo_1124612" data-name="Grupo 1124612" xmlns="http://www.w3.org/2000/svg" xmlns:xlink="http://www.w3.org/1999/xlink" width="105" height="99.926" viewBox="0 0 105 99.926">
  <defs>
    <clipPath id="clip-path">
      <rect id="Rectángulo_413465" data-name="Rectángulo 413465" width="105" height="99.926" fill="none"/>
    </clipPath>
  </defs>
  <rect id="Rectángulo_413462" data-name="Rectángulo 413462" width="24.402" height="30.945" transform="translate(78.982 62.899)" fill="#8aba8a"/>
  <path id="Trazado_895478" data-name="Trazado 895478" d="M120.282,88.366l1.615,6.06h24.4l1.615-6.06Z" transform="translate(-42.915 -31.528)" fill="#ffcc5c"/>
  <path id="Trazado_895479" data-name="Trazado 895479" d="M121.9,145.9l-1.615,6.061h27.633L146.3,145.9Z" transform="translate(-42.915 -52.054)" fill="#ffcc5c"/>
  <g id="Grupo_1124611" data-name="Grupo 1124611">
    <g id="Grupo_1124610" data-name="Grupo 1124610" clip-path="url(#clip-path)">
      <path id="Trazado_895480" data-name="Trazado 895480" d="M146.809,128.868l-24.4-6.175a.482.482,0,0,1,0-.935l22.553-5.707-22.553-5.707a.482.482,0,0,1,0-.935L144.96,103.7,122.407,98l.237-.935,24.4,6.174a.482.482,0,0,1,0,.935l-22.554,5.707,22.554,5.707a.482.482,0,0,1,0,.935l-22.554,5.707,22.554,5.707Z" transform="translate(-43.543 -34.63)" fill="#a5d6a7"/>
      <path id="Trazado_895481" data-name="Trazado 895481" d="M54.486,107.5,0,107.253Q5.776,66.684,11.552,26.115a14.075,14.075,0,0,1,6.075-3.657,12.194,12.194,0,0,1,4.176-.441,128.792,128.792,0,0,0,3.309,12.844,125.523,125.523,0,0,0,4.781,12.774A156.883,156.883,0,0,1,55.715,21.449c1.312.311,2.673.67,4.073,1.082,1.175.346,2.3.708,3.374,1.079-.78,3.757-1.852,9.453-2.708,16.4-.3,2.458-.9,7.676-1.441,19.857-1.305,29.313-2.356,37.877-3.214,41.978-.506,2.418-.989,4.385-1.313,5.654" transform="translate(0 -7.653)" fill="#8aba8a"/>
      <rect id="Rectángulo_413463" data-name="Rectángulo 413463" width="44.039" height="3.651" transform="translate(20.021 95.673)" fill="#fff"/>
      <path id="Trazado_895482" data-name="Trazado 895482" d="M75.382,152.606h-45v-4.617h45Zm-44.04-.965H74.416v-2.686H31.342Z" transform="translate(-10.838 -52.8)" fill="#ff5a19"/>
      <rect id="Rectángulo_413464" data-name="Rectángulo 413464" width="4.792" height="84.199" transform="translate(39.645 11.474)" fill="#fff"/>
      <path id="Trazado_895483" data-name="Trazado 895483" d="M66.641,102.251H60.884V17.088h5.757Zm-4.792-.965h3.826V18.053H61.849Z" transform="translate(-21.722 -6.097)" fill="#ff5a19"/>
      <path id="Trazado_895484" data-name="Trazado 895484" d="M74.083,40.524c.713,5.932-.774,10.351-1.5,14.181-1.013,5.319-2.354,11.07-3.466,16.407H23.654Q22.36,56.019,21.066,40.926l-4.453-.858L12.271,18.917l-.009-.032s4.229-1.762,9.516-3.375c.027,0,.054-.018.077-.023,1.816-.554,3.752-1.086,5.682-1.526a44.983,44.983,0,0,1,5.86-.972C38.566,12.539,38.839.807,38.839.807s2.1-.94,7.159-.791a37.885,37.885,0,0,1,6.268.791s0,9.28,4.342,11.211c2.235.994,6.482,2.811,10.647,4.574.136.059.277.118.418.178l1.371.581c.6.254,1.2.508,1.781.749.286.122.572.245.854.363l1.376.581.093.039a7.962,7.962,0,0,1,4.474,9.906,52.753,52.753,0,0,1-4.045,8.583c.153.689.354,1.708.5,2.952" transform="translate(-4.375 0)" fill="#f4c88e"/>
      <path id="Trazado_895485" data-name="Trazado 895485" d="M16.962,40.009c1,5.872.077,10.632-2.058,10.632s-4.675-4.76-5.674-10.632-.077-10.632,2.058-10.632,4.676,4.76,5.674,10.632" transform="translate(-3.149 -10.481)" fill="#efb065"/>
      <path id="Trazado_895486" data-name="Trazado 895486" d="M75.363,68.782q1.651,19.386,3.3,38.772-27.421-.131-54.832-.271.318-41.855.647-83.7a11.283,11.283,0,0,1,7.692-2.162c2.645,2.326,5.444,4.98,8.3,7.962q2.577,2.693,5.183,5.753a134.829,134.829,0,0,1,9.4,12.47,141.419,141.419,0,0,0,6.216-12.77Q62.3,32.4,63.192,30.079c1.081-2.819,2.017-5.521,2.828-8.088a11.872,11.872,0,0,1,4.121.444,12.1,12.1,0,0,1,5.665,3.658q.956,9.556,1.9,19.111a35.149,35.149,0,0,1,.985,6.911,36.662,36.662,0,0,1-3.33,16.669" transform="translate(-8.503 -7.627)" fill="#a5d6a7"/>
      <path id="Trazado_895487" data-name="Trazado 895487" d="M72.422,32.661q-.9,2.331-1.921,4.759a141.486,141.486,0,0,1-6.216,12.769,134.829,134.829,0,0,0-9.4-12.47q-2.606-3.055-5.183-5.752l11.263-3.349Z" transform="translate(-17.733 -10.21)" fill="#8aba8a"/>
      <path id="Trazado_895488" data-name="Trazado 895488" d="M29.545,88.026H15.91a.483.483,0,0,1,0-.965H29.545a.483.483,0,0,1,0,.965" transform="translate(-5.504 -31.062)" fill="#fff"/>
      <path id="Trazado_895489" data-name="Trazado 895489" d="M36.557,88.771a2.221,2.221,0,0,1-.251-4.312,2.221,2.221,0,0,1,.251,4.312" transform="translate(-12.39 -30.133)" fill="#fff"/>
      <path id="Trazado_895490" data-name="Trazado 895490" d="M27.63,88.21H25.093q.008-.892.014-1.784H27.63Z" transform="translate(-8.953 -30.835)" fill="#ffb74d"/>
      <path id="Trazado_895491" data-name="Trazado 895491" d="M29.545,112.224H15.91a.483.483,0,0,1,0-.965H29.545a.483.483,0,0,1,0,.965" transform="translate(-5.504 -39.695)" fill="#fff"/>
      <path id="Trazado_895492" data-name="Trazado 895492" d="M36.557,112.97a2.221,2.221,0,0,1-.251-4.312,2.221,2.221,0,0,1,.251,4.312" transform="translate(-12.39 -38.767)" fill="#fff"/>
      <path id="Trazado_895493" data-name="Trazado 895493" d="M27.63,112.408H25.093q.008-.892.014-1.784H27.63Z" transform="translate(-8.953 -39.469)" fill="#ffb74d"/>
      <path id="Trazado_895494" data-name="Trazado 895494" d="M29.545,136.424H15.91a.483.483,0,0,1,0-.965H29.545a.483.483,0,0,1,0,.965" transform="translate(-5.504 -48.33)" fill="#fff"/>
      <path id="Trazado_895495" data-name="Trazado 895495" d="M36.557,137.168a2.221,2.221,0,0,1-.251-4.312,2.221,2.221,0,0,1,.251,4.312" transform="translate(-12.39 -47.4)" fill="#fff"/>
      <path id="Trazado_895496" data-name="Trazado 895496" d="M27.63,136.606H25.093q.008-.892.014-1.784H27.63Z" transform="translate(-8.953 -48.102)" fill="#ffb74d"/>
      <path id="Trazado_895497" data-name="Trazado 895497" d="M99.374,113.685,88.62,132.311a4.826,4.826,0,0,0,4.18,7.239h21.508a4.826,4.826,0,0,0,4.179-7.239l-10.754-18.626a4.826,4.826,0,0,0-8.359,0" transform="translate(-31.385 -39.7)" fill="#ffb200"/>
      <path id="Trazado_895498" data-name="Trazado 895498" d="M112.063,140.324l-4.965-1.782a2.723,2.723,0,1,1,1.84-5.126L113.9,135.2a2.724,2.724,0,1,1-1.84,5.127" transform="translate(-37.567 -47.543)" fill="#ffcc5c"/>
      <path id="Trazado_895499" data-name="Trazado 895499" d="M73.733,79.728l.163-1.4c2.741.728,10.063-2.034,10.063-2.034s2.655,2.334,2.306,7.928c-.17,2.73-.48,14.333-.805,17.766-.117,1.245-.22,2.13-.262,2.483v0a.491.491,0,0,0,.08.3,16.156,16.156,0,0,1,1.2,2.519c3.186,8.49-.491,18.945-.491,18.945l-.954-.385s-2.092-11.635-3.792-16.775a10.216,10.216,0,0,0-.819-1.966,22.182,22.182,0,0,1-2.047-5.46,134.223,134.223,0,0,1-2.754-14.486c-.087,0-1.885-7.44-1.885-7.44" transform="translate(-26.307 -27.219)" fill="#003650"/>
      <path id="Trazado_895500" data-name="Trazado 895500" d="M69.642,78.831s-.727,1.422-1.377,8.139c-.12.881-.228,1.853-.311,2.907a57.506,57.506,0,0,0,.31,11.767c.149,1.167.338,2.373.571,3.611a16.093,16.093,0,0,1,.125,3.566c-.328,6.495-2.712,16.588-2.712,16.588l1.5.558s6.511-9.03,7.313-16.975a12.08,12.08,0,0,0-.214-4.061s.064-.363.175-1.006c.116-.672.181-1.036.187-1.075.1-.6.493-3.533,1.455-11.218a15.533,15.533,0,0,0,1.91-7.537" transform="translate(-23.636 -28.126)" fill="#003650"/>
      <path id="Trazado_895501" data-name="Trazado 895501" d="M84.156,152.8h7.549a4.143,4.143,0,0,0-.213-2.024c-.378-.837-.97-1.218-.828-2.232a2.718,2.718,0,0,1-2.353.9,8.277,8.277,0,0,1-1.31,1.7c-.493.354-2.693.228-2.845,1.657" transform="translate(-30.026 -52.997)" fill="#006a99"/>
      <path id="Trazado_895502" data-name="Trazado 895502" d="M58.954,152.985H66.5a3.141,3.141,0,0,0-.214-2.024,1.456,1.456,0,0,1,.054-1.738,2.922,2.922,0,0,1-1.272.239,2.645,2.645,0,0,1-1.122-.395,27.159,27.159,0,0,1-2.151,2.26c-.493.354-2.694.228-2.846,1.657" transform="translate(-21.034 -53.185)" fill="#006a99"/>
      <path id="Trazado_895503" data-name="Trazado 895503" d="M85.153,66.637c-2.909,2.261-15.463,1.443-14.587.03l1.515-19.821,3.009-1.037.458-.106c.4-.367.266-4.027.257-4.1l3.73-1.09.221-.068c-.081,2.509.535,4.1,1.007,4.478l.034,0a4.711,4.711,0,0,1,4.229,4.688q-.045,4.118-.017,8.342.032,4.41.143,8.683" transform="translate(-25.161 -14.429)" fill="#006a99"/>
      <path id="Trazado_895504" data-name="Trazado 895504" d="M63.874,44.512q-.289,3.17-.56,6.322a21.118,21.118,0,0,1-6.8-1.052,7.152,7.152,0,0,1-3.764-2.77c-1.274-1.979-1.912-4-3.524-7.248A20.467,20.467,0,0,0,47.9,37.427c-.811-1.265-.212-3.262.492-3.513,0,0,1.361,1.216,1.458,2.181.492.879.54-.019.917-.212.019.029.077,1.776-.184,1.872a1.191,1.191,0,0,0-.116.657,10.4,10.4,0,0,0,1.322,2.422,10.247,10.247,0,0,0,3.619,3.156,10.56,10.56,0,0,0,2.49.907h.01a11.155,11.155,0,0,0,5.965-.386" transform="translate(-16.951 -12.1)" fill="#ffb29f"/>
      <path id="Trazado_895505" data-name="Trazado 895505" d="M68.866,50.39a4.463,4.463,0,0,1-.475,6.318A21.042,21.042,0,0,1,61.5,55.66l1.389-4.884h.01a11.155,11.155,0,0,0,5.965-.386" transform="translate(-21.943 -17.978)" fill="#006a99"/>
      <path id="Trazado_895506" data-name="Trazado 895506" d="M71.992,60.073l3.74-.262-3.9,3.325Z" transform="translate(-25.629 -21.34)" fill="#005177"/>
      <path id="Trazado_895507" data-name="Trazado 895507" d="M76.839,39.277s4.863-.406,4.564-3.43.127-5.114-2.991-4.983-3.606,1.345-3.751,2.379.906,6.062,2.179,6.034" transform="translate(-26.633 -11.01)" fill="#ffb29f"/>
      <path id="Trazado_895508" data-name="Trazado 895508" d="M73.947,29.967c-.048.017-1.191.425-1.348,1.4a1.945,1.945,0,0,0,.8,1.72,3.146,3.146,0,0,0,3.633-.358A4.644,4.644,0,0,0,78.706,36.3a4.1,4.1,0,0,0,1.892.774,5.656,5.656,0,0,0,3.154-3.555,5.477,5.477,0,0,0-3.211-6.192,5.214,5.214,0,0,0-5.291.734,4.7,4.7,0,0,0-1.3,1.9" transform="translate(-25.896 -9.607)" fill="#003650"/>
      <path id="Trazado_895509" data-name="Trazado 895509" d="M91.447,29.356a2.708,2.708,0,1,1-2.708-2.708,2.708,2.708,0,0,1,2.708,2.708" transform="translate(-30.695 -9.508)" fill="#003650"/>
      <path id="Trazado_895510" data-name="Trazado 895510" d="M79.44,36.046a1.426,1.426,0,0,1-1.382,2.395,1.426,1.426,0,0,1,1.382-2.395" transform="translate(-27.683 -12.819)" fill="#ffb29f"/>
    </g>
  </g>
</svg>
