<svg xmlns="http://www.w3.org/2000/svg" xmlns:xlink="http://www.w3.org/1999/xlink" width="80.792" height="82.5" viewBox="0 0 80.792 82.5">
  <defs>
    <clipPath id="clip-path">
      <path id="Trazado_896296" data-name="Trazado 896296" d="M11.909,29.337,32.03,82.821,81.859,66.243,60.389,10.886Z" transform="translate(-11.909 -10.886)" fill="none"/>
    </clipPath>
    <clipPath id="clip-path-2">
      <rect id="Rectángulo_413519" data-name="Rectángulo 413519" width="80.792" height="82.5" fill="none"/>
    </clipPath>
  </defs>
  <g id="Grupo_1127124" data-name="Grupo 1127124" transform="translate(-526.83 -4998)">
    <g id="Grupo_1127123" data-name="Grupo 1127123">
      <g id="Grupo_1124663" data-name="Grupo 1124663" transform="translate(526.83 4998)">
        <path id="Trazado_896287" data-name="Trazado 896287" d="M11.909,29.337,60.389,10.886,81.859,66.243,32.03,82.821Z" transform="translate(-6.952 -6.355)" fill="#d1c4e9" fill-rule="evenodd"/>
        <g id="Grupo_1124660" data-name="Grupo 1124660" transform="translate(4.957 4.531)">
          <g id="Grupo_1124659" data-name="Grupo 1124659" clip-path="url(#clip-path)">
            <path id="Trazado_896288" data-name="Trazado 896288" d="M9.094,38.822a306.452,306.452,0,0,1,22,46.788c1.428,3.879,3.37,6.848,4.665,10.773.524,1.59,1.173,1.987-.229,3.177-.288.246-.588.479-.888.709-.23.176-1.116,1.08-1.482.966-1.467-.459-2.146-3.56-2.6-4.756C28.931,92.2,27.277,87.94,25.527,83.7a477.641,477.641,0,0,0-23.7-49.381" transform="translate(-6.021 -24.568)" fill="#7a90e4" fill-rule="evenodd"/>
            <path id="Trazado_896289" data-name="Trazado 896289" d="M43,30.618A306.452,306.452,0,0,1,65,77.406c1.428,3.88,3.37,6.848,4.665,10.773.525,1.59,1.173,1.987-.229,3.177-.288.246-.588.48-.888.709-.23.176-1.116,1.081-1.482.966-1.467-.458-2.146-3.559-2.6-4.755-1.625-4.284-3.279-8.541-5.029-12.776a477.7,477.7,0,0,0-23.7-49.382" transform="translate(-25.815 -19.779)" fill="#7a90e4" fill-rule="evenodd"/>
            <path id="Trazado_896290" data-name="Trazado 896290" d="M76.675,18.356a306.419,306.419,0,0,1,22,46.788c1.427,3.88,3.37,6.848,4.665,10.773.525,1.59,1.173,1.987-.229,3.177-.288.246-.588.48-.889.71-.229.176-1.116,1.081-1.482.966-1.466-.458-2.145-3.559-2.6-4.755-1.625-4.284-3.279-8.541-5.03-12.776A477.6,477.6,0,0,0,69.4,13.857" transform="translate(-45.474 -12.62)" fill="#7a90e4" fill-rule="evenodd"/>
            <path id="Trazado_896291" data-name="Trazado 896291" d="M109.767,4.808A306.494,306.494,0,0,1,129.735,52.5c1.259,3.937,3.071,6.986,4.2,10.965.456,1.611,1.087,2.036-.364,3.165-.3.233-.608.453-.919.671-.236.165-1.161,1.031-1.522.9-1.446-.521-1.991-3.648-2.393-4.863-1.439-4.349-2.909-8.673-4.476-12.979A477.886,477.886,0,0,0,102.7,0" transform="translate(-64.909 -4.531)" fill="#7a90e4" fill-rule="evenodd"/>
            <path id="Trazado_896292" data-name="Trazado 896292" d="M35.448,142.425A306.451,306.451,0,0,1,83,122.139c3.93-1.286,6.966-3.118,10.937-4.27,1.608-.467,2.028-1.1,3.166.343.235.3.457.605.678.914.167.235,1.038,1.153.911,1.516-.512,1.448-3.635,2.014-4.847,2.424-4.34,1.469-8.654,2.967-12.95,4.563a477.665,477.665,0,0,0-50.209,21.9" transform="translate(-22.872 -73.02)" fill="#ffb74d" fill-rule="evenodd"/>
            <path id="Trazado_896293" data-name="Trazado 896293" d="M27.414,105.442A306.472,306.472,0,0,1,74.97,85.158c3.929-1.286,6.966-3.119,10.936-4.271,1.608-.467,2.029-1.1,3.167.343.234.3.457.605.676.914.167.235,1.038,1.155.911,1.516-.511,1.449-3.635,2.015-4.846,2.425-4.34,1.468-8.654,2.967-12.951,4.563a477.774,477.774,0,0,0-50.209,21.9" transform="translate(-18.182 -51.43)" fill="#ffb74d" fill-rule="evenodd"/>
            <path id="Trazado_896294" data-name="Trazado 896294" d="M17.766,72.2A306.477,306.477,0,0,1,65.322,51.915c3.929-1.286,6.965-3.119,10.935-4.271,1.608-.466,2.029-1.1,3.168.343.234.3.457.605.676.914.167.236,1.039,1.155.911,1.516-.511,1.449-3.635,2.015-4.846,2.425-4.34,1.468-8.654,2.967-12.949,4.563a477.846,477.846,0,0,0-50.21,21.9" transform="translate(-12.55 -32.024)" fill="#ffb74d" fill-rule="evenodd"/>
            <path id="Trazado_896295" data-name="Trazado 896295" d="M5.06,40.7A306.408,306.408,0,0,1,53.442,22.473c3.981-1.116,7.093-2.816,11.109-3.8,1.627-.4,2.074-1.012,3.15.479.222.308.431.625.637.942.157.243.989,1.2.845,1.555-.573,1.425-3.717,1.857-4.946,2.214-4.4,1.282-8.773,2.594-13.134,4A478,478,0,0,0,0,47.589" transform="translate(-4.957 -15.16)" fill="#ffb74d" fill-rule="evenodd"/>
          </g>
        </g>
        <g id="Grupo_1124662" data-name="Grupo 1124662">
          <g id="Grupo_1124661" data-name="Grupo 1124661" clip-path="url(#clip-path-2)">
            <path id="Trazado_896297" data-name="Trazado 896297" d="M99.361,13.944c3.9,6.506,6.7,13.835,9.858,20.714,3.341,7.273,6.357,14.648,9.384,22.056,2.837,6.946,5.9,13.836,8.316,20.945a.268.268,0,0,0,.509-.171c-2.419-7.122-5.486-14.021-8.329-20.977-3.028-7.414-6.048-14.8-9.392-22.077-3.168-6.9-5.977-14.244-9.885-20.767a.268.268,0,0,0-.46.276" transform="translate(-57.983 -7.903)" fill="#442639" fill-rule="evenodd"/>
            <path id="Trazado_896298" data-name="Trazado 896298" d="M91.582,14.381a218.459,218.459,0,0,1,10.2,21.2c6.722,15.377,12.559,30.984,18.351,46.72a.268.268,0,0,0,.5-.184c-5.8-15.748-11.636-31.364-18.362-46.751A218.8,218.8,0,0,0,92.047,14.115a.268.268,0,1,0-.466.266" transform="translate(-53.443 -8.161)" fill="#442639" fill-rule="evenodd"/>
            <path id="Trazado_896299" data-name="Trazado 896299" d="M65.26,27.341c2.758,4.435,4.951,9.287,7.3,13.943C80.431,56.871,86.8,73.055,93.1,89.318a.269.269,0,0,0,.5-.194C87.292,72.846,80.918,56.645,73.041,41.042c-2.358-4.669-4.559-9.535-7.324-13.984a.269.269,0,0,0-.456.283" transform="translate(-38.074 -15.722)" fill="#442639" fill-rule="evenodd"/>
            <path id="Trazado_896300" data-name="Trazado 896300" d="M55.739,29.431c11.5,22.052,22.653,44.453,30.66,68.032a.268.268,0,1,0,.509-.171C78.892,73.686,67.724,51.26,56.215,29.183a.268.268,0,1,0-.475.248" transform="translate(-32.522 -16.952)" fill="#442639" fill-rule="evenodd"/>
            <path id="Trazado_896301" data-name="Trazado 896301" d="M34.294,41.516a457.8,457.8,0,0,1,29.478,63.436.268.268,0,1,0,.5-.191,458.243,458.243,0,0,0-29.513-63.51.269.269,0,0,0-.467.265" transform="translate(-20 -24.002)" fill="#442639" fill-rule="evenodd"/>
            <path id="Trazado_896302" data-name="Trazado 896302" d="M24.972,42.281C36.9,62.764,46.2,84.672,54.662,106.776a.268.268,0,1,0,.5-.192C46.691,84.453,37.38,62.52,25.435,42.011a.268.268,0,0,0-.464.271" transform="translate(-14.556 -24.448)" fill="#442639" fill-rule="evenodd"/>
            <path id="Trazado_896303" data-name="Trazado 896303" d="M69.3,35.137C61.79,39.988,52.641,42.59,44.351,45.75c-11.148,4.252-21.938,9-32.659,14.2a.268.268,0,1,0,.234.482C22.632,55.235,33.409,50.5,44.542,46.253c8.324-3.175,17.508-5.794,25.046-10.665a.268.268,0,1,0-.292-.451" transform="translate(-6.737 -20.487)" fill="#442639" fill-rule="evenodd"/>
            <path id="Trazado_896304" data-name="Trazado 896304" d="M76.09,41.824c-4.169,1.866-8.583,3.223-12.85,4.847-8.352,3.181-16.569,6.72-24.831,10.123-7.3,3.007-14.6,5.944-21.6,9.628a.269.269,0,0,0,.25.475c6.979-3.676,14.264-6.606,21.549-9.608,8.258-3.4,16.471-6.938,24.818-10.118,4.275-1.628,8.7-2.988,12.879-4.859a.268.268,0,0,0-.22-.489" transform="translate(-9.731 -24.403)" fill="#442639" fill-rule="evenodd"/>
            <path id="Trazado_896305" data-name="Trazado 896305" d="M84.586,64.244c-2.616,1.771-5.712,2.772-8.643,3.88-4.135,1.565-8.239,3.2-12.343,4.837C50.492,78.2,37.159,83.535,24.806,90.416a.268.268,0,0,0,.261.469C37.4,84.014,50.713,78.692,63.8,73.46c4.1-1.641,8.2-3.271,12.334-4.834,2.969-1.124,6.1-2.144,8.755-3.939a.268.268,0,0,0-.3-.444" transform="translate(-14.401 -37.477)" fill="#442639" fill-rule="evenodd"/>
            <path id="Trazado_896306" data-name="Trazado 896306" d="M86.411,74.841c-5.533,2.737-11.546,4.573-17.289,6.812-9.232,3.6-18.338,7.43-27.387,11.468C37.306,95.1,32.812,96.881,28.547,99.2a.269.269,0,0,0,.258.471c4.251-2.317,8.733-4.093,13.148-6.064,9.041-4.035,18.139-7.86,27.364-11.458,5.758-2.246,11.785-4.088,17.332-6.832a.268.268,0,1,0-.238-.481" transform="translate(-16.583 -43.675)" fill="#442639" fill-rule="evenodd"/>
            <path id="Trazado_896307" data-name="Trazado 896307" d="M100.4,98.119c-4.787,2.145-9.848,3.671-14.75,5.522-8.305,3.137-16.428,6.693-24.558,10.252-4.993,2.186-10.126,4.068-14.993,6.532a.268.268,0,0,0,.243.479c4.858-2.46,9.981-4.338,14.966-6.52,8.122-3.555,16.235-7.107,24.531-10.241,4.913-1.856,9.983-3.385,14.78-5.534a.268.268,0,0,0-.219-.49" transform="translate(-26.823 -57.267)" fill="#442639" fill-rule="evenodd"/>
            <path id="Trazado_896308" data-name="Trazado 896308" d="M100.1,106.192C81.175,113.4,62.379,120.95,44.017,129.531a.268.268,0,0,0,.228.486c18.35-8.575,37.133-16.119,56.048-23.324a.268.268,0,1,0-.191-.5" transform="translate(-25.606 -61.983)" fill="#442639" fill-rule="evenodd"/>
          </g>
        </g>
      </g>
    </g>
  </g>
</svg>
