<svg xmlns="http://www.w3.org/2000/svg" xmlns:xlink="http://www.w3.org/1999/xlink" width="459.579" height="332.987" viewBox="0 0 459.579 332.987">
  <defs>
    <clipPath id="clip-path">
      <rect id="Rect치ngulo_414184" data-name="Rect치ngulo 414184" width="215.729" height="249.506" fill="none"/>
    </clipPath>
  </defs>
  <g id="Grupo_1127126" data-name="Grupo 1127126" transform="translate(4157 7870)">
    <rect id="Rect치ngulo_413518" data-name="Rect치ngulo 413518" width="459.579" height="332.987" rx="20" transform="translate(-4157 -7870)" fill="#f6fbf6"/>
    <g id="Grupo_1127057" data-name="Grupo 1127057" transform="translate(-4029 -7828)">
      <g id="Grupo_1127056" data-name="Grupo 1127056" clip-path="url(#clip-path)">
        <path id="Trazado_898310" data-name="Trazado 898310" d="M56.568,105.295c-.474,4.015,1.416,4.489,1.179,7.084s-6.373.235-10.386,3.539a18.294,18.294,0,0,1-13.929,4.017c-4.483-.709,4.724-8.026,4.724-8.026l11.33-6.845s-.237-4.25-.709-10.623S42.167,66.82,43.346,51s5.431-21.718,5.431-21.718L63.65,42.036s-.237,2.83-3.071,19.589S59.4,68,61.288,73.663s-4.25,27.621-4.72,31.632" transform="translate(31.393 28.55)" fill="#d1c4e9"/>
        <path id="Trazado_898311" data-name="Trazado 898311" d="M64.366,124.767a14.939,14.939,0,0,0,.946,3.069c.707,1.655-1.892,6.612-4.724,9.207s-5.9,5.9-10.386,6.375-4.248-2.6-3.3-3.541S57.047,127.6,57.047,127.6a50.6,50.6,0,0,0,.946-20.537C56.1,96.206,54.215,94.553,51.381,88.65S44.3,44.743,44.3,44.743L67.2,28.928s4.25,3.776,4.72,14.636-6.606,25.494-8.731,34.7,1.179,12.509,3.774,18.175-2.595,28.328-2.595,28.328" transform="translate(43.186 28.201)" fill="#d1c4e9"/>
        <path id="Trazado_898312" data-name="Trazado 898312" d="M41.784,17.625s.944,8.616-.237,13.1-4.013,8.263-1.888,10.151,1.653,6.61,1.653,6.61l-2.125,9.679s10.86,9.442,21.955,6.136,14.636-9.914,14.636-9.914.472-5.194-1.89-7.791-3.3-2.832-3.3-2.832-1.653-4.485-1.653-7.317S75.3,23.408,73.416,19.395s-11.095-9.914-18.177-9.2c-2.091.209-3.894.346-5.464.612-3.744.634-6.162,2-7.99,6.823" transform="translate(37.914 9.877)" fill="#3bf2d6"/>
        <path id="Trazado_898313" data-name="Trazado 898313" d="M48.648,32.864s6.493-5.05,8.379-10.269c3.541-9.8.217-10.83-2.123-12.155-9.8-5.549-10.04,3.426-10.86,6.491-2.241,8.379,4.6,15.933,4.6,15.933" transform="translate(42.498 8.449)" fill="#fd8e79"/>
        <path id="Trazado_898314" data-name="Trazado 898314" d="M59.493,79.638c-.273,2.984-7.317.273-11.924,4.064a21,21,0,0,1-15.993,4.611C26.43,87.5,37,79.1,37,79.1l13.01-7.858s.743,3.387,4,2.37,4.133-2.1,4.133-2.1c-.543,4.609,1.627,5.15,1.355,8.131" transform="translate(29.406 69.449)" fill="#fc62a2"/>
        <path id="Trazado_898315" data-name="Trazado 898315" d="M34.794,90.9a18.3,18.3,0,0,1-2.877-.223,2.366,2.366,0,0,1-2.2-1.669c-.721-2.737,4.757-7.451,7.147-9.353L51.2,70.99l.3,1.39a2.7,2.7,0,0,0,1.061,1.56A2.014,2.014,0,0,0,54.2,74,9.022,9.022,0,0,0,57.867,72.2l2.141-2.36-.355,3.144a7.767,7.767,0,0,0,.662,4.55,6.719,6.719,0,0,1,.693,3.553c-.209,2.3-2.646,2.469-5,2.634-2.293.162-5.145.361-7.287,2.127A22.39,22.39,0,0,1,34.794,90.9m-3.106-2.411a1.211,1.211,0,0,0,.547.176,20.156,20.156,0,0,0,15.187-4.39c2.644-2.178,5.994-2.413,8.441-2.587,1.848-.13,3.065-.255,3.114-.784a4.8,4.8,0,0,0-.541-2.579,9.549,9.549,0,0,1-.887-3.476,17.188,17.188,0,0,1-2.741,1.09,3.954,3.954,0,0,1-3.278-.241,4.151,4.151,0,0,1-1.521-1.61l-11.982,7.24c-3.48,2.779-6.612,6.294-6.339,7.161" transform="translate(28.907 68.088)" fill="#b53e77"/>
        <path id="Trazado_898316" data-name="Trazado 898316" d="M59.581,89.733c-2.832,2.595-5.9,5.9-10.386,6.373s-4.248-2.595-3.3-3.541S56.04,80.289,56.04,80.289s1.653,1.653,4.309.061,3.01-2.893,3.01-2.893a14.94,14.94,0,0,0,.946,3.069c.707,1.655-1.892,6.612-4.724,9.207" transform="translate(44.192 75.511)" fill="#fc62a2"/>
        <path id="Trazado_898317" data-name="Trazado 898317" d="M66.082,30.784v71.692l75.58,43.923V74.707Z" transform="translate(64.422 30.01)" fill="#98c4da"/>
        <path id="Trazado_898318" data-name="Trazado 898318" d="M104.354,54.2v71.692l4.126-2.382V51.819Z" transform="translate(101.732 50.517)" fill="#7a9dc2"/>
        <path id="Trazado_898319" data-name="Trazado 898319" d="M1.973,67.8v71.692l75.582,43.923V111.72Z" transform="translate(1.924 66.094)" fill="#98c4da"/>
        <path id="Trazado_898320" data-name="Trazado 898320" d="M40.245,91.214v71.692l4.126-2.382V88.832Z" transform="translate(39.234 86.6)" fill="#7a9dc2"/>
        <path id="Trazado_898321" data-name="Trazado 898321" d="M0,67.8v4.4l75.58,43.923v-4.4Z" transform="translate(0 66.094)" fill="#7a9dc2"/>
        <path id="Trazado_898322" data-name="Trazado 898322" d="M38.271,129.981v4.4L178.42,53.466v-4.4Z" transform="translate(37.31 47.833)" fill="#557999"/>
        <path id="Trazado_898323" data-name="Trazado 898323" d="M0,107.74l75.58,43.923L215.729,70.748,140.141,26.825Z" transform="translate(0 26.151)" fill="#98c4da"/>
        <path id="Trazado_898324" data-name="Trazado 898324" d="M187.052,62.949,61.029,135.717,4.4,103.023,130.422,30.257l7.4,4.268L107.373,51.973,148.127,41.1Z" transform="translate(4.291 29.497)" fill="#4e2567"/>
        <path id="Trazado_898325" data-name="Trazado 898325" d="M38.836,73.415a4.846,4.846,0,0,1-.128,3A7.392,7.392,0,0,1,36.8,78.4s15.609.952,15.228,1.171-17.132.367-17.132.367a9,9,0,0,1-4.7,2.712,66.691,66.691,0,0,1-8.249,1.392L25.763,89.9s9.519-.221,13.706,1.171,5.2,2.712,5.2,2.712l67.134-38.759L88.962,41.835S70.308,53.192,68.023,55.1,59.774,62.5,56.095,65.21s-17.258,8.206-17.258,8.206" transform="translate(21.403 40.784)" fill="#fddaa5"/>
        <path id="Trazado_898326" data-name="Trazado 898326" d="M45.358,42.068l2.243-.59s5.664,1,6.136,1.771a7.843,7.843,0,0,0,2.184,2.066c.472.235.709.589-.531.589a4.182,4.182,0,0,1-2.125-.589L46.48,43.6s5.192,1.947,5.666,2.775a3.175,3.175,0,0,0,1.947,1.592c.766.178.766.887-.178,1.062s-1-.118-1-.118,1.357,1.062.472,1.181a7.373,7.373,0,0,1-3.247-.766,6.99,6.99,0,0,1-2.891-2.066l-3.717-2.006s3.482,2.538,3.894,3.482a6.728,6.728,0,0,0,1.947,2.419c.353.118.531.65-.65.65a5.044,5.044,0,0,1-3.128-1.594c-.176-.413-3.6-2.6-4.838-3.541s-.059-4.544-.059-4.544Z" transform="translate(39.179 40.436)" fill="#fbab79"/>
        <path id="Trazado_898327" data-name="Trazado 898327" d="M58.016,49.859c.93-.719,6.865-9.5,6.865-9.5l-1.463-1.3-6.01,9.612L43.6,58.911a8.521,8.521,0,0,0,3.525-1.179,109.658,109.658,0,0,0,10.893-7.874" transform="translate(42.502 38.079)" fill="#98c4da"/>
        <path id="Trazado_898328" data-name="Trazado 898328" d="M58.361,49.928c.93-.719,6.865-9.5,6.865-9.5l-1.463-1.3-6.01,9.612L43.613,58.876A8.2,8.2,0,0,0,47.468,57.8a109.992,109.992,0,0,0,10.893-7.874" transform="translate(42.517 38.146)" fill="#7a9dc2"/>
        <path id="Trazado_898329" data-name="Trazado 898329" d="M62.823,43.5c-.067-.073-4.552,2.546-4.552,2.546L43.4,52.676s7.072-4.364,10.812-6.353A65.612,65.612,0,0,0,61.9,41.291l1.951.49Z" transform="translate(42.308 40.254)" fill="#d4f6ff"/>
        <path id="Trazado_898330" data-name="Trazado 898330" d="M63.157,43.568c-.067-.073-4.552,2.546-4.552,2.546L43.4,52.743S50.8,48.379,54.544,46.39a65.612,65.612,0,0,0,7.692-5.032l1.951.49Z" transform="translate(42.308 40.319)" fill="#557999"/>
        <path id="Trazado_898331" data-name="Trazado 898331" d="M61.457,40.4c-.743-.5-2.958,1.669-5.184,1.734,0,0-2.86.278-3.5,2.658s1.787,3.9,3.669,3.47c2.947-.671,6.9-6.6,5.016-7.862M56.5,46.252c-1.487.34-2.4-.438-2.378-1.122a1.04,1.04,0,0,1,.043-.257,1.468,1.468,0,0,1,1.339-.97,9.126,9.126,0,0,0,3.725-1.345c.34-.184.983-.92,1.043-.253a2.973,2.973,0,0,1-.433,1.329,5.555,5.555,0,0,1-3.34,2.617" transform="translate(51.343 39.311)" fill="#b53e77"/>
        <path id="Trazado_898332" data-name="Trazado 898332" d="M60.926,40.738c-.257-.855-2.96,1.667-5.184,1.734,0,0-1.841-.041-2.482,2.338s1.039,3.436,2.923,3.008c2.945-.673,5.534-4.441,4.744-7.08M56.4,46.325c-1.487.34-2.4-.438-2.378-1.122a1.04,1.04,0,0,1,.043-.257,1.468,1.468,0,0,1,1.339-.97,9.126,9.126,0,0,0,3.725-1.345c.34-.184.985-.92,1.043-.253a2.973,2.973,0,0,1-.432,1.329,5.555,5.555,0,0,1-3.34,2.617" transform="translate(51.786 39.542)" fill="#fb4ea1"/>
        <path id="Trazado_898333" data-name="Trazado 898333" d="M58.774,36.868c-1.821-.557-4.9,3.725-5.468,4.72s-.816,1.6.865,2.287a4.792,4.792,0,0,0,4.116-.581c1.455-1.288,3.756-5.425.488-6.426M57.526,41c-1.015.786-1.941.772-2.07-.028s.205-1.414,1.22-2.2,2-.671,2.131.13-.267,1.309-1.282,2.1" transform="translate(51.548 35.893)" fill="#b53e77"/>
        <path id="Trazado_898334" data-name="Trazado 898334" d="M59.056,37.008c-1.835-.511-5.133,4.3-5.7,5.3s-.152,1,1.527,1.692c1.2.492,2.891-.29,3.717-1.021,1.457-1.286,2.978-5.263.46-5.968M57.573,41.72c-1.015.786-1.941.772-2.07-.028a3.714,3.714,0,0,1,1.6-2.871c1.015-.786,1.941-.772,2.07.028a3.717,3.717,0,0,1-1.6,2.871" transform="translate(51.776 36.041)" fill="#fb4ea1"/>
        <path id="Trazado_898335" data-name="Trazado 898335" d="M101.132,44.585s-7.236-3.4-11.606-3.5S56.9,46.471,56.9,46.471,91.965,35.291,96.335,35.6s4.8,8.99,4.8,8.99" transform="translate(55.473 34.695)" fill="#734393"/>
        <path id="Trazado_898336" data-name="Trazado 898336" d="M53.807,25.636l.709-14.4S42.712,14.3,40.824,21.386s-.472,7.082-4.25,12.985-7.789,8.97-5.9,16.287S41.3,70.487,43.184,71.431,50.5,76.153,50.5,76.153s6.845-3.247,7.317-4.426S48.5,68.009,47.55,67.537,42,58.448,42,55.379,40.115,48.3,40.115,48.3s6.847-19.83,11.095-21.009,2.6-1.653,2.6-1.653" transform="translate(29.432 10.955)" fill="#fbab79"/>
        <path id="Trazado_898337" data-name="Trazado 898337" d="M65.684,27.993S62.5,13.12,57.893,13.3s-4.957,8.5-4.957,8.5,1.416,4.25,3.365,5.488,6.726,14.693,6.726,14.693A5.519,5.519,0,0,0,60.9,45.873c0,2.3.885,6.021.707,8.322a38.223,38.223,0,0,1-1.594,6.551,8.694,8.694,0,0,1-1.769.415c-.531,0-1.683,1.384-2.214,2.093A12.688,12.688,0,0,0,55,66.136a9.456,9.456,0,0,0,1.87.375c.385-1.256.875-2.492,3.027-2.342.559.039-.944,3.659-.944,3.659L56.832,70.66a2.928,2.928,0,0,0-2.3.709c-.707.885-.885,0,1.594,1.064s4.6-1.773,5.135-2.127a4.4,4.4,0,0,0,2.832-3.719,48.086,48.086,0,0,1,.531-6.373c.354-1.414,5.312-12.57,5.666-17.174s-4.6-15.049-4.6-15.049" transform="translate(51.606 12.964)" fill="#fbab79"/>
        <path id="Trazado_898338" data-name="Trazado 898338" d="M45.648,15.463l-2.125,1.062-.59-1.888-.235-3.9S41.754-.117,52.258,0,60.4,14.165,60.4,14.165s-1.534,4.013-1.888,4.129a36.22,36.22,0,0,1-9.325-.589c-3.187-.827-3.541-2.243-3.541-2.243" transform="translate(41.604 0.001)" fill="#4e2567"/>
        <path id="Trazado_898339" data-name="Trazado 898339" d="M43.389,6.078s-1.534-2.243-1.416-.825a12.2,12.2,0,0,0,.707,4.129,5.31,5.31,0,0,1,.59,1.771s.237,6.254,1.181,7.789,3.422,6.138,4.485,6.965,3.3.707,3.894.117,5.547-5.075,6.256-7.082S60.5,14.1,60.5,14.1s2.125-2.241,2.243-4.013.472-2.95-.355-2.006S59.8,13.751,59.8,13.751s-.118-4.013-1.771-4.368c-1.8-.385-2.6,1.771-6.256,2.125S46.221,8.557,45.4,8.322s-1.3,1.651-1.3,1.651Z" transform="translate(40.912 4.663)" fill="#fbab79"/>
        <path id="Trazado_898340" data-name="Trazado 898340" d="M52.714,18.679a6.125,6.125,0,0,0,.472,5.547c1.771,2.715,5.9,5.9,6.138,8.379a11.092,11.092,0,0,0,1.416,4.368s7.672.235,8.5-3.069S64.872,8.647,55.665,13.013c-4.692,2.228-2.95,5.666-2.95,5.666" transform="translate(50.943 12.129)" fill="#3bf2d6"/>
        <path id="Trazado_898341" data-name="Trazado 898341" d="M53.005,17.192,52.3,10.938s-9.2,3.069-11.8,5.784-4.131,9.914-4.131,11.213-3.776,8.5-3.776,8.5,1.061,5.664,5.547,6.019A5.284,5.284,0,0,0,43.8,39.031s1.89-8.974,4.131-9.679,4.6-1.655,4.6-1.655Z" transform="translate(31.768 10.663)" fill="#3bf2d6"/>
        <path id="Trazado_898342" data-name="Trazado 898342" d="M42.693,86.755a.255.255,0,0,1-.126-.476l3.533-2.04a.255.255,0,0,1,.255.442l-3.533,2.04a.265.265,0,0,1-.128.034m-3.529-.109a.247.247,0,0,1-.128-.036L35.5,84.573a.259.259,0,0,1-.093-.35.255.255,0,0,1,.348-.093l3.533,2.04a.255.255,0,0,1,.095.348.262.262,0,0,1-.221.128m10.6-3.97a.255.255,0,0,1-.126-.476l3.529-2.04a.256.256,0,0,1,.257.442l-3.531,2.04a.271.271,0,0,1-.128.034M32.1,82.567a.25.25,0,0,1-.128-.034l-3.533-2.038a.259.259,0,0,1-.093-.35.255.255,0,0,1,.35-.093l3.531,2.038a.254.254,0,0,1-.126.476m-1.487-3.219a.255.255,0,0,1-.128-.476l3.531-2.038a.255.255,0,0,1,.255.442l-3.531,2.038a.243.243,0,0,1-.126.034M56.823,78.6a.253.253,0,0,1-.221-.128.256.256,0,0,1,.093-.348l2.405-1.39-.359-.207A.255.255,0,1,1,59,76.083l1.126.65L56.95,78.565a.263.263,0,0,1-.126.034m-19.148-3.33a.254.254,0,0,1-.126-.476l3.531-2.038a.254.254,0,1,1,.255.44L37.8,75.236a.25.25,0,0,1-.128.034m17.661-.748a.247.247,0,0,1-.128-.036l-3.533-2.038a.259.259,0,0,1-.093-.35A.253.253,0,0,1,51.929,72l3.533,2.04a.255.255,0,0,1,.095.348.262.262,0,0,1-.221.128m-10.6-3.33a.255.255,0,0,1-.128-.476l2.544-1.469,1.244.719a.255.255,0,0,1,.095.348.261.261,0,0,1-.35.095l-.989-.571-2.287,1.321a.255.255,0,0,1-.128.034" transform="translate(27.601 67.506)" fill="#d4f6ff"/>
        <path id="Trazado_898343" data-name="Trazado 898343" d="M57.8,83.523l-.585-.365a.255.255,0,0,1-.081-.352.259.259,0,0,1,.352-.081l.326.2,2.935-1.694a.255.255,0,0,1,.255.442Zm-3.908-2.488A.259.259,0,0,1,53.758,81l-3.784-2.366,2.313-1.619a.255.255,0,1,1,.292.419L50.9,78.606l3.13,1.957a.256.256,0,0,1-.136.472M64.4,79.67a.254.254,0,0,1-.126-.476l3.533-2.038a.254.254,0,1,1,.255.44l-3.533,2.04a.245.245,0,0,1-.128.034m7.064-4.078a.255.255,0,0,1-.126-.476l3.531-2.04a.255.255,0,1,1,.255.442L71.6,75.558a.277.277,0,0,1-.128.034m-15.694-.454a.261.261,0,0,1-.209-.109.258.258,0,0,1,.063-.355l3.345-2.338a.255.255,0,0,1,.354.063.258.258,0,0,1-.063.355L55.92,75.09a.257.257,0,0,1-.146.047m22.76-3.624a.253.253,0,0,1-.221-.128.257.257,0,0,1,.093-.348L81.937,69a.255.255,0,1,1,.255.442l-3.531,2.04a.263.263,0,0,1-.126.034M62.459,70.461A.254.254,0,0,1,62.315,70l3.341-2.336a.251.251,0,0,1,.354.063.258.258,0,0,1-.063.355l-3.341,2.336a.25.25,0,0,1-.146.045M85.6,67.436a.257.257,0,0,1-.221-.128.253.253,0,0,1,.093-.348L89,64.92a.255.255,0,0,1,.255.442L85.725,67.4a.263.263,0,0,1-.126.034M69.142,65.787A.254.254,0,0,1,69,65.323l3.343-2.338a.255.255,0,0,1,.29.419l-3.343,2.338a.246.246,0,0,1-.146.045m23.519-2.429a.259.259,0,0,1-.221-.128.255.255,0,0,1,.095-.348l3.533-2.04a.256.256,0,0,1,.348.093.259.259,0,0,1-.093.35l-3.533,2.038a.252.252,0,0,1-.128.036M75.827,61.112a.255.255,0,0,1-.144-.464l3.341-2.338a.255.255,0,0,1,.29.419l-3.341,2.338a.246.246,0,0,1-.146.045m23.9-1.835A.255.255,0,0,1,99.6,58.8l3.533-2.038a.255.255,0,1,1,.255.442l-3.533,2.038a.243.243,0,0,1-.126.034M82.51,56.438a.255.255,0,0,1-.144-.464l3.343-2.338a.255.255,0,0,1,.29.419l-3.343,2.338a.261.261,0,0,1-.146.045M106.791,55.2a.255.255,0,0,1-.128-.476l3.531-2.038a.254.254,0,0,1,.255.44l-3.531,2.04a.243.243,0,0,1-.126.034M89.274,51.89a.254.254,0,0,1-.111-.484A20.779,20.779,0,0,1,93.038,50a.257.257,0,0,1,.31.184.253.253,0,0,1-.184.31,20.533,20.533,0,0,0-3.78,1.373.245.245,0,0,1-.111.026m19.873-.585a24.377,24.377,0,0,0-3.966-1.134.257.257,0,0,1-.2-.3.251.251,0,0,1,.3-.2,23.1,23.1,0,0,1,3.96,1.143.253.253,0,0,1,.144.33.257.257,0,0,1-.237.162M97.114,49.8a.255.255,0,0,1-.024-.51,28.88,28.88,0,0,1,4.112-.1.257.257,0,0,1,.243.269.265.265,0,0,1-.267.243,28.485,28.485,0,0,0-4.041.1Z" transform="translate(48.718 47.917)" fill="#d4f6ff"/>
        <path id="Trazado_898344" data-name="Trazado 898344" d="M46.272,10.383s8.026-.944,9.088,3.541.541,5.936,2.125,6.728c1.888.944,3.659-.827,3.659-.827s-4.015.118-2.952-3.776.257-9.173-3.185-9.914c-6.019-1.3-8.735,4.248-8.735,4.248" transform="translate(45.109 5.789)" fill="#4e2567"/>
      </g>
    </g>
  </g>
</svg>
