<svg xmlns="http://www.w3.org/2000/svg" xmlns:xlink="http://www.w3.org/1999/xlink" width="459.579" height="332.987" viewBox="0 0 459.579 332.987">
  <defs>
    <clipPath id="clip-path">
      <rect id="Rectángulo_414271" data-name="Rectángulo 414271" width="246.596" height="263.317" fill="none"/>
    </clipPath>
  </defs>
  <g id="Grupo_1127125" data-name="Grupo 1127125" transform="translate(5460 7870)">
    <rect id="Rectángulo_413476" data-name="Rectángulo 413476" width="459.579" height="332.987" rx="20" transform="translate(-5460 -7870)" fill="#f6fbf6"/>
    <g id="Grupo_1127108" data-name="Grupo 1127108" transform="translate(-5354 -7835)">
      <g id="Grupo_1127107" data-name="Grupo 1127107" clip-path="url(#clip-path)">
        <path id="Trazado_898345" data-name="Trazado 898345" d="M79.81,34.532S77.635,52.15,76.667,56.924s-8.843,70.917-8.843,70.917a11.366,11.366,0,0,0,9.055,6.655c3.316.426,8.458-1.847,8.458-1.847s1.891-38.143,1.878-42.255,5.937-19.2,6.41-22.48S95.3,59.821,95.3,59.821s8.552,27.8,9.267,35.774,7.063,47.474,7.063,47.474,2.407,3.62,9.8,3.579c2.794-.015,7.877-3.627,7.877-3.627s-8.769-37.417-9.82-41.921-.573-29.5-1.3-42.035S108.713,34.5,108.713,34.5Z" transform="translate(80.447 40.92)" fill="#2d2442"/>
        <path id="Trazado_898346" data-name="Trazado 898346" d="M8.068,142.187,65.936,108.3l-.225-82.65L7.842,59.539Z" transform="translate(9.302 30.428)" fill="#9b5140"/>
        <path id="Trazado_898347" data-name="Trazado 898347" d="M10.168,125.008,6.3,122.787l-.225-82.65L9.943,42.36Z" transform="translate(7.201 47.607)" fill="#b26854"/>
        <path id="Trazado_898348" data-name="Trazado 898348" d="M33.355,110.188l3.861-2.243L36.989,25.3,33.13,27.54Z" transform="translate(39.296 30.005)" fill="#2d2442"/>
        <path id="Trazado_898349" data-name="Trazado 898349" d="M7.951,81.065l153.3,88.085-.1-35.33L7.853,45.145Z" transform="translate(9.314 53.548)" fill="#db947b"/>
        <path id="Trazado_898350" data-name="Trazado 898350" d="M79.964,184.174l60.258-34.8-.227-82.648-60.256,34.8Z" transform="translate(94.579 79.143)" fill="#9b5140"/>
        <path id="Trazado_898351" data-name="Trazado 898351" d="M82.066,166.5l-3.872-2.221-.227-82.65,3.874,2.221Z" transform="translate(92.477 96.819)" fill="#b26854"/>
        <path id="Trazado_898352" data-name="Trazado 898352" d="M106.646,151.1l3.861-2.243-.227-82.648-3.861,2.241Z" transform="translate(126.224 78.535)" fill="#9b5140"/>
        <path id="Trazado_898353" data-name="Trazado 898353" d="M174.473,144.419.011,43.858,0,39.731,174.462,140.292Z" transform="translate(0 47.125)" fill="#c98069"/>
        <path id="Trazado_898354" data-name="Trazado 898354" d="M79.8,108.479l72.124-41.927.011,3.874L79.816,112.353Z" transform="translate(94.657 78.938)" fill="#b26854"/>
        <path id="Trazado_898355" data-name="Trazado 898355" d="M215.45,91.806,134.726,45.26,26.251,66.253l117.075,67.481Z" transform="translate(31.136 53.683)" fill="#db947b"/>
        <path id="Trazado_898356" data-name="Trazado 898356" d="M72.1,20.529,0,62.507,57.387,95.585,165.862,74.594Z" transform="translate(-0.001 24.35)" fill="#db947b"/>
        <path id="Trazado_898357" data-name="Trazado 898357" d="M107.455,118.171l71.617-36.158L87.456,28.936l-73.167,36.6Z" transform="translate(16.949 34.321)" fill="#cc3232"/>
        <path id="Trazado_898358" data-name="Trazado 898358" d="M25.961,48.717l-3.819-2.145,3.9-2,.289.564L23.48,46.6l2.792,1.567Z" transform="translate(26.263 52.873)" fill="#fff"/>
        <path id="Trazado_898359" data-name="Trazado 898359" d="M27.113,52.454l-.289-.564,6.335-3.242.289.562Zm12.673-6.486L39.5,45.4l6.335-3.242.289.562Zm12.673-6.486-.289-.564,6.338-3.242.286.562Z" transform="translate(31.816 42.316)" fill="#fff"/>
        <path id="Trazado_898360" data-name="Trazado 898360" d="M50.922,35.8,47.73,34.081,44.5,35.733l-.289-.564,3.524-1.8,3.482,1.874Z" transform="translate(52.444 39.578)" fill="#fff"/>
        <rect id="Rectángulo_414270" data-name="Rectángulo 414270" width="0.632" height="6.575" transform="matrix(0.474, -0.881, 0.881, 0.474, 109.156, 78.494)" fill="#fff"/>
        <path id="Trazado_898361" data-name="Trazado 898361" d="M55.3,41.952l-.179-.606,2.9-.855-2.66-1.432.3-.557,4.014,2.162Z" transform="translate(65.378 45.668)" fill="#fff"/>
        <path id="Trazado_898362" data-name="Trazado 898362" d="M32.778,53.608,32.6,53l8.2-2.418.179.6ZM49.187,48.77l-.177-.606,8.2-2.418.177.606ZM65.6,43.932l-.177-.606,8.2-2.418.177.606Z" transform="translate(38.666 48.523)" fill="#fff"/>
        <path id="Trazado_898363" data-name="Trazado 898363" d="M29.062,49.673l-3.421-1.922.31-.549,3.187,1.788,3.509-1.034.179.606Z" transform="translate(30.413 55.988)" fill="#fff"/>
        <path id="Trazado_898364" data-name="Trazado 898364" d="M81.91,89.906l-6.016-4.613.385-.5,6.016,4.615ZM88.9,87.947l-.282-.566L95.4,84l.282.566Zm13.574-6.759-.282-.566,2.4-1.2-3.222-1.863.317-.549,4.239,2.453Zm-32.593-.509-6.016-4.613.385-.5,6.016,4.613ZM94.806,73.77l-6.565-3.8.317-.549,6.565,3.8ZM57.845,71.451l-6.016-4.615.385-.5,6.016,4.613Zm23.833-5.269-6.565-3.8.317-.549L82,65.634ZM45.813,62.223,39.8,57.609l.385-.5L46.2,61.721ZM68.55,58.592,61.986,54.8l.317-.549,6.563,3.8ZM35.56,54.137l-.28-.566,6.794-3.364.28.566ZM55.421,51,49.177,47.4l-.026.013-.022-.042-.1-.057.037-.066-.2-.4.33-.166,6.539,3.778Z" transform="translate(41.846 55.365)" fill="#fff"/>
        <path id="Trazado_898365" data-name="Trazado 898365" d="M113.518,14.482C108,10.792,93.314,26.558,87.031,32.45A93,93,0,0,1,75.159,42.2c-5.524,3.36-17.141,9.938-20.414,11.554S41.1,58.727,40.294,59.754s1.235,4.084,8.9,2.387c3.286-.728,3.686-.018,4.973,1.57A22.9,22.9,0,0,0,56.9,66.428a1.52,1.52,0,0,0,2.357-.039s-2.846-5.782-1.176-7.378S74.046,52.4,77.3,50.387s12.24-7.142,14.328-8.685c7.568-5.6,17.594-8.051,17.594-8.051s9.376-15.773,4.3-19.168" transform="translate(47.598 16.521)" fill="#f7ad9a"/>
        <path id="Trazado_898366" data-name="Trazado 898366" d="M74.147,46.609C76.132,49.053,78.652,57.207,80,63.7c8.043,8.858,26.911,9.8,31.019-3.439-.879-2.1-4.884-9.953-6.139-16-1.364-6.565,2.835-10.052-.28-16.269-2.717-5.419-12.258-9.276-12.258-9.276a69.332,69.332,0,0,0-7.424,5.865c-1.771,1.9-3.937-3.03-2.741-9.077.376-1.9-2.991-1.528-4.239-1.552-1.506,2.3-4.934,6.5-6.53,9.031a26.505,26.505,0,0,0-3.6,9.693c-.737,4.8,1.677,8.2,6.34,13.941" transform="translate(80.272 16.522)" fill="#425a4d"/>
        <path id="Trazado_898367" data-name="Trazado 898367" d="M76.02,18.182s.192,4.868-1.036,8.073c-2.3,2.232-4.613,9.643-2.075,12.231,1.613,1.644,6.458-4.022,8.574-5.529,2.077-1.48,6.554-6.974,7.221-7.89-2.022-1.786-3.089-13.724-3.338-15.014-1.3-6.746-9.346,8.128-9.346,8.128" transform="translate(85.166 9.844)" fill="#e28e7d"/>
        <path id="Trazado_898368" data-name="Trazado 898368" d="M84.314,9.361a127.668,127.668,0,0,1,4.167,13.016c1.375,5.732-2.658,12.513-5.509,15.462s-5.586,11.884-5.586,11.884-3.054-2.606-2.35-9.223c.49-4.6,2.516-7.542,5.343-17.176.759-2.591,1.493-10.858,1.493-10.858Z" transform="translate(88.876 11.103)" fill="#2d2442"/>
        <path id="Trazado_898369" data-name="Trazado 898369" d="M87.428,3C83.213-.2,73.244-1.2,69.635,9.108,65.851,19.916,75.658,33.376,80.858,31.07,83.773,29.78,89.889,25.2,91.6,19.516,93.527,13.111,90.7,5.477,87.428,3" transform="translate(81.589 0.948)" fill="#f7ad9a"/>
        <path id="Trazado_898370" data-name="Trazado 898370" d="M68.785,15.478s1.589-.944,4.012-2.462c2.14,2.387,3.987,4.571,6.2,5.8,4.044,2.241,5.264,2.236,7.951,2.23.732-.7,1.948-3.106,2.595-3.36,1.965-.772,2.245,2.779,2.245,2.779s6.845-12.5-5.354-19.55c-4.4-2.54-11.676.684-14.852,3.935-3.961,4.053-2.8,10.629-2.8,10.629" transform="translate(81.399 0)" fill="#2d2442"/>
        <path id="Trazado_898371" data-name="Trazado 898371" d="M87.654,26.22c-1.183,4.193,2.11,19.507-.542,29.257-4.56,16.772-5.457,27.4-7.756,31.567s-7.282,7.562-6.565,8.049c2.549,1.725,5.774-1.672,6.589.595s1.786,8.458,7.232,8.928c2.785.24,2.079-2.346,1.561-5.465-.73-4.381-2.1-7.7-1.18-11.844.2-.9,7.367-21.45,9.558-30.818s3.727-28.411,3.214-31.194c-1.83-9.936-10.43-5.028-12.109.925" transform="translate(86.255 23.258)" fill="#f7ad9a"/>
        <path id="Trazado_898372" data-name="Trazado 898372" d="M135.827,99.089l-97.4-55.877,4.934-2.978,97.4,55.875Z" transform="translate(45.584 47.723)" fill="#fedc58"/>
        <path id="Trazado_898373" data-name="Trazado 898373" d="M87.918,65.794l0,1.264-4.934,2.98,0-1.264Z" transform="translate(98.428 78.039)" fill="#d1a322"/>
        <path id="Trazado_898374" data-name="Trazado 898374" d="M38.436,42.86l0-1.264,97.4,55.877,0,1.264Z" transform="translate(45.584 49.338)" fill="#eac03b"/>
        <path id="Trazado_898375" data-name="Trazado 898375" d="M76.579,34.637A3.3,3.3,0,0,0,75.13,32.3c-2.035-1.318-3.517-2.265-5.448-3.406-.28-.164-.461-1.047-.461-1.047s-5.45-3.268-8.226-3.874c-1.412-.308-2-.19-2.523.258l0,0L7.918,53.128,24.253,65.556V65.2Z" transform="translate(9.392 28.229)" fill="#cc3232"/>
        <path id="Trazado_898376" data-name="Trazado 898376" d="M66.724,31.29a2.434,2.434,0,0,0,.992-2.534L15.39,59.322l0,.354.776.59Z" transform="translate(18.254 34.108)" fill="#ba2b2b"/>
        <path id="Trazado_898377" data-name="Trazado 898377" d="M9.237,42.422c-2.361-1.257-2.722-6.858,1.589-4.807A118.383,118.383,0,0,1,24.785,45.6c2.7,1.751,1.616,6.672-2.031,4.591-4.215-2.4-13.517-7.767-13.517-7.767" transform="translate(8.906 44.085)" fill="#e04b4b"/>
        <path id="Trazado_898378" data-name="Trazado 898378" d="M7.918,50.932s.4-.918,5.1,1.67a67.707,67.707,0,0,1,10.065,7.352s24.6-16.389,30.9-20.934S70.327,26.129,70.327,26.129l-1.106-.479S53.039,38.474,46.942,42.5,23.293,58.269,23.293,58.269,14.151,52.089,12.48,51.3c-3.428-1.624-4.562-.365-4.562-.365" transform="translate(9.392 30.424)" fill="#ba2b2b"/>
        <path id="Trazado_898379" data-name="Trazado 898379" d="M9.379,37.217A2.492,2.492,0,0,0,8.441,40.7c1.22,2.293,6.407,4.248,10.045,6.053s5.616,3.065,6.088,1.878a1.614,1.614,0,0,0-.507-1.893s.6,1.559-.551,1.469c-1.089-.085-5.194-2.56-7.129-3.264s-7.048-3.714-7.433-4.755c-.448-1.218.072-2.153,1.539-2.442s-1.115-.525-1.115-.525" transform="translate(9.568 44.144)" fill="#ba2b2b"/>
        <path id="Trazado_898380" data-name="Trazado 898380" d="M94.976,62.274c-.512-.376-5.056-.092-6.554.649s-.442,2.857,2.083,2.317,5.894-1.917,4.471-2.967" transform="translate(104.059 73.667)" fill="#fff"/>
        <path id="Trazado_898381" data-name="Trazado 898381" d="M75.324,88.149s1.629,2.271,6.073,1.235c3.7-.861,13.635-7.955,19.233-12.225,1.211-.258,2.58-.418,2.58-.418s1.473-2.687,2.77-2.783c.649-.048,1.884,1.257,4.827,2.56,3.185,1.412,5.207,1.5,8.012.5,3.028-1.078,4.342-2.538,4.532-2.853a3,3,0,0,0,.238-2.088s-3.222,2.89-5.306,3.4-5.4.627-7.848-1.014a17.491,17.491,0,0,0-3.913-2.107Z" transform="translate(89.343 85.494)" fill="#9b9b9b"/>
        <path id="Trazado_898382" data-name="Trazado 898382" d="M90.99,74.885s-.3-1.312,2.87-2.372c2.977-.992,5.68-.958,7.479.024s2.088,1.943,2.088,1.943,1.2-2.521-2.772-3.4-6.849-.606-8.941.684a2.066,2.066,0,0,0-.724,3.117" transform="translate(107.402 83.709)" fill="#9b9b9b"/>
        <path id="Trazado_898383" data-name="Trazado 898383" d="M89.279,76.943a9.88,9.88,0,0,1,3.515-4.125,9.43,9.43,0,0,0,3.006-.85,6.121,6.121,0,0,0,2.457-1.983,2.513,2.513,0,0,0,.14-1.15A7.927,7.927,0,0,1,94.108,71.5c-2.6.49-4.919,1.749-5.352,2.61a27.828,27.828,0,0,0-1.043,2.755Z" transform="translate(104.039 81.646)" fill="#9b9b9b"/>
        <path id="Trazado_898384" data-name="Trazado 898384" d="M88.663,71.634a2.641,2.641,0,0,1,.979-1.891,4.3,4.3,0,0,1,3.487-.789c.752.094,2.239.78,2.236,1.887s1.471.564,1.091-.678-.673-2.654-3.183-2.337-4.167.013-4.764,1.449a2.357,2.357,0,0,0,.153,2.359" transform="translate(104.708 80.395)" fill="#9b9b9b"/>
        <path id="Trazado_898385" data-name="Trazado 898385" d="M87.537,68.838a3.325,3.325,0,0,0,.035,1.88,3.471,3.471,0,0,0,2.483,1.928c1.517.442,1.681-.02,1.681-.02Z" transform="translate(103.676 81.65)" fill="#9b9b9b"/>
        <path id="Trazado_898386" data-name="Trazado 898386" d="M112.276,69.013c-1.661-1.189-3.572-2.254-7.212-.931-4.484,1.631-3.712,3.83-1.506,5.293a3.363,3.363,0,0,0,.761.372,14.236,14.236,0,0,0-3.662,5.717L75.324,93.615a8.7,8.7,0,0,0,7.192.192C85.828,92.516,102.8,80.217,102.8,80.217c.367-1.919,2.112-5.306,4.586-6.357v0a11.018,11.018,0,0,0,2.977-.745c2.641-1.235,3.57-2.908,1.908-4.1m-3.03,3.209c-1.6.49-3.17.85-4.206.162-1.362-.9-1.839-2.26.929-3.268a4.145,4.145,0,0,1,4.455.575c.927.857.42,2.042-1.178,2.532" transform="translate(89.343 80.028)" fill="#d3d3d3"/>
        <path id="Trazado_898387" data-name="Trazado 898387" d="M72.83,81.365s.409,1.1,5.448-.271,27.643-6.163,27.643-6.163l.181-1.395Z" transform="translate(86.385 87.223)" fill="#9b9b9b"/>
        <path id="Trazado_898388" data-name="Trazado 898388" d="M124.944,72.03c-3.157-2.507-6.921-2.448-13.292-.306-3.161,1.062-4.044,3.1-6.285,3.609-3.817.857-31.069,5.8-32.538,10.071l33.2-7.378s1.926-2.523,2.8-2.448c1.618.138,7.352,4.947,11.886,3.268s8-3.817,4.228-6.816m-.826,2.389c-.365.933-2.142,2.61-5.649,2.77s-4.72-.986-6.394-2.232,2.759-2.881,4.51-3.076c6.082-.671,7.9,1.607,7.533,2.538" transform="translate(86.383 83.184)" fill="#bfbfbf"/>
        <path id="Trazado_898389" data-name="Trazado 898389" d="M88.277,73.239c-.374-.4-.855-.19-1.189-.037-.238.107-.542.787.912.715.286-.013.616-.31.278-.678" transform="translate(103.058 86.596)" fill="#9b9b9b"/>
      </g>
    </g>
  </g>
</svg>
