<svg xmlns="http://www.w3.org/2000/svg" xmlns:xlink="http://www.w3.org/1999/xlink" width="400.051" height="227" viewBox="0 0 400.051 227">
  <defs>
    <clipPath id="clip-path">
      <rect id="Rectángulo_413529" data-name="Rectángulo 413529" width="346.22" height="133.983" fill="none"/>
    </clipPath>
  </defs>
  <g id="Grupo_1127123" data-name="Grupo 1127123" transform="translate(-600.051 -5407)">
    <rect id="Rectángulo_413531" data-name="Rectángulo 413531" width="400.051" height="227" rx="13" transform="translate(600.051 5407)" fill="#f6f3fa"/>
    <g id="Grupo_1124669" data-name="Grupo 1124669" transform="translate(627.051 5454)">
      <g id="Grupo_1124668" data-name="Grupo 1124668" clip-path="url(#clip-path)">
        <path id="Trazado_896309" data-name="Trazado 896309" d="M220.392,33.54v70.879H172.811c-.438-.438-.689-.689-1.128-1.143q-5.236-15.641-10.458-31.3L74.314,58.78V22.722H209.572A10.821,10.821,0,0,1,220.392,33.54" transform="translate(-8.523 -2.606)" fill="#f9e8a5"/>
        <path id="Trazado_896310" data-name="Trazado 896310" d="M218.175,146.74H27.356v-27.2a4.893,4.893,0,0,1,4.893-4.894H213.282a4.894,4.894,0,0,1,4.893,4.894Z" transform="translate(-3.138 -13.149)" fill="#ffe060"/>
        <path id="Trazado_896311" data-name="Trazado 896311" d="M184.153,18.046h0a1.358,1.358,0,0,1-1.358-1.358V1.359a1.358,1.358,0,1,1,2.716,0V16.688a1.358,1.358,0,0,1-1.358,1.358" transform="translate(-20.965)" fill="#f4dbcd"/>
        <rect id="Rectángulo_413521" data-name="Rectángulo 413521" width="8.409" height="5.369" transform="translate(158.984 14.747)" fill="#dd973a"/>
        <rect id="Rectángulo_413522" data-name="Rectángulo 413522" width="4.657" height="39.571" transform="translate(47.087 56.176)" fill="#babab9"/>
        <path id="Trazado_896312" data-name="Trazado 896312" d="M62.492,90.671h0a1.487,1.487,0,0,1-1.487-1.487V64.94a1.487,1.487,0,1,1,2.975,0V89.184a1.487,1.487,0,0,1-1.487,1.487" transform="translate(-6.997 -7.278)" fill="#babab9"/>
        <path id="Trazado_896313" data-name="Trazado 896313" d="M62.844,108.178h0a1.421,1.421,0,0,1-1.421,1.421H46.154v-.033h-.512L44.428,106.7a1.421,1.421,0,0,1,1.309-1.974h1a1.421,1.421,0,0,1,1.309.868l.127.3a1.42,1.42,0,0,0,1.308.868H61.424a1.421,1.421,0,0,1,1.421,1.421" transform="translate(-5.083 -12.011)" fill="#babab9"/>
        <rect id="Rectángulo_413523" data-name="Rectángulo 413523" width="18.137" height="3.299" transform="translate(42.675 56.175)" fill="#babab9"/>
        <path id="Trazado_896314" data-name="Trazado 896314" d="M191.877,32.887H176.213a1.746,1.746,0,1,1,0-3.493h15.665a1.746,1.746,0,1,1,0,3.493" transform="translate(-20.01 -3.371)" fill="#f4dbcd"/>
        <path id="Trazado_896315" data-name="Trazado 896315" d="M218.591,65.47A13.195,13.195,0,1,1,205.4,52.275,13.195,13.195,0,0,1,218.591,65.47" transform="translate(-22.044 -5.996)" fill="#dd973a"/>
        <rect id="Rectángulo_413524" data-name="Rectángulo 413524" width="1.565" height="6.307" transform="translate(182.569 46.279)" fill="#f4dbcd"/>
        <rect id="Rectángulo_413525" data-name="Rectángulo 413525" width="6.093" height="27.476" transform="translate(33.536 23.189)" fill="#714e55"/>
        <rect id="Rectángulo_413526" data-name="Rectángulo 413526" width="26.158" height="38.497" transform="translate(39.629 17.679)" fill="#ffe060"/>
        <path id="Trazado_896316" data-name="Trazado 896316" d="M161.225,75.641q-43.448-6.6-86.911-13.2V54.661l86.5,12.572Z" transform="translate(-8.523 -6.269)" fill="#ffe060"/>
        <rect id="Rectángulo_413527" data-name="Rectángulo 413527" width="7.909" height="5.72" transform="translate(210.917 34.637)" fill="#e3c1ba"/>
        <path id="Trazado_896317" data-name="Trazado 896317" d="M246.545,60.579h0a4.872,4.872,0,0,1-4.872-4.872V23.576a4.871,4.871,0,1,1,9.743,0V55.707a4.872,4.872,0,0,1-4.871,4.872" transform="translate(-27.718 -2.145)" fill="#dd973a"/>
        <path id="Trazado_896318" data-name="Trazado 896318" d="M243.582,113.251V134.56a10.8,10.8,0,0,1-10.787,10.788H140.528a10.783,10.783,0,0,1-7.624-18.413,10.521,10.521,0,0,1,6.043-3.022,10.784,10.784,0,0,1,1.581-21.45h92.266a10.788,10.788,0,0,1,10.787,10.787" transform="translate(-14.88 -11.752)" fill="#dd973a"/>
        <path id="Trazado_896319" data-name="Trazado 896319" d="M231.725,136.675H145.493V135.11h86.232a3.032,3.032,0,0,0,3.028-3.03V118.714a3.032,3.032,0,0,0-3.028-3.029H145.493v-1.566h86.232a4.6,4.6,0,0,1,4.593,4.595V132.08a4.6,4.6,0,0,1-4.593,4.595" transform="translate(-16.687 -13.089)" fill="#ffe060"/>
        <line id="Línea_1611" data-name="Línea 1611" x2="85.939" transform="translate(124.067 112.162)" fill="#ffe060"/>
        <rect id="Rectángulo_413528" data-name="Rectángulo 413528" width="85.938" height="1.566" transform="translate(124.067 111.378)" fill="#ffe060"/>
        <path id="Trazado_896320" data-name="Trazado 896320" d="M45.468,122.274A22.734,22.734,0,1,1,22.734,99.54a22.734,22.734,0,0,1,22.734,22.734" transform="translate(0 -11.416)" fill="#ffb200"/>
        <path id="Trazado_896321" data-name="Trazado 896321" d="M32.192,124.25a7.481,7.481,0,1,1-7.482-7.482,7.482,7.482,0,0,1,7.482,7.482" transform="translate(-1.976 -13.392)" fill="#ffe060"/>
        <path id="Trazado_896322" data-name="Trazado 896322" d="M27.936,107.816a2.594,2.594,0,1,1-2.593-2.593,2.593,2.593,0,0,1,2.593,2.593" transform="translate(-2.609 -12.068)" fill="#ffe060"/>
        <path id="Trazado_896323" data-name="Trazado 896323" d="M27.936,141.95a2.594,2.594,0,1,1-2.593-2.593,2.593,2.593,0,0,1,2.593,2.593" transform="translate(-2.609 -15.983)" fill="#ffe060"/>
        <path id="Trazado_896324" data-name="Trazado 896324" d="M39.245,114.648a2.594,2.594,0,1,1,0-3.668,2.594,2.594,0,0,1,0,3.668" transform="translate(-3.993 -12.641)" fill="#ffe060"/>
        <path id="Trazado_896325" data-name="Trazado 896325" d="M15.108,138.785a2.594,2.594,0,1,1,0-3.668,2.594,2.594,0,0,1,0,3.668" transform="translate(-1.225 -15.41)" fill="#ffe060"/>
        <path id="Trazado_896326" data-name="Trazado 896326" d="M42.41,127.476A2.594,2.594,0,1,1,45,124.883a2.593,2.593,0,0,1-2.593,2.593" transform="translate(-4.567 -14.026)" fill="#ffe060"/>
        <path id="Trazado_896327" data-name="Trazado 896327" d="M8.276,127.476a2.594,2.594,0,1,1,2.593-2.593,2.593,2.593,0,0,1-2.593,2.593" transform="translate(-0.652 -14.026)" fill="#ffe060"/>
        <path id="Trazado_896328" data-name="Trazado 896328" d="M35.578,138.785a2.594,2.594,0,1,1,3.668,0,2.594,2.594,0,0,1-3.668,0" transform="translate(-3.993 -15.41)" fill="#ffe060"/>
        <path id="Trazado_896329" data-name="Trazado 896329" d="M11.442,114.648a2.593,2.593,0,1,1,3.667,0,2.594,2.594,0,0,1-3.667,0" transform="translate(-1.225 -12.641)" fill="#ffe060"/>
        <path id="Trazado_896330" data-name="Trazado 896330" d="M153.121,134.3l-8.735,6.966c.906,3.282.421,4.6-.235,5.187-.959.857-2.74.5-3.214,1.606a4.42,4.42,0,0,0,0,1.33h9.612q.336-1.582.668-3.175.316-1.518.624-3.029a9.862,9.862,0,0,1,2.5-3.547c.743-.659,1.23-.868,1.4-1.431.351-1.191-1.106-2.694-2.612-3.908" transform="translate(-16.158 -15.403)" fill="#006a99"/>
        <path id="Trazado_896331" data-name="Trazado 896331" d="M101.448,144.213l9.649.135c.5,1.4,1.153,3.161.8,4.176-.428,1.241-1.035,1.523-1.571,1.536-4.247.112-15.554.263-18.792.305-.521.007-.414-.664-.412-.868.019-1.1,2.113-1.787,5.948-3.383,1.208-.5,2.689-1.137,4.373-1.9" transform="translate(-10.45 -16.54)" fill="#006a99"/>
        <path id="Trazado_896332" data-name="Trazado 896332" d="M150.926,128.771l-8.867,6.49C129.85,110.4,124.6,100.874,122.827,98.828c-.112-.129-.546-1.092-1.318-2.227a5.287,5.287,0,0,1,.809-6.893q.364-.331.794-.689c3.986-3.323,31.306-7.061,31.306-7.061l17.474,1.711a44.306,44.306,0,0,1-29.648,13.737q4.341,15.682,8.681,31.365" transform="translate(-13.831 -9.4)" fill="#003650"/>
        <path id="Trazado_896333" data-name="Trazado 896333" d="M171.319,83.984s3,8.992-1.5,13.188-24.28,3.745-33.072,3.745l-24.1,37.047H100.11c2.784-5.045,6.877-12.733,11.406-22.376,6.946-14.788,7.294-17.937,11.911-22.146,7.685-7,17.641-8.232,27.576-9.459a83.15,83.15,0,0,1,20.315,0" transform="translate(-11.482 -9.561)" fill="#004070"/>
        <path id="Trazado_896334" data-name="Trazado 896334" d="M158.012,34.4s-3.3,5.987-8.814,5.2a32.279,32.279,0,0,1-1.729-4.663c-.058-.238-.114-.468-.169-.687-.537-2.174-.9-3.381-.9-3.381l.005,0c.207-.15,6.978-4.975,7.031-4.718,1.25,5.928,4.573,8.251,4.573,8.251" transform="translate(-16.791 -2.998)" fill="#ffb29f"/>
        <path id="Trazado_896335" data-name="Trazado 896335" d="M153.016,27.935a12.025,12.025,0,0,1-5.717,6.519c-.536-2.174-.9-3.381-.9-3.381l.005,0c.194-.1,6.731-3.58,6.608-3.136" transform="translate(-16.791 -3.199)" fill="#ff876f"/>
        <path id="Trazado_896336" data-name="Trazado 896336" d="M145.031,31.562s8.7-1.809,7.49-7.208-.9-9.27-6.507-8.344-6.219,3.228-6.254,5.129,2.977,10.755,5.271,10.424" transform="translate(-16.029 -1.821)" fill="#ffb29f"/>
        <path id="Trazado_896337" data-name="Trazado 896337" d="M152.588,23.575c1.7.175,4.272-3.754,4.022-7.524a8.569,8.569,0,0,0-2.683-5.538c-4.569-4.049-13.934-2.312-16.1,2.192-.686,1.423-.874,3.577.228,4.735,1.494,1.569,5.266,1.211,9.166-1.571-.095.195-1.092,2.343-.031,3.764a2.363,2.363,0,0,0,.6.561,2.546,2.546,0,0,1,2.408-1.692,1.792,1.792,0,0,1,1.254.691,2.236,2.236,0,0,1-.464,2.718c.566,1.223,1.126,1.615,1.606,1.664" transform="translate(-15.743 -0.945)" fill="#003650"/>
        <path id="Trazado_896338" data-name="Trazado 896338" d="M99.725,58.876H116.84a1.522,1.522,0,0,0,1.411-2.093l-5.4-13.37a1.522,1.522,0,0,0-1.412-.952H94.324a1.523,1.523,0,0,0-1.412,2.093l5.4,13.369a1.522,1.522,0,0,0,1.411.953" transform="translate(-10.643 -4.87)" fill="#fff"/>
        <path id="Trazado_896339" data-name="Trazado 896339" d="M178.894,79.251A50.536,50.536,0,0,1,152,79.191a33.47,33.47,0,0,0,.012-16.153c-1.911-7.311-6.244-12.392-4.894-20.128a18.479,18.479,0,0,1,1.17-3.979l8.047-2.938c2.754-1.006,5.036,1.039,5.558,1.313,4,2.1,5.689,6.2,6.617,8.587,4.752,12.238,9.99,31.877,10.382,33.358" transform="translate(-16.844 -4.096)" fill="#006a99"/>
        <path id="Trazado_896340" data-name="Trazado 896340" d="M114.079,52.956c.442,1.416.472.822,1.051,2.847.578,2.01,2.01,3.654,3.5,3.882,0,0,5.5,6.06,10.78,10.688a36.332,36.332,0,0,0,5.678,4.293c7.643,4.552,10.581-3.456,10.581-3.456l-7.9-4.4c-.685-.3-2.725-1.2-5.176-2.405-4.415-2.147-10.139-5.207-11.753-7.322-.213-.9-.746-2.893-.975-2.756a1.125,1.125,0,0,0-.381.776A7.384,7.384,0,0,0,116.15,52a1.855,1.855,0,0,0-1.447-.2.817.817,0,0,0-.624,1.157" transform="translate(-13.076 -5.933)" fill="#ffb29f"/>
        <path id="Trazado_896341" data-name="Trazado 896341" d="M130.907,71.6s2.375,2.116,8.83,4.963a5.914,5.914,0,0,0,3.32.543c4.524-.359,7.376-5.909,11.829-14.854A40.033,40.033,0,0,0,158.966,50.7c.975-5.693-.136-7.612-.593-8.176a7.2,7.2,0,0,0-7.353-2.907c-3.913.791-5.5,7.658-5.5,7.658q-2.854,9-5.693,18.011l-3.335-1.339Z" transform="translate(-15.014 -4.524)" fill="#006a99"/>
        <path id="Trazado_896342" data-name="Trazado 896342" d="M153.8,71.59,159.754,59.4,153.2,79.482Z" transform="translate(-17.571 -6.813)" fill="#005177"/>
        <path id="Trazado_896343" data-name="Trazado 896343" d="M365.91,104.608l-4.829,1.706.691,5.1-4.829,1.708.691,5.1-3.853,1.362,2.991,1.177,2.787-4.3,4.784,1.882,2.787-4.3,5.729,1.082-4.138-3.853,1.787-4.962-4.311-2.806,1.863-4.773-.224-.145-2.614.923Z" transform="translate(-40.576 -11.307)" fill="#ffe060"/>
        <path id="Trazado_896344" data-name="Trazado 896344" d="M280.193,80.792l4.83-1.707-.691-5.1,4.829-1.707-.691-5.1,4.83-1.707-.691-5.1,4.83-1.708-.467-3.44-3.121-1.228L291.064,58.3l-4.784-1.882-2.787,4.3-4.785-1.882-2.787,4.3-5.729-1.082,4.212,4.041-1.861,4.774,4.311,2.806-1.862,4.773,4.311,2.806-1.862,4.773,1.525.992,1.918-1.12Z" transform="translate(-30.989 -6.194)" fill="#ffe060"/>
        <path id="Trazado_896345" data-name="Trazado 896345" d="M325.256,123.486l-1.7-4.851-5.073.694-1.7-4.852-5.073.694-1.7-4.851-5.073.694-1.7-4.851-5.073.694-1.7-4.852-5.074.694-1.7-4.852-5.074.694-1.7-4.852-.034,0-1.741,4.46,4.311,2.8-1.861,4.773,4.311,2.8-1.862,4.773,4.311,2.8-1.862,4.772,4.311,2.806-1.862,4.773,4.311,2.8-1.056,5.719,4.025-4.19,4.784,1.881,2.789-4.3,4.784,1.882,2.788-4.3,4.784,1.882,2.788-4.3,4.783,1.882,2.787-4.295,2.245.884-.429-1.227Z" transform="translate(-32.245 -10.745)" fill="#ffe060"/>
        <path id="Trazado_896346" data-name="Trazado 896346" d="M372.14,60.261l-1.7-4.852-5.074.694-1.7-4.852-5.073.694-1.7-4.852-5.073.694-1.7-4.851-5.073.694-1.7-4.852-2.686.368-2.388.327-.107-.306-1.592-4.546-5.073.694-1.7-4.851-5.073.694-1.7-4.852L317.961,27l-2.922-5.045-.31,5.83L309.9,29.49l.691,5.1-4.83,1.707.691,5.1L301.621,43.1l.66,4.866.031.231-.436.154L297.482,49.9l.225,1.655L298.173,55l-4.83,1.707.691,5.1-4.83,1.707.691,5.1-4.829,1.708.691,5.1-4.83,1.708.691,5.1L279.7,83.333l-3.1,1.815,5.769.31.034,0,1.7,4.852,5.074-.694,1.7,4.852,5.074-.694,1.7,4.852,5.074-.694,1.7,4.851,5.072-.694,1.7,4.851,5.073-.694,1.7,4.852,5.073-.694,1.7,4.851,5.073-.694.429,1.226,1.27,3.626,5.073-.695,2.922,5.044.215-5.649,4.925-1.888-.691-5.1.977-.345,3.852-1.362-.691-5.1,4.83-1.707-.691-5.1,4.829-1.706-.691-5.1,2.615-.924,2.215-.783-.691-5.1,4.83-1.707-.691-5.1,4.829-1.708-.691-5.1,4.829-1.708-.691-5.1,5.021-2.936Z" transform="translate(-31.724 -2.518)" fill="#d1c4e9"/>
      </g>
    </g>
  </g>
</svg>
