<svg xmlns="http://www.w3.org/2000/svg" xmlns:xlink="http://www.w3.org/1999/xlink" width="459.579" height="332.987" viewBox="0 0 459.579 332.987">
  <defs>
    <clipPath id="clip-path">
      <rect id="Rectángulo_413472" data-name="Rectángulo 413472" width="275.502" height="278.508" fill="none"/>
    </clipPath>
    <clipPath id="clip-path-3">
      <rect id="Rectángulo_413469" data-name="Rectángulo 413469" width="4.811" height="3.786" fill="none"/>
    </clipPath>
    <clipPath id="clip-path-4">
      <rect id="Rectángulo_413470" data-name="Rectángulo 413470" width="6.614" height="3.726" fill="none"/>
    </clipPath>
  </defs>
  <g id="Grupo_1127124" data-name="Grupo 1127124" transform="translate(-289.051 -3788)">
    <rect id="Rectángulo_413468" data-name="Rectángulo 413468" width="459.579" height="332.987" rx="20" transform="translate(289.051 3788)" fill="#f6fbf6"/>
    <g id="Grupo_1124624" data-name="Grupo 1124624" transform="translate(381.051 3815)">
      <g id="Grupo_1124623" data-name="Grupo 1124623" clip-path="url(#clip-path)">
        <g id="Grupo_1124622" data-name="Grupo 1124622">
          <g id="Grupo_1124621" data-name="Grupo 1124621" clip-path="url(#clip-path)">
            <path id="Trazado_895511" data-name="Trazado 895511" d="M91.678,68.9C46.493,95.157,45.187,95.008,0,121.263c90.607,52.308,94.366,54.6,184.971,106.909,45.173-26.253,45.346-25.637,90.533-51.893C184.9,123.971,182.27,121.207,91.678,68.9" transform="translate(0 50.336)" fill="#e8e8f7" fill-rule="evenodd"/>
            <path id="Trazado_895512" data-name="Trazado 895512" d="M101.456,53.552c1.476-.175,2.658-.443,2.978-2.009.594-2.9.362-10.046,2.224-18.631,1.12-5.164.772-17.389-7.881-15.617-5.027,1.03-3.662,7.161-2.885,13.232.7,5.47-.187,11.526.632,16.89.44,2.894,1.668,6.522,4.932,6.135" transform="translate(69.49 12.508)" fill="#c7c1c1" fill-rule="evenodd"/>
            <path id="Trazado_895513" data-name="Trazado 895513" d="M118.877,49.682c1.551,4.846.062,12.889-1.239,21.295-.716,4.624-1.869,9.392-2.424,13.467q-.135.976-.247,1.857a40.421,40.421,0,0,0-.5,7.855c.417,5.327,2.658,6.452,3.5,13.393,1.018,8.423-3.411,18.079-3.08,27.362a5.8,5.8,0,0,0,1.109,2.279c3.719,4.572-.114,3.968.242,10.008.033.531-2.021,9.747-2.021,9.747s-5.52,1.535-5.938,1.476-3.842-1.251-3.842-1.251c.268-.5.606-1.724.824-2.186,2.487-5.275,2.819-11.737,2.823-17.688.007-8.141-2.239-27.312-4.335-35.137a101.505,101.505,0,0,1-1.677-13.836c-.86-13.526-1.3-23.281.377-37.593Z" transform="translate(74.009 36.296)" fill="#f1b287" fill-rule="evenodd"/>
            <path id="Trazado_895514" data-name="Trazado 895514" d="M105.392,116.294c-.594,1.09-1.234,2.653-1.779,3.83a23.989,23.989,0,0,0-1.393,3.71,1.737,1.737,0,0,0,.126,1.492c1.333,1.789,8.012-1.474,10.25-3.452,1.447-1.275,1.474-2.786,1.814-4.631.511-2.769.6-3.08,1.262-5.925l.751,7.724.9.412a88.554,88.554,0,0,1,.69-10.023c.194-1.071.524-2.293.571-2.887a6.127,6.127,0,0,0-3.046-6.2c.583,2.127-.959,5.586-1.66,9.94-.734,4.558-3.257,9.541-5.24,9.963-.836.177-2.684-.865-3.69-1.438-.381-.218.052-1.523.441-2.511" transform="translate(74.602 73.304)" fill="#333647" fill-rule="evenodd"/>
            <path id="Trazado_895515" data-name="Trazado 895515" d="M103.337,125.815c2.549-.272,6.7-2.464,8.369-3.94,1.447-1.277,1.474-2.788,1.814-4.633.511-2.769.6-3.08,1.26-5.925l.753,7.724.9.412a88.509,88.509,0,0,1,.689-10.022c.2-1.073.526-2.295.571-2.887a6.123,6.123,0,0,0-3.046-6.2c.585,2.127-.957,5.585-1.658,9.939-.6,3.752-2.419,7.789-4.15,9.336a31.29,31.29,0,0,1-5.5,6.2" transform="translate(75.494 73.305)" fill-rule="evenodd"/>
            <path id="Trazado_895516" data-name="Trazado 895516" d="M117.739,50.138c1.334,5.117,5.621,5.276,3.8,13.8-1.821,8.5-6.99,24.879-6.377,32.728.417,5.327,2.181,6.322,3.02,13.263,1.018,8.423-1.154,20.6-.824,29.88.272,1.386-3.1,7.812-9.667,5.771-1.037-8.142-2.5-35.627-4.683-44.321-1.613-4.813-1.159-7.154-1.542-11.953-.867-10.851-.253-21.371-.106-31.148.365-3.783.083-8.438.626-11.738Z" transform="translate(73.793 33.913)" fill="#1761a6" fill-rule="evenodd"/>
            <path id="Trazado_895517" data-name="Trazado 895517" d="M117.61,50.138c1.334,5.117,5.621,5.276,3.8,13.8-1.821,8.5-6.99,24.879-6.377,32.728.417,5.327,2.181,6.322,3.02,13.263,1.018,8.423-1.154,20.6-.824,29.88.211,1.078-1.784,5.206-5.77,6.026,1.044-16.179,2.7-29.854-2.129-43.115a16.079,16.079,0,0,1-.784-6.445A229.3,229.3,0,0,1,112.01,68.73a46.574,46.574,0,0,1-10.826-7.943q.026-1.334.045-2.627c.365-3.783.083-8.438.626-11.738Z" transform="translate(73.921 33.913)" fill="#0e4170" fill-rule="evenodd"/>
            <path id="Trazado_895518" data-name="Trazado 895518" d="M110.579,62.131c-1.009,3.385-3.6,26.611-4.15,27.154-.931.914-2.949,1.462-4.065-1.94-.388-1.182-.945-29.122-.86-31.467,3.452,2.923,6.4,5.332,9.075,6.253" transform="translate(74.148 40.822)" fill="#257bcc" fill-rule="evenodd"/>
            <path id="Trazado_895519" data-name="Trazado 895519" d="M102.229,77.681l4.6,1.649c4.472,13.947,4.356,25.323,3.342,43.29a4.651,4.651,0,0,1-3.169-.478c-.024-7.845-.988-13.626-1.279-20.753-.151-3.681-.55-7.422-.893-11.377-.573-6.633-.055-5.2-2.6-12.332" transform="translate(74.684 56.751)" fill="#257bcc" fill-rule="evenodd"/>
            <path id="Trazado_895520" data-name="Trazado 895520" d="M125.784,65.5c-1.341,13.123-3.449,18.254-2.9,23.669.363,3.574,3.548,8.755,4.219,12.176,1.492,7.6-1.834,19.934-2.968,30.847a15.288,15.288,0,0,0,.512,3.26,37.958,37.958,0,0,1,.356,5.771,51.448,51.448,0,0,1-1.286,10.375c-.331,1.443-.974,2.063-1.407,4.039l-8.511,1.39c.476-1.827,1.192-4.693,1.77-7.848.438-2.4.748-4.984,1.09-7.35.429-2.964,1.076-5.626,1.113-7.289.23-10.536-1.888-14.57-3.2-25.545-.542-4.536.2-7.071-1.493-10.638a54.448,54.448,0,0,1-2.163-5.585,22.863,22.863,0,0,1-1.09-7.73c.187-4.262.71-10.543,1.89-19.022l13.895-1.737Z" transform="translate(80.224 46.963)" fill="#f1b287" fill-rule="evenodd"/>
            <path id="Trazado_895521" data-name="Trazado 895521" d="M123.128,105.079a15.723,15.723,0,0,1,1.128,4.949c.074,2.331-1,5.972-.91,8.859l.142,4.579c.083,2.667-.6,4.517-3.624,6.721-2.746,2-5.422,2.817-6.877,2.108-1.073-.523-1.928-2.411-.286-7.391,1.369-4.148,1.72-8.2,2.525-12.7a45.184,45.184,0,0,1-1.457,10.235c-.3,1.211-.474,3.238.964,3.444,5.946.85,6.244-.749,6.735-2.584,1.31-4.9,2.269-13.62,1.66-18.216" transform="translate(81.665 76.767)" fill="#333647" fill-rule="evenodd"/>
            <path id="Trazado_895522" data-name="Trazado 895522" d="M122.118,105.079a15.723,15.723,0,0,1,1.128,4.949c.074,2.331-1,5.972-.91,8.859l.142,4.579c.083,2.667-.6,4.517-3.624,6.721a10.521,10.521,0,0,1-5.688,2.359c1.6-1.334,2.748-3.6,3.591-6.436,3.044-.059,3.312-1.364,3.7-2.816,1.31-4.9,2.269-13.62,1.66-18.216" transform="translate(82.675 76.767)" fill-rule="evenodd"/>
            <path id="Trazado_895523" data-name="Trazado 895523" d="M135.173,59.733c1.263,4.844.211,12.342-1.589,20.748-.988,4.624-2.423,9.392-3.221,13.467a41.822,41.822,0,0,0-.834,7.734c-.059,4.678,2.925,8.765,3.811,13.273,1.49,7.6-.445,24.712-1.58,35.625,1.047,3.06-5.915,8.007-10.356,4.432.23-10.536.632-21.43-.68-32.406-.542-4.534.2-7.069-1.493-10.636a50.61,50.61,0,0,1-2.315-5.63c-.149-.436-.275-.879-.384-1.324-.469-1.159-1.113-3.555-.841-7.81l.869-29.525c-5.176-5.339-10.9-10.821-15.165-17.363l.308-3.333,22.4-1.336c3.655,1.8,10.1,10.33,11.076,14.083" transform="translate(74.074 33.35)" fill="#1761a6" fill-rule="evenodd"/>
            <path id="Trazado_895524" data-name="Trazado 895524" d="M129.377,56.357c.1,4.493-.82,10.155-2.135,16.3-.99,4.624-2.423,9.39-3.221,13.467a41.852,41.852,0,0,0-.836,7.734c-.057,4.678,2.926,8.765,3.811,13.273,1.492,7.6-.445,24.712-1.578,35.624.666,1.952-1.923,4.671-5.038,5.458,1.532-19.265,2.516-32.8-2.217-47.435-.633-2.437-1.237-3.707-.992-6.225.924-9.433,2.724-17.152,4.787-26.609a35.741,35.741,0,0,1-11.882-3.38l.138-4.707Z" transform="translate(80.417 41.172)" fill="#0e4170" fill-rule="evenodd"/>
            <path id="Trazado_895525" data-name="Trazado 895525" d="M120.262,64.866c-.68,2.279-2.276,10.215-3.553,17.022-.8,4.288-1.324,8.48-1.9,9.046-.931.915-3.468,2.246-4.586-1.156-.62-1.89.2-11.4.23-12.055.254-6.294.538-13.922.6-15.722a29.336,29.336,0,0,0,9.2,2.866" transform="translate(80.356 45.295)" fill="#257bcc" fill-rule="evenodd"/>
            <path id="Trazado_895526" data-name="Trazado 895526" d="M111.612,82.273l4.6,1.649c4.472,13.947,3.011,26.583,2,44.55-1.09-.1-2.584.107-3.387-.7-.024-7.845.142-14.755-.151-21.881-.149-3.683-.55-7.422-.891-11.378-.575-6.632.377-5.109-2.172-12.244" transform="translate(81.539 60.105)" fill="#257bcc" fill-rule="evenodd"/>
            <path id="Trazado_895527" data-name="Trazado 895527" d="M109.356,3.453c7.723,13.569,10.236,25.887,12.05,37.018,0,0-18.036-13.446-18.382-13.673s-1.9-6.889-1.9-6.889l5.129-8.011Z" transform="translate(73.876 2.523)" fill="#241304" fill-rule="evenodd"/>
            <path id="Trazado_895528" data-name="Trazado 895528" d="M94.284,45.462c9.93-3.335,12.74-26.163,12.207-30.977l-8.8,2.371c-1.009,8.1-7.036,23.781-3.4,28.606" transform="translate(68.039 10.582)" fill="#241304" fill-rule="evenodd"/>
            <path id="Trazado_895529" data-name="Trazado 895529" d="M126.459,50.876c-1.2,5.327-1.023,10.928.434,13.28,1.608,2.592,12.209,8.528,13.395,19.477-.426,3.823-3.541,6.876-8.2,8.028-4.974,1.227-24.228-3.446-28.518-6.976-.2-9.921-.107-13.694-1.312-23.108-.542-4.238-2.966-6.94-3.695-11.751-.2-1.289-.388-2.591-.578-3.894-.642-4.4-1.239-8.807-1.689-12.685a84.582,84.582,0,0,1-.888-11.372,6.013,6.013,0,0,1,.459-2.163c.825-2.153,2.9-3.651,7.32-2.97,6.135.943,15.326,2.425,21.237,6.228,2.468.768,4.42,1.931,5.313,4.693,2.006,6.206-1.885,17.058-3.278,23.21" transform="translate(69.681 12.111)" fill="#e8e3e3" fill-rule="evenodd"/>
            <path id="Trazado_895530" data-name="Trazado 895530" d="M131.644,77.2q-.452.143-.928.26c-4.972,1.227-24.226-3.444-28.516-6.974-.2-9.923-.107-13.694-1.312-23.108-.528-4.122-2.836-6.792-3.632-11.365a10.943,10.943,0,0,0,5,.713c3.195,2.013,3.79,3.584,8.014,4.065,1.71.2,3.686.286,4.538.853,3.657,2.433,2.217,5.2,3.065,9.271,2.21,10.636,10.219,16.4,13.774,26.285" transform="translate(71.051 26.31)" fill="#f6f5f5" fill-rule="evenodd"/>
            <path id="Trazado_895531" data-name="Trazado 895531" d="M125.893,50.876c-1.2,5.327-1.023,10.928.434,13.28,1.608,2.592,12.209,8.528,13.395,19.477a8.881,8.881,0,0,1-4.856,6.741C132.5,81.1,123.254,75.948,120.843,64.357c-.846-4.077.322-7.547-3.335-9.978-.853-.566-2.828-.656-4.538-.851-4.226-.483-6.394-2.052-9.589-4.067a19.566,19.566,0,0,1-5.526-.68l-.047-.194c-.132-.881-.263-1.767-.391-2.653l-.133-.919c-.026-.367-.043-.735-.055-1.1-.114-3.785,16.951,3.786,21.937-8.272a19.357,19.357,0,0,1,2.3-10.3c-8.026-5.5-18.107-7.059-25.308-7.075,1.135-1.31,3.132-2.035,6.465-1.521A110.32,110.32,0,0,1,113.6,18.881a57.383,57.383,0,0,1,11.531,4.259c4.2,2.175,5.173,6.009,4.569,10-.332,5.943-2.764,13.147-3.8,17.74" transform="translate(70.247 12.111)" fill="#dbd4d4" fill-rule="evenodd"/>
            <path id="Trazado_895532" data-name="Trazado 895532" d="M116.879,36.4c-1.2,5.327-1.023,10.928.434,13.28a7.621,7.621,0,0,1-4.543,3.574,26.163,26.163,0,0,1-.941-3.373c-.846-4.077.322-7.547-3.335-9.978Z" transform="translate(79.261 26.59)" fill="#c7c1c1" fill-rule="evenodd"/>
            <path id="Trazado_895533" data-name="Trazado 895533" d="M113.416,48.97c6.143,1.613,10.171-3.06,8.968-9.011-1.253-6.2-1.227-9.712,1.024-15.516a28.379,28.379,0,0,1-6.118-2.106,15.7,15.7,0,0,1-1.532,6.881c-2.892,6.448-14.111,3.854-13.085-3.728a21.855,21.855,0,0,1,2.288-6.514l-5.226-1.253c-1.118.77-2.592,4.963-3.257,7.888a45.845,45.845,0,0,1-1.86,6.2,9.9,9.9,0,0,0,.395,8.168c1.448,2.826,4,3.883,6.742,4.563a13.058,13.058,0,0,0,3.394.353c3.011,1.632,4.707,3.144,8.267,4.077" transform="translate(68.618 12.948)" fill="#e8e3e3" fill-rule="evenodd"/>
            <path id="Trazado_895534" data-name="Trazado 895534" d="M112.71,47.547c5.751,1.509,9.52-2.862,8.393-8.431-1.173-5.806-1.147-9.089.959-14.519a26.526,26.526,0,0,1-5.725-1.971,14.7,14.7,0,0,1-1.433,6.439c-2.707,6.033-13.2,3.6-12.244-3.489a20.436,20.436,0,0,1,2.141-6.1l-4.891-1.172c-1.045.72-2.426,4.643-3.046,7.381a42.946,42.946,0,0,1-1.743,5.8,9.264,9.264,0,0,0,.37,7.644c1.353,2.644,3.74,3.632,6.31,4.269a12.07,12.07,0,0,0,3.174.331c2.817,1.528,4.4,2.942,7.734,3.816" transform="translate(69.018 13.376)" fill="#f6f5f5" fill-rule="evenodd"/>
            <path id="Trazado_895535" data-name="Trazado 895535" d="M97.847,19.375l4.236-3.387L99.3,8.128,94.919,2.77c-5.692,4.574-.988,16.484,2.928,16.6" transform="translate(67.415 2.024)" fill="#361d07" fill-rule="evenodd"/>
            <path id="Trazado_895536" data-name="Trazado 895536" d="M113.1,23.566c1.269,4.942-6.993,8.018-10.544,6.448-.469-1.395-2.656-7.628-5.318-11.408l9.991-7,2.089-1.026c-.6,5.8,1.194,8.442,3.783,12.988" transform="translate(71.039 7.728)" fill="#e8a476" fill-rule="evenodd"/>
            <path id="Trazado_895537" data-name="Trazado 895537" d="M106.1,23.925a7.883,7.883,0,0,1-5-.019c-.239-.7-.914-2.651-1.872-4.889,4.063-.682,6.552,3.267,6.87,4.908" transform="translate(72.494 13.836)" fill="#f1b287" fill-rule="evenodd"/>
            <path id="Trazado_895538" data-name="Trazado 895538" d="M113.244,24.719a.8.8,0,0,1,.042.19c-4.444-2.99-9.369.133-13.078.05-.154-.253-.642-1.405-.775-1.613-.46-.891-1.8-3-2.409-4.141L107.5,10.392l2.523-1.542c-1.057,7.369.632,11.323,3.221,15.869" transform="translate(70.881 6.465)" fill="#db9669" fill-rule="evenodd"/>
            <path id="Trazado_895539" data-name="Trazado 895539" d="M102.723,29.834c5.643-2.826,7.165-5.841,8.135-11.87,2.431-1.869,3.43-3.362,3.6-4.968.395-3.812-1.909-7.824-4.885-9.956a10.072,10.072,0,0,0-8.783-1.474c-6.313,1.616-8.423,5.856-8.566,11.372a16.547,16.547,0,0,0,1.089,4.325c.644,1.75-.228,1.315-.036,3.132a31.073,31.073,0,0,0,2.137,6.614c.756,1.741.969,3.568,1.9,3.8a8.034,8.034,0,0,0,5.41-.973" transform="translate(67.372 0.849)" fill="#f1b287" fill-rule="evenodd"/>
            <path id="Trazado_895540" data-name="Trazado 895540" d="M102.6,29.834c5.655-2.829,7.165-5.841,8.135-11.87,2.431-1.869,3.43-3.362,3.6-4.968.395-3.812-1.909-7.824-4.885-9.956a10.072,10.072,0,0,0-8.783-1.474C96.1,2.733,92.865,6.623,92.393,10a33.278,33.278,0,0,0,7.883.993c2.765.905,1.244,2.688,2.106,4.363.69,1.343,1.654,1.571,1.942,2.573.6,2.1-1.871,2.425-1.841,3.442.029,1.04,2.639.981,2.29,3.821a17.639,17.639,0,0,1-2.539,4.792c.119-.048.244-.09.363-.149" transform="translate(67.499 0.849)" fill="#e8a476" fill-rule="evenodd"/>
            <path id="Trazado_895541" data-name="Trazado 895541" d="M92.288,9.118a3.437,3.437,0,0,0,.749,1.616,11.585,11.585,0,0,1,.557,1.466,2.09,2.09,0,0,1-.268,1.09,3,3,0,0,0-.045,1.862c.076.312.177.7.3,1.111.132.426.28.87.417,1.265l-.012-.007c.083.2.273.791.417,1.12.18-.107.729.107.94.2s.329.218.466.232c.17.019.3-.088.526-.183.356-.152.531.118.924-.119.344-.208,1.644-.673.907-1.3-.7.928-1.234.239-1.8.419a3.647,3.647,0,0,1-1.578-.1c1.211-1.069,1.376-2.9,1.429-4.361a3.127,3.127,0,0,0-1.282-2.61c-.858-.656-1.954-.938-2.648-1.7" transform="translate(67.422 6.661)" fill="#e8a476" fill-rule="evenodd"/>
            <path id="Trazado_895542" data-name="Trazado 895542" d="M97.128,15.341l1.841.568c.355.066.658-.318.831-.109.125.149-.014.267-.249.339a4.551,4.551,0,0,0-1.005.6c-1.966,1.18-3.333,3.049-4.307-.571-.125-.472-.093-.618.377-.533l.623.216,1.322-.234Z" transform="translate(68.801 11.208)" fill="#e8a476" fill-rule="evenodd"/>
            <path id="Trazado_895543" data-name="Trazado 895543" d="M99.129,16.115c-1.082.55-2.177,1.625-3.5,1.48a1.423,1.423,0,0,1-1.2-.91c-.31-.727-.163-.974.111-1a4.868,4.868,0,0,1,1.075.244c2.182-.467,1.222-.559,3.518.19" transform="translate(68.857 11.37)" fill="#e89471" fill-rule="evenodd"/>
            <path id="Trazado_895544" data-name="Trazado 895544" d="M96.872,16.678a2.123,2.123,0,0,1-1.291.341,1.716,1.716,0,0,1-1.114-.59c-.277-.462-.168-.678.017-.635.152.036.292.325.668.408a8.215,8.215,0,0,1,1.431-.209c.1,0,.72.069.789.242.059.149-.422.4-.5.443" transform="translate(68.891 11.534)" fill="#eda288" fill-rule="evenodd"/>
            <path id="Trazado_895545" data-name="Trazado 895545" d="M99.1,15.882c-1.082.55-2.177,1.625-3.5,1.48a1.423,1.423,0,0,1-1.2-.91c-.042-.1-.076-.189-.1-.272.6,1.132,1.66,1.078,2.9.526.575-.258,1.1-.493,1.9-.824" transform="translate(68.887 11.603)" fill="#de8660" fill-rule="evenodd"/>
            <path id="Trazado_895546" data-name="Trazado 895546" d="M94.194,15.108c.215-.054.524.227.886.592a1.955,1.955,0,0,1,1.677-.381,25.679,25.679,0,0,0,2.5.756,2.635,2.635,0,0,0,.448.062,4.877,4.877,0,0,1-.561.263,6.914,6.914,0,0,1-2.464-.054,5.624,5.624,0,0,0-.973.164.688.688,0,0,1-.318.036c-.133-.035-.635-.376-.85-.49a1.72,1.72,0,0,1-.427-.306c-.225-.232-.275-.554.081-.644" transform="translate(68.626 11.032)" fill="#e89471" fill-rule="evenodd"/>
            <path id="Trazado_895547" data-name="Trazado 895547" d="M94.176,15.108c.215-.054.524.227.886.592a1.955,1.955,0,0,1,1.677-.381c.436.128,1.085.379,1.765.575-1.012-.168-1.765-.332-1.847-.336a2.693,2.693,0,0,0-1.573.331c-.3-.055-.768-.713-1.123-.649a.356.356,0,0,1,.215-.132" transform="translate(68.644 11.032)" fill="#eda288" fill-rule="evenodd"/>
            <path id="Trazado_895548" data-name="Trazado 895548" d="M95.574,15.922a1.615,1.615,0,0,1,1.13-.054,5.056,5.056,0,0,0,2.978.066,4.354,4.354,0,0,1-.561.263,6.914,6.914,0,0,1-2.464-.054,5.976,5.976,0,0,0-.973.164.663.663,0,0,1-.318.036c-.132-.035-.633-.374-.85-.49a1.758,1.758,0,0,1-.427-.3.684.684,0,0,1-.125-.173,4.468,4.468,0,0,1,1,.469c.324.237.237.253.613.076" transform="translate(68.647 11.234)" fill="#de8660" fill-rule="evenodd"/>
            <path id="Trazado_895549" data-name="Trazado 895549" d="M102.125,10.466c-.58-.2-1.149-.448-1.741-.611a2.117,2.117,0,0,0-1.234-.112,8.651,8.651,0,0,0-2.227.479,6.5,6.5,0,0,1-1.407.408c.062.448.132.684.284.77a16.731,16.731,0,0,0,3.049-1.031c.888-.344.907-.343,1.6-.189a11.042,11.042,0,0,0,1.68.286" transform="translate(69.78 7.087)" fill="#572f0c" fill-rule="evenodd"/>
            <path id="Trazado_895550" data-name="Trazado 895550" d="M100.429,11.02a3.3,3.3,0,0,1-1.869,1.248,2.368,2.368,0,0,1-1.487-.227c-.313-.149-.623-.329-.928-.495a7.624,7.624,0,0,0,2.378.223c.7-.107,1.744-.8,1.905-.749" transform="translate(70.24 8.049)" fill="#ded5d5" fill-rule="evenodd"/>
            <path id="Trazado_895551" data-name="Trazado 895551" d="M96.743,11.363a.824.824,0,0,0,.8.59c.5.055,1.066-.128,1.085-.531a4.647,4.647,0,0,1-1.883-.059" transform="translate(70.677 8.301)" fill="#031d30" fill-rule="evenodd"/>
            <path id="Trazado_895552" data-name="Trazado 895552" d="M96.82,11.453a1.408,1.408,0,0,0,.822.249.666.666,0,0,1-.822-.249" transform="translate(70.733 8.367)" fill="#ded5d5" fill-rule="evenodd"/>
            <path id="Trazado_895553" data-name="Trazado 895553" d="M100.429,11.019a3.3,3.3,0,0,1-1.869,1.248,2.368,2.368,0,0,1-1.487-.227c-.313-.149-.623-.329-.928-.495a3.653,3.653,0,0,1,.952.372,2.108,2.108,0,0,0,1.447.206,3.789,3.789,0,0,0,1.885-1.1" transform="translate(70.24 8.05)" fill-rule="evenodd"/>
            <path id="Trazado_895554" data-name="Trazado 895554" d="M96.38,11.262c.635-.389.877-.562,2.36-.37.611.08.725.481.016.661a2.753,2.753,0,0,1-1.184.054,3.653,3.653,0,0,0-.954-.083c-.583.035-1.082.254-.239-.261" transform="translate(70.084 7.899)" fill="#f5bc95" fill-rule="evenodd"/>
            <path id="Trazado_895555" data-name="Trazado 895555" d="M97.7,10.874c1.334.187,3.063-.571,3.177-.247.057.164-.116.466-.78.91-1.843.78-1.867.632-3.854.267a12.75,12.75,0,0,0,2.175.061c.67-.112,1.312-.509,1.289-.761-.019-.2-.6.1-2.007-.228" transform="translate(70.31 7.704)" fill="#c48c69" fill-rule="evenodd"/>
            <path id="Trazado_895556" data-name="Trazado 895556" d="M100.441,10.6c.261.391-1.061,1.063-1.393,1.191a3.219,3.219,0,0,1-2.255.168,6.3,6.3,0,0,0,1.31-.012c.67-.114,1.815-.594,1.751-1.038-.019-.142-.457.035-1.313.022.815-.016,1.758-.543,1.9-.331" transform="translate(70.713 7.709)" fill="#996c50" fill-rule="evenodd"/>
            <path id="Trazado_895557" data-name="Trazado 895557" d="M95.915,11.657c.346-.2.725-.042,1.513.033a4.579,4.579,0,0,0,2.585-.346,9.358,9.358,0,0,0,.886-.481,3.536,3.536,0,0,1-3.352,1.1,5.52,5.52,0,0,0-1.632-.3" transform="translate(70.072 7.936)" fill="#785a46" fill-rule="evenodd"/>
            <path id="Trazado_895558" data-name="Trazado 895558" d="M100.759,10.863a3.537,3.537,0,0,1-3.352,1.1,10.175,10.175,0,0,0-1.3-.3c.313-.019,1.031.2,1.727.261a4.2,4.2,0,0,0,2.925-1.059" transform="translate(70.212 7.936)" fill-rule="evenodd"/>
            <path id="Trazado_895559" data-name="Trazado 895559" d="M98.685,11.134a1.45,1.45,0,0,0,1.057-.277c-.265.327-.509.474-1.244.417.016-.012.18-.14.187-.14" transform="translate(71.959 7.932)" fill-rule="evenodd"/>
            <path id="Trazado_895560" data-name="Trazado 895560" d="M98.511,11.125a1.822,1.822,0,0,0,.879-.026,1.279,1.279,0,0,1-.957.081c.014-.005.076-.055.078-.055" transform="translate(71.911 8.108)" fill-rule="evenodd"/>
            <path id="Trazado_895561" data-name="Trazado 895561" d="M98.433,11.174a1.6,1.6,0,0,0,.948.055,1.283,1.283,0,0,1-1.059.043Z" transform="translate(71.83 8.163)" fill-rule="evenodd"/>
            <path id="Trazado_895562" data-name="Trazado 895562" d="M98.292,11.277a1.524,1.524,0,0,0,.767.256,1.21,1.21,0,0,1-.884-.189Z" transform="translate(71.722 8.239)" fill-rule="evenodd"/>
            <path id="Trazado_895563" data-name="Trazado 895563" d="M98.323,11.242a1.539,1.539,0,0,0,.673.18,1.1,1.1,0,0,1-.734-.145Z" transform="translate(71.786 8.213)" fill-rule="evenodd"/>
            <path id="Trazado_895564" data-name="Trazado 895564" d="M98.129,11.367a1.487,1.487,0,0,0,.68.341,1.186,1.186,0,0,1-.8-.286l.116-.055" transform="translate(71.604 8.304)" fill-rule="evenodd"/>
            <path id="Trazado_895565" data-name="Trazado 895565" d="M98.169,11.333a1.419,1.419,0,0,0,.59.277,1.064,1.064,0,0,1-.649-.244Z" transform="translate(71.675 8.279)" fill-rule="evenodd"/>
            <path id="Trazado_895566" data-name="Trazado 895566" d="M98,11.426a1.469,1.469,0,0,0,.564.509,1.135,1.135,0,0,1-.677-.474c.043-.007.069-.026.112-.035" transform="translate(71.511 8.347)" fill-rule="evenodd"/>
            <path id="Trazado_895567" data-name="Trazado 895567" d="M98.024,11.405a1.441,1.441,0,0,0,.481.37,1.055,1.055,0,0,1-.54-.344l.059-.026" transform="translate(71.569 8.332)" fill-rule="evenodd"/>
            <path id="Trazado_895568" data-name="Trazado 895568" d="M97.886,11.471a1.267,1.267,0,0,1,.2.658,3.357,3.357,0,0,0-.327-.623c.042,0,.085-.029.128-.035" transform="translate(71.418 8.38)" fill-rule="evenodd"/>
            <path id="Trazado_895569" data-name="Trazado 895569" d="M97.9,11.452a1.541,1.541,0,0,1,.258.568,3.027,3.027,0,0,0-.318-.547c.043-.005.017-.016.061-.021" transform="translate(71.479 8.366)" fill-rule="evenodd"/>
            <path id="Trazado_895570" data-name="Trazado 895570" d="M97.745,11.507a1.209,1.209,0,0,1,.054.69,1.859,1.859,0,0,0-.19-.661c.04-.005.093-.019.137-.029" transform="translate(71.309 8.407)" fill-rule="evenodd"/>
            <path id="Trazado_895571" data-name="Trazado 895571" d="M97.709,11.508a1.425,1.425,0,0,1,.138.585,1,1,0,0,0-.078-.6.135.135,0,0,0-.061.01" transform="translate(71.382 8.399)" fill-rule="evenodd"/>
            <path id="Trazado_895572" data-name="Trazado 895572" d="M97.6,11.532a.887.887,0,0,1-.087.687,1.213,1.213,0,0,0-.04-.666Z" transform="translate(71.208 8.425)" fill-rule="evenodd"/>
            <path id="Trazado_895573" data-name="Trazado 895573" d="M97.622,11.526a.834.834,0,0,1-.012.621,1.261,1.261,0,0,0-.048-.609Z" transform="translate(71.274 8.42)" fill-rule="evenodd"/>
            <path id="Trazado_895574" data-name="Trazado 895574" d="M97.457,11.55a.849.849,0,0,1-.154.635,1.2,1.2,0,0,0,.033-.632c.04,0,.081,0,.121,0" transform="translate(71.086 8.438)" fill-rule="evenodd"/>
            <path id="Trazado_895575" data-name="Trazado 895575" d="M97.5,11.547a.753.753,0,0,1-.119.6,1.036,1.036,0,0,0,.054-.594l.066-.005" transform="translate(71.143 8.436)" fill-rule="evenodd"/>
            <path id="Trazado_895576" data-name="Trazado 895576" d="M97.344,11.552a.8.8,0,0,1-.2.58,1.191,1.191,0,0,0,.09-.583l.114,0" transform="translate(70.967 8.437)" fill-rule="evenodd"/>
            <path id="Trazado_895577" data-name="Trazado 895577" d="M97.358,11.553a.705.705,0,0,1-.125.545,1.043,1.043,0,0,0,.061-.547c.023,0,.043,0,.064,0" transform="translate(71.035 8.439)" fill-rule="evenodd"/>
            <path id="Trazado_895578" data-name="Trazado 895578" d="M97.239,11.548a.808.808,0,0,1-.289.55,1.207,1.207,0,0,0,.175-.564c.038.005.076.01.114.014" transform="translate(70.828 8.426)" fill-rule="evenodd"/>
            <path id="Trazado_895579" data-name="Trazado 895579" d="M97.249,11.548a.721.721,0,0,1-.2.535,1.04,1.04,0,0,0,.14-.54Z" transform="translate(70.897 8.433)" fill-rule="evenodd"/>
            <path id="Trazado_895580" data-name="Trazado 895580" d="M97.112,11.531a.756.756,0,0,1-.322.478,1.18,1.18,0,0,0,.216-.5c.035.007.071.016.106.021" transform="translate(70.711 8.409)" fill-rule="evenodd"/>
            <path id="Trazado_895581" data-name="Trazado 895581" d="M97.129,11.534a.685.685,0,0,1-.244.471,1.051,1.051,0,0,0,.183-.481Z" transform="translate(70.78 8.419)" fill-rule="evenodd"/>
            <path id="Trazado_895582" data-name="Trazado 895582" d="M96.98,11.5a.744.744,0,0,1-.344.448,1.213,1.213,0,0,0,.242-.474l.1.026" transform="translate(70.598 8.385)" fill-rule="evenodd"/>
            <path id="Trazado_895583" data-name="Trazado 895583" d="M97,11.51a.667.667,0,0,1-.268.443,1.018,1.018,0,0,0,.209-.457l.012,0Z" transform="translate(70.667 8.399)" fill-rule="evenodd"/>
            <path id="Trazado_895584" data-name="Trazado 895584" d="M96.842,11.466a.679.679,0,0,1-.356.365,1.153,1.153,0,0,0,.26-.391Z" transform="translate(70.489 8.358)" fill-rule="evenodd"/>
            <path id="Trazado_895585" data-name="Trazado 895585" d="M96.868,11.477a.631.631,0,0,1-.289.37,1.024,1.024,0,0,0,.232-.386Z" transform="translate(70.557 8.373)" fill-rule="evenodd"/>
            <path id="Trazado_895586" data-name="Trazado 895586" d="M96.7,11.424a.692.692,0,0,1-.379.355,1.168,1.168,0,0,0,.28-.381Z" transform="translate(70.367 8.327)" fill-rule="evenodd"/>
            <path id="Trazado_895587" data-name="Trazado 895587" d="M96.723,11.435a.647.647,0,0,1-.312.367,1,1,0,0,0,.254-.382Z" transform="translate(70.434 8.342)" fill-rule="evenodd"/>
            <path id="Trazado_895588" data-name="Trazado 895588" d="M96.532,11.382a.6.6,0,0,1-.35.244,1.2,1.2,0,0,0,.256-.265c.031.005.062.014.093.021" transform="translate(70.267 8.3)" fill-rule="evenodd"/>
            <path id="Trazado_895589" data-name="Trazado 895589" d="M96.575,11.395a.59.59,0,0,1-.3.268.974.974,0,0,0,.246-.282Z" transform="translate(70.333 8.315)" fill-rule="evenodd"/>
            <path id="Trazado_895590" data-name="Trazado 895590" d="M92.316,9.277a2.26,2.26,0,0,0,.568,1.224c.573.531,1.936.448,2.849,1.417-.607-1.786-1.6-2.2-3.416-2.641" transform="translate(67.442 6.777)" fill="#db9669" fill-rule="evenodd"/>
            <path id="Trazado_895591" data-name="Trazado 895591" d="M92.963,10.723c.121.029.614.273.935.348a2.155,2.155,0,0,0,1.286-.08c.05-.021.156-.069.182-.026s0,.1-.061.142c-.021-.005-.062.026-.142.078a2.248,2.248,0,0,1-.6.3,1.542,1.542,0,0,1-1.516-.547c-.028-.038-.114-.22-.088-.213" transform="translate(67.912 7.834)" fill="#ded5d5" fill-rule="evenodd"/>
            <path id="Trazado_895592" data-name="Trazado 895592" d="M94.714,11.112a.478.478,0,0,1-.329.408,1.512,1.512,0,0,1-.971-.156A.965.965,0,0,1,93,10.717a2.739,2.739,0,0,0,1.718.395" transform="translate(67.936 7.829)" fill="#062e4a" fill-rule="evenodd"/>
            <path id="Trazado_895593" data-name="Trazado 895593" d="M93.178,10.912a2.141,2.141,0,0,0,1.128.173,1.061,1.061,0,0,1-.505.1,1.382,1.382,0,0,1-.623-.275" transform="translate(68.072 7.972)" fill="#ded5d5" fill-rule="evenodd"/>
            <path id="Trazado_895594" data-name="Trazado 895594" d="M92.717,10.044a2.2,2.2,0,0,0,.488,1.275,2.779,2.779,0,0,0,2.156.156,2.577,2.577,0,0,1-1.4-.156,1.617,1.617,0,0,1-.825-.588c-.088-.3.062-.422.77-.256-.35-.137-.914-.315-1.187-.431" transform="translate(67.735 7.338)" fill="#c48c69" fill-rule="evenodd"/>
            <path id="Trazado_895595" data-name="Trazado 895595" d="M92.71,10.047a2.439,2.439,0,0,0,.5,1.27,2.6,2.6,0,0,0,1.412.277c-.483-.107-1.329-.286-1.6-.877-.1-.223-.152-.481.4-.37a2.645,2.645,0,0,1-.706-.3" transform="translate(67.73 7.34)" fill="#996c50" fill-rule="evenodd"/>
            <path id="Trazado_895596" data-name="Trazado 895596" d="M92.984,10.8a1.313,1.313,0,0,0,1.564.7,1.666,1.666,0,0,0,.628-.343c.156-.066.166-.19-.042-.052a2.177,2.177,0,0,1-.6.294,1.542,1.542,0,0,1-1.556-.6" transform="translate(67.93 7.887)" fill-rule="evenodd"/>
            <path id="Trazado_895597" data-name="Trazado 895597" d="M92.818,10.47a1.134,1.134,0,0,0,.312.536,2.308,2.308,0,0,0,2.293.1,2.293,2.293,0,0,1-2.6-.64" transform="translate(67.809 7.649)" fill="#785a46" fill-rule="evenodd"/>
            <path id="Trazado_895598" data-name="Trazado 895598" d="M92.814,10.461a1.184,1.184,0,0,0,.32.552,2.309,2.309,0,0,0,2.291.1,2.668,2.668,0,0,1-2.087-.054,1.323,1.323,0,0,1-.524-.6" transform="translate(67.806 7.642)" fill-rule="evenodd"/>
            <path id="Trazado_895599" data-name="Trazado 895599" d="M93.261,10.749a1.458,1.458,0,0,1-.988-.466c.2.367.412.557,1.146.639-.014-.016-.151-.171-.157-.173" transform="translate(67.411 7.512)" fill-rule="evenodd"/>
            <path id="Trazado_895600" data-name="Trazado 895600" d="M93.279,10.661a1.8,1.8,0,0,1-.881-.009,1.263,1.263,0,0,0,.959.061.753.753,0,0,1-.078-.052" transform="translate(67.502 7.782)" fill-rule="evenodd"/>
            <path id="Trazado_895601" data-name="Trazado 895601" d="M93.349,10.712a1.588,1.588,0,0,1-.94.138,1.274,1.274,0,0,0,1.059-.05Z" transform="translate(67.51 7.826)" fill-rule="evenodd"/>
            <path id="Trazado_895602" data-name="Trazado 895602" d="M93.4,10.814a1.514,1.514,0,0,1-.742.324,1.206,1.206,0,0,0,.865-.267Z" transform="translate(67.69 7.9)" fill-rule="evenodd"/>
            <path id="Trazado_895603" data-name="Trazado 895603" d="M93.3,10.784a1.529,1.529,0,0,1-.654.237,1.088,1.088,0,0,0,.716-.208Z" transform="translate(67.686 7.878)" fill-rule="evenodd"/>
            <path id="Trazado_895604" data-name="Trazado 895604" d="M93.526,10.889a1.5,1.5,0,0,1-.647.4,1.19,1.19,0,0,0,.768-.355c-.042-.014-.081-.029-.121-.045" transform="translate(67.854 7.955)" fill-rule="evenodd"/>
            <path id="Trazado_895605" data-name="Trazado 895605" d="M93.424,10.862a1.515,1.515,0,0,1-.562.329,1.075,1.075,0,0,0,.623-.3Z" transform="translate(67.841 7.935)" fill-rule="evenodd"/>
            <path id="Trazado_895606" data-name="Trazado 895606" d="M93.607,10.937a1.482,1.482,0,0,1-.517.556.939.939,0,0,0,.616-.53c-.042,0-.055-.021-.1-.026" transform="translate(68.008 7.99)" fill-rule="evenodd"/>
            <path id="Trazado_895607" data-name="Trazado 895607" d="M93.525,10.92a1.465,1.465,0,0,1-.446.412,1.053,1.053,0,0,0,.507-.393c-.021-.005-.04-.012-.061-.019" transform="translate(68 7.978)" fill-rule="evenodd"/>
            <path id="Trazado_895608" data-name="Trazado 895608" d="M93.514,10.958a1.86,1.86,0,0,1-.164.6.788.788,0,0,0,.267-.573Z" transform="translate(68.198 8.005)" fill-rule="evenodd"/>
            <path id="Trazado_895609" data-name="Trazado 895609" d="M93.583,10.979a.858.858,0,0,0,.17.632,1.226,1.226,0,0,1-.048-.632c-.042,0-.081,0-.121,0" transform="translate(68.368 8.021)" fill-rule="evenodd"/>
            <path id="Trazado_895610" data-name="Trazado 895610" d="M93.524,10.972a1.3,1.3,0,0,0,.062.588,2.559,2.559,0,0,1,.012-.576c-.022,0-.052-.01-.074-.012" transform="translate(68.318 8.016)" fill-rule="evenodd"/>
            <path id="Trazado_895611" data-name="Trazado 895611" d="M93.717,10.981a.8.8,0,0,0,.22.573,1.2,1.2,0,0,1-.106-.581c-.038,0-.076.007-.114.009" transform="translate(68.466 8.016)" fill-rule="evenodd"/>
            <path id="Trazado_895612" data-name="Trazado 895612" d="M93.671,10.98a.71.71,0,0,0,.14.542,1.017,1.017,0,0,1-.076-.543l-.064,0" transform="translate(68.43 8.02)" fill-rule="evenodd"/>
            <path id="Trazado_895613" data-name="Trazado 895613" d="M93.857,10.97a.8.8,0,0,0,.3.542,1.2,1.2,0,0,1-.192-.559c-.038.007-.074.012-.112.017" transform="translate(68.568 8.002)" fill-rule="evenodd"/>
            <path id="Trazado_895614" data-name="Trazado 895614" d="M93.811,10.972a.725.725,0,0,0,.22.53,1.032,1.032,0,0,1-.156-.536Z" transform="translate(68.535 8.011)" fill-rule="evenodd"/>
            <path id="Trazado_895615" data-name="Trazado 895615" d="M94,10.949a.754.754,0,0,0,.334.469,1.192,1.192,0,0,1-.228-.491L94,10.949" transform="translate(68.671 7.983)" fill-rule="evenodd"/>
            <path id="Trazado_895616" data-name="Trazado 895616" d="M93.948,10.953a.674.674,0,0,0,.256.462,1.026,1.026,0,0,1-.2-.472Z" transform="translate(68.635 7.995)" fill-rule="evenodd"/>
            <path id="Trazado_895617" data-name="Trazado 895617" d="M94.138,10.918a.745.745,0,0,0,.356.438,1.2,1.2,0,0,1-.254-.466l-.1.028" transform="translate(68.773 7.956)" fill-rule="evenodd"/>
            <path id="Trazado_895618" data-name="Trazado 895618" d="M94.088,10.926a.673.673,0,0,0,.28.436,1.035,1.035,0,0,1-.222-.452l-.014,0Z" transform="translate(68.737 7.97)" fill-rule="evenodd"/>
            <path id="Trazado_895619" data-name="Trazado 895619" d="M94.247,10.89a.593.593,0,0,0,.344.282,1.016,1.016,0,0,1-.263-.315Z" transform="translate(68.853 7.932)" fill-rule="evenodd"/>
            <path id="Trazado_895620" data-name="Trazado 895620" d="M94.2,10.9a.548.548,0,0,0,.286.292.878.878,0,0,1-.237-.312Z" transform="translate(68.82 7.951)" fill-rule="evenodd"/>
            <path id="Trazado_895621" data-name="Trazado 895621" d="M93.626,11.019a3.14,3.14,0,0,0,1.416.168,3.392,3.392,0,0,0-1.331-.808c-.921-.192-.562.429-.085.64" transform="translate(68.043 7.555)" fill="#f1b287" fill-rule="evenodd"/>
            <path id="Trazado_895622" data-name="Trazado 895622" d="M93.141,12.48c.1.029.2.059.3.087a8.568,8.568,0,0,0,1.27.258c.4.054.609-.014.7-.225a1.628,1.628,0,0,0-.031-.872l-.112-.67-.227.052.112.659a1.5,1.5,0,0,1,.045.735c-.045.1-.182.128-.46.09h-.005a8.148,8.148,0,0,1-1.236-.251c-.123-.033-.244-.069-.36-.1a.88.88,0,0,0,0,.241" transform="translate(68.04 8.078)" fill="#db9669" fill-rule="evenodd"/>
            <path id="Trazado_895623" data-name="Trazado 895623" d="M93.184,12.817c.068.019.093.031.163.05a8.549,8.549,0,0,0,1.269.258c.4.055.609-.014.7-.225a1.628,1.628,0,0,0-.031-.872l-.154-.912-.216.1.144.851a1.53,1.53,0,0,1,.047.735c-.047.1-.183.128-.462.09h-.005a8.089,8.089,0,0,1-1.234-.251l-.258-.073a.836.836,0,0,0,.035.246" transform="translate(68.051 8.121)" fill="#db9669" fill-rule="evenodd"/>
            <g id="Grupo_1124617" data-name="Grupo 1124617" transform="translate(158.518 17.181)" opacity="0.5">
              <g id="Grupo_1124616" data-name="Grupo 1124616">
                <g id="Grupo_1124615" data-name="Grupo 1124615" clip-path="url(#clip-path-3)">
                  <path id="Trazado_895624" data-name="Trazado 895624" d="M93.3,13.018a9.972,9.972,0,0,0,2.494.677c.677.1.7-.19.543-.962l-.2-1.168c-.149-.758-.279-1.019-.865-1.137-1.116-.225-2.136-.367-3.279-.49-.469-.048-.441.08-.306.5A4.088,4.088,0,0,0,93.3,13.018" transform="translate(-91.6 -9.928)" fill="#ccc8c8" fill-rule="evenodd"/>
                </g>
              </g>
            </g>
            <path id="Trazado_895625" data-name="Trazado 895625" d="M93.295,13.171a10.13,10.13,0,0,0,2.528.689c.4.055.607-.014.7-.225a1.593,1.593,0,0,0-.031-.872l-.2-1.17a2.257,2.257,0,0,0-.289-.857.976.976,0,0,0-.67-.376c-.561-.112-1.1-.2-1.634-.282s-1.083-.145-1.656-.208c-.292-.029-.436.009-.5.144-.05.116-.005.272.069.511a8.778,8.778,0,0,0,.618,1.545,2.481,2.481,0,0,0,1.054,1.1m1.319.208a8.292,8.292,0,0,1-1.22-.415,2.279,2.279,0,0,1-.95-1,8.567,8.567,0,0,1-.6-1.5.834.834,0,0,1-.078-.348c.009-.024.087-.024.26-.007.573.062,1.111.128,1.646.206s1.068.17,1.623.28a.772.772,0,0,1,.526.284,2.038,2.038,0,0,1,.249.763l.2,1.17a1.529,1.529,0,0,1,.047.735c-.045.1-.183.13-.462.09h-.005a8.173,8.173,0,0,1-1.234-.251" transform="translate(66.87 7.204)" fill="#4a4642" fill-rule="evenodd"/>
            <path id="Trazado_895626" data-name="Trazado 895626" d="M96.123,14.491c-.5.272-.819-.107-1.374-.067a2.071,2.071,0,0,1,.5-.121,6.365,6.365,0,0,0,1.121-.081c.036-.014-.145.215-.249.27" transform="translate(69.22 10.389)" fill="#db9669" fill-rule="evenodd"/>
            <path id="Trazado_895627" data-name="Trazado 895627" d="M96.583,10.9c-.621-.239-1.924-1.641-2.4-.864a4.364,4.364,0,0,1,.706,1.594,7.868,7.868,0,0,1-.369,3.179c-.4,1.2-1.109,1.682-.992,2.3.093.5,1,.905,2.26.517.644-.2.864.04,1.288-.078a.585.585,0,0,0,.434-.609c0-.112-.125-.241-.145-.358-.367-2.033-.265-3.167-.78-5.678" transform="translate(68.317 7.164)" fill="#f1b287" fill-rule="evenodd"/>
            <path id="Trazado_895628" data-name="Trazado 895628" d="M94.956,11.194a6.573,6.573,0,0,1-.626,4.228.721.721,0,0,0-.052.633c.225.538,1.2.389,1.746.434a10.815,10.815,0,0,1-1.144.213c-.581.057-1.22-.215-1.3-.578-.062-.28.005-.462.234-.846a6.459,6.459,0,0,0,1.144-4.084" transform="translate(68.349 8.178)" fill="#f5bc95" fill-rule="evenodd"/>
            <path id="Trazado_895629" data-name="Trazado 895629" d="M95.173,10.388c.106.415.235,1.026.038.967a6.978,6.978,0,0,1-1.13-.718c-.569-.4-1.166-.614-1.5-.846a1.058,1.058,0,0,1-.381-.9,5.331,5.331,0,0,0,1.154.59,13.631,13.631,0,0,0,1.821.91" transform="translate(67.356 6.493)" fill="#572f0c" fill-rule="evenodd"/>
            <path id="Trazado_895630" data-name="Trazado 895630" d="M97.482,13.992c.344.057.947.114,1.585.156s1.3.066,1.8.064a1.424,1.424,0,0,0,.727-.114c.164-.093.1-.286,0-.4a.332.332,0,0,1-.035.1c-.076.125-.273.2-.684.189h0c-.49,0-1.158-.024-1.788-.066s-1.227-.1-1.563-.152a1.991,1.991,0,0,1-1.161-.817,6.047,6.047,0,0,1-.665-1.094,4.568,4.568,0,0,1-.556-1.12c-.007-.019-.157-.017-.064.242a7.969,7.969,0,0,0,1.1,2.115,2.216,2.216,0,0,0,1.3.9" transform="translate(69.436 7.836)" fill="#db9669" fill-rule="evenodd"/>
            <path id="Trazado_895631" data-name="Trazado 895631" d="M97.421,14.174c.344.057.947.114,1.585.156s1.3.067,1.8.064c.5.014.77-.071.893-.275a.584.584,0,0,0,.074-.3l-.23-.007A.386.386,0,0,1,101.5,14c-.189.313-2.3.111-2.482.1-.633-.04-1.227-.1-1.563-.152a2,2,0,0,1-1.161-.815,7.81,7.81,0,0,1-1.066-2.052c-.017-.047-.033-.09-.043-.128l-.177,0c.022.055.05.118.076.189a7.632,7.632,0,0,0,1.028,2.137,2.216,2.216,0,0,0,1.3.9" transform="translate(69.412 7.997)" fill="#e8a476" fill-rule="evenodd"/>
            <g id="Grupo_1124620" data-name="Grupo 1124620" transform="translate(164.484 18.37)" opacity="0.5">
              <g id="Grupo_1124619" data-name="Grupo 1124619">
                <g id="Grupo_1124618" data-name="Grupo 1124618" clip-path="url(#clip-path-4)">
                  <path id="Trazado_895632" data-name="Trazado 895632" d="M97.441,14.121a27.456,27.456,0,0,0,3.369.218c.915.024.947-.267.76-1.026l-.369-1.49c-.185-.749-.353-1-1.146-1.057-1.506-.109-2.88-.145-4.423-.151-.633,0-.661.144-.509.564.365,1.005,1.166,2.752,2.317,2.942" transform="translate(-95.047 -10.615)" fill="#ccc8c8" fill-rule="evenodd"/>
                </g>
              </g>
            </g>
            <path id="Trazado_895633" data-name="Trazado 895633" d="M97.47,14.285c.344.057.947.112,1.585.154s1.3.067,1.8.066.77-.071.893-.275a1.236,1.236,0,0,0-.021-.895l-.367-1.49a1.748,1.748,0,0,0-.376-.843,1.3,1.3,0,0,0-.874-.3c-.76-.052-1.48-.09-2.2-.112s-1.455-.033-2.229-.036c-.356,0-.549.048-.64.168s-.066.3.022.552a8,8,0,0,0,1.1,2.115,2.216,2.216,0,0,0,1.3.9m1.6-.078c-.633-.04-1.227-.1-1.563-.151a2,2,0,0,1-1.161-.817,7.724,7.724,0,0,1-1.066-2.051c-.062-.173-.092-.284-.057-.331s.18-.078.455-.078c.77,0,1.5.014,2.224.036s1.447.059,2.193.114a1.086,1.086,0,0,1,.727.235,1.552,1.552,0,0,1,.315.732l.369,1.492c.087.351.125.588.047.72s-.282.173-.691.163h0c-.49,0-1.158-.022-1.788-.066" transform="translate(69.389 7.707)" fill="#4a4642" fill-rule="evenodd"/>
            <path id="Trazado_895634" data-name="Trazado 895634" d="M95.845,11.194a.135.135,0,0,0,.031-.268l-1.635-.19A.135.135,0,1,0,94.21,11Z" transform="translate(68.738 7.842)" fill="#4a4642" fill-rule="evenodd"/>
            <path id="Trazado_895635" data-name="Trazado 895635" d="M98.542,12.635c-.042.035.1.78.258.651l6.751-3.942.384-.538-.156.087Z" transform="translate(71.986 6.433)" fill="#4a4642" fill-rule="evenodd"/>
            <path id="Trazado_895636" data-name="Trazado 895636" d="M98.581,12.224c-.042.033-.021.315.14.185L103.8,9.5c.047-.029.033-.061-.005-.043Z" transform="translate(72.006 6.906)" fill="#e6e6e6" fill-rule="evenodd"/>
            <path id="Trazado_895637" data-name="Trazado 895637" d="M110.9,26.786c3.947-3.364,4.437-12.219,2.572-17.3a20.587,20.587,0,0,0-4.255-6.732C106.736.277,103.045-.77,98.14.843c-1.466.481,3.146.282,1.544,1.731L105.613,15.1c1.644,6.268,1.246,6.619,5.287,11.686" transform="translate(71.484 0.052)" fill="#361d07" fill-rule="evenodd"/>
            <path id="Trazado_895638" data-name="Trazado 895638" d="M92.4,8.581c8.355,9.707,18.612,8.5,19.368,10.949.585,1.895,3.378-2.459,3.8-4.434A12.67,12.67,0,0,0,108.6,1.282c-6.547-3.025-14.966,1.637-16.2,7.3" transform="translate(67.505 0.241)" fill="#361d07" fill-rule="evenodd"/>
            <path id="Trazado_895639" data-name="Trazado 895639" d="M111.354,21.785c4.634-4.728,6.083-10.638,4.043-15.733.019.118.036.235.052.355-.957-1.559-2.36-3.726-4.3-4.178a11.974,11.974,0,0,1,4.058,6.912c-1.045-2.547-2.17-3.494-4.52-5.453a20.152,20.152,0,0,1,3.3,6.059c-1.052-1.788-3.572-4.271-4.927-4.647a9.731,9.731,0,0,1,3.828,6.993c-.934-2.414-3.5-5.351-5.546-5.752,1.17.845,3.053,3.131,3.323,4.754a11.846,11.846,0,0,0-4.228-3.568,13.4,13.4,0,0,1,2.866,4.195c-1.241-1.135-2.262-2.212-3.83-3.423.742.924,2.868,4.108,3.03,5.231-.516-.559-4.423-2.411-6.085-3.091,1.926,1.763,4.075,3.622,5.759,4.254.286.32-6.206-.37-14.3-4.989,5.775,5.486,10.177,4.84,15.525,7.19l.6,2.267a7.61,7.61,0,0,0,1.358,2.624" transform="translate(68.581 1.629)" fill="#241304" fill-rule="evenodd"/>
            <path id="Trazado_895640" data-name="Trazado 895640" d="M103.827,8.307c2.227-1.41,2.918,1.388,2.951,3.179.023,1.229-.964,1.374-1.09,2.38a2.265,2.265,0,0,1-1.616,2.07c-1.487.315-1.1-2.1-1.134-3.013-.516-1.386-.524-3.721.89-4.615" transform="translate(74.97 5.788)" fill="#e8a476" fill-rule="evenodd"/>
            <path id="Trazado_895641" data-name="Trazado 895641" d="M103.171,11.485c.242-1.275.116-2.81,1.807-3.028-1.412.462-1.419,1.843-1.807,3.028" transform="translate(75.373 6.178)" fill="#db9669" fill-rule="evenodd"/>
            <path id="Trazado_895642" data-name="Trazado 895642" d="M108.74,5.036c1.919,3.093,3.131,12.024-2.028,19.521-.453-1.054-2.087-3.653-2.907-5.181,5-7.312,4.081-4.574,4.936-14.339" transform="translate(75.835 3.679)" fill="#241304" fill-rule="evenodd"/>
            <path id="Trazado_895643" data-name="Trazado 895643" d="M92.4,8.85c.978-7.312,13.588-11.247,19.237-7.27a13.937,13.937,0,0,0-8.333-.665,11.487,11.487,0,0,1,8.141,2.819,12.116,12.116,0,0,0-8.559-1.668c3.1.187,4,.806,6.192,2.276a17.362,17.362,0,0,0-7.126-1.462,8.425,8.425,0,0,1,5.2,2.788c-2.928-1.327-3.267-2.044-6.543-1.829a20.14,20.14,0,0,1,5.591,3.042A38.327,38.327,0,0,0,99.424,5.09,23.2,23.2,0,0,1,104.209,8a22.093,22.093,0,0,0-6.488-1.8,24.791,24.791,0,0,1,6.882,3.965,45.2,45.2,0,0,0-7.44-2.871c1.914,1.4,3.186,2.158,5.126,3.553a42.806,42.806,0,0,1-7.383-3.1c1.672,1.232,6.619,4.659,8.563,5.721a62.42,62.42,0,0,1-9.29-4.773,13.029,13.029,0,0,0,4.963,4.07A18.665,18.665,0,0,1,92.4,8.85" transform="translate(67.507 0)" fill="#4a2b12" fill-rule="evenodd"/>
            <path id="Trazado_895644" data-name="Trazado 895644" d="M95.116,8.639c13.659,11.354,11.018,38.962,12.907,50,13.253-11.706,12.348-36.619,7.914-52.533-.845-.556-4.185,3.508-4.984,3.176l-1.847-.746-1.177,2.667-2.359-.71,1.4,1.357-5.427-1.012Z" transform="translate(69.488 4.426)" fill="#241304" fill-rule="evenodd"/>
            <path id="Trazado_895645" data-name="Trazado 895645" d="M32.685,63.821,24.8,63.8c0,.168.017,67.926.05,68.075.63,2.871,7.021,2.907,7.762.1.045-.173.069-67.956.069-68.151" transform="translate(18.121 46.608)" fill="#333647" fill-rule="evenodd"/>
            <path id="Trazado_895646" data-name="Trazado 895646" d="M28.206,63.807l-3.4-.01c0,.166.017,67.924.05,68.075.287,1.313,1.782,2.033,3.39,2.16-.026-10.5-.038-65.488-.04-70.224" transform="translate(18.122 46.608)" fill="#1f202b" fill-rule="evenodd"/>
            <path id="Trazado_895647" data-name="Trazado 895647" d="M29.484,64.15l-1.654-.308c0,.052,0,69.626.007,69.671a3.024,3.024,0,0,0,1.779-1.054c.012-.054-.132-68.25-.132-68.309" transform="translate(20.331 46.64)" fill="#5e627d" fill-rule="evenodd"/>
            <path id="Trazado_895648" data-name="Trazado 895648" d="M25.333,63.825l1.08.216c0,6.934,0,68.9-.007,68.947a1.618,1.618,0,0,1-1.2-.855Z" transform="translate(18.411 46.628)" fill="#333647" fill-rule="evenodd"/>
            <path id="Trazado_895649" data-name="Trazado 895649" d="M142.478,86.508l-7.881-.024c0,.168.017,67.926.05,68.077.63,2.869,7.021,2.906,7.76.1.047-.173.071-67.956.071-68.151" transform="translate(98.331 63.182)" fill="#333647" fill-rule="evenodd"/>
            <path id="Trazado_895650" data-name="Trazado 895650" d="M138,86.494l-3.4-.01c0,.166.017,67.924.05,68.075.287,1.313,1.782,2.033,3.39,2.16-.024-10.5-.038-65.488-.04-70.224" transform="translate(98.331 63.182)" fill="#1f202b" fill-rule="evenodd"/>
            <path id="Trazado_895651" data-name="Trazado 895651" d="M139.277,86.835l-1.654-.306c0,.052,0,69.624.007,69.669a3.024,3.024,0,0,0,1.779-1.054c.012-.054-.132-68.248-.132-68.309" transform="translate(100.542 63.215)" fill="#5e627d" fill-rule="evenodd"/>
            <path id="Trazado_895652" data-name="Trazado 895652" d="M135.126,86.512l1.08.216c0,6.934,0,68.9-.007,68.947a1.618,1.618,0,0,1-1.2-.855Z" transform="translate(98.621 63.202)" fill="#333647" fill-rule="evenodd"/>
            <path id="Trazado_895653" data-name="Trazado 895653" d="M107.626,106.6l-7.881-.024c0,.166.017,67.924.05,68.075.63,2.871,7.021,2.907,7.762.1.045-.173.069-67.957.069-68.151" transform="translate(72.87 77.858)" fill="#333647" fill-rule="evenodd"/>
            <path id="Trazado_895654" data-name="Trazado 895654" d="M103.147,106.583l-3.4-.01c0,.166.016,67.924.05,68.075.287,1.315,1.782,2.035,3.39,2.16-.026-10.5-.038-65.488-.04-70.224" transform="translate(72.87 77.858)" fill="#1f202b" fill-rule="evenodd"/>
            <path id="Trazado_895655" data-name="Trazado 895655" d="M104.425,106.926l-1.654-.308c0,.052,0,69.626.007,69.671a3.024,3.024,0,0,0,1.779-1.054c.012-.054-.132-68.25-.132-68.309" transform="translate(75.08 77.891)" fill="#5e627d" fill-rule="evenodd"/>
            <path id="Trazado_895656" data-name="Trazado 895656" d="M100.274,106.6l1.08.216c0,6.934,0,68.9-.009,68.947a1.618,1.618,0,0,1-1.2-.855Z" transform="translate(73.16 77.878)" fill="#333647" fill-rule="evenodd"/>
            <path id="Trazado_895657" data-name="Trazado 895657" d="M91.533,38.722l-9.745,5.61C55.517,59.584,62.676,54.947,36.406,70.2l-4.889,2.836A55.242,55.242,0,0,0,25.7,76.811a4.881,4.881,0,0,0-1.384,3.69v1.27a5.3,5.3,0,0,0,2.322,4.641c32.867,18.955,97.931,56.633,130.825,75.612,32.765-19.026,32.117-18.133,64.861-37.2a3.531,3.531,0,0,0,.492-.337c.048-.042.1-.1.154-.14a5.228,5.228,0,0,0,1.533-2.7c0-.014.01-.021.01-.035a12.643,12.643,0,0,0,.154-2.693,5.728,5.728,0,0,0-2.935-4.994l-9.013-5.2c-28.835-16.657-89.463-52.621-118.3-69.274-.922-.531-2.26-1.177-2.887-.732" transform="translate(17.764 28.18)" fill="#cacad9" fill-rule="evenodd"/>
            <path id="Trazado_895658" data-name="Trazado 895658" d="M167.667,83.273l-11.022,4.169L101.26,121.368v3.046c-.007.147-.007.3-.007.45l67.186-38.55a5.964,5.964,0,0,0-.772-3.041" transform="translate(73.971 60.836)" fill="#e8e8f7" fill-rule="evenodd"/>
            <path id="Trazado_895659" data-name="Trazado 895659" d="M25.228,60.953a5.967,5.967,0,0,0-.926,3.241L157.469,141.17c.01-.583.01-1.187.01-1.784V137.4L29.9,62.642Z" transform="translate(17.754 44.53)" fill="#d8d8e6" fill-rule="evenodd"/>
            <path id="Trazado_895660" data-name="Trazado 895660" d="M157.088,137.134v-2.577L42.57,66.648,27.893,59.885a3.529,3.529,0,0,0-3.056,1.848l132.251,76.446v-1.045Z" transform="translate(18.145 43.749)" fill="#e8e8f7" fill-rule="evenodd"/>
            <path id="Trazado_895661" data-name="Trazado 895661" d="M101.258,121.564v.666l66.405-38.093A3.782,3.782,0,0,0,164.5,82.09h-.009l-11.036,4.631-52.2,31.616v3.227Z" transform="translate(73.975 59.972)" fill="#f2f2fc" fill-rule="evenodd"/>
            <path id="Trazado_895662" data-name="Trazado 895662" d="M90.635,38.753C59.075,57.092,58.163,56.988,26.6,75.325,89.886,111.859,92.513,113.463,155.8,150c31.55-18.337,31.671-17.906,63.231-36.245-63.285-36.536-65.119-38.465-128.394-75" transform="translate(19.435 28.311)" fill="#f9f9fe" fill-rule="evenodd"/>
            <path id="Trazado_895663" data-name="Trazado 895663" d="M113.45,63.45,63.681,92.373l35.475,20.479,49.767-28.921Z" transform="translate(46.523 46.354)" fill="#e8e8f7" fill-rule="evenodd"/>
            <path id="Trazado_895664" data-name="Trazado 895664" d="M121.356,72.681l-.441-.895-.2.062.064.2.211-.1-.369.182.362.737Zm-1.028-.706-.78.253.126.389.78-.251Zm-1.17.377-.782.253.126.389c.26-.085.521-.166.78-.251Zm-1.172.379-.78.251.125.391.782-.253Zm-1.172.377-.781.251.125.391.782-.253Zm-1.172.377c-.26.081-.523.164-.78.251l.125.391c.26-.085.521-.171.782-.253Zm-1.172.377c-.261.083-.521.166-.78.251l.125.391.782-.253Zm-1.172.376-.78.253.125.389.782-.251Zm-1.172.377-.78.251.125.391.78-.251Zm-1.172.377-.782.251.126.391.782-.251Zm-1.172.377-.78.251.125.391c.26-.085.521-.17.78-.251Zm-1.172.377c-.261.081-.523.166-.782.251l.126.391c.26-.085.521-.171.78-.253Zm-1.172.377-.782.251.126.391.78-.253Zm-1.172.376-.782.253.126.389.78-.251Zm-1.172.377-.735.237-.08.047.206.355.04-.024.694-.223Zm-1.17.488-.711.412.206.355.71-.41Zm-1.066.616-.71.412.2.355.711-.41ZM101.8,78.6c-.232.135-.483.27-.71.412l.2.355c.239-.132.476-.275.711-.41Zm-1.064.618-.711.41.206.355.71-.41Zm-1.066.616-.71.41.2.355.711-.41Zm-1.066.616-.71.41.2.355.711-.41Zm-1.064.616-.711.41.206.355.71-.41Zm-1.066.616-.71.41.2.355.711-.41ZM95.4,82.3l-.71.41.206.355.71-.41Zm-1.064.616-.711.41.206.356.71-.412Zm-1.066.616-.71.41.2.355.711-.41Zm-1.066.616-.71.41.206.357.71-.412Zm-1.064.616-.711.41.206.357.71-.412Zm-1.066.616-.71.412.2.355.711-.412Zm-1.066.616-.71.412.206.355.71-.412Zm-1.064.616-.711.412.206.355.71-.412Zm-1.066.616q-.356.205-.71.412l.2.355.711-.41Zm-1.066.616-.71.412.206.355.71-.412Zm-1.064.616-.711.412.206.355.711-.41Zm-1.066.618-.71.41.2.355.711-.41Zm-1.066.614-.71.412.206.355.71-.41Zm-1.064.618-.711.41.206.355.71-.41Zm-1.066.616-.71.41.2.355.711-.41Zm-1.064.616-.711.41.206.355.71-.41Zm-1.066.616-.711.41.206.355.711-.41Zm-1.066.616-.71.41.2.355.711-.41Zm-1.066.616-.71.41.206.355.71-.41ZM75.162,94l-.711.41.206.355.71-.41Zm-1.066.616-.277.159.41.237.073-.042Zm12.723,7.628.542-.616-.308-.272-.542.618Zm.812-.924c.18-.208.36-.412.542-.618l-.308-.27c-.18.2-.362.41-.542.616Zm.812-.926.542-.616-.308-.272-.542.616Zm.812-.926q.273-.306.542-.616l-.308-.27-.542.616Zm.812-.924.542-.616L90.3,97.66l-.542.616Zm.813-.926c.177-.206.362-.412.542-.616l-.308-.27c-.182.2-.365.408-.542.616Zm.812-.924.542-.616-.308-.272-.542.618Zm.812-.926.542-.616-.308-.27-.542.616Zm.813-.924.542-.616-.31-.27-.542.616Zm.812-.924c.178-.2.358-.421.542-.616l-.308-.272c-.183.2-.363.414-.542.616ZM94.939,93l.2-.227.382-.109-.112-.395-.5.142-.28.317Zm.978-.446c.263-.074.526-.147.789-.223l-.111-.395-.791.223Zm1.184-.334L97.891,92l-.112-.395-.789.223Zm1.185-.334.789-.223-.111-.395-.791.223Zm1.184-.336.791-.222-.112-.4-.789.223Zm1.185-.334.789-.222-.111-.4-.791.223Zm1.184-.334.789-.223-.111-.395-.789.223Zm1.185-.334.789-.223-.111-.395-.791.223Zm1.184-.334L105,89.99l-.112-.395-.789.223Zm1.185-.334.789-.223-.111-.395-.791.223Zm1.184-.336c.263-.073.526-.147.789-.221l-.111-.395c-.263.074-.526.149-.789.221Zm1.185-.334.789-.221-.111-.395-.791.221Zm1.184-.334.789-.223-.111-.395-.789.223Zm1.185-.334.789-.223-.111-.395-.791.223Zm1.184-.334.789-.223-.111-.395-.789.223Zm1.184-.334.791-.223-.112-.395-.789.223Zm1.185-.336c.263-.073.528-.145.789-.222l-.111-.4c-.263.078-.528.149-.791.223Zm1.184-.334c.265-.073.528-.149.791-.223l-.112-.395c-.263.074-.526.151-.789.223Zm.706-.853a3.011,3.011,0,0,1-.3-.7l-.395.111a3.279,3.279,0,0,0,.346.8Zm-.382-1.075a3.172,3.172,0,0,1-.01-.768l-.407-.048a3.409,3.409,0,0,0,.01.87Zm.052-1.151a4,4,0,0,1,.239-.746l-.377-.161a4.807,4.807,0,0,0-.261.815Zm.4-1.1a6.49,6.49,0,0,1,.407-.685l-.341-.23a7.286,7.286,0,0,0-.429.727Zm.639-1.011a7.9,7.9,0,0,1,.511-.616l-.3-.277a8.358,8.358,0,0,0-.535.647Zm.787-.909c.187-.192.382-.379.583-.556l-.27-.308c-.208.185-.41.376-.606.575Zm.89-.819q.311-.26.637-.5l-.244-.331c-.221.164-.441.337-.654.514Zm.966-.737c.221-.154.446-.3.675-.448l-.218-.348q-.353.221-.692.46Zm1.019-.661q.348-.208.7-.4l-.194-.36c-.242.132-.485.268-.72.41Zm1.064-.592q.361-.187.73-.358l-.175-.372q-.374.177-.744.365Zm1.1-.528c.249-.109.5-.208.749-.317l-.152-.381q-.384.156-.763.324Zm1.128-.464-.092-.242-.038.093c-.1-.2-.2-.41-.3-.613l.367-.182c.138.27.272.543.407.815Zm-.249-1.312c-.119-.246-.244-.49-.365-.734l-.367.182c.119.246.246.49.363.735Zm-.547-1.1-.363-.734-.369.18c.123.246.242.491.363.737Zm-.545-1.1-.362-.736-.369.18.362.737Z" transform="translate(53.929 52.444)" fill="#13aac9" fill-rule="evenodd"/>
            <path id="Trazado_895665" data-name="Trazado 895665" d="M36.891,94.434,89.32,124.615l-.005-11.583c.029-1.876.173-2.257,1.689-3.229L149.895,76.01,97.471,45.829,38.279,79.791a4,4,0,0,0-1.322,3.281Z" transform="translate(26.951 33.481)" fill="#a5d6a7" fill-rule="evenodd"/>
            <path id="Trazado_895666" data-name="Trazado 895666" d="M117.129,58.207q1.236,2.515,2.485,5.026c-6.317,2.364-9.9,6.817-7.675,9.719L91.346,78.763q-4.361,4.961-8.741,9.954L73.8,98.754q-8.447-4.955-16.889-9.92,21.93-12.675,43.856-25.36,8.192-2.637,16.362-5.268" transform="translate(41.577 42.524)" fill="#145a6b" fill-rule="evenodd"/>
            <path id="Trazado_895667" data-name="Trazado 895667" d="M87.95,54.785c-8.071,1.083-15.933,2.585-21.315,5.2l13-1.073,8.874-3.269Z" transform="translate(48.681 40.024)" fill="#262626" fill-rule="evenodd"/>
            <path id="Trazado_895668" data-name="Trazado 895668" d="M87.95,54.785c-8.071,1.083-15.933,2.585-21.315,5.2,5.463-2.047,12.773-3.693,21.386-5Z" transform="translate(48.681 40.024)" fill="#707070" fill-rule="evenodd"/>
            <path id="Trazado_895669" data-name="Trazado 895669" d="M89.948,45.754a6.207,6.207,0,0,1-3.093,3.26c-2.463,1.23-3.354,2.762-3.965,5.361-.317,1.348-.588,3.117-.895,5.517-.336,1.981.35,3.1,1.253,3.574,2.347,1.227,4.821-.436,6.957-1.376-3.082-1.841,1.651-5.816,1.343-9.66a13.16,13.16,0,0,1,3.989-4.179Z" transform="translate(59.839 33.426)" fill="#f1b287" fill-rule="evenodd"/>
            <path id="Trazado_895670" data-name="Trazado 895670" d="M82.634,53.3c-.215,1.153-.417,2.554-.637,4.283-.337,1.981.348,3.1,1.251,3.574,2.347,1.227,4.78-.436,6.917-1.376-.841-1.3-1.044-2.388.294-5.432-2.52,0-1.514-.8-1.448-2.764a6.094,6.094,0,0,0-.639-2.672c-.116,2.592-.883,2.926-2.016,3.5a8.382,8.382,0,0,0-3.52,2.663Z" transform="translate(59.84 35.734)" fill="#e8a476" fill-rule="evenodd"/>
            <path id="Trazado_895671" data-name="Trazado 895671" d="M82.634,51.448C82.419,52.6,82.217,54,82,55.731c-.337,1.981.348,3.1,1.251,3.574.09.047.178.088.268.126l.545-2.032a.772.772,0,0,1-.4-.142c-.261-.317.329-2.971.69-5.529Z" transform="translate(59.84 37.586)" fill="#f1b287" fill-rule="evenodd"/>
            <path id="Trazado_895672" data-name="Trazado 895672" d="M85.406,58.27c.377-.192.4-2.634.661-4.271.161-1.023.542-1.736,1.618-1.7-.171,2.023-.247,3.695-.466,4.8-.178.915-1.336,1.327-2.283,1.668Z" transform="translate(62.052 38.206)" fill="#f1b287" fill-rule="evenodd"/>
            <path id="Trazado_895673" data-name="Trazado 895673" d="M84.057,49.977a19.438,19.438,0,0,0-3.08,5.226,4.886,4.886,0,0,0-.488,1.692.92.92,0,0,0,.488.907c2.1,1.294,7.042-3.645,8-5.14,1.175-1.847.268-3.148-1.038-3.6a3.96,3.96,0,0,0-3.876.91m.18,1.248a3.581,3.581,0,0,1,3.093-1.161c.929.317.936,1.542.1,2.854-.677,1.064-4.475,4.6-5.709,3.871-1-.587,1.566-4.451,2.518-5.564" transform="translate(58.801 35.715)" fill="#707070" fill-rule="evenodd"/>
            <path id="Trazado_895674" data-name="Trazado 895674" d="M87.585,53.549l-.8,1.177c-1.627.748-3.231,1.429-4.884,2.116L70.774,61.293l11.969-2.279,2.848-.407c.583-.817,1.123-1.613,1.687-2.315.5-.62,1.014-1.147,1.6-1.81-.606-.111-1.135-.228-1.291-.933" transform="translate(51.705 39.121)" fill="#c4c4c4" fill-rule="evenodd"/>
            <path id="Trazado_895675" data-name="Trazado 895675" d="M89.137,53.6l-.163,1c-1.18.417-2.791.656-3.132,1.583-.362.981.466,1.407.976,1.561a9.923,9.923,0,0,0,2.958-.7l.339.609c-1.777.986-4.288,2-5.32-.909-2.319,1.641-3.555,3.148-7.286,2.13a5.776,5.776,0,0,1,2.251-1.791c.806-.021,1.405-.016,2.168-.1a8.015,8.015,0,0,0,2.62-1.528c1.691-1.213,2.476-1.732,4.588-1.857" transform="translate(56.625 39.159)" fill="#707070" fill-rule="evenodd"/>
            <path id="Trazado_895676" data-name="Trazado 895676" d="M82.254,54.178a12.328,12.328,0,0,1-1.628,3.013c2.653,1.481,3.487-.9,4.858-2.876,2.17-.751,4.61-2.006,3.857-4.574a1.926,1.926,0,0,0-2.859-1.4c-1.071.445-1.893,1.821-2.561,2.914a32.881,32.881,0,0,0-1.667,2.923" transform="translate(58.902 35.15)" fill="#f1b287" fill-rule="evenodd"/>
            <path id="Trazado_895677" data-name="Trazado 895677" d="M82.879,52.767c-.37.85-1.665,3.281-2.253,4.423,1.784.1,2.186-1.634,3.556-3.61,1.571-1.808,5.233-2.276,5.159-3.84a1.923,1.923,0,0,0-2.859-1.4,4.691,4.691,0,0,0-1.847,1.782c-.652.96-1.239,1.9-1.757,2.643" transform="translate(58.902 35.151)" fill="#f5bc95" fill-rule="evenodd"/>
            <path id="Trazado_895678" data-name="Trazado 895678" d="M83.613,50.06a16.09,16.09,0,0,0-1.926,2.831c-.206.381-.4.77-.59,1.156l.324.348c.029-.059.061-.119.093-.178a18.2,18.2,0,0,1,2.277-2.909,3.587,3.587,0,0,1,3.094-1.161c.926.318.935,1.544.1,2.855a12.506,12.506,0,0,1-2,2.082l-.168,1.391a18.671,18.671,0,0,0,3.712-3.729c1.177-1.845.275-3.15-.981-3.717a3.422,3.422,0,0,0-3.93,1.031" transform="translate(59.246 35.632)" fill="#707070" fill-rule="evenodd"/>
            <path id="Trazado_895679" data-name="Trazado 895679" d="M82.551,50.06a3.6,3.6,0,0,1,3.624-.478,1.848,1.848,0,0,1,.99,1.95c-.244,1.838-2.425,4.143-3.414,4.942a18.671,18.671,0,0,0,3.712-3.729c1.177-1.845.275-3.15-.981-3.717a3.422,3.422,0,0,0-3.93,1.031" transform="translate(60.308 35.632)" fill="#c4c4c4" fill-rule="evenodd"/>
            <path id="Trazado_895680" data-name="Trazado 895680" d="M86.207,57.7c.344-.177.37-2.409.6-3.906.147-.938.5-1.59,1.48-1.558-.156,1.85-.225,3.38-.424,4.4-.164.838-1.224,1.213-2.089,1.525Z" transform="translate(62.666 38.158)" fill="#f1b287" fill-rule="evenodd"/>
            <path id="Trazado_895681" data-name="Trazado 895681" d="M84.985,53.234c.064-.315,1.17-.917,1.682-.566.149.337.395,5.366-.58,5.787a6,6,0,0,1-2.317.5c.261-1.007.978-4.536,1.215-5.72" transform="translate(61.199 38.399)" fill="#f1b287" fill-rule="evenodd"/>
            <path id="Trazado_895682" data-name="Trazado 895682" d="M83.107,56.1a4.182,4.182,0,0,0,.523.175c.427.1.5.1.6-.663a17.148,17.148,0,0,1,.206-1.729,1.416,1.416,0,0,1,1.651-.94,24.1,24.1,0,0,1-.286,4.923.9.9,0,0,1-.96.831,3.341,3.341,0,0,1-2.3-.761,1.112,1.112,0,0,1-.225-.86c.109-.512.774-.95.786-.976" transform="translate(60.126 38.662)" fill="#f1b287" fill-rule="evenodd"/>
            <path id="Trazado_895683" data-name="Trazado 895683" d="M83.307,53.578l-1.222,1.533c-1.627.748-3.041,1.62-4.693,2.307l.516,1.573,2.848-.407c.583-.815,1.121-1.611,1.687-2.314.5-.62,1.012-1.147,1.6-1.81Z" transform="translate(56.54 39.142)" fill="#707070" fill-rule="evenodd"/>
            <path id="Trazado_895684" data-name="Trazado 895684" d="M81.73,55.488,70.774,59.876,82.742,57.6l-.516-1.566Z" transform="translate(51.705 40.537)" fill="#707070" fill-rule="evenodd"/>
            <path id="Trazado_895685" data-name="Trazado 895685" d="M81.73,55.488,70.774,59.877c2.852-.853,7.734-2.883,11.093-4.24Z" transform="translate(51.705 40.537)" fill="#c4c4c4" fill-rule="evenodd"/>
            <path id="Trazado_895686" data-name="Trazado 895686" d="M78.806,55.582a.5.5,0,0,1,.639.517.868.868,0,0,1-.639.812.5.5,0,0,1-.639-.517.868.868,0,0,1,.639-.812" transform="translate(57.106 40.594)" fill="#0a0a09" fill-rule="evenodd"/>
            <path id="Trazado_895687" data-name="Trazado 895687" d="M78.946,55.592a.5.5,0,0,1,.639.517.868.868,0,0,1-.639.812.5.5,0,0,1-.637-.517.869.869,0,0,1,.637-.812" transform="translate(57.209 40.601)" fill="#c4c4c4" fill-rule="evenodd"/>
            <path id="Trazado_895688" data-name="Trazado 895688" d="M85.191,56.717c1.874-.263,4.079,3.127,4.108,3.731,6.6-6.209,13.237-9.695,18.9-16.9.088-.112-3-8.014-4.366-8.944-6.529,4.181-13.962,16.25-18.64,22.11" transform="translate(62.237 25.283)" fill="#dbd4d4" fill-rule="evenodd"/>
            <path id="Trazado_895689" data-name="Trazado 895689" d="M86.852,58.416a5.709,5.709,0,0,1,1.234,2.042c6.611-6.221,13.265-9.707,18.934-16.944.012-.014-2.037-7.325-4.373-8.923-.01-.005-.135.109-.145.1.59.846,2.862,5.354,2.471,5.65-4.159,4.7-11.273,11.671-18.121,18.074" transform="translate(63.451 25.271)" fill="#c7c1c1" fill-rule="evenodd"/>
            <path id="Trazado_895690" data-name="Trazado 895690" d="M85.191,56.524a2.973,2.973,0,0,1,2.238,1.016c6.239-6.628,11.375-11.138,17.7-17.894a14.8,14.8,0,0,1-1.987-4.775c-.585.408-1.729,1.364-2.182,1.776C95.2,41.885,89.218,51.477,85.191,56.524" transform="translate(62.237 25.475)" fill="#e8e3e3" fill-rule="evenodd"/>
            <path id="Trazado_895691" data-name="Trazado 895691" d="M100.31,61.933c-1.928,1.518-6.739,3.833-7.756,3.288l-.668-1.135c-.7-.933,4.532-7.438,5.529-8.743,1.462-1.919,3.705-1.461,6.188-.6,2.148.741,2.594.358,5.823-.5l2.262,3.478c-1.914,4.4-3.478,5.979-7.1,4.226-.7-.341-3-1.023-4.281-.016" transform="translate(67.08 39.45)" fill="#f1b287" fill-rule="evenodd"/>
            <path id="Trazado_895692" data-name="Trazado 895692" d="M100.109,60.8c-1.928,1.518-6.739,3.833-7.756,3.288L92.1,63.65a65.99,65.99,0,0,0,8.049-5.4c1.281-1.009,3.577-.327,4.281.014,3.165,1.535,4.759.519,6.389-2.707l.673,1.035c-1.914,4.4-3.478,5.979-7.1,4.226-.7-.341-3-1.023-4.281-.016" transform="translate(67.281 40.585)" fill="#e8a476" fill-rule="evenodd"/>
            <path id="Trazado_895693" data-name="Trazado 895693" d="M121.627,21.063c-6.137.756-6.381,15.739-8.815,28.93L99.868,77.6c-.87,3.124,4.422,6.808,7.211,4.833l15.428-29.966c1.443-5.349,3.028-10.072,4.221-15.5,1.019-4.643,3.006-16.9-5.1-15.906" transform="translate(72.89 15.346)" fill="#e8e3e3" fill-rule="evenodd"/>
            <path id="Trazado_895694" data-name="Trazado 895694" d="M121.614,21.039c-6.137.756-5.893,16.011-8.327,29.2L99.795,78.092a3.757,3.757,0,0,0,.979,2.634c5.919-9.182,13.317-23.408,16.022-28.663.045-.164,3.686-20.156,4.818-31.024" transform="translate(72.903 15.37)" fill="#f6f5f5" fill-rule="evenodd"/>
            <path id="Trazado_895695" data-name="Trazado 895695" d="M117.1,51.564c-1.814,4.311-10.139,21.525-15.579,30.723a4.152,4.152,0,0,0,4.274.083L121.226,52.4c1.445-5.347,3.03-10.07,4.221-15.5.914-4.164,2.606-14.452-2.9-15.814-1.146,5.8-5.117,29.695-5.444,30.472" transform="translate(74.17 15.409)" fill="#dbd4d4" fill-rule="evenodd"/>
            <path id="Trazado_895696" data-name="Trazado 895696" d="M41.262,56.814c-3.452,0-6.253,1.623-6.253,3.624s2.8,3.622,6.253,3.622,6.253-1.623,6.253-3.622-2.8-3.624-6.253-3.624" transform="translate(25.576 41.506)" fill="#cacad9" fill-rule="evenodd"/>
            <path id="Trazado_895697" data-name="Trazado 895697" d="M36.337,52.5c-.251-.434-1.308-1.975-1.715-1.071-.457,1.014.194,3.241,1.137,5.031A20.657,20.657,0,0,0,37.551,59.7l0,1.407a8.422,8.422,0,0,1-2.847-3.317,18.9,18.9,0,0,1-1.876-5.019,2.736,2.736,0,0,1,2.07-2.911,2.043,2.043,0,0,1,1.341.348A4.257,4.257,0,0,1,37.614,51.7Z" transform="translate(23.98 36.418)" fill="#1b9ebf" fill-rule="evenodd"/>
            <path id="Trazado_895698" data-name="Trazado 895698" d="M35.87,52.352A3.286,3.286,0,0,0,34.822,51.2a.94.94,0,0,0-.862-.166l-.009.005c-.4.2-.54.891-.466,1.8a10.372,10.372,0,0,0,1,3.435l.085.175A17.059,17.059,0,0,0,36.717,59.7a1.987,1.987,0,0,0,.6.486l.135.666a.892.892,0,0,1-.369-.071,2.524,2.524,0,0,1-.838-.644,17.838,17.838,0,0,1-2.255-3.4l-.09-.183a11.047,11.047,0,0,1-1.059-3.658c-.1-1.175.154-2.1.824-2.43l.017-.009a1.53,1.53,0,0,1,1.473.2,3.94,3.94,0,0,1,1.265,1.381Z" transform="translate(23.981 36.777)" fill="#1e7e96" fill-rule="evenodd"/>
            <path id="Trazado_895699" data-name="Trazado 895699" d="M46.425,49.3a10.808,10.808,0,0,0-9.809-.1c-2.765,1.542-2.857,4.088-.2,5.685a10.811,10.811,0,0,0,9.811.1c2.764-1.542,2.855-4.084.2-5.681" transform="translate(25.19 35.118)" fill="#145a6b" fill-rule="evenodd"/>
            <path id="Trazado_895700" data-name="Trazado 895700" d="M34.483,50.523a3.479,3.479,0,0,0,1.928,2.646,10.808,10.808,0,0,0,9.809.1,3.558,3.558,0,0,0,2.136-2.852,21.427,21.427,0,0,1-13.872.109" transform="translate(25.192 36.83)" fill="#0e4654" fill-rule="evenodd"/>
            <path id="Trazado_895701" data-name="Trazado 895701" d="M48.776,50.38c-.8,2.935-3.793,4.2-7.237,4.1-3.383-.1-6.708-1.44-7.229-4.06v.061a35.717,35.717,0,0,0,1.08,7.357,21.44,21.44,0,0,0,2.667,6.377,4.068,4.068,0,0,0,1.192,1.294,5.033,5.033,0,0,0,4.572.045,3.586,3.586,0,0,0,1.227-1.267,21.737,21.737,0,0,0,2.7-6.493,31.4,31.4,0,0,0,1.031-7.415" transform="translate(25.066 36.806)" fill="#f0f8fa" fill-rule="evenodd"/>
            <path id="Trazado_895702" data-name="Trazado 895702" d="M48.776,50.38c-.8,2.935-3.793,4.2-7.237,4.1-3.383-.1-6.708-1.44-7.229-4.06v.061a35.717,35.717,0,0,0,1.08,7.357,21.44,21.44,0,0,0,2.667,6.377,4.068,4.068,0,0,0,1.192,1.294,5.033,5.033,0,0,0,4.572.045,3.586,3.586,0,0,0,1.227-1.267,21.737,21.737,0,0,0,2.7-6.493,31.4,31.4,0,0,0,1.031-7.415" transform="translate(25.066 36.806)" fill="#1e7e96" fill-rule="evenodd"/>
            <path id="Trazado_895703" data-name="Trazado 895703" d="M48.776,50.38c-.8,2.935-3.793,4.2-7.237,4.1-3.383-.1-6.708-1.44-7.229-4.06v.061a35.717,35.717,0,0,0,1.08,7.357,21.44,21.44,0,0,0,2.667,6.377,4.068,4.068,0,0,0,1.192,1.294,5.033,5.033,0,0,0,4.572.045c.029-.016.057-.031.085-.048-3.343-1.2-3.4-4.7-3.676-10.151,2.17-.194,6.763-.46,8.53-4.136.01-.284.017-.564.016-.839" transform="translate(25.066 36.806)" fill="#17667a" fill-rule="evenodd"/>
            <path id="Trazado_895704" data-name="Trazado 895704" d="M46.019,54.461a10.111,10.111,0,0,1-9.174-.093c-2.48-1.492-2.38-3.34.206-4.782a10.109,10.109,0,0,1,9.175.093c2.48,1.492,2.38,3.338-.208,4.782m.744-5.211a11.268,11.268,0,0,0-10.226-.1c-2.883,1.606-2.978,4.261-.213,5.924a11.263,11.263,0,0,0,10.226.1c2.883-1.608,2.978-4.259.213-5.924" transform="translate(25.066 35.046)" fill="#1b9ebf" fill-rule="evenodd"/>
            <path id="Trazado_895705" data-name="Trazado 895705" d="M44.621,51.792a6.893,6.893,0,0,1-5.231,3.487c.014,1.023-.581,9.561,1.786,7.275,1.684-1.625,3.158-7.175,3.446-10.762" transform="translate(28.734 37.837)" fill="#1b9ebf" fill-rule="evenodd"/>
            <path id="Trazado_895706" data-name="Trazado 895706" d="M116.55,56.15q-4.338-.706-8.663-1.419c-4.077,3.641-11.747,5.706-16.721,4.43L46.8,81.1Q55.2,86.035,63.591,90.96,85.523,78.29,107.45,65.609q4.558-4.743,9.1-9.459" transform="translate(34.192 39.984)" fill="#0e4654" fill-rule="evenodd"/>
            <path id="Trazado_895707" data-name="Trazado 895707" d="M91.675,58.67,47.347,80.547l16.406,9.637C78.364,81.868,92.54,72.853,107.4,64.957l8.892-9.449.474.069c-1.033,1.09-8.931,9.556-9.348,9.783C92.554,73.258,78.374,82.276,63.76,90.6l-.007,0q-8.4-4.932-16.8-9.866l-.376-.222L91.14,58.581Z" transform="translate(34.031 40.552)" fill="#5ca8a8" fill-rule="evenodd"/>
            <path id="Trazado_895708" data-name="Trazado 895708" d="M115.711,85.1l-25.3,14.7.846,1.049L116.4,85.5Z" transform="translate(66.05 62.168)" fill="#17667a" fill-rule="evenodd"/>
            <path id="Trazado_895709" data-name="Trazado 895709" d="M107.985,102.4a2.747,2.747,0,0,0-.95-1.005L90.819,92.03l-.01,3.1,16.217,9.361a.823.823,0,0,0,1.353-.77,2.767,2.767,0,0,0-.395-1.326" transform="translate(66.341 67.233)" fill="#d2eefc" fill-rule="evenodd"/>
            <path id="Trazado_895710" data-name="Trazado 895710" d="M115.718,82.545l-25.3,14.7,1.365,1.075,16.079,9.222,24.763-15.239Z" transform="translate(66.055 60.304)" fill="#1e7e96" fill-rule="evenodd"/>
            <path id="Trazado_895711" data-name="Trazado 895711" d="M115.718,82.544l-25.3,14.7c21.09-5.659,27.936-7.405,42.207-4.941Z" transform="translate(66.055 60.303)" fill="#1b9ebf" fill-rule="evenodd"/>
            <path id="Trazado_895712" data-name="Trazado 895712" d="M125.487,88.185l-25.3,14.7c1.071.962,2.733,4.723,1.75,5.91l25.3-14.7c1.994-1.49-.156-5.465-1.748-5.906" transform="translate(73.192 64.424)" fill="#145a6b" fill-rule="evenodd"/>
            <path id="Trazado_895713" data-name="Trazado 895713" d="M124.748,88.185l-.081.047,1.114.644a2.471,2.471,0,0,0-1.033-.69M101.5,107.77a1.626,1.626,0,0,1-.3,1.026l25.3-14.7a1.975,1.975,0,0,0,.767-1.293Z" transform="translate(73.931 64.424)" fill="#0e4654" fill-rule="evenodd"/>
            <path id="Trazado_895714" data-name="Trazado 895714" d="M125.488,88.185l-25.3,14.7a7.577,7.577,0,0,1,1.54,2.592l25.855-15.025a4.175,4.175,0,0,0-2.094-2.27M102.1,108.517a1.138,1.138,0,0,1-.164.279l.32-.187Z" transform="translate(73.193 64.424)" fill="#17667a" fill-rule="evenodd"/>
            <path id="Trazado_895715" data-name="Trazado 895715" d="M109.089,102.662a5.075,5.075,0,0,0-1.758-1.862L90.425,91.041l0,1.314.689.4,16.215,9.362a2.984,2.984,0,0,1,1.345,2.331.823.823,0,0,1-1.353.77L91.1,95.854l-.69-.4-.005,1.313,16.906,9.76a1.775,1.775,0,0,0,1.765.178,1.747,1.747,0,0,0,.735-1.6,5.046,5.046,0,0,0-.725-2.444" transform="translate(66.049 66.511)" fill="#0e4654" fill-rule="evenodd"/>
          </g>
        </g>
      </g>
    </g>
  </g>
</svg>
