<svg id="Grupo_1127028" data-name="Grupo 1127028" xmlns="http://www.w3.org/2000/svg" xmlns:xlink="http://www.w3.org/1999/xlink" width="102.547" height="102.538" viewBox="0 0 102.547 102.538">
  <defs>
    <clipPath id="clip-path">
      <rect id="Rectángulo_414158" data-name="Rectángulo 414158" width="102.547" height="102.538" fill="#12263f"/>
    </clipPath>
  </defs>
  <g id="Grupo_1127027" data-name="Grupo 1127027" clip-path="url(#clip-path)">
    <path id="Trazado_898009" data-name="Trazado 898009" d="M36.57,49.763l-2.143,2.663a10.209,10.209,0,0,0,12.4,0L44.68,49.763a6.866,6.866,0,0,1-8.11,0" transform="translate(-8.155 -11.788)" fill="#12263f"/>
    <path id="Trazado_898010" data-name="Trazado 898010" d="M31.676,35.831a2.563,2.563,0,1,1-2.563,2.563,2.563,2.563,0,0,1,2.563-2.563" transform="translate(-6.896 -8.488)" fill="#12263f"/>
    <path id="Trazado_898011" data-name="Trazado 898011" d="M51.831,35.831a2.563,2.563,0,1,1-2.563,2.563,2.563,2.563,0,0,1,2.563-2.563" transform="translate(-11.671 -8.488)" fill="#12263f"/>
    <path id="Trazado_898012" data-name="Trazado 898012" d="M59.814,60.538V60.2a10,10,0,0,0-2.905-7.066,8.519,8.519,0,0,1-2.222-5.279V35.235a6.711,6.711,0,0,0,0-8.948v-.652C54.686,6.733,43.209,0,32.47,0S10.254,6.733,10.254,25.635v.652a6.711,6.711,0,0,0,0,8.948V47.85a7.976,7.976,0,0,1-.949,3.418H8.545a1.709,1.709,0,0,0-1.709,1.709v7.006A8.561,8.561,0,0,0,0,68.358v32.47a1.709,1.709,0,0,0,1.709,1.709H63.231a1.709,1.709,0,0,0,1.709-1.709V90.575a1.709,1.709,0,0,0-1.709-1.709H20.507V75.194H51.268v3.417a1.709,1.709,0,0,0,1.709,1.709H56.4v5.127h3.418V80.321h3.417a1.709,1.709,0,0,0,1.709-1.709V68.358a8.546,8.546,0,0,0-5.127-7.82m-3.454-.724H49.838l-5.317-1.773a5.126,5.126,0,0,1-3.507-4.863V48.17a18.877,18.877,0,0,0,8.1-10.573h.448a6.767,6.767,0,0,0,1.709-.243v10.5a11.856,11.856,0,0,0,3.218,7.68,6.559,6.559,0,0,1,1.873,4.283M10.254,54.686h3.418v5.127H10.254ZM32.47,47.85C28.526,47.85,18.8,42.4,18.8,34.179V25.451c10.624-1.368,16.288-5.3,18.715-7.509a34.414,34.414,0,0,0,8.629,7.008v9.228c0,8.223-9.727,13.671-13.672,13.671m-5.127,5.327V50.04a13.53,13.53,0,0,0,5.127,1.229A13.534,13.534,0,0,0,37.6,50.04v3.138a8.519,8.519,0,0,0,3.191,6.636H24.153a8.519,8.519,0,0,0,3.191-6.636M52.978,30.761a3.418,3.418,0,0,1-3.418,3.418V27.343a3.418,3.418,0,0,1,3.418,3.418M32.47,3.418c13.224,0,18.3,10.445,18.744,20.733a6.769,6.769,0,0,0-1.654-.226,1.708,1.708,0,0,0-.945-1.529,31.222,31.222,0,0,1-9.65-8.041,1.719,1.719,0,0,0-2.734.008c-.048.063-5.009,6.433-19.311,7.862a1.709,1.709,0,0,0-1.538,1.7,6.811,6.811,0,0,0-1.651.224c.44-10.287,5.517-20.732,18.74-20.732M15.381,34.179a3.418,3.418,0,1,1,0-6.836ZM13.672,47.85v-10.5a6.767,6.767,0,0,0,1.709.243h.448a18.877,18.877,0,0,0,8.1,10.573v5.008a5.126,5.126,0,0,1-3.507,4.863l-3.329,1.11V52.978a1.709,1.709,0,0,0-1.709-1.709H13.017a10.42,10.42,0,0,0,.655-3.418M61.522,76.9H54.686V73.485a1.708,1.708,0,0,0-1.709-1.709H18.8a1.709,1.709,0,0,0-1.709,1.709v17.09A1.709,1.709,0,0,0,18.8,92.284H61.522V99.12H3.418V68.358a5.127,5.127,0,0,1,5.127-5.127H56.4a5.127,5.127,0,0,1,5.127,5.127Z" fill="#12263f"/>
    <path id="Trazado_898013" data-name="Trazado 898013" d="M12.376,91.818a3.418,3.418,0,1,1-3.418,3.418,3.418,3.418,0,0,1,3.418-3.418" transform="translate(-2.122 -21.75)" fill="#12263f"/>
    <path id="Trazado_898014" data-name="Trazado 898014" d="M12.376,105.254a3.418,3.418,0,1,1-3.418,3.418,3.418,3.418,0,0,1,3.418-3.418" transform="translate(-2.122 -24.933)" fill="#12263f"/>
    <path id="Trazado_898015" data-name="Trazado 898015" d="M108.683,55.37l.9-6.284L120.4,27.459a1.709,1.709,0,0,0-.765-2.292c-.024-.012-.047-.023-.071-.034l-14.13-6.28,1.431-7.2a1.712,1.712,0,0,0-1.675-2.051h-5.127V4.479H96.649V9.606H91.521a1.71,1.71,0,0,0-1.674,2.051l1.438,7.2L77.156,25.14a1.708,1.708,0,0,0-.869,2.255c.011.024.021.047.034.071L87.135,49.083l.9,6.277A28.692,28.692,0,0,0,83.712,61l1.678,4.2a27.255,27.255,0,0,1,5.465-7.738h1.9L89.864,69l3.316.83,3.093-12.378h4.17l3.094,12.378,3.315-.83-2.888-11.547h1.88c6.358,5.959,10.971,19.109,11.294,34.179H86.395v3.418H96.649V103.6h3.418V95.054h18.8a1.709,1.709,0,0,0,1.709-1.709c0-16.747-4.768-30.932-11.891-37.974M88.365,33.532H108.35l-2.929,20.507H91.295Zm22.745,4.853.9-6.323a1.708,1.708,0,0,0-1.452-1.931,1.679,1.679,0,0,0-.24-.017h-1.709V24.007l7.926,3.524Zm-16.2-18.867-1.3-6.494h9.5l-1.3,6.494a1.709,1.709,0,0,0,.981,1.9l2.4,1.075v7.624H91.521V22.49l2.4-1.068a1.71,1.71,0,0,0,.981-1.9M80.178,27.524,88.1,24.007v6.106H86.395A1.707,1.707,0,0,0,84.7,32.065l.9,6.323Z" transform="translate(-18.036 -1.061)" fill="#12263f"/>
  </g>
</svg>
