<svg xmlns="http://www.w3.org/2000/svg" xmlns:xlink="http://www.w3.org/1999/xlink" width="166.959" height="134.91" viewBox="0 0 166.959 134.91">
  <defs>
    <clipPath id="clip-path">
      <rect id="Rectángulo_414111" data-name="Rectángulo 414111" width="166.959" height="134.91" fill="none"/>
    </clipPath>
    <clipPath id="clip-path-3">
      <rect id="Rectángulo_414098" data-name="Rectángulo 414098" width="4.182" height="3.555" fill="none"/>
    </clipPath>
    <clipPath id="clip-path-4">
      <rect id="Rectángulo_414099" data-name="Rectángulo 414099" width="4.602" height="6.067" fill="none"/>
    </clipPath>
    <clipPath id="clip-path-5">
      <rect id="Rectángulo_414100" data-name="Rectángulo 414100" width="17.536" height="11.818" fill="none"/>
    </clipPath>
    <clipPath id="clip-path-6">
      <rect id="Rectángulo_414101" data-name="Rectángulo 414101" width="39.546" height="44.519" fill="none"/>
    </clipPath>
    <clipPath id="clip-path-7">
      <rect id="Rectángulo_414102" data-name="Rectángulo 414102" width="26.482" height="30.799" fill="none"/>
    </clipPath>
    <clipPath id="clip-path-9">
      <rect id="Rectángulo_414106" data-name="Rectángulo 414106" width="15.924" height="8.598" fill="none"/>
    </clipPath>
    <clipPath id="clip-path-10">
      <rect id="Rectángulo_414107" data-name="Rectángulo 414107" width="6.153" height="2.243" fill="none"/>
    </clipPath>
  </defs>
  <g id="Grupo_1126989" data-name="Grupo 1126989" transform="translate(-21940 6574)">
    <g id="Grupo_1126988" data-name="Grupo 1126988" transform="translate(21940 -6574)">
      <g id="Grupo_1126987" data-name="Grupo 1126987" clip-path="url(#clip-path)">
        <path id="Trazado_897869" data-name="Trazado 897869" d="M96.261,74.542,118.183,71.5l.9,18.555L100.22,94Z" transform="translate(-31.461 -23.366)" fill="#efcb35"/>
        <path id="Trazado_897870" data-name="Trazado 897870" d="M128.825,51.568l8.871-1.391L156.96,15.531l5.815-1.693,4.275-3.315,1.745,2.181-.96,1.657.262,9.072-8.287.611L146.725,60.159l-17.319,3.309Z" transform="translate(-42.103 -3.439)" fill="#f5cac3"/>
        <path id="Trazado_897871" data-name="Trazado 897871" d="M156.281,42.053l15.04-11.062,15.137,11.062L170.5,58.015Z" transform="translate(-51.077 -10.129)" fill="none" stroke="#597e9d" stroke-miterlimit="10" stroke-width="2.306"/>
        <g id="Grupo_1126978" data-name="Grupo 1126978">
          <g id="Grupo_1126977" data-name="Grupo 1126977" clip-path="url(#clip-path)">
            <path id="Trazado_897872" data-name="Trazado 897872" d="M177.193,25.225V21.008l-1.967-1.967a3.336,3.336,0,0,1,4.718-4.718l2.274,2.275" transform="translate(-56.949 -4.362)" fill="none" stroke="#597e9d" stroke-miterlimit="10" stroke-width="2.306"/>
            <path id="Trazado_897873" data-name="Trazado 897873" d="M171.769,54.265c9.8,0,14.637-7.812,16.217-11.043L185.7,41.338l-.9,1.879a14.446,14.446,0,0,1-26.072,0l-.9-1.879-1.853,1.529c1.224,2.966,5.6,11.4,15.786,11.4" transform="translate(-50.979 -13.51)" fill="#425643"/>
            <path id="Trazado_897874" data-name="Trazado 897874" d="M198.821,73.636l-6.9-13.555a38.054,38.054,0,0,0-9.7-12.1l-4.87-4.017c-1.58,3.231-6.412,11.042-16.217,11.042-10.187,0-14.562-8.432-15.786-11.4l-5.3,4.373a38.051,38.051,0,0,0-9.7,12.1l-6.9,13.555,13.97,4.588-2.546,28.1H187.4l-2.545-28.1Z" transform="translate(-40.348 -14.252)" fill="#84ab86"/>
            <path id="Trazado_897875" data-name="Trazado 897875" d="M176.455,73.784l-4.118-4.118a.328.328,0,0,0-.287-.1.316.316,0,0,0-.263.312v1.989a11.981,11.981,0,0,0-10.082,11.7v0a.317.317,0,0,0,.317.318h3.8a.317.317,0,0,0,.316-.314v-.013a7.548,7.548,0,0,1,5.651-7.171v1.735a.326.326,0,0,0,.134.271.317.317,0,0,0,.407-.035l4.127-4.127a.316.316,0,0,0,0-.448" transform="translate(-52.849 -22.735)" fill="#fff8ed"/>
            <path id="Trazado_897876" data-name="Trazado 897876" d="M163.928,94.193,162.42,99.82a.328.328,0,0,0,.06.3.315.315,0,0,0,.4.073l1.722-.995a11.982,11.982,0,0,0,15.169,2.885l0,0a.317.317,0,0,0,.118-.434l-1.9-3.289a.317.317,0,0,0-.432-.116l-.011.005a7.547,7.547,0,0,1-9.035-1.308l1.5-.867a.331.331,0,0,0,.168-.252.323.323,0,0,0-.041-.187.314.314,0,0,0-.192-.147l-5.638-1.51a.315.315,0,0,0-.388.223" transform="translate(-53.079 -30.708)" fill="#fff8ed"/>
            <path id="Trazado_897877" data-name="Trazado 897877" d="M188.464,92.854l5.626-1.508a.325.325,0,0,0,.227-.2.316.316,0,0,0-.139-.383l-1.721-.994a11.983,11.983,0,0,0-5.088-14.58l0,0a.318.318,0,0,0-.435.115l-1.9,3.289a.318.318,0,0,0,.114.432l.011.007a7.546,7.546,0,0,1,3.385,8.479l-1.5-.867a.326.326,0,0,0-.3-.02.317.317,0,0,0-.173.37l1.511,5.638a.317.317,0,0,0,.388.223" transform="translate(-60.46 -24.559)" fill="#fff8ed"/>
            <path id="Trazado_897878" data-name="Trazado 897878" d="M144.207,87.762a145.365,145.365,0,0,1,1.928-14.968,145.373,145.373,0,0,1-1.928,14.968" transform="translate(-47.131 -23.791)" fill="#4a171f"/>
            <path id="Trazado_897879" data-name="Trazado 897879" d="M212.7,75.145a115.58,115.58,0,0,1,1.321,13.385A115.562,115.562,0,0,1,212.7,75.145" transform="translate(-69.515 -24.559)" fill="#4a171f"/>
            <path id="Trazado_897880" data-name="Trazado 897880" d="M183.83,10.523l1.745,2.181-.96,1.657-2.556,3.132-1.891-1.827Z" transform="translate(-58.884 -3.439)" fill="#f5cac3"/>
            <path id="Trazado_897881" data-name="Trazado 897881" d="M170.621,17.751s7.369-.576,7.312-.406-.885,2.368-.885,2.368l-4.739.7,1.23,3.75Z" transform="translate(-55.763 -5.659)" fill="#f5cac3"/>
            <path id="Trazado_897882" data-name="Trazado 897882" d="M184.752,16.053c-.339.541-.71,1.056-1.087,1.566-.351.537-.879,1.171-1.62,1.117a1.491,1.491,0,0,1-1.45-1.331c-.094-.72.456-1.225.89-1.706-.287.565-.753,1.084-.594,1.664a1.215,1.215,0,0,0,1.923.736c.634-.637,1.26-1.422,1.939-2.046" transform="translate(-59.02 -5.131)" fill="#752333"/>
            <path id="Trazado_897883" data-name="Trazado 897883" d="M170.621,17.748c1.708-.182,3.558-.318,5.276-.442,1.157-.038,1.323,1.123.7,1.9a3.1,3.1,0,0,1-2.759,1.3l-1.514.073.117-.28a8.711,8.711,0,0,1,.895,1.126c.815,1.233.448,2.848.378,4.218a27.2,27.2,0,0,0-.1-2.808,5.479,5.479,0,0,0-1.641-2.572l1.841-.117a2.871,2.871,0,0,0,2.485-1.149c.448-.559.5-1.353-.376-1.358-1.723.057-3.574.113-5.293.112" transform="translate(-55.763 -5.656)" fill="#752333"/>
            <path id="Trazado_897884" data-name="Trazado 897884" d="M183.944,20.746a24.29,24.29,0,0,1-6.1,1.113,24.285,24.285,0,0,1,6.1-1.113" transform="translate(-58.124 -6.78)" fill="#752333"/>
            <path id="Trazado_897885" data-name="Trazado 897885" d="M184.646,24.082a15.139,15.139,0,0,1-4.852.607,15.157,15.157,0,0,1,4.852-.607" transform="translate(-58.761 -7.867)" fill="#752333"/>
            <path id="Trazado_897886" data-name="Trazado 897886" d="M184.7,26.91a15.329,15.329,0,0,1-4.907.368,15.328,15.328,0,0,1,4.907-.368" transform="translate(-58.762 -8.776)" fill="#752333"/>
            <path id="Trazado_897887" data-name="Trazado 897887" d="M81.891,9.81c6.537-.426,13.785,1.847,16.271,8.242s2.7,8.242,2.7,8.242l5.241,4.417-3.678,2.831s1.136,10.018-.924,12.149-10.161,2.274-11.084,3.553S89.28,60.471,89.28,60.471l-13.5-5.614a17.53,17.53,0,0,0,.782-6.821C76.136,44.768,66.045,32.4,71.02,22.6S81.891,9.81,81.891,9.81" transform="translate(-22.762 -3.19)" fill="#f5cac3"/>
            <path id="Trazado_897888" data-name="Trazado 897888" d="M59.413,17.754s-5.806,5.291-4.361,9.625S66.32,42.548,66.609,44.788s-.506,3.033-.506,3.033,2.745,1.589,6.212-2.456,3.539-4.911,3.539-4.911-2.889-11.341.939-13.146,4.767,4.619,4.767,4.619l3.54-1.079L82.066,21.6s3.828-.867,5.2-3.251,1.95-6.862,1.95-6.862a5.091,5.091,0,0,1,.867,2.961c-.145,1.517-.073,3.106,1.228,1.733a8.755,8.755,0,0,0,1.638-2.156l.889,2.2a4.651,4.651,0,0,0,2.24-2.646,7.67,7.67,0,0,0,0-3.395,3.576,3.576,0,0,1,.954,2.026,11.031,11.031,0,0,1,0,2.416c-.057.691.92-.4,1.439-1.9s2.359-8.457-4.66-11.852S69.413,4.73,61.757,8.845s-2.345,8.909-2.345,8.909" transform="translate(-17.917 0)" fill="#752333"/>
            <path id="Trazado_897889" data-name="Trazado 897889" d="M112.731,46.072a13.758,13.758,0,0,0,4,3.866,6.039,6.039,0,0,1-4-3.866" transform="translate(-36.843 -15.058)" fill="#752333"/>
            <path id="Trazado_897890" data-name="Trazado 897890" d="M110,35.173c0,.82-.411,1.484-.919,1.484s-.919-.664-.919-1.484.411-1.484.919-1.484.919.664.919,1.484" transform="translate(-35.351 -11.01)" fill="#401520"/>
            <path id="Trazado_897891" data-name="Trazado 897891" d="M108.96,26a.309.309,0,0,1,.2-.03c.087.028.131.121.164.205a10.8,10.8,0,0,1,.464,1.461,10.835,10.835,0,0,0-2.8,1.355,5.05,5.05,0,0,0-1.688,2.24c-.352-.832.549-2.424,1.012-3.093A5.928,5.928,0,0,1,108.96,26" transform="translate(-34.39 -8.485)" fill="#752333"/>
            <g id="Grupo_1126964" data-name="Grupo 1126964" transform="translate(71.641 27.828)" opacity="0.4" style="mix-blend-mode: multiply;isolation: isolate">
              <g id="Grupo_1126963" data-name="Grupo 1126963">
                <g id="Grupo_1126962" data-name="Grupo 1126962" clip-path="url(#clip-path-3)">
                  <path id="Trazado_897892" data-name="Trazado 897892" d="M110.591,42.832a2.126,2.126,0,1,1-2.316-1.471,1.955,1.955,0,0,1,2.316,1.471" transform="translate(-106.423 -41.338)" fill="#f5cac3"/>
                </g>
              </g>
            </g>
            <path id="Trazado_897893" data-name="Trazado 897893" d="M85.46,42.306c-.665,3.065,1,6.905,4.393,7.235a2.117,2.117,0,0,0,1.312-.295,2.07,2.07,0,0,1-1.315.485c-3.611-.009-5.621-4.318-4.39-7.426" transform="translate(-27.812 -13.827)" fill="#4a1720"/>
            <path id="Trazado_897894" data-name="Trazado 897894" d="M86.437,43.7c.4-1.72,2.029-2.429,3.27-.97a6.284,6.284,0,0,1,1.033,2.685c.027.308-.35.47-.554.613-1.429.8-.4,1.832.808,2.038-1.488.017-2.546-1.35-.995-2.317.181-.129.445-.28.388-.327a1.792,1.792,0,0,0-.074-.295,6.765,6.765,0,0,0-.881-2.176c-1.117-1.34-2.4-.672-2.995.75" transform="translate(-28.25 -13.708)" fill="#4a1720"/>
            <g id="Grupo_1126967" data-name="Grupo 1126967" transform="translate(58.142 28.374)" opacity="0.4" style="mix-blend-mode: multiply;isolation: isolate">
              <g id="Grupo_1126966" data-name="Grupo 1126966">
                <g id="Grupo_1126965" data-name="Grupo 1126965" clip-path="url(#clip-path-4)">
                  <path id="Trazado_897895" data-name="Trazado 897895" d="M90.972,48.132a3.008,3.008,0,0,1-1.112-.356,1.024,1.024,0,0,1-.508-.986c.09-.494.616-.753,1.027-1.043a.4.4,0,0,0,.137-.138.426.426,0,0,0,0-.3q-.1-.382-.211-.76a4.48,4.48,0,0,0-.836-1.745,1.737,1.737,0,0,0-1.746-.6,2.413,2.413,0,0,0-1.3,1.558s-.4,1.437,1.2,3.179a3.378,3.378,0,0,0,3.36,1.186" transform="translate(-86.37 -42.149)" fill="#f5cac3"/>
                </g>
              </g>
            </g>
            <g id="Grupo_1126970" data-name="Grupo 1126970" transform="translate(58.302 9.813)" style="mix-blend-mode: multiply;isolation: isolate">
              <g id="Grupo_1126969" data-name="Grupo 1126969">
                <g id="Grupo_1126968" data-name="Grupo 1126968" clip-path="url(#clip-path-5)">
                  <path id="Trazado_897896" data-name="Trazado 897896" d="M111.969,14.577a4.5,4.5,0,0,1-.65,4.232,15.581,15.581,0,0,0,.65-4.232" transform="translate(-94.684 -14.577)" fill="#752333"/>
                  <path id="Trazado_897897" data-name="Trazado 897897" d="M92.487,31.194a6.858,6.858,0,0,1-5.879-1.413,15.009,15.009,0,0,0,5.879,1.413" transform="translate(-86.608 -19.546)" fill="#752333"/>
                </g>
              </g>
            </g>
            <g id="Grupo_1126973" data-name="Grupo 1126973" transform="translate(40.166 3.759)" opacity="0.3" style="mix-blend-mode: multiply;isolation: isolate">
              <g id="Grupo_1126972" data-name="Grupo 1126972">
                <g id="Grupo_1126971" data-name="Grupo 1126971" clip-path="url(#clip-path-6)">
                  <path id="Trazado_897898" data-name="Trazado 897898" d="M61.533,19.579c-.741-2.092.464-4.351,2.1-5.662a13.057,13.057,0,0,1,6-2.144A46.775,46.775,0,0,0,81.869,8.439a50.5,50.5,0,0,1,5.964-2.318C92,4.8,97.007,5.834,99,10.08a7.9,7.9,0,0,1,.205,6.241,7.8,7.8,0,0,0-.375-6.157c-2-4.082-6.863-4.992-10.9-3.7A50.363,50.363,0,0,0,82.02,8.8a45.91,45.91,0,0,1-12.339,3.27,12.881,12.881,0,0,0-5.928,2c-1.647,1.242-2.891,3.423-2.219,5.513" transform="translate(-60.204 -5.584)" fill="#752333"/>
                  <path id="Trazado_897899" data-name="Trazado 897899" d="M66.056,15.362c2.988,1.08,6.29.934,9.414.755A28.987,28.987,0,0,0,84.5,13.356c2.17-.947,4.472-2.011,6.911-1.91,3.927.068,5.144,4,3.9,7.224-.254.7-.784,1.613-1.643,1.509.854.065,1.323-.847,1.546-1.542.668-2.138.557-5.051-1.608-6.267-2.9-1.5-6.193.175-8.951,1.33a27.638,27.638,0,0,1-9.161,2.67c-3.15.141-6.467.171-9.436-1.008" transform="translate(-61.755 -7.498)" fill="#752333"/>
                  <path id="Trazado_897900" data-name="Trazado 897900" d="M61.642,24.491a3.988,3.988,0,0,0,1.889.04,53.268,53.268,0,0,0,5.6-1.272c2.472-.658,4.908-1.408,7.393-2.072,2.477-.584,5.247-1,7.634.17,1.935.935,3.857,3.3,2.9,5.515a1.072,1.072,0,0,1-.742.572,1.046,1.046,0,0,0,.7-.594c.808-2.16-1.105-4.371-2.983-5.223-2.333-1.063-5-.662-7.412-.063-2.465.626-4.922,1.387-7.411,1.983a41.87,41.87,0,0,1-5.663,1.078,4.024,4.024,0,0,1-1.9-.134" transform="translate(-60.313 -10.496)" fill="#752333"/>
                  <path id="Trazado_897901" data-name="Trazado 897901" d="M61,26.374c-1.316,2.452-1.179,5.383-1,8.078A19.679,19.679,0,0,0,62.231,42.3c1.748,3.765,5.4,6.489,6.487,10.546a5.575,5.575,0,0,1-.49,4.052,5.509,5.509,0,0,0,.3-4c-.716-2.7-2.819-4.671-4.405-6.893A26.607,26.607,0,0,1,61.9,42.475a19.259,19.259,0,0,1-2.168-8c-.138-2.718-.156-5.69,1.269-8.1" transform="translate(-59.667 -12.379)" fill="#752333"/>
                  <path id="Trazado_897902" data-name="Trazado 897902" d="M61.6,26.374c-.438,4.077,2.676,7.393,4.907,10.473,1.528,2.193,3.533,3.912,5.222,5.979a14.927,14.927,0,0,1,3.3,9.268,2.316,2.316,0,0,1-.8,1.768,2.264,2.264,0,0,0,.7-1.772,15.711,15.711,0,0,0-3.48-9.039c-1.7-2.009-3.723-3.8-5.216-5.993-2.228-3.1-5.274-6.6-4.633-10.683" transform="translate(-60.27 -12.379)" fill="#752333"/>
                  <path id="Trazado_897903" data-name="Trazado 897903" d="M63.32,34.1c1.85,2.016,4.519,3,6.823,4.4,3.641,2.293,8.436,5.389,7.886,10.319.1-4.833-4.491-7.661-8.055-10.034-2.2-1.4-5.018-2.6-6.653-4.684" transform="translate(-60.861 -14.904)" fill="#752333"/>
                  <path id="Trazado_897904" data-name="Trazado 897904" d="M61.642,26.374a27.328,27.328,0,0,0,8.177,4.088c1.98.522,4.061.184,6.094.431,3.34.2,5.452,3.084,6.645,5.886A22.3,22.3,0,0,0,80.9,34.2c-2.953-4.219-7.007-2.414-11.164-3.457a25.421,25.421,0,0,1-8.092-4.373" transform="translate(-60.313 -12.379)" fill="#752333"/>
                </g>
              </g>
            </g>
            <g id="Grupo_1126976" data-name="Grupo 1126976" transform="translate(37.488 0.994)" opacity="0.3" style="mix-blend-mode: overlay;isolation: isolate">
              <g id="Grupo_1126975" data-name="Grupo 1126975">
                <g id="Grupo_1126974" data-name="Grupo 1126974" clip-path="url(#clip-path-7)">
                  <path id="Trazado_897905" data-name="Trazado 897905" d="M79.621,10.944a30.918,30.918,0,0,0,2.55-9.468,78.053,78.053,0,0,0-10.92,3.579,27.976,27.976,0,0,1-4.114,14.218,23.44,23.44,0,0,1-11.448,9.448,27.871,27.871,0,0,0,2.145,3.554,31.564,31.564,0,0,0,10.687-5.91,40.89,40.89,0,0,0,11.1-15.422" transform="translate(-55.689 -1.476)" fill="#fff8ed"/>
                </g>
              </g>
            </g>
            <rect id="Rectángulo_414103" data-name="Rectángulo 414103" width="57.254" height="41.966" transform="translate(9.623 92.944)" fill="#ffd494"/>
          </g>
        </g>
        <text id="ROPA" transform="translate(19.466 117.524)" fill="#425643" font-size="8" font-family="JosefinSans-Bold, Josefin Sans" font-weight="700"><tspan x="0" y="0" letter-spacing="-0.024em">R</tspan><tspan y="0">O</tspan><tspan y="0" letter-spacing="-0.074em">P</tspan><tspan y="0">A</tspan></text>
        <g id="Grupo_1126986" data-name="Grupo 1126986">
          <g id="Grupo_1126985" data-name="Grupo 1126985" clip-path="url(#clip-path)">
            <rect id="Rectángulo_414105" data-name="Rectángulo 414105" width="32.612" height="35.663" transform="translate(19.146 57.281)" fill="#ffe2b8"/>
            <path id="Trazado_897906" data-name="Trazado 897906" d="M48.434,96.391H15.822l8.495-11.3H56.929Z" transform="translate(-5.171 -27.81)" fill="#ffd494"/>
            <path id="Trazado_897907" data-name="Trazado 897907" d="M13.144,188.982c3.35-1.536,6.681-3.124,9.914-4.891l-.871-.946S4.2,190.574,1.744,191.46c-1.511.546-1.959,1.673-1.653,2.459,2.12-.6,4.223-1.266,6.286-2.044,2.3-.866,4.537-1.869,6.767-2.892" transform="translate(0 -59.857)" fill="#752333"/>
            <path id="Trazado_897908" data-name="Trazado 897908" d="M23.1,184.552c-3.233,1.766-6.564,3.354-9.914,4.891-2.23,1.023-4.472,2.026-6.767,2.892-2.063.778-4.166,1.441-6.286,2.044a1.4,1.4,0,0,0,1.38.848h23.5L27,188.785Z" transform="translate(-0.044 -60.316)" fill="#da726c"/>
            <path id="Trazado_897909" data-name="Trazado 897909" d="M21.6,195.623q-.181,1.593-.306,3.194H24.06q.115-1.64.2-3.28Z" transform="translate(-6.96 -63.906)" fill="#752333"/>
            <path id="Trazado_897910" data-name="Trazado 897910" d="M15.233,195.834l-.938,3.06h2.131l.634-3.12Z" transform="translate(-4.672 -63.984)" fill="#752333"/>
            <path id="Trazado_897911" data-name="Trazado 897911" d="M18.094,195.738l-.634,3.12h2.583q.124-1.6.306-3.194Z" transform="translate(-5.706 -63.948)" fill="#581a28"/>
            <path id="Trazado_897912" data-name="Trazado 897912" d="M25.606,195.494q-.089,1.641-.2,3.28h2.431q.181-1.686.409-3.367Z" transform="translate(-8.302 -63.864)" fill="#581a28"/>
            <path id="Trazado_897913" data-name="Trazado 897913" d="M31.214,195.322l-1.791.059q-.229,1.68-.409,3.366h2.2Z" transform="translate(-9.483 -63.836)" fill="#752333"/>
            <path id="Trazado_897914" data-name="Trazado 897914" d="M93.286,140.321A63.368,63.368,0,0,1,108,158.374c5.478,10.634,4.028,22.4,4.028,22.4H37.1L40.483,167.4H72.224a17.821,17.821,0,0,1-10.955-6.851c-4.189-5.878,32.017-20.225,32.017-20.225" transform="translate(-12.125 -45.861)" fill="#a5d6a7"/>
            <path id="Trazado_897915" data-name="Trazado 897915" d="M109.061,180.509c-6.38.239-13.406.224-19.784-.048,6.38-.242,13.4-.222,19.784.048" transform="translate(-29.178 -58.924)" fill="#752333"/>
            <path id="Trazado_897916" data-name="Trazado 897916" d="M86.22,163.291c-1.962-2.928-3.352-5.251-4.3-6.95-6.158,3.532-10.722,7.137-9.08,9.441a17.821,17.821,0,0,0,10.954,6.852H99.606s-8.828-2.541-13.385-9.342" transform="translate(-23.696 -51.096)" fill="#84ab86"/>
            <path id="Trazado_897917" data-name="Trazado 897917" d="M65.061,143.855A55.89,55.89,0,0,1,58.688,108.2C62.026,88.17,64.3,79.521,69.309,75.88s12.29-3.653,17.9,5.456A149.792,149.792,0,0,1,94.8,94.694l5.313,23.822s-14.354,11.835-21.062,17.449a45.629,45.629,0,0,1-13.991,7.89" transform="translate(-18.953 -24.055)" fill="#ffe060"/>
            <path id="Trazado_897918" data-name="Trazado 897918" d="M108.316,104.934l7.807,12.39,31.159,12.4s7.54-1.974,13.387-.565c7.449,1.8,7.351,5.255,7.351,5.255H146.762l-35.954-6.67L99.345,115.552s3.231-5.731,5.628-8.232,3.344-2.386,3.344-2.386" transform="translate(-32.469 -34.295)" fill="#f5cac3"/>
            <path id="Trazado_897919" data-name="Trazado 897919" d="M91.558,115.879c-.642,1.516-1.869,4.351-2.539,5.853-4.608-5.175-9.13-10.425-13.5-15.8,4.648,5.041,9.146,10.215,13.566,15.455l-.234.034c.659-1.388,2.02-4.166,2.708-5.54" transform="translate(-24.681 -34.621)" fill="#4a1720"/>
            <path id="Trazado_897920" data-name="Trazado 897920" d="M183.567,146.162c1.605-.145,3.213-.177,4.822-.18,1.479-.019,3.729.16,4.148,1.917-.7-1.567-2.667-1.526-4.149-1.531-1.61-.011-3.217-.052-4.821-.205" transform="translate(-59.994 -47.71)" fill="#752333"/>
            <path id="Trazado_897921" data-name="Trazado 897921" d="M184.148,143.744a32.872,32.872,0,0,1,7.191.339,2.9,2.9,0,0,1,2.706,3,4.234,4.234,0,0,0-.51-1.319c-.681-1.374-2.343-1.313-3.674-1.487-1.9-.218-3.809-.32-5.714-.531" transform="translate(-60.184 -46.961)" fill="#752333"/>
            <path id="Trazado_897922" data-name="Trazado 897922" d="M185.3,141.306a27.277,27.277,0,0,1,6.531.728,27.245,27.245,0,0,1-6.531-.728" transform="translate(-60.561 -46.182)" fill="#752333"/>
            <g id="Grupo_1126981" data-name="Grupo 1126981" transform="translate(63.167 41.266)" opacity="0.55" style="mix-blend-mode: multiply;isolation: isolate">
              <g id="Grupo_1126980" data-name="Grupo 1126980">
                <g id="Grupo_1126979" data-name="Grupo 1126979" clip-path="url(#clip-path-9)">
                  <path id="Trazado_897923" data-name="Trazado 897923" d="M102.4,63.313A28.639,28.639,0,0,1,93.836,61.3c.93,3,1.905,6.079,3.75,8.6a11.533,11.533,0,0,1,.737-3.81c.924-1.279,9.024-1.421,11.084-3.552a2.309,2.309,0,0,0,.352-.492,15.84,15.84,0,0,1-7.365,1.268" transform="translate(-93.835 -61.301)" fill="#f5cac3"/>
                </g>
              </g>
            </g>
            <g id="Grupo_1126984" data-name="Grupo 1126984" transform="translate(77.502 81.885)" style="mix-blend-mode: multiply;isolation: isolate">
              <g id="Grupo_1126983" data-name="Grupo 1126983">
                <g id="Grupo_1126982" data-name="Grupo 1126982" clip-path="url(#clip-path-10)">
                  <path id="Trazado_897924" data-name="Trazado 897924" d="M121.282,122.784a8.71,8.71,0,0,0-3.388,0,6.964,6.964,0,0,0-2.765,1.1,5.773,5.773,0,0,1,3.076-2.135,6.689,6.689,0,0,1,2.528,0Z" transform="translate(-115.129 -121.64)" fill="#f5cac3"/>
                </g>
              </g>
            </g>
            <path id="Trazado_897925" data-name="Trazado 897925" d="M75.517,105.929l13.46,15.547,2.581-5.6,1.379,1.467L88.8,125.3Z" transform="translate(-24.681 -34.62)" fill="#e89c4f"/>
            <rect id="Rectángulo_414108" data-name="Rectángulo 414108" width="63.978" height="34.79" transform="translate(102.979 100.12)" fill="#ffd494"/>
            <rect id="Rectángulo_414109" data-name="Rectángulo 414109" width="14.159" height="34.79" transform="translate(152.8 100.12)" fill="#ffe2b8"/>
          </g>
        </g>
        <text id="DONA" transform="translate(109.235 116.772)" fill="#425643" font-size="8" font-family="JosefinSans-Bold, Josefin Sans" font-weight="700"><tspan x="0" y="0">DONA</tspan></text>
        <text id="CIONES" transform="translate(109.235 125.409)" fill="#425643" font-size="8" font-family="JosefinSans-Bold, Josefin Sans" font-weight="700"><tspan x="0" y="0">CIONES</tspan></text>
      </g>
    </g>
  </g>
</svg>
