<svg xmlns="http://www.w3.org/2000/svg" xmlns:xlink="http://www.w3.org/1999/xlink" width="400" height="156" viewBox="0 0 400 156">
  <defs>
    <clipPath id="clip-path">
      <rect id="Rectángulo_411758" data-name="Rectángulo 411758" width="261" height="147.65" fill="none"/>
    </clipPath>
    <clipPath id="clip-path-3">
      <rect id="Rectángulo_411752" data-name="Rectángulo 411752" width="50.305" height="115.094" fill="none"/>
    </clipPath>
    <clipPath id="clip-path-5">
      <rect id="Rectángulo_411753" data-name="Rectángulo 411753" width="50.304" height="57.482" fill="none"/>
    </clipPath>
    <clipPath id="clip-path-6">
      <rect id="Rectángulo_411754" data-name="Rectángulo 411754" width="50.304" height="68.998" fill="none"/>
    </clipPath>
    <clipPath id="clip-path-7">
      <rect id="Rectángulo_411755" data-name="Rectángulo 411755" width="40.694" height="29.738" fill="none"/>
    </clipPath>
  </defs>
  <g id="Grupo_1126573" data-name="Grupo 1126573" transform="translate(-495 -817)">
    <rect id="Rectángulo_411762" data-name="Rectángulo 411762" width="400" height="156" rx="13" transform="translate(495 817)" fill="#dee4f0"/>
    <g id="Grupo_1121673" data-name="Grupo 1121673" transform="translate(565 821)">
      <g id="Grupo_1121672" data-name="Grupo 1121672" clip-path="url(#clip-path)">
        <g id="Grupo_1121658" data-name="Grupo 1121658" transform="translate(0 -0.001)">
          <g id="Grupo_1121657" data-name="Grupo 1121657" clip-path="url(#clip-path)">
            <path id="Trazado_890558" data-name="Trazado 890558" d="M20.1,30.737a.283.283,0,0,1-.042.1h-.006v.006l-.023.03c-.528.557-3.915.99-7.986.99-3.968,0-7.3-.413-7.944-.947a.611.611,0,0,1-.066-.078.188.188,0,0,1-.042-.1c-.055-.638,3.55-1.159,8.052-1.159s8.107.521,8.058,1.159" transform="translate(4.462 33.111)" fill="#4d7fb3"/>
            <path id="Trazado_890559" data-name="Trazado 890559" d="M15.813,52.947l-.3-.013c.011-.25.918-25.126-14.035-31.355l.117-.28c15.148,6.31,14.232,31.4,14.221,31.647" transform="translate(1.651 23.845)" fill="#a3a01a"/>
            <path id="Trazado_890560" data-name="Trazado 890560" d="M7.9,58.347l-.3-.011a123.264,123.264,0,0,1,7.98-38.678l.286.106A122.976,122.976,0,0,0,7.9,58.347" transform="translate(8.5 22.008)" fill="#a3a01a"/>
            <path id="Trazado_890561" data-name="Trazado 890561" d="M11.694,62.134l-.3-.006c.693-28.2-3.222-51.29-6.221-54.8l.231-.2c3.508,4.105,6.945,28.5,6.293,55" transform="translate(5.787 7.982)" fill="#a3a01a"/>
            <path id="Trazado_890562" data-name="Trazado 890562" d="M14.077,53.61l-.3-.011C14.414,33.183,3.212,15.411,3.1,15.233l.256-.163c.112.178,11.362,18.026,10.72,38.54" transform="translate(3.47 16.871)" fill="#a3a01a"/>
            <path id="Trazado_890563" data-name="Trazado 890563" d="M8.2,63.467A165.861,165.861,0,0,1,14.985,11.9l.288.1a165.539,165.539,0,0,0-6.767,51.46Z" transform="translate(9.094 13.323)" fill="#a3a01a"/>
            <path id="Trazado_890564" data-name="Trazado 890564" d="M47.444,2.327A2.328,2.328,0,1,1,45.115,0a2.327,2.327,0,0,1,2.329,2.327" transform="translate(47.898 0.001)" fill="#ffe1a3"/>
            <path id="Trazado_890565" data-name="Trazado 890565" d="M40.584,2.327A2.327,2.327,0,1,1,38.257,0a2.327,2.327,0,0,1,2.327,2.327" transform="translate(40.221 0.001)" fill="#ffe1a3"/>
            <path id="Trazado_890566" data-name="Trazado 890566" d="M33.725,2.327A2.327,2.327,0,1,1,31.4,0a2.327,2.327,0,0,1,2.327,2.327" transform="translate(32.543 0.001)" fill="#ffe1a3"/>
            <path id="Trazado_890567" data-name="Trazado 890567" d="M54.3,2.327A2.327,2.327,0,1,1,51.974,0,2.327,2.327,0,0,1,54.3,2.327" transform="translate(55.577 0.001)" fill="#ffe1a3"/>
            <path id="Trazado_890568" data-name="Trazado 890568" d="M27.174,10.592a2.327,2.327,0,1,1-2.327,2.327,2.327,2.327,0,0,1,2.327-2.327" transform="translate(27.815 11.858)" fill="#ffe1a3"/>
            <path id="Trazado_890569" data-name="Trazado 890569" d="M27.174,10.1a2.327,2.327,0,1,1-2.327,2.327A2.327,2.327,0,0,1,27.174,10.1" transform="translate(27.815 11.304)" fill="#ffe1a3"/>
            <path id="Trazado_890570" data-name="Trazado 890570" d="M27.174,16.606a2.327,2.327,0,1,1-2.327,2.327,2.327,2.327,0,0,1,2.327-2.327" transform="translate(27.815 18.59)" fill="#ffe1a3"/>
            <path id="Trazado_890571" data-name="Trazado 890571" d="M27.174,4.083A2.327,2.327,0,1,1,24.847,6.41a2.327,2.327,0,0,1,2.327-2.327" transform="translate(27.815 4.571)" fill="#ffe1a3"/>
            <path id="Trazado_890572" data-name="Trazado 890572" d="M27.174,29.623a2.327,2.327,0,1,1-2.327,2.327,2.327,2.327,0,0,1,2.327-2.327" transform="translate(27.815 33.162)" fill="#ffe1a3"/>
            <path id="Trazado_890573" data-name="Trazado 890573" d="M27.174,36.132a2.327,2.327,0,1,1-2.327,2.327,2.327,2.327,0,0,1,2.327-2.327" transform="translate(27.815 40.448)" fill="#ffe1a3"/>
            <path id="Trazado_890574" data-name="Trazado 890574" d="M27.174,42.641a2.327,2.327,0,1,1-2.327,2.327,2.327,2.327,0,0,1,2.327-2.327" transform="translate(27.815 47.734)" fill="#ffe1a3"/>
            <path id="Trazado_890575" data-name="Trazado 890575" d="M27.174,49.15a2.327,2.327,0,1,1-2.327,2.327,2.327,2.327,0,0,1,2.327-2.327" transform="translate(27.815 55.021)" fill="#ffe1a3"/>
            <path id="Trazado_890576" data-name="Trazado 890576" d="M27.174,55.659a2.327,2.327,0,1,1-2.327,2.327,2.327,2.327,0,0,1,2.327-2.327" transform="translate(27.815 62.307)" fill="#ffe1a3"/>
            <path id="Trazado_890577" data-name="Trazado 890577" d="M27.174,23.115a2.327,2.327,0,1,1-2.327,2.327,2.327,2.327,0,0,1,2.327-2.327" transform="translate(27.815 25.876)" fill="#ffe1a3"/>
            <path id="Trazado_890578" data-name="Trazado 890578" d="M56.2,10.592a2.327,2.327,0,1,1-2.327,2.327A2.327,2.327,0,0,1,56.2,10.592" transform="translate(60.305 11.858)" fill="#ffe1a3"/>
            <path id="Trazado_890579" data-name="Trazado 890579" d="M56.2,10.1a2.327,2.327,0,1,1-2.327,2.327A2.327,2.327,0,0,1,56.2,10.1" transform="translate(60.305 11.304)" fill="#ffe1a3"/>
            <path id="Trazado_890580" data-name="Trazado 890580" d="M56.2,16.606a2.327,2.327,0,1,1-2.327,2.327A2.327,2.327,0,0,1,56.2,16.606" transform="translate(60.305 18.59)" fill="#ffe1a3"/>
            <path id="Trazado_890581" data-name="Trazado 890581" d="M56.2,4.083A2.327,2.327,0,1,1,53.871,6.41,2.327,2.327,0,0,1,56.2,4.083" transform="translate(60.305 4.571)" fill="#ffe1a3"/>
            <path id="Trazado_890582" data-name="Trazado 890582" d="M56.2,29.623a2.327,2.327,0,1,1-2.327,2.327A2.327,2.327,0,0,1,56.2,29.623" transform="translate(60.305 33.162)" fill="#ffe1a3"/>
            <path id="Trazado_890583" data-name="Trazado 890583" d="M56.2,36.132a2.327,2.327,0,1,1-2.327,2.327A2.327,2.327,0,0,1,56.2,36.132" transform="translate(60.305 40.448)" fill="#ffe1a3"/>
            <path id="Trazado_890584" data-name="Trazado 890584" d="M56.2,42.641a2.327,2.327,0,1,1-2.327,2.327A2.327,2.327,0,0,1,56.2,42.641" transform="translate(60.305 47.734)" fill="#ffe1a3"/>
            <path id="Trazado_890585" data-name="Trazado 890585" d="M56.2,49.15a2.327,2.327,0,1,1-2.327,2.327A2.327,2.327,0,0,1,56.2,49.15" transform="translate(60.305 55.021)" fill="#ffe1a3"/>
            <path id="Trazado_890586" data-name="Trazado 890586" d="M56.2,55.659a2.327,2.327,0,1,1-2.327,2.327A2.327,2.327,0,0,1,56.2,55.659" transform="translate(60.305 62.307)" fill="#ffe1a3"/>
            <path id="Trazado_890587" data-name="Trazado 890587" d="M56.2,23.115a2.327,2.327,0,1,1-2.327,2.327A2.327,2.327,0,0,1,56.2,23.115" transform="translate(60.305 25.876)" fill="#ffe1a3"/>
            <rect id="Rectángulo_411749" data-name="Rectángulo 411749" width="56.86" height="121.001" transform="translate(57.316 4.656)" fill="#c4884e"/>
            <rect id="Rectángulo_411750" data-name="Rectángulo 411750" width="50.303" height="115.096" transform="translate(60.597 7.611)" fill="#f0f8ff"/>
          </g>
        </g>
        <g id="Grupo_1121660" data-name="Grupo 1121660" transform="translate(60.595 7.612)">
          <g id="Grupo_1121659" data-name="Grupo 1121659" clip-path="url(#clip-path-3)">
            <path id="Trazado_890588" data-name="Trazado 890588" d="M39.837,18.62l-2.8-2.781c-.246-.265-.589.256-.371.54l2.268,2.9c.473.617,1.428-.085.9-.661" transform="translate(-19.622 10.037)" fill="#fcbba4"/>
            <path id="Trazado_890589" data-name="Trazado 890589" d="M24.5,80.2l13.547.343c.273-.335-.006-.922-.765-1.079a52.655,52.655,0,0,1-6.244-1.727,2.033,2.033,0,0,1-.971-2.3l1.785-8.7.68-3.359,2.543-12.458L25.71,49.851l-.5,12.043-.176,4.413-.409,9.824-.456,1.359c-.394.9-.678,2.208.326,2.709" transform="translate(-33.944 48.193)" fill="#fcbba4"/>
            <path id="Trazado_890590" data-name="Trazado 890590" d="M24.386,59.946c.564.11,1.159.216,1.772.3a21.109,21.109,0,0,0,5.04.127l.685-3.359a20.775,20.775,0,0,0-5.07-1.28c-.776-.1-1.534-.174-2.251-.2Z" transform="translate(-33.296 54.553)" fill="#46342b"/>
            <path id="Trazado_890591" data-name="Trazado 890591" d="M38.628,56.547c4.614,1.607,8.715,1.895,9.15.651a.392.392,0,0,0,.028-.127c.17-1.261-3.143-3.467-7.592-5-4.529-1.566-8.56-1.869-9.1-.7l-.019.051c-.447,1.234,2.925,3.529,7.53,5.125" transform="translate(-25.827 49.095)" fill="#865549"/>
            <path id="Trazado_890592" data-name="Trazado 890592" d="M33.528,58.472a30.112,30.112,0,0,1,3.518.99,28.644,28.644,0,0,1,3.673,1.545L47.2,48.744l-8.571-3.792Z" transform="translate(-23.062 42.708)" fill="#46342b"/>
            <path id="Trazado_890593" data-name="Trazado 890593" d="M29.611,68.174l2.921,9.037a.942.942,0,0,0,.871.632l6.6.167c.5-.138.047-1-.791-1.151,0,0-2.719-.415-2.959-1.412l-.312-1.475a5.681,5.681,0,0,1,.466-3.533l6.71-12.7,2.041-3.872a28.505,28.505,0,0,0-3.675-1.545,30.084,30.084,0,0,0-3.516-.99l-1.522,4.04L32.8,65.04a1.716,1.716,0,0,1-1.026,1.022c-.324.117-2.581.733-2.164,2.113" transform="translate(-27.504 49.849)" fill="#fcbba4"/>
            <path id="Trazado_890594" data-name="Trazado 890594" d="M27.573,23.755l.083.326.638,2.408.657,2.5L42.292,28.7l1.117-5.3Z" transform="translate(-29.729 18.582)" fill="#fcbba4"/>
            <path id="Trazado_890595" data-name="Trazado 890595" d="M27.612,23.842l.638,2.41a41.167,41.167,0,0,0,4.79.375c4.743.112,8.613-.468,8.632-1.293s-3.811-1.594-8.546-1.708a39.741,39.741,0,0,0-5.515.216" transform="translate(-29.685 18.82)" fill="#382424"/>
            <path id="Trazado_890596" data-name="Trazado 890596" d="M26.473,36.613l20.156-1.007c.335-2.825-1.371-6.755-2.918-9.877a31.409,31.409,0,0,1-6.678.519c-3.472.019-6.352-.22-6.935-.555l-.04,0c-2.092,3.58-4.091,6.958-3.584,10.921" transform="translate(-31.049 21.148)" fill="#cb816f"/>
            <path id="Trazado_890597" data-name="Trazado 890597" d="M35.954,26.748l.006.013v0a.193.193,0,0,0,.072.108c.428.3,2.1-1.176,3.722-3.285a14.215,14.215,0,0,0,2.179-3.626,1.354,1.354,0,0,0,.074-.365c-.087-.083-.2-.2-.354-.358-.646.148-2.062,1.481-3.453,3.279-1.477,1.916-2.416,3.7-2.247,4.237" transform="translate(-20.368 13.917)" fill="#382424"/>
            <path id="Trazado_890598" data-name="Trazado 890598" d="M38.633,19.243c.153.155.267.273.352.356a.352.352,0,0,0-.1-.339.292.292,0,0,0-.254-.017" transform="translate(-17.348 13.906)" fill="#d7979f"/>
            <path id="Trazado_890599" data-name="Trazado 890599" d="M32.978,22.7c1.651,1.331,3.077,2.607,4.449,3.879q.766.7,1.522,1.409c.316.295.64.589.962.886,1.448,1.331,2.946,2.677,4.707,4.086,1.371,1.094,4.622,2.743,6.416,1.617,1.6-1.013,1.59-3.092,1.043-4.656a7.486,7.486,0,0,0-.483-1.1L45.8,18.865A5.372,5.372,0,0,0,43.834,17.1l-1.66-.623-.439,1.329-.367,1.1-2.24-2.039c-.042-.042-.091-.083-.134-.119l-1.028,1.013Z" transform="translate(-23.678 10.837)" fill="#fcbba4"/>
            <path id="Trazado_890600" data-name="Trazado 890600" d="M26.017,21.093c.432,2.128.723,4.44,1.019,6.825.042.382.091.763.14,1.144.189,1.56.4,3.139.649,4.705l0,.119c-.006.731,4.095,1.344,9.171,1.365s9.184-.547,9.181-1.28c0,0,.218-1.749.524-4.091.036-.3.074-.606.112-.928.356-2.768.778-6.1,1.072-8.4a3.3,3.3,0,0,0-.892-2.715c-.042-.04-.091-.083-.134-.119a1.689,1.689,0,0,0-.195-.155,6.09,6.09,0,0,0-.657-.4,13.638,13.638,0,0,0-4.9-1.384,27.607,27.607,0,0,0-3.732-.157c-1.128.025-2.2.108-3.207.229a18.39,18.39,0,0,0-6.524,1.77,4.688,4.688,0,0,0-.591.39,2.046,2.046,0,0,0-.551.593,3.59,3.59,0,0,0-.477,2.488" transform="translate(-31.538 9.868)" fill="#4e3030"/>
            <path id="Trazado_890601" data-name="Trazado 890601" d="M31.556,10.888a2.2,2.2,0,0,0,2.865.583A1.9,1.9,0,0,0,35.65,9.008a2.2,2.2,0,0,0-2.861-.581,1.9,1.9,0,0,0-1.234,2.461" transform="translate(-25.445 1.524)" fill="#46342b"/>
            <path id="Trazado_890602" data-name="Trazado 890602" d="M33.746,24.888A3.452,3.452,0,0,0,38.2,26.4a3.048,3.048,0,0,0,1.049-4.336,3.453,3.453,0,0,0-4.442-1.5,3.048,3.048,0,0,0-1.062,4.328" transform="translate(-23.352 15.041)" fill="#4e3030"/>
            <path id="Trazado_890603" data-name="Trazado 890603" d="M30.412,12.923l-.22,7.528,4.968.117.2-7.528Z" transform="translate(-26.797 6.855)" fill="#fcbba4"/>
            <path id="Trazado_890604" data-name="Trazado 890604" d="M33.343,15.716a1.107,1.107,0,0,0,.121.049l.045-1.719c-.818-.242-1.515-.2-1.679.127-.2.407.475,1.1,1.513,1.543" transform="translate(-25.003 7.938)" fill="#382424"/>
            <path id="Trazado_890605" data-name="Trazado 890605" d="M25.574,23.265c1.763,1.488,3.491,2.386,3.845,2.013s-.784-1.893-2.554-3.381-3.478-2.374-3.832-2,.774,1.884,2.541,3.37" transform="translate(-34.887 14.565)" fill="#382424"/>
            <path id="Trazado_890606" data-name="Trazado 890606" d="M23.4,36.065c4.722,1.971,10.127,3.73,12.272,4.563L37.648,37.2l-8.753-5.761L31.83,28.6l.263-.259,1.587-1.53.731-.708,2.524-2.444,1.92-1.859-4.027-3.817L33.689,16.9a83.3,83.3,0,0,0-7.363,6.577c-2.885,2.863-5.585,5.915-6.134,7.649-.591,1.867.35,3.751,3.209,4.938" transform="translate(-38.18 11.307)" fill="#fcbba4"/>
            <path id="Trazado_890607" data-name="Trazado 890607" d="M24.7,21.183a7.612,7.612,0,0,1,2.27,3.934l.265-.259,1.587-1.532.731-.708L28.7,20.03s-5.744-.235-4,1.153" transform="translate(-33.318 14.793)" fill="#382424"/>
            <path id="Trazado_890608" data-name="Trazado 890608" d="M23,23.525v.006c.354-.371,2.073.521,3.832,2s2.91,3,2.554,3.38L30.489,28,36.411,23.6l-.557-2.787-3.4-3.258-1.5-.988a4.687,4.687,0,0,0-.591.388A82.923,82.923,0,0,0,23,23.525" transform="translate(-34.851 10.929)" fill="#4e3030"/>
            <path id="Trazado_890609" data-name="Trazado 890609" d="M29.827,15.852a11.571,11.571,0,0,0,.343,1.484c1.024,3.374,3.325,5.727,5.138,5.235,1.774-.473,2.41-3.5,1.458-6.791a27.607,27.607,0,0,0-3.732-.157c-1.128.025-2.2.108-3.207.229" transform="translate(-27.205 9.868)" fill="#fcbba4"/>
            <path id="Trazado_890610" data-name="Trazado 890610" d="M30.034,17.108c2,3.44,7.007,5.068,9.323,3.889s2.408-5.5.392-8.912-5.224-4.366-7.658-3.48c-2.8,1.019-4.05,5.078-2.058,8.5" transform="translate(-28.063 1.673)" fill="#fcbba4"/>
            <path id="Trazado_890611" data-name="Trazado 890611" d="M34.2,10.651l1.289,1.015a.536.536,0,0,1-.208.947l-.941.265Z" transform="translate(-22.305 4.311)" fill="#fcbba4"/>
            <path id="Trazado_890612" data-name="Trazado 890612" d="M29.371,18.559c1.365.295,2.66-.988,3.325-2.959a1.464,1.464,0,0,0,.047-.157c.848-.134,1.412-1.159,2.264-1.685,2.3-1.407,4.264-3.34,3.2-4.673-.854-1.066-3.976-1.944-6.263-.146-.276.218-.532.432-.752.646A7.277,7.277,0,0,0,29.2,12.438a3.357,3.357,0,0,1-.776,1.3,3.277,3.277,0,0,0-.64.92,2.718,2.718,0,0,0,1.592,3.9" transform="translate(-29.833 1.237)" fill="#46342b"/>
            <path id="Trazado_890613" data-name="Trazado 890613" d="M27.621,13.768a4.816,4.816,0,0,0,2.5-1.818c.928-1.2,1.267-2.514.913-3.251a7.273,7.273,0,0,0-1.994,2.853,3.329,3.329,0,0,1-.774,1.295,3.251,3.251,0,0,0-.642.922" transform="translate(-29.675 2.124)" fill="#382424"/>
            <path id="Trazado_890614" data-name="Trazado 890614" d="M28.2,15.739c-.057,1.746,1.916,2.8,3.6,2.736a3.214,3.214,0,0,0,2.723-1.284,2.36,2.36,0,0,0,.2-1.581c-.087-.659-.25-1.308-.354-1.965a3.1,3.1,0,0,1,1.183-3.126l-3.989-.581-1.4,3.478A2.7,2.7,0,0,0,28.2,15.739" transform="translate(-29.025 3.513)" fill="#46342b"/>
            <path id="Trazado_890615" data-name="Trazado 890615" d="M31.135,13.479l.019-.011a1.161,1.161,0,0,0,.083-.1.854.854,0,0,1-.1.112" transform="translate(-25.741 7.351)" fill="#554544"/>
            <path id="Trazado_890616" data-name="Trazado 890616" d="M30.4,11.778c-.377.629.1,1.545,1.062,2.045a1.877,1.877,0,0,0,2.433-.239c.375-.629-.1-1.545-1.066-2.043a1.877,1.877,0,0,0-2.429.237" transform="translate(-26.707 4.955)" fill="#fcbba4"/>
            <path id="Trazado_890617" data-name="Trazado 890617" d="M37.375,29.978c-.17-.532.769-2.321,2.247-4.237,1.39-1.8,2.806-3.13,3.453-3.279a82.78,82.78,0,0,0-6.161-5.714,5.082,5.082,0,0,0-.657-.4l-.176,1.573-1.414,8.944Z" transform="translate(-21.788 10.686)" fill="#4e3030"/>
            <path id="Trazado_890618" data-name="Trazado 890618" d="M31.369,13.089a.058.058,0,0,1-.034-.008,1.308,1.308,0,0,1-.678-.742.614.614,0,0,1,.057-.5,1.118,1.118,0,0,1,1.45-.159.076.076,0,0,1,.032.1.079.079,0,0,1-.1.032c-.5-.259-1.06-.212-1.25.1a.463.463,0,0,0-.036.381,1.139,1.139,0,0,0,.6.649.075.075,0,0,1-.032.144" transform="translate(-26.308 5.257)" fill="#533e35"/>
            <path id="Trazado_890619" data-name="Trazado 890619" d="M37.482,25.1l-.03,0a.152.152,0,0,1-.119-.18c.46-2.287-2.062-4.6-2.088-4.625a.151.151,0,0,1-.013-.214.154.154,0,0,1,.216-.011c.108.1,2.675,2.452,2.181,4.911a.152.152,0,0,1-.148.121" transform="translate(-21.196 14.808)" fill="#382424"/>
            <path id="Trazado_890620" data-name="Trazado 890620" d="M33.331,25.318l-.032,0a.153.153,0,0,1-.117-.18c.475-2.293-2.037-4.6-2.062-4.627a.152.152,0,0,1,.206-.225c.108.1,2.662,2.452,2.153,4.913a.152.152,0,0,1-.148.121" transform="translate(-25.812 15.051)" fill="#382424"/>
            <path id="Trazado_890621" data-name="Trazado 890621" d="M38.453,19.577a.3.3,0,0,1-.3-.3l-.04-1.66a1.078,1.078,0,0,0-.337-.769.974.974,0,0,0-.714-.269.3.3,0,0,1-.316-.29.3.3,0,0,1,.29-.316,1.583,1.583,0,0,1,1.155.432,1.673,1.673,0,0,1,.528,1.2l.04,1.66a.3.3,0,0,1-.295.312h-.008" transform="translate(-19.465 10.271)" fill="#e0edfb"/>
            <path id="Trazado_890622" data-name="Trazado 890622" d="M36.528,22.453a.3.3,0,0,1-.3-.3l-.1-4.428a1.7,1.7,0,0,1,1.594-1.753.3.3,0,1,1,.025.606,1.092,1.092,0,0,0-1.013,1.134l.1,4.427a.3.3,0,0,1-.3.309h-.006" transform="translate(-20.153 10.272)" fill="#e0edfb"/>
            <path id="Trazado_890623" data-name="Trazado 890623" d="M29.45,26.3a6.652,6.652,0,0,1,1.6,1.166,1.356,1.356,0,0,1,.157,1.38,3.1,3.1,0,0,1-2.181,2.013,3.65,3.65,0,0,1-.983-.008,1.445,1.445,0,0,1-1.092-2.16l0,0s1.657-2.817,2.492-2.389" transform="translate(-30.641 21.774)" fill="#fcbba4"/>
            <path id="Trazado_890624" data-name="Trazado 890624" d="M29.927,29.179l-2.166.733a.491.491,0,0,1-.466-.015l-.977-.636a.416.416,0,0,1-.2-.551c.17-.307.305-.952.8-.735.449.223.089.748-.006,1.07l-.2-.551,1.092.418-.466-.017,2.037-1.043a.721.721,0,1,1,.56,1.327" transform="translate(-31.404 23.473)" fill="#886c61"/>
            <path id="Trazado_890625" data-name="Trazado 890625" d="M30.017,28.734l-2.164.733a.485.485,0,0,1-.466-.017l-.977-.634-.057-.038c-.409-.265,0-.752.117-1.06a.4.4,0,0,1,.74.314L27,28.6l-.2-.551,1.089.415-.464-.017,2.035-1.041a.721.721,0,1,1,.56,1.327" transform="translate(-31.295 22.975)" fill="#886c61"/>
            <path id="Trazado_890626" data-name="Trazado 890626" d="M21.585,84.859H21.6c-.233,1.308,3.455,3,8.245,3.779a20.422,20.422,0,0,0,7.592.074c.88-.229,1.424-.579,1.5-1.034a.25.25,0,0,0,.008-.064h.019a80.14,80.14,0,0,0,2.177-13.439c.545-5.163,1.149-12.335,1.869-22.71.439-6.295.882-14.83,1.331-21L31.93,29.434c-.969,7.348-1.848,16.455-3.489,23.85-2.874,12.907-6.036,25.91-6.856,31.575" transform="translate(-36.432 25.337)" fill="#cb816f"/>
            <path id="Trazado_890627" data-name="Trazado 890627" d="M42.281,59.682s-4.283,5.282-10.2,17.5h.006c.536-1.174,4.567-.871,9.1.7,4.449,1.537,7.761,3.743,7.592,5C50.848,74.052,55.1,61.2,54.006,56.2,52.633,49.9,41.247,27.6,41.247,27.6L30.19,34.83Z" transform="translate(-26.799 23.28)" fill="#cb816f"/>
            <path id="Trazado_890628" data-name="Trazado 890628" d="M33.215,11.188a.542.542,0,0,0,.649.307.467.467,0,0,0,.127-.666.54.54,0,0,0-.649-.305.465.465,0,0,0-.127.663" transform="translate(-23.502 4.134)" fill="#382424"/>
            <path id="Trazado_890629" data-name="Trazado 890629" d="M34.9,12.995a1.542,1.542,0,0,1-.191-.013,2.191,2.191,0,0,1-1.291-.882l-.072-.083a.077.077,0,0,1,.008-.108.076.076,0,0,1,.106.006c.023.025.047.055.074.087a2.058,2.058,0,0,0,1.193.829c.551.072.71-.21.716-.22a.077.077,0,0,1,.1-.03.076.076,0,0,1,.032.1.737.737,0,0,1-.68.312" transform="translate(-23.288 5.699)" fill="#533e35"/>
            <path id="Trazado_890630" data-name="Trazado 890630" d="M34.156,10.071a15.223,15.223,0,0,1-1.409,1.062.156.156,0,0,1-.269-.1,1.634,1.634,0,0,1,1.484-1.422.267.267,0,0,1,.195.464" transform="translate(-24.239 3.14)" fill="#382424"/>
            <path id="Trazado_890631" data-name="Trazado 890631" d="M32.8,71.967c1.028-.254,2.158-.5,3.357-.716-.059-.532-.125-1.053-.191-1.575-.439-4.285-.7-8.588-.786-12.869-.148-4.3.269-8.56-.008-12.793A93.667,93.667,0,0,0,33.584,31.5a93.1,93.1,0,0,1,.53,12.522c-.083,4.243-.867,8.454-1.068,12.729A150.169,150.169,0,0,0,32.8,71.967" transform="translate(-23.985 27.653)" fill="#74732c"/>
            <path id="Trazado_890632" data-name="Trazado 890632" d="M40.893,17.887l-2.478-1.759a1.024,1.024,0,0,0-.958-.057l-1.414.572c-.35.14.14.528.5.424l1.172-.331c.155-.042.138-.04.206.011.271.246,1.893,1.7,2.2,1.98.608.524,1.412-.354.763-.839" transform="translate(-20.381 10.275)" fill="#fcbba4"/>
            <path id="Trazado_890633" data-name="Trazado 890633" d="M40.876,17.807l-2.382-1.072c-.2-.087-.7-.318-.89-.4a1.276,1.276,0,0,0-.46-.148.954.954,0,0,0-.8.458l-.53.7c-.25.265.282.411.551.165.161-.14.56-.5.716-.634l0,.015c0,.006-.017,0,0,.013l.14.081,3.086,1.8c.71.39,1.3-.619.566-.971" transform="translate(-20.578 10.5)" fill="#fcbba4"/>
            <path id="Trazado_890634" data-name="Trazado 890634" d="M40.683,18.131,38,16.836c-.14-.061-.3-.155-.458-.212-.574-.231-1.227.356-1.655.617-.487.3.117.547.443.394.388-.161.788-.475.924-.339.564.358,2.244,1.416,2.836,1.789.7.418,1.323-.581.6-.954" transform="translate(-20.629 10.938)" fill="#fcbba4"/>
            <path id="Trazado_890635" data-name="Trazado 890635" d="M39.212,17.7l-1.42-.649a1.278,1.278,0,0,0-1.1-.134,5.293,5.293,0,0,0-.774.655c-.28.225.157.515.464.329a6.009,6.009,0,0,1,.6-.324c.119,0,.072.008.354.195l1.276.877c.7.454,1.363-.576.606-.95" transform="translate(-20.489 11.239)" fill="#fcbba4"/>
            <path id="Trazado_890636" data-name="Trazado 890636" d="M36.694,17.628a7.07,7.07,0,0,0,2.03,1.871l.034.017s1.939,8.1,3.768,10.809,4.608-1.488,4.608-1.488L39.708,17.179Z" transform="translate(-19.518 11.618)" fill="#fcbba4"/>
            <path id="Trazado_890637" data-name="Trazado 890637" d="M39.991,25.941a.077.077,0,0,1-.072-.053l-1.963-6.225a.076.076,0,0,1,.146-.045l1.96,6.225a.074.074,0,0,1-.049.093l-.023,0" transform="translate(-18.108 14.29)" fill="#533e35"/>
            <path id="Trazado_890638" data-name="Trazado 890638" d="M32.806,23.6a.3.3,0,0,1-.218-.513c2.386-2.482,4.612-3.843,6.8-4.156l.322-.047c2.189-.316,4.69.365,7.645,2.075a.3.3,0,0,1-.11.564L32.85,23.6l-.045,0m7.969-4.184a6.993,6.993,0,0,0-.975.068l-.322.047a10.9,10.9,0,0,0-5.814,3.336l12.606-1.816a11.931,11.931,0,0,0-5.5-1.634" transform="translate(-24.209 13.442)" fill="#e0edfb"/>
            <path id="Trazado_890639" data-name="Trazado 890639" d="M38.843,20.806a.3.3,0,0,1-.008.114c0-.074,0-.117.008-.114" transform="translate(-17.121 15.679)" fill="#ddda54"/>
            <path id="Trazado_890640" data-name="Trazado 890640" d="M30.035,87.056c.144,1.075,2.726,1.693,6.574,1.778-.008-.117-.025-.237-.036-.354a134.723,134.723,0,0,1-.045-19.812c.2-4.275.983-8.486,1.066-12.729a93.1,93.1,0,0,0-.528-12.522,94.013,94.013,0,0,1,1.59,12.511c.276,4.233-.142,8.5.008,12.793.087,4.279.348,8.584.784,12.869.3,2.312.528,4.784,1,7.159,1.59-.087,3.3-.248,5.065-.485,8.291-1.113,14.781-3.45,14.508-5.22l-.006-.038h.013c-1.57-7.388-4.438-18.032-6.229-25.325-2.081-7.9-3.262-16.012-6.655-23.435l-.006-.006a2,2,0,0,1-.006-1.691l.195-.428a5.37,5.37,0,0,1,.693-1.108,10.538,10.538,0,0,0,1.293-1.855,3.642,3.642,0,0,0,.379-1.534,2.951,2.951,0,0,0-.045-.591s-.454-5.341-.464-6.172c-.1.646-1.119,4.148-3.667,4.3-2.8.161-5.407-4.135-5.407-4.135s.674,5.551-1.053,6.038-2.446-3.037-2.446-3.037-.1,4.131-.123,4.839a12.626,12.626,0,0,0,.382,3.77,2.068,2.068,0,0,1-.189,1.545c-4.141,7.482-5.029,16.216-6.117,24.66a148.431,148.431,0,0,0-.53,28.218" transform="translate(-27.469 15.739)" fill="#ddda54"/>
            <path id="Trazado_890641" data-name="Trazado 890641" d="M34.715,31.862H34.7a.932.932,0,0,1-.655-.331c-.8-.839-1.289-3.268-1.219-6.043.076-3.027.858-6.227,2.158-6.227H35c1.312.032,1.946,3.281,1.876,6.322-.064,2.776-.67,5.18-1.507,5.979a.949.949,0,0,1-.653.3m.267-12.233c-.78,0-1.7,2.4-1.791,5.869-.068,2.643.392,5.021,1.117,5.782a.6.6,0,0,0,.4.216.58.58,0,0,0,.407-.2c.761-.725,1.333-3.077,1.395-5.722.078-3.482-.735-5.928-1.518-5.947h-.008" transform="translate(-23.857 13.95)" fill="#ddda54"/>
            <path id="Trazado_890642" data-name="Trazado 890642" d="M38.923,31.717l-.019,0c-1.32-.032-1.969-3.412-1.907-6.577.055-2.872.655-5.339,1.492-6.14a.881.881,0,0,1,.653-.29c1.312.032,1.963,3.385,1.91,6.524-.049,2.9-.649,5.383-1.49,6.193a.93.93,0,0,1-.638.292m-1.554-6.572c-.07,3.628.759,6.18,1.545,6.2a.582.582,0,0,0,.388-.189c.763-.733,1.329-3.173,1.376-5.93.061-3.6-.765-6.125-1.545-6.144a.571.571,0,0,0-.386.187c-.759.727-1.325,3.143-1.378,5.877" transform="translate(-19.184 13.33)" fill="#ddda54"/>
            <path id="Trazado_890643" data-name="Trazado 890643" d="M26.42,9.531a4.85,4.85,0,0,0,6.483.343c1.785-1.566,1.776,10.593-.015,8.849a4.856,4.856,0,0,0-6.458-.341c-1.787,1.558-1.8-10.606-.011-8.851" transform="translate(-32.513 2.862)" fill="#46342b"/>
            <path id="Trazado_890644" data-name="Trazado 890644" d="M27.834,29.15l-.013,0-.685-.11A.074.074,0,0,1,27.079,29a.079.079,0,0,1,0-.072s.307-.5.384-.627a.088.088,0,0,1,.068-.034,8.227,8.227,0,0,0-1.39-.517.076.076,0,0,1,.038-.146,7.3,7.3,0,0,1,1.63.646.551.551,0,0,1,.305.428.621.621,0,0,1-.237.46.074.074,0,0,1-.047.017m-.562-.244.538.087a.444.444,0,0,0,.157-.312.422.422,0,0,0-.237-.307c-.042-.028-.089-.055-.138-.081a.073.073,0,0,1,0,.085c-.057.087-.231.375-.324.528" transform="translate(-31.39 23.279)" fill="#533e35"/>
            <path id="Trazado_890645" data-name="Trazado 890645" d="M26.244,28.371a.08.08,0,0,1-.051-.019.076.076,0,0,1-.006-.106l.458-.519a.075.075,0,1,1,.112.1l-.456.519a.076.076,0,0,1-.057.025" transform="translate(-31.301 23.397)" fill="#533e35"/>
            <path id="Trazado_890646" data-name="Trazado 890646" d="M38.428,17.12a.062.062,0,0,1-.034-.008l-1.361-.7a.493.493,0,0,0-.53.021l-.411.312a.075.075,0,0,1-.106-.013A.077.077,0,0,1,36,16.62l.411-.312a.654.654,0,0,1,.7-.034l1.354.7a.076.076,0,0,1-.034.144" transform="translate(-20.328 10.512)" fill="#533e35"/>
            <path id="Trazado_890647" data-name="Trazado 890647" d="M38.444,17.306l-.03-.006-1.125-.5a.871.871,0,0,0-.7,0l-.687.3a.076.076,0,0,1-.061-.14l.687-.3a1.026,1.026,0,0,1,.818,0l1.123.5a.076.076,0,0,1,.04.1.077.077,0,0,1-.07.045" transform="translate(-20.518 10.947)" fill="#533e35"/>
            <path id="Trazado_890648" data-name="Trazado 890648" d="M36.012,17.456a.076.076,0,0,1-.045-.138l.572-.4a.609.609,0,0,1,.572-.061l1.066.439a.079.079,0,0,1,.042.1.076.076,0,0,1-.1.04L37.053,17a.442.442,0,0,0-.426.045l-.57.4a.089.089,0,0,1-.045.013" transform="translate(-20.367 11.208)" fill="#533e35"/>
            <path id="Trazado_890649" data-name="Trazado 890649" d="M26.38,25.191a.1.1,0,0,1-.04-.011l-3.573-2.189a.076.076,0,0,1-.025-.1.074.074,0,0,1,.1-.025l3.575,2.189a.073.073,0,0,1,.023.1.072.072,0,0,1-.064.036" transform="translate(-35.15 17.967)" fill="#533e35"/>
          </g>
        </g>
        <g id="Grupo_1121671" data-name="Grupo 1121671" transform="translate(0 -0.001)">
          <g id="Grupo_1121670" data-name="Grupo 1121670" clip-path="url(#clip-path)">
            <path id="Trazado_890650" data-name="Trazado 890650" d="M108.161,15.331c-.28,5.366-6.977,10.86-6.977,10.86-2.927-2.719-4.434-7.458-4.608-10.8a4.579,4.579,0,0,1,3.679-4.9c.322-.057.649-.106.983-.14a2.882,2.882,0,0,1,.329-.036c.189-.013.375-.028.57-.034.1-.006.2-.006.295-.006h.153c2.223.034,5.82.348,5.576,5.053" transform="translate(108.102 11.506)" fill="#ad6262"/>
            <path id="Trazado_890651" data-name="Trazado 890651" d="M112.787,15.109H95.512a.349.349,0,0,1-.21-.627c3.194-2.4,6.026-3.565,8.654-3.565h.388c2.628,0,5.458,1.166,8.654,3.565a.349.349,0,0,1-.21.627m-16.2-.7H111.71c-2.713-1.882-5.131-2.8-7.367-2.8h-.388c-2.236,0-4.654.916-7.367,2.8" transform="translate(106.528 12.222)" fill="#73a7de"/>
            <path id="Trazado_890652" data-name="Trazado 890652" d="M113.714,24.082c-.064.9-.119,1.8-.182,2.7V26.8c-.076.765-4.322,1.121-9.508.795s-9.381-1.214-9.332-1.98a.05.05,0,0,1,.006-.03h-.006c-.049-.661-.1-1.316-.146-1.98,1.3.746,5.01,1.373,9.4,1.528,4.769.159,8.783-.292,9.773-1.053" transform="translate(105.838 26.427)" fill="#ed9351"/>
            <path id="Trazado_890653" data-name="Trazado 890653" d="M116.057,16.359q-.731,10.959-1.456,21.915c-.021.244-.036.487-.049.731-.99.761-5.006,1.214-9.773,1.053-4.385-.153-8.094-.78-9.4-1.526-.028-.356-.049-.712-.076-1.066q-.753-10.186-1.5-20.383a3.705,3.705,0,0,1,1.526-3.262,18.262,18.262,0,0,1,9.005-3.465c-.333.036-.661.085-.981.14a4.582,4.582,0,0,0-3.681,4.9c.174,3.34,1.681,8.079,4.608,10.8,0,0,6.7-5.494,6.977-10.86.244-4.705-3.353-5.019-5.576-5.055a16.438,16.438,0,0,1,7.954,1.785,4.491,4.491,0,0,1,2.418,4.294" transform="translate(105 11.502)" fill="#ffa7a6"/>
            <path id="Trazado_890654" data-name="Trazado 890654" d="M114.455,28.752a41.1,41.1,0,0,1-4.127,16.178L104.871,43.8a58.581,58.581,0,0,1,.119-8.086c.125-1.827.445-4.991.481-6.763a9.659,9.659,0,0,0-.371-1.776c-.119-.42-.244-.837-.354-1.214-.091-.284-.176-.557-.265-.814-.127-.392-.252-.761-.371-1.108-.229-.649-.439-1.242-.646-1.821a46.28,46.28,0,0,1-1.659-5.269s2.132-6.3,3.548-5.451c1.749,1.045,3.959,4.44,5.765,8.016.326.649.64,1.3.933,1.946.146.314.28.627.411.935.3.682.572,1.352.81,1.992a17.18,17.18,0,0,1,1.185,4.364" transform="translate(113.963 12.785)" fill="#ffa7a6"/>
            <path id="Trazado_890655" data-name="Trazado 890655" d="M102.214,14.191c-.263,4.671-1.551,9.425-1.717,13.961.091,4.964.415,10.042-.288,15.061l-5.527.738a46.223,46.223,0,0,1-3.175-15.718c.2-5.934,2.9-12.7,5.636-15.934l5.072,1.893" transform="translate(102.436 13.767)" fill="#ffa7a6"/>
            <path id="Trazado_890656" data-name="Trazado 890656" d="M96.583,26.979v-.39c.587,0,.924-4.33,1.172-7.492.473-6.045-.053-7.4-.576-7.475l.053-.386c1.06.148,1.331,2.509.911,7.893-.437,5.578-.7,7.85-1.56,7.85" transform="translate(108.118 12.579)" fill="#d1c4e9"/>
            <path id="Trazado_890657" data-name="Trazado 890657" d="M104.537,16.061s-3.154,1.53-14.035.532l3.828,8.618,9.684-1.829s.4-6.252.523-7.321" transform="translate(101.311 17.98)" fill="#732835"/>
            <path id="Trazado_890658" data-name="Trazado 890658" d="M91.846,26.982l-.021-.39c.585-.032.678-4.375.748-7.545.1-4.391-.18-6.867-.816-7.357a.331.331,0,0,0-.324-.057l-.11-.375a.732.732,0,0,1,.672.123c.771.593,1.07,2.961.969,7.674-.121,5.6-.256,7.878-1.117,7.927" transform="translate(102.229 12.567)" fill="#d1c4e9"/>
            <path id="Trazado_890659" data-name="Trazado 890659" d="M93.809,11.663l-4.65,9.417L85.514,11.9v-.006a7.477,7.477,0,0,1,3.845-1.736,8.043,8.043,0,0,1,4.451,1.5" transform="translate(95.727 11.368)" fill="#284975"/>
            <path id="Trazado_890660" data-name="Trazado 890660" d="M107.56,15.109H90.285a.349.349,0,0,1-.21-.627c3.194-2.4,6.026-3.565,8.654-3.565h.388c2.628,0,5.458,1.166,8.654,3.565a.349.349,0,0,1-.21.627m-16.2-.7h15.122c-2.713-1.882-5.131-2.8-7.367-2.8h-.388c-2.236,0-4.654.916-7.367,2.8" transform="translate(100.677 12.222)" fill="#73a7de"/>
            <path id="Trazado_890661" data-name="Trazado 890661" d="M100.714,15.109H83.437a.349.349,0,0,1-.21-.627c3.2-2.4,6.026-3.565,8.654-3.565h.388c2.628,0,5.46,1.166,8.654,3.565a.348.348,0,0,1-.208.627m-16.2-.7H99.635c-2.713-1.882-5.131-2.8-7.367-2.8H91.88c-2.234,0-4.652.916-7.367,2.8" transform="translate(93.011 12.222)" fill="#73a7de"/>
            <path id="Trazado_890662" data-name="Trazado 890662" d="M89.9,51.42s1.583-1.583,10.722-1.621,7.573.977,7.573.977L106.95,32.784,95.278,34.526Z" transform="translate(100.634 36.7)" fill="#d1c4e9"/>
            <path id="Trazado_890663" data-name="Trazado 890663" d="M108.371,73.249v.015c.021.418-.634.835-1.757,1.2-.682-4.37-1.094-11.981-1.267-15.648a56.414,56.414,0,0,1-1.7,16.324,41.96,41.96,0,0,1-4.413.432c-5.08.244-9.59-.362-9.429-1.422,1.484-6.07,2.391-9.535,2.391-16.171,0-3.186-.21-7.1-.663-12.38-.78-9.207,1.848-12.136.676-18.869-1.142-6.566-1.547-9.3-.208-14.164.725,1.918,2.921,7.056,5.674,7.321,2.376.229,4.663-4.538,5.814-7.4-.155,2.071-.371,5.6-.322,7.668.07,3.052.439,4.146.95,4.127.418-.021.911-2.259,1.206-3.8-.7,4.809.214,10.016,2.09,19.853,2.524,13.2,1.172,23.155.962,32.921" transform="translate(100.523 13.972)" fill="#d1c4e9"/>
            <path id="Trazado_890664" data-name="Trazado 890664" d="M97.407,26.983c-1.144,0-1.56-4.705-1.56-7.867,0-4.247,1.015-7.653,1.922-7.861a.776.776,0,0,1,.286-.015L98,11.625a.4.4,0,0,0-.148.008c-.555.127-1.617,3.141-1.617,7.482,0,4.911.761,7.477,1.17,7.477Z" transform="translate(107.295 12.575)" fill="#d1c4e9"/>
            <path id="Trazado_890665" data-name="Trazado 890665" d="M92.6,26.967c-.216,0-.723-.136-1.246-2.34a32.7,32.7,0,0,1-.708-5.428c-.239-4.241.583-7.7,1.477-7.958l.108.375c-.549.159-1.441,3.226-1.2,7.562a32.265,32.265,0,0,0,.7,5.358c.4,1.679.771,2.041.888,2.041h0l.021.388-.045,0" transform="translate(101.428 12.584)" fill="#d1c4e9"/>
            <path id="Trazado_890666" data-name="Trazado 890666" d="M107.945,53.721H81.429c.844-10.8,1.507-22.354,2.119-34.434a8.869,8.869,0,0,1,6.093-8.05c.146-.051.292-.091.445-.134l3.645,9.179,4.65-9.417c.46.106.913.223,1.359.371a8.876,8.876,0,0,1,6.091,8.05c.615,12.081,1.276,23.63,2.113,34.434" transform="translate(91.154 12.164)" fill="#448cd4"/>
            <path id="Trazado_890667" data-name="Trazado 890667" d="M107.945,31.738c0,.68-5.937,1.234-13.257,1.234s-13.259-.553-13.259-1.234S87.366,30.5,94.688,30.5s13.257.553,13.257,1.234" transform="translate(91.154 34.148)" fill="#284975"/>
            <path id="Trazado_890668" data-name="Trazado 890668" d="M73.021,11.971a.348.348,0,0,1-.348-.35v-1.9a1.944,1.944,0,0,1,1.941-1.944.349.349,0,0,1,0,.7,1.248,1.248,0,0,0-1.246,1.246v1.9a.348.348,0,0,1-.348.35" transform="translate(81.353 8.706)" fill="#73a7de"/>
            <path id="Trazado_890669" data-name="Trazado 890669" d="M79.947,11.971a.348.348,0,0,1-.348-.35v-1.9A1.944,1.944,0,0,1,81.54,7.777a.349.349,0,1,1,0,.7,1.248,1.248,0,0,0-1.246,1.246v1.9a.348.348,0,0,1-.348.35" transform="translate(89.106 8.706)" fill="#73a7de"/>
            <path id="Trazado_890670" data-name="Trazado 890670" d="M86.008,11.971a.348.348,0,0,1-.348-.35v-1.9A1.944,1.944,0,0,1,87.6,7.777a.349.349,0,0,1,0,.7,1.248,1.248,0,0,0-1.246,1.246v1.9a.348.348,0,0,1-.348.35" transform="translate(95.891 8.706)" fill="#73a7de"/>
            <path id="Trazado_890671" data-name="Trazado 890671" d="M92.856,11.971a.348.348,0,0,1-.348-.35v-1.9a1.944,1.944,0,0,1,1.941-1.944.349.349,0,0,1,0,.7A1.248,1.248,0,0,0,93.2,9.721v1.9a.348.348,0,0,1-.348.35" transform="translate(103.557 8.706)" fill="#73a7de"/>
            <path id="Trazado_890672" data-name="Trazado 890672" d="M98.083,11.971a.348.348,0,0,1-.348-.35v-1.9a1.944,1.944,0,0,1,1.941-1.944.349.349,0,0,1,0,.7A1.248,1.248,0,0,0,98.43,9.721v1.9a.348.348,0,0,1-.348.35" transform="translate(109.408 8.706)" fill="#73a7de"/>
            <path id="Trazado_890673" data-name="Trazado 890673" d="M153,9.8H65.955a.7.7,0,0,1,0-1.395H153A.7.7,0,1,1,153,9.8" transform="translate(73.052 9.409)" fill="#3d2b1b"/>
            <path id="Trazado_890674" data-name="Trazado 890674" d="M88.355,15.129a.348.348,0,0,1-.348-.35V9.721a1.248,1.248,0,0,0-1.246-1.246.349.349,0,1,1,0-.7A1.946,1.946,0,0,1,88.7,9.721V14.78a.348.348,0,0,1-.348.35" transform="translate(96.732 8.706)" fill="#73a7de"/>
            <path id="Trazado_890675" data-name="Trazado 890675" d="M95.2,15.129a.348.348,0,0,1-.348-.35V9.721a1.248,1.248,0,0,0-1.246-1.246.349.349,0,0,1,0-.7,1.946,1.946,0,0,1,1.941,1.944V14.78a.348.348,0,0,1-.348.35" transform="translate(104.399 8.706)" fill="#73a7de"/>
            <path id="Trazado_890676" data-name="Trazado 890676" d="M100.428,15.129a.348.348,0,0,1-.348-.35V9.721a1.248,1.248,0,0,0-1.246-1.246.349.349,0,0,1,0-.7,1.946,1.946,0,0,1,1.941,1.944V14.78a.348.348,0,0,1-.348.35" transform="translate(110.25 8.706)" fill="#73a7de"/>
            <path id="Trazado_890677" data-name="Trazado 890677" d="M89.686,23,85.012,11.5l1.291-.524,3.478,8.556,4.177-8.859,1.261.6Z" transform="translate(95.166 11.946)" fill="#fff"/>
            <path id="Trazado_890678" data-name="Trazado 890678" d="M83.437,26.515s-4.58-10.366-3.758-13.7a2.592,2.592,0,0,1,.286-.7l.021-.04a4.025,4.025,0,0,1,3.171-1.96A3.9,3.9,0,0,1,86.4,12.044a2.743,2.743,0,0,1,.278.746c.524,2.488-3.241,13.725-3.241,13.725" transform="translate(89.085 11.321)" fill="#755338"/>
            <path id="Trazado_890679" data-name="Trazado 890679" d="M82.293,15.129a.347.347,0,0,1-.348-.35V9.721A1.249,1.249,0,0,0,80.7,8.474a.349.349,0,0,1,0-.7,1.944,1.944,0,0,1,1.941,1.944V14.78a.348.348,0,0,1-.345.35" transform="translate(89.949 8.706)" fill="#73a7de"/>
            <path id="Trazado_890680" data-name="Trazado 890680" d="M94.652,15.109H77.377a.349.349,0,0,1-.21-.627c3.194-2.4,6.026-3.565,8.654-3.565h.388c2.628,0,5.458,1.166,8.654,3.565a.349.349,0,0,1-.21.627m-16.2-.7H93.575c-2.713-1.882-5.131-2.8-7.367-2.8H85.82c-2.236,0-4.654.916-7.367,2.8" transform="translate(86.227 12.222)" fill="#73a7de"/>
            <path id="Trazado_890681" data-name="Trazado 890681" d="M93.826,25.053c-.013,20-.447,39.888-1.115,59.863H83.541c-.377-9.881-.835-19.8-1.356-29.687s-1.121-19.77-1.835-29.609Z" transform="translate(89.945 28.046)" fill="#edb88e"/>
            <path id="Trazado_890682" data-name="Trazado 890682" d="M88.751,25.158c-.553,19.993-1.492,39.854-2.649,59.8l-8.493-.307c-.083-9.889-.239-19.821-.456-29.719s-.5-19.8-.9-29.655Z" transform="translate(85.363 28.163)" fill="#edb88e"/>
            <path id="Trazado_890683" data-name="Trazado 890683" d="M98.03,31.932c-10.548-4.5-22.432-.61-22.432-.61L86.32,26.585l12.647,2.834s-.494,2.7-.937,2.514" transform="translate(84.627 29.761)" fill="#755338"/>
            <path id="Trazado_890684" data-name="Trazado 890684" d="M98.965,14.858c-.418,11.006-.805,23.683-1.223,34.689-2.7-1.861-10.129-3.291-10.129-3.291s-6.257.256-10.515,2.035c-.42-10.8-1.081-22.328-1.5-33.125a2.776,2.776,0,0,1,2.007-2.692,32.882,32.882,0,0,1,6.837-1.422,2.573,2.573,0,0,0-.305.74c-.822,3.338,3.756,13.7,3.756,13.7s3.764-11.237,3.243-13.725a2.82,2.82,0,0,0-.28-.746,31.919,31.919,0,0,1,6.009,1.123,2.772,2.772,0,0,1,2.1,2.711" transform="translate(84.627 12.341)" fill="#edb88e"/>
            <path id="Trazado_890685" data-name="Trazado 890685" d="M93.98,50.837l-6.964-.271.6-15.237a30.4,30.4,0,0,0-1.017-9.073L83.349,14.164s5.9-3.859,6.791-1.276c.971,2.836,3.188,11.559,3.188,11.559A37.36,37.36,0,0,1,94.576,35.6Z" transform="translate(93.304 13.431)" fill="#edb88e"/>
            <path id="Trazado_890686" data-name="Trazado 890686" d="M87.277,19.776l.4,3.2L84.051,34.362,79.683,22.712l.833-2.685-1.4-.553A16.892,16.892,0,0,1,80.5,11.648a2.69,2.69,0,0,0-.273.682c-.822,3.34,3.758,13.7,3.758,13.7S87.749,14.8,87.228,12.312a2.792,2.792,0,0,0-.28-.746,3.3,3.3,0,0,0-.877-1.026c2.408,1.147,2.408,8.813,2.408,8.813Z" transform="translate(88.537 11.799)" fill="#cf8a53"/>
            <path id="Trazado_890687" data-name="Trazado 890687" d="M91.026,53.521c0,.233-2.054.422-4.584.422s-4.586-.189-4.586-.422,2.054-.422,4.586-.422,4.584.189,4.584.422" transform="translate(91.631 59.442)" fill="#755338"/>
            <path id="Trazado_890688" data-name="Trazado 890688" d="M92.079,30.726c-.015.348-1.59.576-3.525.509s-3.489-.4-3.478-.75,1.59-.574,3.523-.509,3.491.4,3.48.75" transform="translate(95.237 33.544)" fill="#755338"/>
            <path id="Trazado_890689" data-name="Trazado 890689" d="M85.493,53.689c-.006.233-1.939.358-4.315.278s-4.3-.333-4.29-.566,1.937-.358,4.315-.278,4.3.333,4.29.566" transform="translate(86.071 59.441)" fill="#755338"/>
            <path id="Trazado_890690" data-name="Trazado 890690" d="M81.707,60.253a.173.173,0,0,1-.174-.174c-.072-10.406-.235-30.242-.339-30.827a.165.165,0,0,1,.1-.216.187.187,0,0,1,.229.11c.136.35.307,23.763.356,30.931a.173.173,0,0,1-.172.176Z" transform="translate(90.878 32.494)" fill="#755338"/>
            <path id="Trazado_890691" data-name="Trazado 890691" d="M85.544,43.909h0a.172.172,0,0,1-.17-.18l.53-17.206a10.267,10.267,0,0,0-.157-2.149l-1.081-6.04a.176.176,0,0,1,.14-.2.172.172,0,0,1,.2.142l1.081,6.04a10.66,10.66,0,0,1,.163,2.221l-.532,17.206a.174.174,0,0,1-.174.17" transform="translate(94.771 20.294)" fill="#755338"/>
            <path id="Trazado_890692" data-name="Trazado 890692" d="M81.362,39.9a.173.173,0,0,1-.174-.172c-.032-2.253.061-5.341.159-8.609.165-5.479.337-11.144-.023-14.065a.171.171,0,0,1,.15-.193.177.177,0,0,1,.195.15c.362,2.948.193,8.626.028,14.118-.1,3.264-.191,6.348-.161,8.594a.175.175,0,0,1-.172.176Z" transform="translate(90.878 18.872)" fill="#755338"/>
            <path id="Trazado_890693" data-name="Trazado 890693" d="M82.55,12.914a11.422,11.422,0,0,1-1.5,5.2c-1.9,3.578-4.809,5.744-6.5,4.845a1.637,1.637,0,0,1-.439-.348.073.073,0,0,1-.034-.028,3.188,3.188,0,0,1-.244-.335c-1.075-1.715-1.924-5.926-1.924-5.926-.426-1.06-.07-2.8.935-4.614a19.227,19.227,0,0,1,7.471-.7,21.069,21.069,0,0,1,2.177.445,5.193,5.193,0,0,1,.061,1.458" transform="translate(80.297 12.209)" fill="#8c2f41"/>
            <path id="Trazado_890694" data-name="Trazado 890694" d="M79.849,13.225l-.042.1a12.424,12.424,0,0,1-1.541,2.592c-2.16,2.838-4.989,4.324-6.322,3.313a1.625,1.625,0,0,1-.5-.691c-.426-1.06-.07-2.787.926-4.6l.006-.013a13.451,13.451,0,0,1,1.081-1.666c2.162-2.844,4.985-4.322,6.316-3.311a1.45,1.45,0,0,1,.454.579l.089.223a5.263,5.263,0,0,1-.466,3.478" transform="translate(79.778 9.659)" fill="#73411c"/>
            <path id="Trazado_890695" data-name="Trazado 890695" d="M75.368,15.129a.348.348,0,0,1-.348-.35V9.721a1.248,1.248,0,0,0-1.246-1.246.349.349,0,1,1,0-.7,1.946,1.946,0,0,1,1.941,1.944V14.78a.348.348,0,0,1-.348.35" transform="translate(82.193 8.706)" fill="#73a7de"/>
            <path id="Trazado_890696" data-name="Trazado 890696" d="M87.728,15.109H70.451a.349.349,0,0,1-.21-.627c3.2-2.4,6.026-3.565,8.654-3.565h.388c2.628,0,5.458,1.166,8.654,3.565a.348.348,0,0,1-.208.627m-16.2-.7H86.649c-2.715-1.882-5.131-2.8-7.367-2.8h-.388c-2.234,0-4.652.916-7.367,2.8" transform="translate(78.474 12.222)" fill="#73a7de"/>
            <path id="Trazado_890697" data-name="Trazado 890697" d="M79.066,17.089c-.935,4.608-2.7,10.239-3.533,14.8L72.7,47.842c0,.021-.006.042-.006.064-.091.543-1.534.746-3.219.46-1.653-.286-2.929-.941-2.9-1.471a.051.051,0,0,0,.008-.034c.78-5.71,2.412-18.7,3.38-24.168,0,0,.613-4.745.969-7.492a3.67,3.67,0,0,1,1.952-2.8l1.185-.615Z" transform="translate(74.525 13.199)" fill="#90bf90"/>
            <path id="Trazado_890698" data-name="Trazado 890698" d="M87.895,47.571,81.78,48.6,78.694,32.423C77.741,27.75,76.617,20.991,75.6,16.26c0,0,1.217-5.553,2.558-5.08.778.276,1.914.808,1.914.808a4.931,4.931,0,0,1,2.753,3.65c1.094,6.606,4.01,24.323,5.07,31.934" transform="translate(84.629 12.484)" fill="#90bf90"/>
            <path id="Trazado_890699" data-name="Trazado 890699" d="M84.634,28.655c.091.543-1.2,1.212-2.893,1.5s-3.13.072-3.222-.471,1.2-1.214,2.893-1.5,3.13-.072,3.222.471" transform="translate(87.892 31.41)" fill="#591f29"/>
            <path id="Trazado_890700" data-name="Trazado 890700" d="M90.012,84.6H68.73c-.9-15.824.42-31.821,2.753-47.664.852-5.653-.716-14.283-1.289-21.3a3.186,3.186,0,0,1,1.776-3.107,20.816,20.816,0,0,1,3.563-1.409c-1,1.821-1.359,3.556-.935,4.616,0,0,.852,4.209,1.924,5.924a3.939,3.939,0,0,0,.244.335.067.067,0,0,0,.036.028,1.613,1.613,0,0,0,.439.35c1.693.9,4.6-1.27,6.5-4.845a11.423,11.423,0,0,0,1.5-5.2c0-.564-.212-.672-.343-1.147.174.036.657.066.831.108a3.163,3.163,0,0,1,2.615,3.493c-.627,7.577-2.266,16.618-1.59,21.391,2.363,15.949,4.169,32.5,3.255,48.425" transform="translate(76.618 12.453)" fill="#a5d6a7"/>
            <path id="Trazado_890701" data-name="Trazado 890701" d="M83.941,11.617c.182,5.814-7.876,26.732-7.876,26.732s-3.91-16.1-5-20.9a13.359,13.359,0,0,1-.246-5.222,14.561,14.561,0,0,1,2.217-.774c-1,1.812-1.352,3.542-.926,4.6a1.612,1.612,0,0,0,.5.691c1.331,1.009,4.16-.475,6.322-3.313a12.5,12.5,0,0,0,1.539-2.592,15.47,15.47,0,0,1,3.465.774" transform="translate(79.109 12.139)" fill="#ffb74d"/>
            <path id="Trazado_890702" data-name="Trazado 890702" d="M81.993,14.535a11.422,11.422,0,0,1-1.5,5.2c-1.9,3.578-4.809,5.744-6.5,4.845a1.637,1.637,0,0,1-.439-.348.073.073,0,0,1-.034-.028,3.184,3.184,0,0,1-.244-.335c-1.075-1.715-1.924-5.926-1.924-5.926a1.616,1.616,0,0,0,.5.691c1.331,1.011,4.16-.475,6.322-3.311a12.333,12.333,0,0,0,1.581-2.692,5.277,5.277,0,0,0,.468-3.478l1.289,3.082a5.008,5.008,0,0,1,.28.738,5.855,5.855,0,0,1,.2,1.562" transform="translate(79.871 10.248)" fill="#ffb74d"/>
            <path id="Trazado_890703" data-name="Trazado 890703" d="M74.773,22.908a1.686,1.686,0,0,1-1.255-.481c-1.7-1.765-2.23-6.816-2.251-7.03a.176.176,0,0,1,.157-.191.17.17,0,0,1,.191.155c0,.051.538,5.146,2.155,6.825a1.415,1.415,0,0,0,1.136.371c1.068-.066,2.829-.952,4.559-3.247a15.072,15.072,0,0,0,2.3-4.97,5.887,5.887,0,0,0-.04-3.2l-.011-.042a.174.174,0,1,1,.335-.1A6.272,6.272,0,0,1,82.1,14.43a15.346,15.346,0,0,1-2.359,5.087c-1.507,2-3.353,3.3-4.815,3.387-.053,0-.1,0-.155,0" transform="translate(79.778 12.173)" fill="#d69745"/>
            <path id="Trazado_890704" data-name="Trazado 890704" d="M77.1,27.6a.174.174,0,0,1-.174-.172c-.04-2.088.975-10.883,1.017-11.258a.171.171,0,0,1,.193-.153.174.174,0,0,1,.153.193c-.011.091-1.053,9.147-1.015,11.212a.173.173,0,0,1-.17.178Z" transform="translate(86.116 17.934)" fill="#6a996a"/>
            <path id="Trazado_890705" data-name="Trazado 890705" d="M89.86,46.25c0,.483-4.764.875-10.64.875s-10.642-.392-10.642-.875,4.764-.875,10.642-.875,10.64.392,10.64.875" transform="translate(76.77 50.795)" fill="#591f29"/>
            <path id="Trazado_890706" data-name="Trazado 890706" d="M69.224,43.522l-.025,0a.176.176,0,0,1-.148-.195c.015-.123,1.59-12.337,1.829-15.667s-.99-10.991-1-11.068a.177.177,0,0,1,.144-.2.173.173,0,0,1,.2.144c.013.078,1.248,7.8,1.007,11.15S69.41,43.247,69.4,43.37a.175.175,0,0,1-.172.153" transform="translate(77.295 18.345)" fill="#6a996a"/>
            <path id="Trazado_890707" data-name="Trazado 890707" d="M110.05,35.152,99.722,41.8,88.1,17.893l9.468-4.6Z" transform="translate(98.626 14.882)" fill="#448cd4"/>
            <path id="Trazado_890708" data-name="Trazado 890708" d="M94.142,31.378l-1.009-1.852c.178-1.21,8.872-7.5,10.129-6.85l1.157,2.026a33.056,33.056,0,0,0-10.277,6.676" transform="translate(104.256 25.332)" fill="#fff"/>
            <path id="Trazado_890709" data-name="Trazado 890709" d="M98.455,26.506c-2.838,1.844-5.006,3.544-4.841,3.794s2.6-1.036,5.434-2.88,5-3.544,4.841-3.8-2.6,1.039-5.434,2.882" transform="translate(104.786 26.411)" fill="#284975"/>
            <path id="Trazado_890710" data-name="Trazado 890710" d="M96.664,36.035c-4.3-5.964-5.894-17.314-5.909-17.426l.343-.049c.017.114,1.6,11.377,5.85,17.271Z" transform="translate(101.594 20.777)" fill="#284975"/>
            <path id="Trazado_890711" data-name="Trazado 890711" d="M97.347,15.645c-.034.216-.112.691-.223,1.255.061-.418.131-.837.223-1.255" transform="translate(108.724 17.514)" fill="#bd4257"/>
            <path id="Trazado_890712" data-name="Trazado 890712" d="M111.175,17.209a2.416,2.416,0,0,0-1.1-.369,8.531,8.531,0,0,0-3.5.46,6.329,6.329,0,0,0-2.885,1.812,3.516,3.516,0,0,0-.454.676c-.231-.649-.439-1.242-.649-1.818a7.914,7.914,0,0,1,3.5-2.183,10.271,10.271,0,0,1,4.154-.524c.328.649.642,1.3.935,1.946" transform="translate(114.84 17.037)" fill="#ed9351"/>
            <path id="Trazado_890713" data-name="Trazado 890713" d="M111.856,18.64c-.761-.655-2.613-.682-4.72-.006a6.3,6.3,0,0,0-2.878,1.812,2.987,2.987,0,0,0-.572.983c-.117-.42-.244-.837-.354-1.214-.091-.286-.174-.557-.265-.814a7.939,7.939,0,0,1,3.59-2.274,9.505,9.505,0,0,1,4.389-.481c.3.685.572,1.352.81,1.994" transform="translate(115.377 18.534)" fill="#ed9351"/>
            <path id="Trazado_890714" data-name="Trazado 890714" d="M104.222,36.737a.174.174,0,0,1-.174-.172c-.032-1.689.53-7.087.865-10.012a7.307,7.307,0,0,0-.362-3.275c-.29-.837-.712-2.064-1.064-3.16-.676-2.107-1.178-4.656-1.183-4.682a.174.174,0,0,1,.138-.206.172.172,0,0,1,.2.138,47.8,47.8,0,0,0,1.174,4.644c.35,1.092.769,2.317,1.062,3.152a7.683,7.683,0,0,1,.379,3.429c-.337,2.914-.894,8.3-.865,9.966a.173.173,0,0,1-.17.178Z" transform="translate(114.519 17.046)" fill="#ad6262"/>
            <path id="Trazado_890715" data-name="Trazado 890715" d="M98.743,35.857l-.032,0a.177.177,0,0,1-.14-.206c1.314-6.856.013-19,0-19.122a.175.175,0,0,1,.348-.038c.013.123,1.32,12.318,0,19.225a.174.174,0,0,1-.172.142" transform="translate(110.341 18.286)" fill="#ad6262"/>
            <path id="Trazado_890716" data-name="Trazado 890716" d="M108.713,27.954c-.066.324-1.344.339-2.853.032s-2.677-.822-2.611-1.149,1.344-.339,2.853-.03,2.677.822,2.611,1.147" transform="translate(115.578 29.761)" fill="#ad6262"/>
            <path id="Trazado_890717" data-name="Trazado 890717" d="M69.194,5.61V114.4H67.123V5.61a1.035,1.035,0,0,1,2.071,0" transform="translate(75.14 5.125)" fill="#3d2b1b"/>
            <path id="Trazado_890718" data-name="Trazado 890718" d="M106.213,5.61V114.4h-2.071V5.61a1.035,1.035,0,0,1,2.071,0" transform="translate(116.58 5.125)" fill="#3d2b1b"/>
            <g id="Grupo_1121663" data-name="Grupo 1121663" transform="translate(60.596 7.611)" opacity="0.44">
              <g id="Grupo_1121662" data-name="Grupo 1121662">
                <g id="Grupo_1121661" data-name="Grupo 1121661" clip-path="url(#clip-path-5)">
                  <path id="Trazado_890719" data-name="Trazado 890719" d="M78.894,3.591V25.7l-50.3,35.378V11.95l33-8.359Z" transform="translate(-28.59 -3.591)" fill="#fff"/>
                </g>
              </g>
            </g>
            <g id="Grupo_1121666" data-name="Grupo 1121666" transform="translate(60.596 48.968)" opacity="0.44">
              <g id="Grupo_1121665" data-name="Grupo 1121665">
                <g id="Grupo_1121664" data-name="Grupo 1121664" clip-path="url(#clip-path-6)">
                  <path id="Trazado_890720" data-name="Trazado 890720" d="M78.894,23.1V56.718L28.591,92.1V58.475Z" transform="translate(-28.59 -23.104)" fill="#fff"/>
                </g>
              </g>
            </g>
            <g id="Grupo_1121669" data-name="Grupo 1121669" transform="translate(70.205 92.968)" opacity="0.44">
              <g id="Grupo_1121668" data-name="Grupo 1121668">
                <g id="Grupo_1121667" data-name="Grupo 1121667" clip-path="url(#clip-path-7)">
                  <path id="Trazado_890721" data-name="Trazado 890721" d="M33.124,73.6l40.7-29.738V73.6Z" transform="translate(-33.124 -43.865)" fill="#fff"/>
                </g>
              </g>
            </g>
            <path id="Trazado_890722" data-name="Trazado 890722" d="M37.35,42.845v1.507c0,1.412-7.984,2.562-17.829,2.562S1.686,45.763,1.686,44.352V42.845H2.769v.627c2.5-.988,9.054-1.691,16.752-1.691,7.418,0,13.778.655,16.466,1.59v-.526Z" transform="translate(1.887 46.772)" fill="#452821"/>
            <path id="Trazado_890723" data-name="Trazado 890723" d="M21.169,58.9v.9c0,1.418-3.245,2.562-7.24,2.562S6.681,61.216,6.681,59.8v-.9h.464c1.036-.969,3.681-1.657,6.784-1.657s5.754.689,6.782,1.657Z" transform="translate(7.479 64.077)" fill="#452821"/>
            <path id="Trazado_890724" data-name="Trazado 890724" d="M21.165,59.373c0,1.416-3.243,2.562-7.242,2.562s-7.24-1.147-7.24-2.562,3.243-2.562,7.24-2.562,7.242,1.147,7.242,2.562" transform="translate(7.481 63.597)" fill="#634030"/>
            <path id="Trazado_890725" data-name="Trazado 890725" d="M11.125,42.282V75.5c0,.146-.3.261-.674.261s-.668-.114-.668-.261V42.282Z" transform="translate(10.951 47.333)" fill="#452821"/>
            <path id="Trazado_890726" data-name="Trazado 890726" d="M37.352,43.639c0,1.418-7.984,2.567-17.833,2.567S1.686,45.057,1.686,43.639s7.984-2.567,17.833-2.567,17.833,1.149,17.833,2.567" transform="translate(1.887 45.978)" fill="#634030"/>
            <path id="Trazado_890727" data-name="Trazado 890727" d="M22.1,42.792c0,.744-4.15,1.348-9.268,1.348s-9.268-.6-9.268-1.348,4.15-1.348,9.268-1.348,9.268.6,9.268,1.348" transform="translate(3.99 46.395)" fill="#452821"/>
            <path id="Trazado_890728" data-name="Trazado 890728" d="M11.432,32.925v.013h-.006l.006-.013" transform="translate(12.79 36.858)" fill="#bf704b"/>
            <path id="Trazado_890729" data-name="Trazado 890729" d="M16.684,38.122c-.606,3.423.244,6.032.771,8.247a12.655,12.655,0,0,1,.053,5.455c-.036.163-.072.32-.108.485a11.057,11.057,0,0,1-.892,2.433l-.019.036c-.072.462-2.166,1.039-4.508,1.039s-4.466-.439-4.508-1.045l-.019-.03a11.057,11.057,0,0,1-.892-2.433,13.59,13.59,0,0,1-.375-3.667c.091-2.815,1.759-6.079,1.081-10.726a16.909,16.909,0,0,0-3.23-7.683c.644.534,3.976.947,7.944.947,4.071,0,7.458-.432,7.986-.99a18.887,18.887,0,0,0-3.283,7.931" transform="translate(4.519 33.798)" fill="#78b4f0"/>
            <path id="Trazado_890730" data-name="Trazado 890730" d="M11.57,30.174l-.006.006v-.006Z" transform="translate(12.945 33.778)" fill="#ff915b"/>
            <path id="Trazado_890731" data-name="Trazado 890731" d="M11.336,7.663c1.717,2.976,1.376,6.388-.763,7.621s-5.265-.176-6.981-3.149-1.378-6.388.761-7.621,5.267.174,6.984,3.149" transform="translate(2.794 4.552)" fill="#f0be40"/>
            <path id="Trazado_890732" data-name="Trazado 890732" d="M6.741,14.653a2.984,2.984,0,0,1-.057,4.2,2.983,2.983,0,0,1-4.175-.5,2.981,2.981,0,0,1,.057-4.2,2.981,2.981,0,0,1,4.175.5" transform="translate(1.873 15.125)" fill="#ba615b"/>
            <path id="Trazado_890733" data-name="Trazado 890733" d="M16.118,23.009c-1.6,2-3.883,2.84-5.1,1.869s-.9-3.378.706-5.381,3.883-2.84,5.1-1.871.9,3.38-.7,5.383" transform="translate(11.511 19.281)" fill="#f0be40"/>
            <path id="Trazado_890734" data-name="Trazado 890734" d="M2.476,23.978C.895,23.616-.2,22.507.03,21.5s1.7-1.524,3.281-1.159,2.677,1.471,2.446,2.476-1.7,1.522-3.281,1.159" transform="translate(-0.001 22.643)" fill="#f0be40"/>
            <path id="Trazado_890735" data-name="Trazado 890735" d="M11.073,11.879c.642-1.874,2.128-3.06,3.317-2.651s1.632,2.257.99,4.131-2.13,3.058-3.319,2.651-1.63-2.257-.988-4.131" transform="translate(12.065 10.24)" fill="#ba615b"/>
            <path id="Trazado_890736" data-name="Trazado 890736" d="M11.971,26.371c-1.683.971-2.906,2-2.73,2.308s1.681-.239,3.364-1.21,2.906-2,2.73-2.308-1.681.239-3.364,1.21" transform="translate(10.326 28.072)" fill="#a3a01a"/>
            <path id="Trazado_890737" data-name="Trazado 890737" d="M9.792,16.6c.39,1.9.986,3.389,1.327,3.319s.305-1.67-.085-3.573-.986-3.391-1.329-3.319-.3,1.67.087,3.573" transform="translate(10.603 14.578)" fill="#a3a01a"/>
            <path id="Trazado_890738" data-name="Trazado 890738" d="M11.562,15.006c-.748,1.03-1.2,1.975-1.017,2.109s.941-.591,1.689-1.621,1.2-1.975,1.017-2.109-.941.591-1.689,1.621" transform="translate(11.758 14.966)" fill="#a3a01a"/>
            <path id="Trazado_890739" data-name="Trazado 890739" d="M5.671,19.7c-.322,1.231-.4,2.276-.182,2.336s.663-.894.986-2.126.4-2.276.182-2.336-.663.894-.986,2.126" transform="translate(6.005 19.669)" fill="#a3a01a"/>
            <path id="Trazado_890740" data-name="Trazado 890740" d="M7.33,14.395c-.477,2.442-.507,4.491-.066,4.578S8.447,17.148,8.921,14.7s.507-4.491.066-4.576S7.806,11.953,7.33,14.395" transform="translate(7.782 11.336)" fill="#a3a01a"/>
            <path id="Trazado_890741" data-name="Trazado 890741" d="M7.529,22.422c.763,1.609,1.615,2.8,1.905,2.666s-.093-1.554-.856-3.164-1.615-2.8-1.905-2.664.093,1.554.856,3.162" transform="translate(7.362 21.549)" fill="#a3a01a"/>
            <path id="Trazado_890742" data-name="Trazado 890742" d="M4.575,24.539c.763,1.609,1.615,2.8,1.905,2.666s-.093-1.554-.856-3.164-1.615-2.8-1.905-2.664.093,1.554.856,3.162" transform="translate(4.055 23.918)" fill="#a3a01a"/>
            <path id="Trazado_890743" data-name="Trazado 890743" d="M6.22,26.5c1.329-.059,2.395-.3,2.384-.543s-1.1-.384-2.423-.322-2.4.3-2.386.54,1.1.384,2.425.324" transform="translate(4.248 28.678)" fill="#a3a01a"/>
            <path id="Trazado_890744" data-name="Trazado 890744" d="M5.776,21.358c1.823.9,3.433,1.373,3.6,1.045S8.19,21.074,6.367,20.169s-3.436-1.373-3.6-1.045,1.185,1.329,3.007,2.234" transform="translate(3.084 21.292)" fill="#a3a01a"/>
            <path id="Trazado_890745" data-name="Trazado 890745" d="M9.593,25.074c-.074,1.575.1,2.863.379,2.876s.574-1.253.649-2.827-.1-2.863-.382-2.876-.572,1.253-.646,2.827" transform="translate(10.719 24.905)" fill="#a3a01a"/>
            <path id="Trazado_890746" data-name="Trazado 890746" d="M122.392,31.361c-5.672,0-10.271-3.773-10.271-8.425s4.6-8.427,10.271-8.427,10.271,3.773,10.271,8.427-4.6,8.425-10.271,8.425" transform="translate(125.512 16.243)" fill="#89bbee"/>
            <path id="Trazado_890747" data-name="Trazado 890747" d="M126.346,48.855c-6.856,1.465-13.528-2.558-14.9-8.986s3.073-12.825,9.93-14.289,13.526,2.558,14.9,8.984S133.2,47.39,126.346,48.855" transform="translate(124.476 28.297)" fill="#ffb74d"/>
            <path id="Trazado_890748" data-name="Trazado 890748" d="M121.6,39.562a5.945,5.945,0,0,1-7.187-4.334,5.94,5.94,0,0,1,4.79-6.888,6.475,6.475,0,0,1,.913-.125l.013,0A5.691,5.691,0,0,1,122.5,39.3l-.013,0a6.68,6.68,0,0,1-.886.259" transform="translate(127.939 31.565)" fill="#d8953d"/>
            <path id="Trazado_890749" data-name="Trazado 890749" d="M121.547,39.3l-.013,0c-3.306.778-5.657-1.66-6.254-4.464s.651-6.246,3.885-6.623a.008.008,0,0,1,.013,0,5.691,5.691,0,0,1,2.37,11.087" transform="translate(128.886 31.566)" fill="#ffe060"/>
            <path id="Trazado_890750" data-name="Trazado 890750" d="M120.251,23.854c-3.219,0-5.831-1.573-5.831-3.514s2.611-3.512,5.831-3.512,5.831,1.573,5.831,3.512-2.611,3.514-5.831,3.514" transform="translate(128.086 18.838)" fill="#638db9"/>
            <path id="Trazado_890751" data-name="Trazado 890751" d="M120.19,22.421c-2.624,0-4.752-1.153-4.752-2.575s2.128-2.577,4.752-2.577,4.752,1.155,4.752,2.577-2.128,2.575-4.752,2.575" transform="translate(129.225 19.332)" fill="#89bbee"/>
            <path id="Trazado_890752" data-name="Trazado 890752" d="M120.128,20.5c-2.02,0-3.658-.589-3.658-1.316s1.638-1.316,3.658-1.316,3.658.589,3.658,1.316-1.638,1.316-3.658,1.316" transform="translate(130.381 19.998)" fill="#638db9"/>
            <path id="Trazado_890753" data-name="Trazado 890753" d="M122.35,58.628a9.808,9.808,0,1,1,9.809-9.809,9.809,9.809,0,0,1-9.809,9.809" transform="translate(125.982 43.673)" fill="#795637"/>
            <path id="Trazado_890754" data-name="Trazado 890754" d="M119.66,50.849a4.718,4.718,0,1,1,2.573-8.675c.5.329.979.7,1.465,1.051l-.326-.013a4.686,4.686,0,0,1,1.007,2.918,4.748,4.748,0,0,1-1.066,3h.267a14.491,14.491,0,0,1-1.842,1.238,4.645,4.645,0,0,1-2.077.481" transform="translate(128.67 46.36)" fill="#533b25"/>
            <path id="Trazado_890755" data-name="Trazado 890755" d="M120,49.281a3.7,3.7,0,1,1,3.87-3.692A3.785,3.785,0,0,1,120,49.281" transform="translate(129.994 46.904)" fill="#ac7a4d"/>
            <path id="Trazado_890756" data-name="Trazado 890756" d="M90.7,69.882c0,2.13-12.477,3.857-27.868,3.857s-27.866-1.727-27.866-3.857,12.477-3.857,27.866-3.857S90.7,67.752,90.7,69.882" transform="translate(39.137 73.911)" fill="#dbdad9"/>
            <path id="Trazado_890757" data-name="Trazado 890757" d="M44.181,22.745l2.806-2.857c.246-.273.574.286.354.579l-2.287,2.995a.566.566,0,1,1-.873-.716" transform="translate(49.28 22.182)" fill="#fca283"/>
            <path id="Trazado_890758" data-name="Trazado 890758" d="M62.87,82.924H50.37c-.242-.316.03-.85.735-.977A48.394,48.394,0,0,0,56.91,80.5a1.9,1.9,0,0,0,.966-2.107l-1.4-8.16-.54-3.175L53.913,55.17l8.83-.8.066,11.464.019,4.156.055,9.169.375,1.267c.335.837.553,2.058-.388,2.495" transform="translate(56.289 60.868)" fill="#fca283"/>
            <path id="Trazado_890759" data-name="Trazado 890759" d="M59.84,63.938c-.528.091-1.085.176-1.657.237a19.5,19.5,0,0,1-4.69,0L52.952,61a19.3,19.3,0,0,1,4.764-1.085c.727-.078,1.437-.127,2.1-.134Z" transform="translate(59.276 66.923)" fill="#382014"/>
            <path id="Trazado_890760" data-name="Trazado 890760" d="M51.3,60.457c-4.345,1.414-8.179,1.59-8.569.4a.487.487,0,0,1-.023-.121c-.14-1.2,3-3.224,7.2-4.582,4.283-1.39,8.075-1.583,8.55-.449a.329.329,0,0,0,.017.049c.388,1.189-2.827,3.3-7.172,4.7" transform="translate(47.803 61.534)" fill="#783322"/>
            <path id="Trazado_890761" data-name="Trazado 890761" d="M54.538,62.521a27.434,27.434,0,0,0-3.319.863,26.551,26.551,0,0,0-3.472,1.382l-5.9-11.918,8.162-3.47Z" transform="translate(46.847 55.276)" fill="#382014"/>
            <path id="Trazado_890762" data-name="Trazado 890762" d="M58.813,71.683l-2.931,8.325a.875.875,0,0,1-.818.564H48.97c-.46-.14-.023-.928.752-1.043,0,0,2.518-.322,2.762-1.238l.322-1.359a5.326,5.326,0,0,0-.352-3.3L46.472,61.55l-1.84-3.726A26.545,26.545,0,0,1,48.1,56.44a27.3,27.3,0,0,1,3.319-.86l1.335,3.883,3.173,9.211a1.6,1.6,0,0,0,.928.983c.3.114,2.378.746,1.954,2.026" transform="translate(49.963 62.219)" fill="#fca283"/>
            <path id="Trazado_890763" data-name="Trazado 890763" d="M62.425,28.578l-.091.333-.7,2.465-.716,2.548-12.956-.629-.971-5.475Z" transform="translate(52.606 31.142)" fill="#fca283"/>
            <path id="Trazado_890764" data-name="Trazado 890764" d="M61.488,28.524l-.7,2.463a37.566,37.566,0,0,1-4.673.267c-4.618,0-8.368-.691-8.368-1.541s3.749-1.547,8.368-1.547a36.485,36.485,0,0,1,5.371.358" transform="translate(53.453 31.531)" fill="#240d0d"/>
            <path id="Trazado_890765" data-name="Trazado 890765" d="M65.423,41.706,45.992,40.195c-.267-2.87,1.467-6.829,3.037-9.987a29.038,29.038,0,0,0,6.477.7c3.372.106,6.178-.068,6.757-.4H62.3c1.92,3.709,3.745,7.2,3.124,11.2" transform="translate(51.455 33.817)" fill="#cc4a29"/>
            <path id="Trazado_890766" data-name="Trazado 890766" d="M49.186,31.354l-.006.013v0a.2.2,0,0,1-.072.11c-.426.3-2.026-1.267-3.575-3.495a15.258,15.258,0,0,1-2.069-3.828,1.452,1.452,0,0,1-.066-.384c.085-.085.2-.206.352-.365.629.172,2,1.6,3.325,3.5,1.407,2.028,2.287,3.9,2.111,4.449" transform="translate(48.581 26.2)" fill="#240d0d"/>
            <path id="Trazado_890767" data-name="Trazado 890767" d="M43.751,23.417c-.153.157-.267.28-.352.365-.013-.176.023-.3.1-.352a.267.267,0,0,1,.248-.013" transform="translate(48.58 26.189)" fill="#c95867"/>
            <path id="Trazado_890768" data-name="Trazado 890768" d="M59.228,27.295c-1.651,1.348-3.077,2.639-4.449,3.925-.509.475-1.013.947-1.515,1.426-.316.3-.638.6-.96.892-1.437,1.342-2.925,2.694-4.665,4.1-1.354,1.094-4.54,2.707-6.269,1.507-1.541-1.081-1.511-3.224-.958-4.826A7.891,7.891,0,0,1,40.9,33.2l5.818-10.231a5.368,5.368,0,0,1,1.965-1.8l1.647-.615.407,1.407.339,1.166,2.244-2.088c.042-.042.091-.085.134-.121l.99,1.092Z" transform="translate(44.851 23.008)" fill="#fca283"/>
            <path id="Trazado_890769" data-name="Trazado 890769" d="M67.356,25.844c-.5,2.215-.863,4.618-1.231,7.087-.055.394-.117.788-.176,1.183-.237,1.609-.492,3.234-.788,4.843v.121c-.019.752-4.029,1.28-8.969,1.178s-8.925-.791-8.908-1.543c0,0-.176-1.808-.424-4.235-.032-.309-.061-.632-.091-.964-.292-2.882-.638-6.365-.88-8.781a3.6,3.6,0,0,1,.935-2.827,1.761,1.761,0,0,1,.134-.121,1.505,1.505,0,0,1,.193-.159,6.179,6.179,0,0,1,.655-.407,12.768,12.768,0,0,1,4.866-1.333,25.03,25.03,0,0,1,3.684-.074,30.7,30.7,0,0,1,3.156.322,17.124,17.124,0,0,1,6.371,2.026,4.435,4.435,0,0,1,.57.426,2.1,2.1,0,0,1,.523.636,3.976,3.976,0,0,1,.382,2.622" transform="translate(51.348 22.14)" fill="#401717"/>
            <path id="Trazado_890770" data-name="Trazado 890770" d="M53.073,14.805a2.09,2.09,0,0,1-2.865.553,2.091,2.091,0,0,1-1.161-2.677,2.089,2.089,0,0,1,2.865-.553,2.088,2.088,0,0,1,1.161,2.677" transform="translate(54.71 13.221)" fill="#382014"/>
            <path id="Trazado_890771" data-name="Trazado 890771" d="M51.607,29.44a3.091,3.091,0,1,1-5.318-3.071,3.091,3.091,0,1,1,5.318,3.071" transform="translate(51.247 27.482)" fill="#401717"/>
            <rect id="Rectángulo_411756" data-name="Rectángulo 411756" width="4.896" height="7.967" transform="translate(105.154 35.958)" fill="#fca283"/>
            <path id="Trazado_890772" data-name="Trazado 890772" d="M49.735,19.859c-.042.019-.085.036-.121.049V18.087c.812-.237,1.5-.176,1.655.176.189.437-.5,1.153-1.534,1.6" transform="translate(55.54 20.089)" fill="#240d0d"/>
            <path id="Trazado_890773" data-name="Trazado 890773" d="M59.7,27.927c-1.778,1.5-3.5,2.384-3.832,1.99s.833-1.941,2.615-3.44,3.495-2.384,3.83-1.99-.831,1.941-2.613,3.44" transform="translate(62.476 27.308)" fill="#240d0d"/>
            <path id="Trazado_890774" data-name="Trazado 890774" d="M67.691,41.4c-4.661,1.9-9.963,3.563-12.07,4.358l-1.808-3.55,8.709-5.7-2.762-3-.248-.273-1.5-1.626-.693-.752-2.391-2.6L53.1,26.271l4.078-3.9,1.159-1.111a81.819,81.819,0,0,1,6.99,7.064c2.713,3.046,5.224,6.274,5.686,8.077.5,1.935-.5,3.847-3.325,4.993" transform="translate(59.445 23.805)" fill="#fca283"/>
            <path id="Trazado_890775" data-name="Trazado 890775" d="M59.894,25.832a8.143,8.143,0,0,0-2.361,4.023l-.248-.273-1.5-1.626-.693-.752.924-2.67s5.636-.1,3.876,1.3" transform="translate(61.673 27.462)" fill="#240d0d"/>
            <path id="Trazado_890776" data-name="Trazado 890776" d="M65.825,28.39V28.4c-.333-.394-2.054.492-3.832,1.99s-2.946,3.039-2.613,3.44l-1.051-.971-5.655-4.726.632-2.9L56.752,21.9l1.513-1a4.985,4.985,0,0,1,.57.424,82.456,82.456,0,0,1,6.99,7.064" transform="translate(58.965 23.399)" fill="#401717"/>
            <path id="Trazado_890777" data-name="Trazado 890777" d="M56.187,20.135a12.656,12.656,0,0,1-.382,1.554c-1.1,3.518-3.429,5.922-5.195,5.364-1.729-.54-2.283-3.726-1.263-7.166a25.024,25.024,0,0,1,3.684-.074,30.7,30.7,0,0,1,3.156.322" transform="translate(54.67 22.14)" fill="#fca283"/>
            <path id="Trazado_890778" data-name="Trazado 890778" d="M58.539,21.523c-2.081,3.605-7.07,5.2-9.328,3.9s-2.257-5.9-.176-9.506,5.311-4.563,7.711-3.546c2.755,1.168,3.874,5.553,1.793,9.156" transform="translate(53.168 13.417)" fill="#fca283"/>
            <path id="Trazado_890779" data-name="Trazado 890779" d="M48.913,14.443,47.61,15.5a.59.59,0,0,0,.187,1.017l.926.307Z" transform="translate(53.053 16.169)" fill="#fca283"/>
            <path id="Trazado_890780" data-name="Trazado 890780" d="M58.484,23.124c-1.359.28-2.6-1.117-3.2-3.234-.017-.055-.03-.114-.042-.17-.837-.163-1.365-1.274-2.2-1.857-2.244-1.566-4.15-3.69-3.052-5.1.88-1.13,4.016-2,6.244,0a9.737,9.737,0,0,1,.727.716,7.814,7.814,0,0,1,1.895,3.111A3.61,3.61,0,0,0,59.581,18a3.52,3.52,0,0,1,.608,1c.7,1.736-.1,3.781-1.706,4.12" transform="translate(55.601 12.955)" fill="#382014"/>
            <path id="Trazado_890781" data-name="Trazado 890781" d="M56.422,18A4.775,4.775,0,0,1,54,15.986c-.886-1.31-1.185-2.73-.808-3.512a7.8,7.8,0,0,1,1.893,3.111,3.642,3.642,0,0,0,.729,1.409,3.512,3.512,0,0,1,.606,1" transform="translate(59.369 13.964)" fill="#240d0d"/>
            <path id="Trazado_890782" data-name="Trazado 890782" d="M57.774,20.071c0,1.857-1.982,2.925-3.643,2.815a3.1,3.1,0,0,1-2.658-1.429,2.709,2.709,0,0,1-.155-1.687c.106-.7.286-1.386.407-2.083a3.417,3.417,0,0,0-1.087-3.374l3.98-.521,1.28,3.756a2.823,2.823,0,0,1,1.876,2.524" transform="translate(56.686 15.439)" fill="#382014"/>
            <path id="Trazado_890783" data-name="Trazado 890783" d="M51.131,17.536l-.019-.013c-.03-.036-.053-.072-.078-.108a1.1,1.1,0,0,0,.1.121" transform="translate(57.129 19.496)" fill="#472826"/>
            <path id="Trazado_890784" data-name="Trazado 890784" d="M53.846,15.761c.356.682-.14,1.647-1.111,2.153a1.767,1.767,0,0,1-2.4-.316c-.356-.68.14-1.645,1.111-2.153a1.769,1.769,0,0,1,2.4.316" transform="translate(56.214 16.95)" fill="#fca283"/>
            <path id="Trazado_890785" data-name="Trazado 890785" d="M49,34.652c.176-.547-.7-2.42-2.111-4.449-1.329-1.905-2.7-3.33-3.325-3.5a82.677,82.677,0,0,1,6.165-5.837,4.939,4.939,0,0,1,.655-.407l.14,1.657,1.189,9.374Z" transform="translate(48.767 22.902)" fill="#401717"/>
            <path id="Trazado_890786" data-name="Trazado 890786" d="M51.691,17.121a.082.082,0,0,1-.07-.04.08.08,0,0,1,.032-.1c.5-.263.765-.755.587-1.1s-.733-.4-1.234-.144a.079.079,0,0,1-.1-.032.075.075,0,0,1,.034-.1,1.053,1.053,0,0,1,1.437.208c.218.415-.074,1-.649,1.3a.073.073,0,0,1-.034.008" transform="translate(56.973 17.272)" fill="#45271a"/>
            <path id="Trazado_890787" data-name="Trazado 890787" d="M45.921,29.523a.152.152,0,0,1-.148-.127c-.434-2.554,2.124-4.934,2.234-5.034a.152.152,0,1,1,.2.225c-.025.023-2.545,2.367-2.139,4.758a.153.153,0,0,1-.125.176l-.025,0" transform="translate(51.183 27.228)" fill="#240d0d"/>
            <path id="Trazado_890788" data-name="Trazado 890788" d="M49.955,29.85a.152.152,0,0,1-.148-.127c-.434-2.554,2.124-4.934,2.234-5.034a.153.153,0,0,1,.214.011.151.151,0,0,1-.011.214c-.025.023-2.545,2.367-2.139,4.758a.153.153,0,0,1-.125.176l-.025,0" transform="translate(55.699 27.596)" fill="#240d0d"/>
            <path id="Trazado_890789" data-name="Trazado 890789" d="M44.819,23.761h-.013a.3.3,0,0,1-.29-.316l.07-1.744a1.8,1.8,0,0,1,.579-1.267,1.509,1.509,0,0,1,1.119-.392.3.3,0,0,1,.28.324.3.3,0,0,1-.322.282.9.9,0,0,0-.672.237,1.188,1.188,0,0,0-.377.841l-.07,1.744a.3.3,0,0,1-.3.29" transform="translate(49.833 22.432)" fill="#73a7de"/>
            <path id="Trazado_890790" data-name="Trazado 890790" d="M46.57,26.837h-.013a.3.3,0,0,1-.29-.316l.184-4.637a1.141,1.141,0,0,0-.973-1.238.305.305,0,0,1-.282-.324.3.3,0,0,1,.324-.282,1.755,1.755,0,0,1,1.539,1.867l-.187,4.639a.3.3,0,0,1-.3.29" transform="translate(50.594 22.434)" fill="#73a7de"/>
            <path id="Trazado_890791" data-name="Trazado 890791" d="M54.744,30.966a6.46,6.46,0,0,0-1.594,1.153,1.448,1.448,0,0,0-.195,1.405,3.058,3.058,0,0,0,2.052,2.1,3.307,3.307,0,0,0,.952.015,1.489,1.489,0,0,0,1.128-2.172v0s-1.52-2.918-2.342-2.5" transform="translate(59.169 34.619)" fill="#fca283"/>
            <path id="Trazado_890792" data-name="Trazado 890792" d="M54.662,32.585l1.935,1.1-.485.006,1.075-.4-.212.532-.182-.583a.4.4,0,0,1,.752-.276l.237.564a.417.417,0,0,1-.212.532l-.964.619a.476.476,0,0,1-.483.006l-2.079-.805a.721.721,0,1,1,.619-1.3" transform="translate(59.986 36.365)" fill="#fca283"/>
            <path id="Trazado_890793" data-name="Trazado 890793" d="M54.585,32.129l1.935,1.1-.485.006,1.075-.4-.212.532-.182-.583a.4.4,0,0,1,.263-.5c.481-.144.574.492.727.791a.417.417,0,0,1-.212.532l-.964.619a.476.476,0,0,1-.483.006l-2.079-.805a.721.721,0,1,1,.619-1.3" transform="translate(59.9 35.855)" fill="#fca283"/>
            <path id="Trazado_890794" data-name="Trazado 890794" d="M69.4,88.664h-.019c.172,1.238-3.325,2.743-7.808,3.361a18.846,18.846,0,0,1-7.064-.108c-.812-.237-1.31-.576-1.371-1.009a.21.21,0,0,1-.006-.059h-.017a77.007,77.007,0,0,1-1.687-12.8c-.384-4.97-.771-11.924-1.2-22.1-.261-6.237-.475-14.775-.752-21.006L61.514,34.2c.691,7.439,1.231,16.555,2.55,23.9,2.274,12.647,4.781,25.183,5.339,30.564" transform="translate(55.392 38.289)" fill="#cc4a29"/>
            <path id="Trazado_890795" data-name="Trazado 890795" d="M51.738,64.126s3.951,5.25,9.237,17.161h-.006c-.475-1.136-4.266-.941-8.55.447-4.2,1.361-7.337,3.381-7.2,4.582-1.814-8.478-5.665-21.012-4.57-25.887,1.39-6.174,12.725-28.314,12.725-28.314l10.517,7.611Z" transform="translate(45.29 35.952)" fill="#cc4a29"/>
            <path id="Trazado_890796" data-name="Trazado 890796" d="M49.577,15.049a.449.449,0,1,1-.11-.712.523.523,0,0,1,.11.712" transform="translate(54.549 16.006)" fill="#240d0d"/>
            <path id="Trazado_890797" data-name="Trazado 890797" d="M48.59,16.921a.733.733,0,0,1-.7-.35.078.078,0,0,1,.038-.1.077.077,0,0,1,.1.038c.006.013.159.316.7.252a2.049,2.049,0,0,0,1.2-.85l.074-.091a.076.076,0,0,1,.117.1c-.023.025-.047.055-.074.089a2.175,2.175,0,0,1-1.3.907,1.4,1.4,0,0,1-.159.008" transform="translate(53.603 17.679)" fill="#45271a"/>
            <path id="Trazado_890798" data-name="Trazado 890798" d="M49.318,13.361A1.692,1.692,0,0,1,50.75,14.91a.154.154,0,0,1-.271.091,18.236,18.236,0,0,1-1.4-1.212.265.265,0,0,1,.239-.428" transform="translate(54.872 14.953)" fill="#240d0d"/>
            <path id="Trazado_890799" data-name="Trazado 890799" d="M50.24,75.9c-.958-.267-2.016-.528-3.137-.765.066-.509.14-1.007.212-1.5.5-4.114.844-8.27,1.019-12.433.237-4.2-.066-8.4.29-12.585a97.782,97.782,0,0,1,1.814-12.475,97.469,97.469,0,0,0-.8,12.511c-.019,4.2.629,8.361.721,12.549.165,4.9.2,9.8-.121,14.7" transform="translate(52.729 40.45)" fill="#66650c"/>
            <path id="Trazado_890800" data-name="Trazado 890800" d="M44.092,21.97c.379-.276,2.132-1.545,2.473-1.791a.947.947,0,0,1,.943-.034l1.382.636c.341.157-.148.553-.5.434l-1.149-.377c-.153-.049-.136-.047-.2.006-.271.252-1.895,1.742-2.2,2.028a.583.583,0,1,1-.738-.9" transform="translate(49.085 22.429)" fill="#fca283"/>
            <path id="Trazado_890801" data-name="Trazado 890801" d="M44.242,21.877l2.363-1.068c.2-.087.7-.318.886-.4a1.132,1.132,0,0,1,.454-.146.941.941,0,0,1,.782.5l.507.75c.242.286-.286.426-.545.159-.157-.15-.543-.536-.693-.682l0,.015c0,.006.017,0,0,.013l-.138.083c-.574.337-2.469,1.454-3.073,1.81a.583.583,0,1,1-.536-1.034" transform="translate(49.144 22.68)" fill="#fca283"/>
            <path id="Trazado_890802" data-name="Trazado 890802" d="M44.342,22.225c.4-.195,2.312-1.121,2.666-1.295.14-.059.3-.153.456-.21.57-.231,1.2.4,1.615.689.477.326-.125.57-.443.4-.377-.178-.767-.517-.9-.379-.564.365-2.236,1.433-2.823,1.808a.583.583,0,1,1-.57-1.015" transform="translate(49.271 23.14)" fill="#fca283"/>
            <path id="Trazado_890803" data-name="Trazado 890803" d="M44.967,21.806l1.409-.646a1.187,1.187,0,0,1,1.087-.112,5.238,5.238,0,0,1,.748.708c.271.242-.165.536-.462.335a5.553,5.553,0,0,0-.581-.356c-.117,0-.07,0-.352.195l-1.272.888a.584.584,0,1,1-.579-1.011" transform="translate(49.956 23.457)" fill="#fca283"/>
            <path id="Trazado_890804" data-name="Trazado 890804" d="M51,21.814a7.083,7.083,0,0,1-2.03,1.912l-.034.017s-2.041,8.384-3.87,11.142-4.476-1.651-4.476-1.651l7.454-11.966Z" transform="translate(45.439 23.808)" fill="#fca283"/>
            <path id="Trazado_890805" data-name="Trazado 890805" d="M43.273,30.34l-.023,0a.075.075,0,0,1-.049-.1l2.024-6.418a.077.077,0,0,1,.146.047l-2.026,6.418a.077.077,0,0,1-.072.053" transform="translate(48.357 26.61)" fill="#45271a"/>
            <path id="Trazado_890806" data-name="Trazado 890806" d="M56.98,28.19l-.055,0L42.869,25.67a.3.3,0,0,1-.1-.562c2.929-1.717,5.4-2.363,7.547-1.98l.316.057c2.145.384,4.3,1.857,6.577,4.5a.3.3,0,0,1-.229.5M43.808,25.22l12.361,2.213c-1.967-2.128-3.819-3.323-5.644-3.65l-.314-.057c-1.825-.329-3.925.163-6.4,1.494" transform="translate(47.709 25.772)" fill="#73a7de"/>
            <path id="Trazado_890807" data-name="Trazado 890807" d="M43.338,25.039a.293.293,0,0,0,.006.119c0-.076,0-.121-.006-.119" transform="translate(48.51 28.03)" fill="#ffb74d"/>
            <path id="Trazado_890808" data-name="Trazado 890808" d="M66.14,91.432c-.165,1.019-2.6,1.547-6.2,1.534.013-.108.03-.225.042-.333a132.9,132.9,0,0,0,.5-19.083C60.386,69.363,59.74,65.2,59.754,61a97.148,97.148,0,0,1,.8-12.513,97.87,97.87,0,0,0-1.814,12.477c-.356,4.18-.055,8.384-.29,12.585-.176,4.163-.517,8.319-1.019,12.433-.326,2.208-.593,4.563-1.087,6.814-1.486-.121-3.082-.316-4.731-.583C43.863,90.96,37.8,88.575,38.075,86.888l0-.038h-.011c1.549-7.075,4.377-17.371,6.172-24.513C46.338,54.52,47.6,46.4,51,38.938l.006-.006a2.129,2.129,0,0,0,.036-1.729l-.182-.443a5.484,5.484,0,0,0-.655-1.153,10.932,10.932,0,0,1-1.225-1.935,4.016,4.016,0,0,1-.348-1.59,3.279,3.279,0,0,1,.055-.608s.528-5.515.553-6.377c.089.674,1.024,4.328,3.508,4.546,2.73.237,5.369-4.15,5.369-4.15s-.782,5.727.892,6.274,2.459-3.077,2.459-3.077v5A13.657,13.657,0,0,1,61,37.543a2.192,2.192,0,0,0,.146,1.583c3.815,7.7,4.434,16.5,5.248,24.914a148.175,148.175,0,0,1-.259,27.392" transform="translate(42.612 28.094)" fill="#ffb74d"/>
            <path id="Trazado_890809" data-name="Trazado 890809" d="M49.306,36.6c-1.289,0-1.984-3.359-1.984-6.519s.7-6.519,1.984-6.519,1.984,3.359,1.984,6.519-.7,6.519-1.984,6.519m0-12.672c-.765,0-1.617,2.526-1.617,6.153s.852,6.153,1.617,6.153,1.617-2.526,1.617-6.153-.852-6.153-1.617-6.153" transform="translate(52.974 26.372)" fill="#ffb74d"/>
            <path id="Trazado_890810" data-name="Trazado 890810" d="M45.238,36.354c-1.291,0-1.986-3.472-1.986-6.738s.7-6.74,1.986-6.74,1.986,3.472,1.986,6.74-.7,6.738-1.986,6.738m0-13.1c-.763,0-1.613,2.615-1.613,6.367s.85,6.367,1.613,6.367,1.613-2.615,1.613-6.367S46,23.25,45.238,23.25" transform="translate(48.418 25.61)" fill="#ffb74d"/>
            <path id="Trazado_890811" data-name="Trazado 890811" d="M60.65,17.425a4.576,4.576,0,0,1-6.462.206,4.578,4.578,0,0,1,.206-6.462,4.578,4.578,0,0,1,6.462-.206,4.576,4.576,0,0,1-.206,6.462" transform="translate(59.274 10.887)" fill="#382014"/>
            <path id="Trazado_890812" data-name="Trazado 890812" d="M54.9,33.881a.076.076,0,0,1-.049-.017.631.631,0,0,1-.216-.471.572.572,0,0,1,.309-.428,6.932,6.932,0,0,1,1.6-.619.073.073,0,0,1,.091.055.075.075,0,0,1-.055.091,7.9,7.9,0,0,0-1.369.5.085.085,0,0,1,.07.038c.07.125.35.649.35.649a.074.074,0,0,1,0,.07.079.079,0,0,1-.057.04l-.668.1H54.9m.256-.863c-.047.025-.089.051-.131.076a.433.433,0,0,0-.24.309.455.455,0,0,0,.142.322l.521-.076c-.085-.155-.246-.458-.3-.547a.081.081,0,0,1,.006-.085" transform="translate(61.164 36.207)" fill="#45271a"/>
            <path id="Trazado_890813" data-name="Trazado 890813" d="M55.726,33.135a.074.074,0,0,1-.059-.03l-.426-.538a.077.077,0,0,1,.013-.106.075.075,0,0,1,.106.013l.426.538a.075.075,0,0,1-.013.106.064.064,0,0,1-.047.017" transform="translate(61.82 36.32)" fill="#45271a"/>
            <path id="Trazado_890814" data-name="Trazado 890814" d="M45.129,21.2a.076.076,0,0,1-.036-.144l1.354-.706a.6.6,0,0,1,.682.053l.4.341a.074.074,0,0,1,.008.106.077.077,0,0,1-.108.008l-.4-.339a.447.447,0,0,0-.511-.036l-1.356.708a.075.075,0,0,1-.036.008" transform="translate(50.434 22.693)" fill="#45271a"/>
            <path id="Trazado_890815" data-name="Trazado 890815" d="M45.205,21.4a.075.075,0,0,1-.032-.144l1.115-.494a.957.957,0,0,1,.81.017l.672.329a.076.076,0,0,1,.032.1.072.072,0,0,1-.1.034l-.668-.329a.822.822,0,0,0-.685-.015l-1.115.494-.03.006" transform="translate(50.519 23.153)" fill="#45271a"/>
            <path id="Trazado_890816" data-name="Trazado 890816" d="M47.37,21.618a.064.064,0,0,1-.047-.017l-.553-.434a.42.42,0,0,0-.415-.057l-1.06.434a.076.076,0,0,1-.057-.14l1.06-.434a.568.568,0,0,1,.566.078l.553.434a.076.076,0,0,1-.047.136" transform="translate(50.588 23.427)" fill="#45271a"/>
            <path id="Trazado_890817" data-name="Trazado 890817" d="M57.344,29.878a.078.078,0,0,1-.066-.036.076.076,0,0,1,.025-.1l3.569-2.17a.076.076,0,1,1,.078.129l-3.567,2.17a.1.1,0,0,1-.04.011" transform="translate(64.108 30.849)" fill="#45271a"/>
          </g>
        </g>
      </g>
    </g>
  </g>
</svg>
