<svg xmlns="http://www.w3.org/2000/svg" xmlns:xlink="http://www.w3.org/1999/xlink" width="190" height="187" viewBox="0 0 190 187">
  <defs>
    <clipPath id="clip-path">
      <rect id="Rect치ngulo_411859" data-name="Rect치ngulo 411859" width="190" height="187" transform="translate(1230 387)" fill="#fff" stroke="#707070" stroke-width="1"/>
    </clipPath>
    <clipPath id="clip-path-2">
      <rect id="Rect치ngulo_411858" data-name="Rect치ngulo 411858" width="115.83" height="149.263" fill="#ffb74d"/>
    </clipPath>
  </defs>
  <g id="Enmascarar_grupo_1098744" data-name="Enmascarar grupo 1098744" transform="translate(-1230 -387)" clip-path="url(#clip-path)">
    <g id="Grupo_1121665" data-name="Grupo 1121665" transform="translate(1260.462 405.256)">
      <g id="Grupo_1127105" data-name="Grupo 1127105">
        <g id="Grupo_1121664" data-name="Grupo 1121664" clip-path="url(#clip-path-2)">
          <path id="Trazado_890707" data-name="Trazado 890707" d="M113.644,46.79A2.186,2.186,0,0,0,115.83,44.6V9.806a5.108,5.108,0,0,0-5.1-5.1h-4.384V2.187a2.186,2.186,0,1,0-4.373,0V4.7H96.89V2.187a2.186,2.186,0,1,0-4.373,0V4.7H87.436V2.187a2.186,2.186,0,1,0-4.373,0V4.7H77.983V2.187a2.186,2.186,0,1,0-4.373,0V4.7H68.529V2.187a2.186,2.186,0,1,0-4.373,0V4.7H59.075V2.187a2.186,2.186,0,1,0-4.373,0V4.7H49.621V2.187a2.186,2.186,0,1,0-4.373,0V4.7H40.167V2.187a2.186,2.186,0,1,0-4.373,0V4.7H30.713V2.187a2.186,2.186,0,1,0-4.373,0V4.7H21.957a5.108,5.108,0,0,0-5.1,5.1V48.289l-2.979-2.978a6.559,6.559,0,0,0-9.276,0L1.918,47.993a6.567,6.567,0,0,0,0,9.276L5.359,60.71l11.5,11.5v71.955a5.108,5.108,0,0,0,5.1,5.1h88.772a5.108,5.108,0,0,0,5.1-5.1V54.88a2.186,2.186,0,1,0-4.373,0v81.828H50.431a2.186,2.186,0,0,0,0,4.373h61.027v3.08a.73.73,0,0,1-.729.729H21.956a.73.73,0,0,1-.728-.729v-3.08H39.936a2.186,2.186,0,0,0,0-4.373H21.228V76.58L44.006,99.358l-5.26,18.394a5.1,5.1,0,0,0,4.905,6.5H89.034a5.1,5.1,0,0,0,4.906-6.5L81.047,72.673l3.065-8.4A45.767,45.767,0,0,0,86.9,48.531v-11.8a5.108,5.108,0,0,0-5.1-5.1h-30.9a5.108,5.108,0,0,0-5.1,5.1v11.8a45.786,45.786,0,0,0,2.783,15.742l3.066,8.4L49.325,80.76l-28.1-28.1V9.806a.729.729,0,0,1,.729-.729H26.34v2.362a2.186,2.186,0,1,0,4.373,0V9.077h5.081v2.362a2.186,2.186,0,1,0,4.373,0V9.077h5.081v2.362a2.186,2.186,0,1,0,4.373,0V9.077H54.7v2.362a2.186,2.186,0,1,0,4.373,0V9.077h5.081v2.362a2.187,2.187,0,1,0,4.374,0V9.077h5.081v2.362a2.186,2.186,0,1,0,4.373,0V9.077h5.081v2.362a2.186,2.186,0,1,0,4.373,0V9.077h5.081v2.362a2.186,2.186,0,1,0,4.373,0V9.077h5.081v2.362a2.186,2.186,0,1,0,4.373,0V9.077h4.384a.73.73,0,0,1,.729.729V44.6A2.185,2.185,0,0,0,113.644,46.79ZM5.01,54.178a2.189,2.189,0,0,1,0-3.093L7.692,48.4a2.188,2.188,0,0,1,3.093,0l1.9,1.9L6.906,56.073Zm48.883,65.706H43.651a.728.728,0,0,1-.7-.929l4.595-16.068a3.609,3.609,0,0,0,1.1.7l6.784,2.75Zm6.237-16.359-7.359-2.984,4.376-4.376ZM52.862,84.3l2.723-9.519h3.408L57.4,88.838Zm36.873,34.658a.729.729,0,0,1-.7.929H78.791l-2.43-21.5a2.186,2.186,0,0,0-4.345.491l2.374,21.009H58.3l1.338-11.843.451.183a3.643,3.643,0,0,0,4.746-4.747l-3.661-9.031,2.223-19.67h5.9l1.562,13.818A2.187,2.187,0,0,0,75.2,88.1L73.692,74.777H77.1ZM72.538,36a7.59,7.59,0,0,1-12.392,0ZM50.163,48.531v-11.8A.729.729,0,0,1,50.892,36h4.326a11.954,11.954,0,0,0,22.25,0h4.327a.73.73,0,0,1,.729.729v11.8A41.4,41.4,0,0,1,80,62.774L77.22,70.4H55.465L52.68,62.774a41.423,41.423,0,0,1-2.518-14.242m4.592,43.841L48.98,98.147,27.271,76.438l5.774-5.774Zm-24.8-24.8-5.773,5.773L10.227,59.4l1.341-1.341,8.28,8.28a2.187,2.187,0,0,0,3.093-3.092l-8.281-8.28L16,53.622Z" fill="#ffb74d"/>
        </g>
      </g>
    </g>
  </g>
</svg>
