<svg xmlns="http://www.w3.org/2000/svg" xmlns:xlink="http://www.w3.org/1999/xlink" width="190" height="246" viewBox="0 0 190 246">
  <defs>
    <clipPath id="clip-path">
      <rect id="Rectángulo_411860" data-name="Rectángulo 411860" width="134.005" height="133.36" fill="none"/>
    </clipPath>
    <clipPath id="clip-path-2">
      <path id="Trazado_890722" data-name="Trazado 890722" d="M78.875,1.747,75.284,27.053c5.885,3.31,16.673.7,16.673.7L88.461,1.4Z" transform="translate(-75.284 -1.404)" fill="none"/>
    </clipPath>
    <clipPath id="clip-path-3">
      <path id="Trazado_890729" data-name="Trazado 890729" d="M27.308,44.157l49,1.814.931,25.872L68.58,119.969l50.982.607-9.039-98.233L27.285,20.031Z" transform="translate(-27.285 -20.031)" fill="none"/>
    </clipPath>
  </defs>
  <g id="Grupo_1127108" data-name="Grupo 1127108" transform="translate(-705 -829)">
    <rect id="Rectángulo_411864" data-name="Rectángulo 411864" width="190" height="246" rx="12" transform="translate(705 829)" fill="#ece7f6"/>
    <path id="Trazado_890708" data-name="Trazado 890708" d="M83.385,0,80.6.044l-.8,2.429,4.227.079Z" transform="translate(760.66 887)" fill="#6a3e58"/>
    <g id="Grupo_1121666" data-name="Grupo 1121666" transform="translate(732.998 887)" clip-path="url(#clip-path)">
      <path id="Trazado_890709" data-name="Trazado 890709" d="M78.875,1.748l9.587-.343,3.495,26.35s-10.788,2.608-16.671-.7Z" transform="translate(26.096 0.487)" fill="#7a90e4" fill-rule="evenodd"/>
    </g>
    <g id="Grupo_1121669" data-name="Grupo 1121669" transform="translate(834.378 888.891)">
      <g id="Grupo_1121668" data-name="Grupo 1121668" clip-path="url(#clip-path-2)">
        <path id="Trazado_890710" data-name="Trazado 890710" d="M91.8,5.934c-2.835,2.268-5.317,4.915-7.906,7.448a91.582,91.582,0,0,1-9.329,8.2.259.259,0,1,0,.31.415,91.959,91.959,0,0,0,9.382-8.243,107.677,107.677,0,0,1,7.868-7.415.259.259,0,1,0-.325-.4" transform="translate(-75.57 0.146)" fill="#6b80ce" fill-rule="evenodd"/>
        <path id="Trazado_890711" data-name="Trazado 890711" d="M93.224,9.859c-6.749,4.727-12.47,10.815-19.357,15.379a.259.259,0,0,0,.287.431C81.042,21.1,86.768,15.013,93.522,10.283a.259.259,0,1,0-.3-.424" transform="translate(-75.815 1.51)" fill="#6b80ce" fill-rule="evenodd"/>
        <path id="Trazado_890712" data-name="Trazado 890712" d="M93.535,12.984c-2.285,2.239-4.868,4.176-7.341,6.2-2.775,2.272-5.539,4.587-8.469,6.659a.259.259,0,0,0,.3.423c2.942-2.079,5.714-4.4,8.5-6.683C89.009,17.552,91.6,15.6,93.9,13.354a.26.26,0,0,0,0-.368.256.256,0,0,0-.364,0" transform="translate(-74.476 2.584)" fill="#6b80ce" fill-rule="evenodd"/>
        <path id="Trazado_890713" data-name="Trazado 890713" d="M94.27,23.209c-2.522-1-4.781-2.7-7.172-3.974-4.324-2.3-8.757-4.406-13.166-6.539a.259.259,0,0,0-.225.466c4.4,2.13,8.83,4.231,13.147,6.53,2.41,1.283,4.685,2.991,7.225,4a.259.259,0,1,0,.191-.482" transform="translate(-75.882 2.501)" fill="#6b80ce" fill-rule="evenodd"/>
        <path id="Trazado_890714" data-name="Trazado 890714" d="M90.4,24.423c-1.1-.634-2.252-1.172-3.361-1.791-4.439-2.483-8.936-4.9-13.585-6.962a.259.259,0,1,0-.21.473c4.634,2.062,9.118,4.467,13.542,6.941,1.108.621,2.257,1.154,3.357,1.788a.258.258,0,1,0,.257-.448" transform="translate(-76.045 3.533)" fill="#6b80ce" fill-rule="evenodd"/>
        <path id="Trazado_890715" data-name="Trazado 890715" d="M94.981,14.686c-2.594-1.166-5.045-2.66-7.506-4.075-3.959-2.279-7.938-4.5-12.082-6.426a.259.259,0,0,0-.218.47c4.13,1.92,8.1,4.133,12.043,6.4,2.475,1.425,4.941,2.925,7.551,4.1a.259.259,0,1,0,.213-.473" transform="translate(-75.374 -0.448)" fill="#6b80ce" fill-rule="evenodd"/>
        <path id="Trazado_890716" data-name="Trazado 890716" d="M92.511,10.11A131.407,131.407,0,0,0,74.9,1a.259.259,0,1,0-.2.477A130.544,130.544,0,0,1,92.24,10.552a.259.259,0,0,0,.271-.442" transform="translate(-75.541 -1.553)" fill="#6b80ce" fill-rule="evenodd"/>
        <path id="Trazado_890717" data-name="Trazado 890717" d="M90.24,5.977A66.5,66.5,0,0,0,80.136.948a.259.259,0,0,0-.2.475A66.165,66.165,0,0,1,89.958,6.41a.258.258,0,1,0,.281-.434" transform="translate(-73.727 -1.569)" fill="#6b80ce" fill-rule="evenodd"/>
        <path id="Trazado_890718" data-name="Trazado 890718" d="M88.973,1C86.3,3.171,83.9,5.663,81.35,7.969c-1.667,1.506-3.629,2.693-5.245,4.243a.259.259,0,1,0,.358.373c1.613-1.546,3.571-2.73,5.234-4.231,2.548-2.3,4.937-4.787,7.6-6.954a.258.258,0,1,0-.326-.4" transform="translate(-75.027 -1.565)" fill="#442639" fill-rule="evenodd"/>
        <path id="Trazado_890719" data-name="Trazado 890719" d="M89.487,3.5c-2.657,1.741-4.816,4.232-7.153,6.362-2.126,1.935-4.5,3.555-6.648,5.465a.259.259,0,1,0,.345.386c2.145-1.91,4.525-3.531,6.652-5.469,2.318-2.11,4.453-4.585,7.089-6.31a.259.259,0,0,0-.284-.434" transform="translate(-75.175 -0.692)" fill="#442639" fill-rule="evenodd"/>
        <path id="Trazado_890720" data-name="Trazado 890720" d="M94.779,20.045c-2.023-.886-3.952-1.965-5.943-2.917-5.113-2.448-10.329-4.67-15.61-6.717a.259.259,0,1,0-.189.482c5.271,2.044,10.473,4.258,15.575,6.7,1.994.955,3.931,2.035,5.959,2.924a.259.259,0,0,0,.207-.474" transform="translate(-76.12 1.712)" fill="#442639" fill-rule="evenodd"/>
        <path id="Trazado_890721" data-name="Trazado 890721" d="M93.939,17.1c-6.646-3.437-13.54-6.5-20.457-9.344a.259.259,0,0,0-.2.479c6.9,2.836,13.783,5.9,20.415,9.324a.259.259,0,1,0,.238-.459" transform="translate(-76.032 0.79)" fill="#442639" fill-rule="evenodd"/>
      </g>
    </g>
    <g id="Grupo_1127106" data-name="Grupo 1127106" transform="translate(732.998 887)">
      <path id="Trazado_890723" data-name="Trazado 890723" d="M55.163,10.516c.64.011.722-2.3.73-3.271.009-.89-.152-2.494-.679-2.582-.51-.083-.73,1.566-.738,2.4-.009.976-.143,3.435.687,3.449m-.724.808A4.006,4.006,0,0,1,53.4,9.081,14.335,14.335,0,0,1,54.05,3.7c.184-.527.469-1.27,1.034-1.4.478-.108.939.611,1.061.827a6.844,6.844,0,0,1,.474,1.065,9.093,9.093,0,0,1,.349,1.578c.544,3.255-.648,4.482-1.228,5.646a98.581,98.581,0,0,1-.214,12.222c-.125,1.581-.275,3.162-.477,4.736a10.8,10.8,0,0,1-.167,1.12c-.012.048-.137.361-.259.3-.426-.206-.42-.949-.466-1.332a33.867,33.867,0,0,1-.1-3.982c0-4.468.256-8.7.384-13.159" transform="translate(18.49 0.794)" fill="#a4c0d0" fill-rule="evenodd"/>
      <path id="Trazado_890724" data-name="Trazado 890724" d="M36.1,10.516c.64.011.722-2.3.73-3.271.009-.89-.152-2.494-.679-2.582-.51-.083-.73,1.566-.738,2.4-.008.976-.143,3.435.687,3.449m-.724.808a4.006,4.006,0,0,1-1.036-2.243A14.335,14.335,0,0,1,34.984,3.7c.184-.527.469-1.27,1.034-1.4.478-.108.939.611,1.061.827a6.846,6.846,0,0,1,.474,1.065A9.093,9.093,0,0,1,37.9,5.772c.544,3.255-.648,4.482-1.228,5.646a98.58,98.58,0,0,1-.214,12.222c-.125,1.581-.275,3.162-.477,4.736a10.8,10.8,0,0,1-.167,1.12c-.012.048-.137.361-.259.3-.426-.206-.42-.949-.466-1.332a33.868,33.868,0,0,1-.1-3.982c0-4.468.256-8.7.384-13.159" transform="translate(11.881 0.794)" fill="#a4c0d0" fill-rule="evenodd"/>
      <path id="Trazado_890725" data-name="Trazado 890725" d="M39.72,6.665c-.083-.206-.163-.416-.236-.63a3.248,3.248,0,0,1,.648-3.419A1,1,0,0,1,41,2.388a1.285,1.285,0,0,1,.788.675,3.834,3.834,0,0,1-.114,3.684,8.621,8.621,0,0,1-.727,1.22,13.418,13.418,0,0,0,1.918,2.47c3.667,3.78,8.423,4.293,13.342,3.659a15.771,15.771,0,0,0,9.9-5.99,3.65,3.65,0,0,1,.271-.273c.005-.005.007-.209.009-.338.028.042.043.1.075.141A6.728,6.728,0,0,0,67.5,4.376c.018-.707-.132-1.329-.649-1.585-.443-.218-.823.048-1.073.52a3.673,3.673,0,0,0-.255,2.319l-.013.057a7.292,7.292,0,0,0-.149,1.044c0,.013-.019.035-.018.047a4.493,4.493,0,0,1-.023-3.709,1.279,1.279,0,0,1,1.76-.741,2.077,2.077,0,0,1,.939,2.062,7.281,7.281,0,0,1-1.182,3.618l-.034.044c2.211,2.591,7.087,5.694,11.285,6.138C92.345,15.7,97.658,10.549,100.4,8.015a.259.259,0,1,1,.351.38c-2.792,2.582-8.2,7.85-22.716,6.31-4.272-.452-9.219-3.581-11.549-6.235a16.287,16.287,0,0,1-10.212,6.139c-5.084.656-9.992.1-13.78-3.812a13.93,13.93,0,0,1-1.88-2.381,14.242,14.242,0,0,1-2.763,2.664c-5.057,3.641-12.308,7.393-18.7,6.036a.259.259,0,1,1,.106-.506c6.258,1.329,13.342-2.385,18.293-5.948a13.78,13.78,0,0,0,2.77-2.707.771.771,0,0,0,.081-.117c.093-.145.217-.277.3-.427a7.706,7.706,0,0,0,.506-.886,3.339,3.339,0,0,0,.132-3.2.8.8,0,0,0-.461-.43.5.5,0,0,0-.426.129,2.59,2.59,0,0,0-.584,2.471c-.026.1-.042.2-.058.294a5.151,5.151,0,0,0-.092.879" transform="translate(6.566 0.759)" fill="#442639" fill-rule="evenodd"/>
      <path id="Trazado_890726" data-name="Trazado 890726" d="M68.58,119.969l8.656-48.126-.929-25.87-49-1.815-.023-24.126,83.238,2.312,9.037,98.233Z" transform="translate(9.458 6.944)" fill="#a5d6a7" fill-rule="evenodd"/>
      <g id="Grupo_1127107" data-name="Grupo 1127107">
        <rect id="Rectángulo_411861" data-name="Rectángulo 411861" width="134.005" height="133.36" fill="none"/>
      </g>
    </g>
    <g id="Grupo_1121672" data-name="Grupo 1121672" transform="translate(769.74 913.974)" clip-path="url(#clip-path-3)">
      <path id="Trazado_890727" data-name="Trazado 890727" d="M58.238,87.852c13.188-1.084,26.619-.931,39.838-.73,4.352.065,8.717.326,13.07.228a.259.259,0,0,0-.013-.517c-4.346.1-8.7-.163-13.049-.229-13.235-.2-26.685-.353-39.889.733a.259.259,0,1,0,.043.516" transform="translate(-16.653 2.996)" fill="#442639" fill-rule="evenodd"/>
      <path id="Trazado_890728" data-name="Trazado 890728" d="M58.4,84.356c5.815-.943,11.947-.749,17.821-.817,12.3-.145,24.637.351,36.922.971a.259.259,0,1,0,.026-.517c-12.295-.621-24.642-1.118-36.954-.972-5.9.07-12.058-.123-17.9.824a.259.259,0,1,0,.082.512" transform="translate(-16.604 1.795)" fill="#442639" fill-rule="evenodd"/>
    </g>
    <g id="Grupo_1121674" data-name="Grupo 1121674" transform="translate(732.998 887)" clip-path="url(#clip-path)">
      <path id="Trazado_890730" data-name="Trazado 890730" d="M0,90.852l134.005.827-.871,10.189L.568,101.439Z" transform="translate(0 31.493)" fill="#95c195" fill-rule="evenodd"/>
      <path id="Trazado_890731" data-name="Trazado 890731" d="M18.218,60.754c.885.013,1-3.182,1.013-4.533.011-1.234-.213-3.457-.943-3.577-.707-.117-1.011,2.169-1.022,3.33-.011,1.352-.2,4.76.952,4.779m-1,1.119a5.545,5.545,0,0,1-1.434-3.109,19.958,19.958,0,0,1,.9-7.459c.257-.73.652-1.76,1.434-1.936.663-.149,1.3.85,1.472,1.146a9.4,9.4,0,0,1,.656,1.477,12.688,12.688,0,0,1,.483,2.186c.754,4.513-.9,6.212-1.7,7.827a136.492,136.492,0,0,1-.3,16.935c-.172,2.192-.38,4.383-.659,6.565a15.422,15.422,0,0,1-.233,1.55c-.018.069-.19.5-.36.419-.588-.285-.582-1.317-.644-1.848a46.842,46.842,0,0,1-.144-5.517c0-6.192.353-12.056.531-18.235" transform="translate(5.441 17.108)" fill="#a4c0d0" fill-rule="evenodd"/>
      <path id="Trazado_890732" data-name="Trazado 890732" d="M84.6,31.223c17.37,1.454,25.092,17.622,25.585,28.072.622,13.2-11.092,22.6-24.194,23.848a30.67,30.67,0,0,1-11.976-1.32,24.121,24.121,0,0,1-8.728-4.774A22.476,22.476,0,0,1,60.6,71.637C50.483,55.262,65.162,29.595,84.6,31.223" transform="translate(19.865 10.798)" fill="#d1c4e9" fill-rule="evenodd"/>
      <path id="Trazado_890733" data-name="Trazado 890733" d="M21.758,55.553l-.1,7.241-6.744.038-.048-7.992" transform="translate(5.154 19.009)" fill="#fc9080" fill-rule="evenodd"/>
      <path id="Trazado_890734" data-name="Trazado 890734" d="M41.238,23.718l.248,48.851L3.48,72.394l.669-44.022s-.2-17.525,19.693-17.514c5.282,0,14.975,3.051,17.4,12.86" transform="translate(1.206 3.764)" fill="#95c195" fill-rule="evenodd"/>
      <path id="Trazado_890735" data-name="Trazado 890735" d="M101.646,46.21A19.858,19.858,0,0,1,94.771,68.8,21.346,21.346,0,0,1,86.5,72.254C78.288,74.042,68.79,73.2,63.835,65.5a.259.259,0,1,0-.435.28c5.077,7.885,14.8,8.808,23.212,6.977a21.882,21.882,0,0,0,8.468-3.548,20.373,20.373,0,0,0,7.054-23.174.259.259,0,1,0-.487.172" transform="translate(21.962 15.898)" fill="#442639" fill-rule="evenodd"/>
    </g>
  </g>
</svg>
