<svg id="Grupo_1126301" data-name="Grupo 1126301" xmlns="http://www.w3.org/2000/svg" xmlns:xlink="http://www.w3.org/1999/xlink" width="34.941" height="87.948" viewBox="0 0 34.941 87.948">
  <defs>
    <clipPath id="clip-path">
      <rect id="Rectángulo_413665" data-name="Rectángulo 413665" width="34.941" height="87.948" fill="none"/>
    </clipPath>
  </defs>
  <g id="Grupo_1126300" data-name="Grupo 1126300" clip-path="url(#clip-path)">
    <path id="Trazado_896987" data-name="Trazado 896987" d="M36.523,207.314H12.486a.635.635,0,0,1-.634-.635v-2.2a2.711,2.711,0,0,1,2.711-2.711H34.447a2.711,2.711,0,0,1,2.711,2.711v2.2a.635.635,0,0,1-.635.635" transform="translate(-7.035 -119.773)" fill="#7c8388"/>
    <path id="Trazado_896988" data-name="Trazado 896988" d="M35.929,207.127H11.892a1.042,1.042,0,0,1-1.041-1.041v-2.2a3.121,3.121,0,0,1,3.117-3.117H33.853a3.121,3.121,0,0,1,3.117,3.117v2.2a1.042,1.042,0,0,1-1.041,1.041m-21.961-5.544a2.307,2.307,0,0,0-2.3,2.3v2.2a.229.229,0,0,0,.228.228H35.929a.229.229,0,0,0,.228-.228v-2.2a2.307,2.307,0,0,0-2.3-2.3Z" transform="translate(-6.441 -119.179)"/>
    <path id="Trazado_896989" data-name="Trazado 896989" d="M64.017,204.48v2.2a.635.635,0,0,1-.635.634H59.81V204.48a2.711,2.711,0,0,0-2.71-2.71h4.207a2.71,2.71,0,0,1,2.71,2.71" transform="translate(-33.895 -119.773)" fill="#575f64"/>
    <path id="Trazado_896990" data-name="Trazado 896990" d="M63.382,207.127H59.4v-3.241a2.307,2.307,0,0,0-2.3-2.3v-.813h4.207a3.12,3.12,0,0,1,3.117,3.117v2.2a1.042,1.042,0,0,1-1.041,1.041m-3.165-.813h3.165a.229.229,0,0,0,.228-.228v-2.2a2.306,2.306,0,0,0-2.3-2.3H59.2a3.11,3.11,0,0,1,1.02,2.3Z" transform="translate(-33.895 -119.179)"/>
    <rect id="Rectángulo_413663" data-name="Rectángulo 413663" width="5.943" height="17.696" transform="translate(14.498 64.302)" fill="#d3d3d8"/>
    <path id="Trazado_896991" data-name="Trazado 896991" d="M41.431,175.735H34.675V157.226h6.756Zm-5.943-.813h5.13V158.039h-5.13Z" transform="translate(-20.583 -93.331)"/>
    <rect id="Rectángulo_413664" data-name="Rectángulo 413664" width="2.972" height="17.696" transform="translate(17.47 64.302)" fill="#babac0"/>
    <path id="Trazado_896992" data-name="Trazado 896992" d="M45.771,175.735H41.986V157.226h3.785Zm-2.972-.813h2.159V158.039H42.8Z" transform="translate(-24.923 -93.331)"/>
    <path id="Trazado_896993" data-name="Trazado 896993" d="M39.861,150.126H30.32a.635.635,0,0,1-.635-.635v-4.91H40.5v4.91a.635.635,0,0,1-.635.635" transform="translate(-17.621 -85.825)" fill="#7c8388"/>
    <path id="Trazado_896994" data-name="Trazado 896994" d="M39.268,149.939H29.726a1.042,1.042,0,0,1-1.041-1.041v-5.317H40.309V148.9a1.042,1.042,0,0,1-1.041,1.041m-9.77-5.545v4.5a.229.229,0,0,0,.228.228h9.542a.229.229,0,0,0,.228-.228v-4.5Z" transform="translate(-17.028 -85.231)"/>
    <path id="Trazado_896995" data-name="Trazado 896995" d="M50.1,150.126H46.93v-5.545h3.8v4.91a.635.635,0,0,1-.635.635" transform="translate(-27.858 -85.825)" fill="#575f64"/>
    <path id="Trazado_896996" data-name="Trazado 896996" d="M49.505,149.939H45.93v-6.358h4.616V148.9a1.042,1.042,0,0,1-1.041,1.041m-2.762-.813h2.762a.229.229,0,0,0,.228-.228v-4.5h-2.99Z" transform="translate(-27.264 -85.231)"/>
    <path id="Trazado_896997" data-name="Trazado 896997" d="M29.458,38.488A5.28,5.28,0,0,1,27.933,34.7a5.7,5.7,0,0,1,.2-1.485l4.96-18.388c1.057-3.918-1.181-8-4.646-8.471l-5.124-.7a1.5,1.5,0,0,1-1.3-1.49V2.5a1.5,1.5,0,0,0-1.5-1.5h-4.9a1.5,1.5,0,0,0-1.5,1.5V4.161a1.5,1.5,0,0,1-1.3,1.49l-5.125.7c-3.464.473-5.7,4.553-4.645,8.471L8,33.211a5.7,5.7,0,0,1,.2,1.485,5.282,5.282,0,0,1-1.525,3.793A19.626,19.626,0,0,0,1,52.585v2.78a3.772,3.772,0,0,0,3.514,3.985h27.1a3.772,3.772,0,0,0,3.515-3.985v-2.78a19.634,19.634,0,0,0-5.669-14.1" transform="translate(-0.593 -0.593)" fill="#c39b7c"/>
    <path id="Trazado_896998" data-name="Trazado 896998" d="M31.019,59.162H3.92A4.18,4.18,0,0,1,0,54.771V51.991A19.961,19.961,0,0,1,5.793,37.6a4.851,4.851,0,0,0,1.4-3.5,5.278,5.278,0,0,0-.181-1.378L2.053,14.334a7.893,7.893,0,0,1,.972-6.34A5.758,5.758,0,0,1,7.036,5.356l5.124-.7a1.1,1.1,0,0,0,.95-1.087V1.91A1.913,1.913,0,0,1,15.02,0h4.9A1.913,1.913,0,0,1,21.83,1.91V3.568a1.1,1.1,0,0,0,.949,1.087l5.125.7a5.759,5.759,0,0,1,4.011,2.639,7.893,7.893,0,0,1,.973,6.34l-4.96,18.388a5.289,5.289,0,0,0-.182,1.379,4.85,4.85,0,0,0,1.4,3.5h0a19.968,19.968,0,0,1,5.794,14.389v2.779a4.181,4.181,0,0,1-3.921,4.391M15.02.812a1.1,1.1,0,0,0-1.1,1.1V3.568A1.918,1.918,0,0,1,12.269,5.46l-5.124.7A4.96,4.96,0,0,0,3.7,8.444a7.071,7.071,0,0,0-.865,5.679L7.8,32.511A6.113,6.113,0,0,1,8.006,34.1a5.669,5.669,0,0,1-1.649,4.085,19.145,19.145,0,0,0-5.544,13.8v2.779A3.372,3.372,0,0,0,3.92,58.349h27.1a3.372,3.372,0,0,0,3.108-3.579V51.991a19.152,19.152,0,0,0-5.545-13.8,5.669,5.669,0,0,1-1.65-4.085,6.1,6.1,0,0,1,.209-1.591L32.1,14.123a7.071,7.071,0,0,0-.865-5.679,4.961,4.961,0,0,0-3.443-2.283l-5.125-.7a1.917,1.917,0,0,1-1.652-1.893V1.91a1.1,1.1,0,0,0-1.1-1.1Z" transform="translate(0 0.001)"/>
    <path id="Trazado_896999" data-name="Trazado 896999" d="M67.262,60v2.778a3.771,3.771,0,0,1-3.513,3.986H62.255a4.639,4.639,0,0,0,.571-2.257V61.542a20.984,20.984,0,0,0-6.058-15.067,5.645,5.645,0,0,1-1.631-4.053,6,6,0,0,1,.211-1.586l5.3-19.652a7.723,7.723,0,0,0-2.079-7.69l2.009.274c3.466.473,5.7,4.553,4.647,8.471l-4.96,18.388a5.674,5.674,0,0,0-.2,1.485,5.283,5.283,0,0,0,1.524,3.792A19.634,19.634,0,0,1,67.262,60" transform="translate(-32.73 -8.011)" fill="#b88a65"/>
    <path id="Trazado_897000" data-name="Trazado 897000" d="M63.156,66.324H60.97l.336-.6a4.239,4.239,0,0,0,.52-2.06V60.691a20.5,20.5,0,0,0-5.934-14.774,6.029,6.029,0,0,1-1.754-4.345,6.4,6.4,0,0,1,.225-1.693l5.3-19.65a7.335,7.335,0,0,0-1.957-7.28l-1-.886,3.329.454a5.763,5.763,0,0,1,4.012,2.639,7.9,7.9,0,0,1,.974,6.341l-4.96,18.388a5.255,5.255,0,0,0-.182,1.379,4.854,4.854,0,0,0,1.4,3.5,19.967,19.967,0,0,1,5.793,14.391v2.778a4.181,4.181,0,0,1-3.92,4.393m-.857-.813h.857a3.373,3.373,0,0,0,3.107-3.58V59.153a19.152,19.152,0,0,0-5.544-13.806,5.67,5.67,0,0,1-1.648-4.085,6.078,6.078,0,0,1,.21-1.591L64.24,21.284a7.075,7.075,0,0,0-.866-5.68,4.963,4.963,0,0,0-3.444-2.283l-.874-.119a8.35,8.35,0,0,1,1.391,7.238l-5.3,19.651a5.593,5.593,0,0,0-.2,1.48,5.213,5.213,0,0,0,1.506,3.76,21.315,21.315,0,0,1,6.182,15.359V63.66a5.138,5.138,0,0,1-.34,1.851" transform="translate(-32.137 -7.16)"/>
  </g>
</svg>
