<svg xmlns="http://www.w3.org/2000/svg" xmlns:xlink="http://www.w3.org/1999/xlink" width="190" height="159" viewBox="0 0 190 159">
  <defs>
    <clipPath id="clip-path">
      <rect id="Rect치ngulo_414161" data-name="Rect치ngulo 414161" width="190" height="159" transform="translate(1230.051 2482)" fill="#fff" stroke="#707070" stroke-width="1"/>
    </clipPath>
    <clipPath id="clip-path-2">
      <rect id="Rect치ngulo_414159" data-name="Rect치ngulo 414159" width="130.279" height="132.492" fill="#ffb74d"/>
    </clipPath>
  </defs>
  <g id="Enmascarar_grupo_1098781" data-name="Enmascarar grupo 1098781" transform="translate(-1230.051 -2482)" clip-path="url(#clip-path)">
    <g id="Grupo_1127030" data-name="Grupo 1127030" transform="translate(1259.051 2488)">
      <g id="Grupo_1127029" data-name="Grupo 1127029" transform="translate(0 0)" clip-path="url(#clip-path-2)">
        <path id="Trazado_898016" data-name="Trazado 898016" d="M128.208,132.492H2.07A2.07,2.07,0,0,1,0,130.422V2.07A2.07,2.07,0,0,1,2.07,0H128.208a2.07,2.07,0,0,1,2.07,2.07V130.422a2.07,2.07,0,0,1-2.07,2.07M4.14,128.352h122V4.141H4.14Z" transform="translate(0 0)" fill="#ffb74d"/>
        <path id="Trazado_898017" data-name="Trazado 898017" d="M59.976,132.491a2.07,2.07,0,0,1-2.07-2.07V2.069a2.07,2.07,0,0,1,4.141,0V130.421a2.07,2.07,0,0,1-2.07,2.07" transform="translate(5.163 0)" fill="#ffb74d"/>
        <path id="Trazado_898018" data-name="Trazado 898018" d="M81.809,110.219a2.07,2.07,0,0,1-2.047-1.759L68.707,35.909A13.627,13.627,0,0,1,68.569,34,13.238,13.238,0,1,1,94.913,35.89L83.855,108.46A2.071,2.071,0,0,1,81.809,110.219Zm0-85.3A9.1,9.1,0,0,0,72.71,34a9.418,9.418,0,0,0,.094,1.31l9.005,59.1,9.007-59.119a9.1,9.1,0,0,0-9.007-10.364Z" transform="translate(6.114 1.853)" fill="#ffb74d"/>
        <path id="Trazado_898019" data-name="Trazado 898019" d="M80.894,103.235a2.086,2.086,0,0,1-1.914-1.279,2.155,2.155,0,0,1-.117-.386,1.968,1.968,0,0,1-.039-.406,1.944,1.944,0,0,1,.039-.4,2.162,2.162,0,0,1,.117-.389,2.213,2.213,0,0,1,.193-.357,1.941,1.941,0,0,1,.258-.313,1.856,1.856,0,0,1,.314-.259,1.951,1.951,0,0,1,.356-.188,1.931,1.931,0,0,1,.389-.119,2.088,2.088,0,0,1,1.868.566,1.82,1.82,0,0,1,.256.313,2.128,2.128,0,0,1,.192.357,2.165,2.165,0,0,1,.118.389,1.945,1.945,0,0,1,.04.4,1.969,1.969,0,0,1-.04.406,2.158,2.158,0,0,1-.118.386,2.009,2.009,0,0,1-.192.357,1.951,1.951,0,0,1-.572.572,2.011,2.011,0,0,1-.357.192,2.287,2.287,0,0,1-.386.119A2.136,2.136,0,0,1,80.894,103.235Z" transform="translate(7.028 8.836)" fill="#ffb74d"/>
        <path id="Trazado_898020" data-name="Trazado 898020" d="M86.118,103.236H76.461a2.07,2.07,0,0,1,0-4.14h9.657a2.07,2.07,0,1,1,0,4.14" transform="translate(6.633 8.836)" fill="#ffb74d"/>
        <path id="Trazado_898021" data-name="Trazado 898021" d="M80.894,40.488a2.07,2.07,0,0,1-2.07-2.071V28.762a2.07,2.07,0,0,1,4.141,0v9.655a2.07,2.07,0,0,1-2.071,2.071" transform="translate(7.028 2.38)" fill="#ffb74d"/>
        <path id="Trazado_898022" data-name="Trazado 898022" d="M111.607,54.235h-3.941a9.205,9.205,0,0,1-9.195-9.195V41.89A7.579,7.579,0,0,0,90.9,34.319H82.838a2.07,2.07,0,1,1,0-4.141H90.9A11.725,11.725,0,0,1,102.612,41.89v3.151a5.06,5.06,0,0,0,5.054,5.055h3.941a2.07,2.07,0,1,1,0,4.14" transform="translate(7.201 2.691)" fill="#ffb74d"/>
        <path id="Trazado_898023" data-name="Trazado 898023" d="M65.139,65.094H2.071a2.07,2.07,0,1,1,0-4.14H65.139a2.07,2.07,0,1,1,0,4.14" transform="translate(0 5.435)" fill="#ffb74d"/>
        <path id="Trazado_898024" data-name="Trazado 898024" d="M42.742,27.577a8.709,8.709,0,1,1,8.709-8.709,8.719,8.719,0,0,1-8.709,8.709m0-13.278a4.568,4.568,0,1,0,4.569,4.569A4.574,4.574,0,0,0,42.742,14.3" transform="translate(3.034 0.906)" fill="#ffb74d"/>
        <path id="Trazado_898025" data-name="Trazado 898025" d="M22.424,27.577a8.709,8.709,0,1,1,8.709-8.709,8.719,8.719,0,0,1-8.709,8.709m0-13.278a4.568,4.568,0,1,0,4.569,4.569A4.574,4.574,0,0,0,22.424,14.3" transform="translate(1.223 0.906)" fill="#ffb74d"/>
        <path id="Trazado_898026" data-name="Trazado 898026" d="M17.69,52.908a2.07,2.07,0,0,1-1.464-3.534L42.643,22.957a2.069,2.069,0,1,1,2.927,2.927L19.153,52.3a2.063,2.063,0,0,1-1.464.607" transform="translate(1.393 1.993)" fill="#ffb74d"/>
        <path id="Trazado_898027" data-name="Trazado 898027" d="M50.467,53.046A2.065,2.065,0,0,1,49,52.439L22.448,25.884a2.07,2.07,0,0,1,2.928-2.928L51.931,49.511a2.07,2.07,0,0,1-1.464,3.534" transform="translate(1.947 1.993)" fill="#ffb74d"/>
        <path id="Trazado_898028" data-name="Trazado 898028" d="M29.988,86.137c-6.858,0-14.242-2.032-14.242-6.5s7.382-6.5,14.242-6.5,14.242,2.032,14.242,6.5-7.382,6.5-14.242,6.5m-10.037-6.5C20.6,80.414,24.05,82,29.988,82s9.387-1.583,10.037-2.356c-.649-.773-4.1-2.356-10.037-2.356S20.6,78.867,19.951,79.641" transform="translate(1.404 6.522)" fill="#ffb74d"/>
        <path id="Trazado_898029" data-name="Trazado 898029" d="M29.988,110.519c-6.858,0-14.242-2.032-14.242-6.5s7.382-6.5,14.242-6.5,14.242,2.032,14.242,6.5-7.382,6.5-14.242,6.5m-10.037-6.5c.649.773,4.1,2.356,10.037,2.356s9.387-1.583,10.037-2.356c-.649-.773-4.1-2.356-10.037-2.356s-9.387,1.583-10.037,2.356" transform="translate(1.404 8.696)" fill="#ffb74d"/>
        <path id="Trazado_898030" data-name="Trazado 898030" d="M33.817,103.116a2.07,2.07,0,0,1-2.07-2.071v-17.7a2.07,2.07,0,0,1,4.141,0v17.7a2.07,2.07,0,0,1-2.07,2.071" transform="translate(2.831 7.246)" fill="#ffb74d"/>
        <path id="Trazado_898031" data-name="Trazado 898031" d="M23.912,103.116a2.07,2.07,0,0,1-2.07-2.071v-17.7a2.07,2.07,0,0,1,4.141,0v17.7a2.07,2.07,0,0,1-2.07,2.071" transform="translate(1.947 7.246)" fill="#ffb74d"/>
      </g>
    </g>
  </g>
</svg>
