<svg xmlns="http://www.w3.org/2000/svg" xmlns:xlink="http://www.w3.org/1999/xlink" width="190" height="140" viewBox="0 0 190 140">
  <defs>
    <clipPath id="clip-path">
      <rect id="Rect치ngulo_413620" data-name="Rect치ngulo 413620" width="190" height="140" transform="translate(705.051 4219)" fill="#fff" stroke="#707070" stroke-width="1"/>
    </clipPath>
    <clipPath id="clip-path-2">
      <rect id="Rect치ngulo_413619" data-name="Rect치ngulo 413619" width="109.123" height="109.125" fill="#996e2e"/>
    </clipPath>
  </defs>
  <g id="Enmascarar_grupo_1098758" data-name="Enmascarar grupo 1098758" transform="translate(-705.051 -4219)" clip-path="url(#clip-path)">
    <g id="Grupo_1126203" data-name="Grupo 1126203" transform="translate(745.051 4234)">
      <g id="Grupo_1126202" data-name="Grupo 1126202" transform="translate(0 0)" clip-path="url(#clip-path-2)">
        <path id="Trazado_896672" data-name="Trazado 896672" d="M66.931,109.123H1.513A2.9,2.9,0,0,1,0,106.227q.048-31.38.021-62.761c0-2.262.67-2.945,2.906-2.945h62.64c2.2,0,2.883.672,2.885,2.845V72.612c3.8.38,6.363-1.864,6.439-5.5.013-.6-.008-1.207.011-1.812a9.553,9.553,0,0,1,9.4-9.723c3.551-.213,5.587-2.357,5.6-5.919q.013-7.407,0-14.811c0-.347-.03-.7-.047-1.065-.235-.051-.4-.1-.571-.123Q74.171,31.127,59.06,28.6q-14.116-2.362-28.232-4.716Q16.5,21.5,2.173,19.118C.767,18.883,0,18.05.027,16.9.055,15.78.8,15,2.165,14.776q15.53-2.6,31.067-5.183Q49.551,6.872,65.87,4.15C73.917,2.812,81.952,1.393,90.018.182A16.669,16.669,0,0,1,108.51,12.453c.237.884.41,1.786.613,2.678v3.623a7.147,7.147,0,0,0-.194.706A16.7,16.7,0,0,1,95.11,33.614c-.78.137-.968.387-.964,1.135.032,4.967.087,9.939-.025,14.907a11.9,11.9,0,0,1-.922,4.528c-1.693,3.758-4.824,5.481-8.9,5.669a5.192,5.192,0,0,0-5.094,4.906c-.087.915-.03,1.843-.07,2.765a9.545,9.545,0,0,1-8.2,9.324c-.788.131-1.6.12-2.488.182v1.334c0,9.3-.017,18.6.021,27.9a2.763,2.763,0,0,1-1.543,2.86M4.357,44.813v59.968H32.035V98.427c-1.37,0-2.646.023-3.921-.006a2.158,2.158,0,0,1-2.393-2.154c0-1.279.917-2.084,2.412-2.1,1.3-.011,2.6,0,4,0,0-2.065.023-3.976-.034-5.885-.006-.211-.463-.569-.727-.583-1.167-.068-2.34-.021-3.513-.04a1.988,1.988,0,0,1-2.048-1.535,2.1,2.1,0,0,1,2.162-2.7c1.34-.053,2.685-.011,4.094-.011V76.958c-1.292,0-2.524.006-3.756,0-1.642-.008-2.6-.812-2.583-2.154s.977-2.1,2.64-2.105c1.226,0,2.452,0,3.68,0V66.258c-1.325,0-2.564.008-3.8,0-1.564-.015-2.509-.824-2.515-2.131s.928-2.116,2.494-2.126c1.266-.011,2.53,0,3.834,0V55.53c-1.385,0-2.693.025-4-.008a2.132,2.132,0,0,1-2.258-1.566,2.079,2.079,0,0,1,2.082-2.666c1.372-.051,2.748-.011,4.156-.011V44.813Zm32.1,10.721v6.46c1.22,0,2.382-.006,3.543,0a5.4,5.4,0,0,1,1.27.089,2.12,2.12,0,0,1-.636,4.154c-1.372.049-2.75.011-4.181.011v6.443c1.33,0,2.6-.008,3.868,0A2.218,2.218,0,0,1,42.8,74.78c.036,1.273-.966,2.16-2.479,2.173-1.268.013-2.537,0-3.856,0v6.449c1.264,0,2.463-.036,3.659.015a3.968,3.968,0,0,1,1.632.351,1.87,1.87,0,0,1,.985,2.16,1.919,1.919,0,0,1-1.9,1.7c-1.444.051-2.89.013-4.378.013V94.17c1.435,0,2.811,0,4.185,0A1.982,1.982,0,0,1,42.659,95.6a2.11,2.11,0,0,1-2.131,2.809c-1.336.055-2.678.011-4.073.011v6.36H64.12V44.845H36.455v6.428c.461,0,.879,0,1.3,0,1.063.011,2.131-.019,3.192.051a1.669,1.669,0,0,1,1.7,1.49,3.174,3.174,0,0,1-.592,2.088,2.831,2.831,0,0,1-1.826.6c-1.226.091-2.465.027-3.763.027M94.166,29.38a3.433,3.433,0,0,0,.465,0A12.673,12.673,0,0,0,90.437,4.391c-1.928.3-3.851.617-5.775.939Q67.715,8.158,50.771,10.992q-14.373,2.4-28.75,4.792c-2.126.353-4.249.723-6.373,1.084,0,.057.008.114.015.171L89.9,29.437c0-1.057-.059-1.981.017-2.892a1.41,1.41,0,0,0-1.089-1.693,8.429,8.429,0,0,1-5.289-8.929,8.546,8.546,0,1,1,11.491,9.043c-.345.137-.8.531-.829.835-.1,1.16-.038,2.332-.038,3.579M87.75,17a4.285,4.285,0,0,0,4.261,4.259,4.31,4.31,0,0,0,0-8.62A4.288,4.288,0,0,0,87.75,17" transform="translate(0 0)" fill="#996e2e"/>
        <path id="Trazado_896673" data-name="Trazado 896673" d="M41.513,10.338a4.288,4.288,0,0,1,4.266-4.361,4.31,4.31,0,0,1,0,8.62,4.285,4.285,0,0,1-4.261-4.259" transform="translate(46.237 6.657)" fill="#996e2e"/>
      </g>
    </g>
  </g>
</svg>
