<svg xmlns="http://www.w3.org/2000/svg" xmlns:xlink="http://www.w3.org/1999/xlink" width="241" height="285" viewBox="0 0 241 285">
  <defs>
    <clipPath id="clip-path">
      <rect id="Rect치ngulo_414030" data-name="Rect치ngulo 414030" width="241" height="285" transform="translate(220.051 1919)" fill="#fff" stroke="#707070" stroke-width="1"/>
    </clipPath>
    <clipPath id="clip-path-2">
      <rect id="Rect치ngulo_414029" data-name="Rect치ngulo 414029" width="110.764" height="156.076" fill="#727997"/>
    </clipPath>
  </defs>
  <g id="Enmascarar_grupo_1098776" data-name="Enmascarar grupo 1098776" transform="translate(-220.051 -1919)" clip-path="url(#clip-path)">
    <g id="Grupo_1126857" data-name="Grupo 1126857" transform="translate(285 1983.519)">
      <g id="Grupo_1127123" data-name="Grupo 1127123">
        <g id="Grupo_1126856" data-name="Grupo 1126856" clip-path="url(#clip-path-2)">
          <path id="Trazado_897706" data-name="Trazado 897706" d="M7.552,0A7.552,7.552,0,0,0,0,7.552V148.525a7.552,7.552,0,0,0,7.552,7.551h95.659a7.552,7.552,0,0,0,7.552-7.551V7.552A7.552,7.552,0,0,0,103.211,0Zm98.177,7.552V148.525a2.517,2.517,0,0,1-2.518,2.517H7.552a2.517,2.517,0,0,1-2.518-2.517V7.552A2.518,2.518,0,0,1,7.552,5.035h95.659a2.518,2.518,0,0,1,2.518,2.518" fill="#727997"/>
          <path id="Trazado_897707" data-name="Trazado 897707" d="M83.549,37.5,57.708,32.94V29.7a10.07,10.07,0,1,0-12.587-9.752h5.035a5.035,5.035,0,1,1,5.035,5.035A2.516,2.516,0,0,0,52.674,27.5v5.44L26.833,37.5A20.489,20.489,0,0,0,9.879,57.709,2.516,2.516,0,0,0,12.4,60.225H24.983v57.9a2.518,2.518,0,0,0,2.518,2.518V143.3a2.517,2.517,0,0,0,2.517,2.518H75.33a2.518,2.518,0,0,0,2.518-2.518V120.643H85.4a2.517,2.517,0,0,0,2.517-2.518V108.056a2.022,2.022,0,0,0-.067-.332h.045l-6.475-47.5H97.987a2.516,2.516,0,0,0,2.517-2.517A20.489,20.489,0,0,0,83.549,37.5m-1.035,68.037h-9.7V75.33a2.517,2.517,0,0,1,2.517-2.518h2.722ZM75.33,67.778a7.552,7.552,0,0,0-7.552,7.552v30.208H55.191V55.191H75.65l1.717,12.587Zm-25.174,37.76H30.017V97.986h7.552a2.517,2.517,0,0,0,2.518-2.517V85.4a12.611,12.611,0,0,0-10.07-12.335V55.191H50.156ZM30.017,78.31A7.552,7.552,0,0,1,35.053,85.4v7.552H30.017Zm42.8,62.47H32.535V120.642H72.813Zm10.069-25.174H30.017v-5.035H82.882Zm-2.15-60.416-.39-2.857a2.517,2.517,0,0,0-2.494-2.177H27.5a2.517,2.517,0,0,0-2.518,2.517v2.518H15.117A15.466,15.466,0,0,1,27.7,42.458l27.487-4.849,27.482,4.849A15.466,15.466,0,0,1,95.26,55.191Z" transform="translate(0.191 0.191)" fill="#727997"/>
        </g>
      </g>
    </g>
  </g>
</svg>
