<svg xmlns="http://www.w3.org/2000/svg" xmlns:xlink="http://www.w3.org/1999/xlink" width="459.579" height="332.987" viewBox="0 0 459.579 332.987">
  <defs>
    <clipPath id="clip-path">
      <rect id="Rectángulo_414183" data-name="Rectángulo 414183" width="217.305" height="267.988" fill="none"/>
    </clipPath>
    <clipPath id="clip-path-3">
      <rect id="Rectángulo_414181" data-name="Rectángulo 414181" width="213.607" height="123.574" fill="none"/>
    </clipPath>
  </defs>
  <g id="Grupo_1127123" data-name="Grupo 1127123" transform="translate(6821 7870)">
    <rect id="Rectángulo_413474" data-name="Rectángulo 413474" width="459.579" height="332.987" rx="20" transform="translate(-6821 -7870)" fill="#f6fbf6"/>
    <g id="Grupo_1127055" data-name="Grupo 1127055" transform="translate(-6700 -7837)">
      <g id="Grupo_1127054" data-name="Grupo 1127054" clip-path="url(#clip-path)">
        <path id="Trazado_898259" data-name="Trazado 898259" d="M29.589,5.347,29.215,10.1,26.991,5.391l1.2-1.27Z" transform="translate(42.243 6.449)" fill="#100c06"/>
        <g id="Grupo_1127053" data-name="Grupo 1127053">
          <g id="Grupo_1127052" data-name="Grupo 1127052" clip-path="url(#clip-path)">
            <path id="Trazado_898260" data-name="Trazado 898260" d="M29.492,50.838,37.1,57.877l5.753,5.666a8.193,8.193,0,0,0,3.522,1.993l7.139-6.213A13.208,13.208,0,0,0,51.3,56.058l-12.51-13.49C35.461,17.8,31.436,14.545,31.436,14.545l-.018.056c.505,2.427-2.568,26.51-1.926,36.237" transform="translate(46.018 22.764)" fill="#ff7f24"/>
            <path id="Trazado_898261" data-name="Trazado 898261" d="M35.289,94.846c-.095.19,0-2.714-3.617-9.257s-3.427-8.637-3.9-8.826-11.327,0-11.327,0a51.642,51.642,0,0,0,0,5.425V83.5l1.967,2.973h.7a13.4,13.4,0,0,1,.667,3.427c.285,3.9,8.185,7.616,11.9,6.569s3.712-1.808,3.617-1.619" transform="translate(25.603 120.006)" fill="#100c06"/>
            <path id="Trazado_898262" data-name="Trazado 898262" d="M23.851,78.189A36.745,36.745,0,0,0,30.417,80l.477-.9a6.894,6.894,0,0,1,5.615,1.949c2.475,2.475,6.092,6.282,14.849,3.712,0,0,3.9-.762.952-2.855S36.7,71.05,36.6,71.335s-11.325-.005-11.325-.005-2,1.529-1.429,6.859" transform="translate(37.167 111.634)" fill="#100c06"/>
            <path id="Trazado_898263" data-name="Trazado 898263" d="M44,64.871c-.139,13.32-2.4,16.686-4.091,27.485-1.159,7.431,0,35.262,0,35.262a2.962,2.962,0,0,1-.947,2.652,5.6,5.6,0,0,1-1.267.97,12.2,12.2,0,0,1-8.488.947,8.935,8.935,0,0,1-2.406-.947,3.814,3.814,0,0,1-2.244-3.034s-1.79-20.187-1.97-28.067a55.8,55.8,0,0,1,3.14-18.7c1.257-3.568.416-32.1.416-32.1C25.109,39.847,26.63,35,26.63,35s16.1,4.6,16.388,4.366c1.311,4.876,1.29,16.96.977,25.51" transform="translate(35.327 54.771)" fill="#21161c"/>
            <path id="Trazado_898264" data-name="Trazado 898264" d="M48.681,42.036S46.467,56.2,46.167,59.145a3.965,3.965,0,0,1-2.214,3c-.182,1.023-.362,1.96-.564,2.757-5.3,21.8-10.2,32-11.371,39.438s0,35.265,0,35.265c.233,1.288-.51,2.639-2.216,3.619a12.207,12.207,0,0,1-8.485.949,12.344,12.344,0,0,1-1.277-.4v-.01a8.5,8.5,0,0,1-1.139-.544,3.821,3.821,0,0,1-2.237-3.034s-1.788-20.2-1.97-28.067a55.543,55.543,0,0,1,3.142-18.7c1.257-3.576.416-32.1.416-32.1C16.313,41.61,21.8,36.521,21.8,36.521l5.964,1.17L38.97,39.9s3.919-2.747,6.22.8a6.013,6.013,0,0,1,.372,2.3Z" transform="translate(22.982 57.158)" fill="#36252e"/>
            <path id="Trazado_898265" data-name="Trazado 898265" d="M57.962,75.2c-.339,2.2-2.339,4.479-4.532,6.259a23.788,23.788,0,0,1-4.225,2.765c-2.934,1.429-12.287.413-14.328-.372a18.872,18.872,0,0,0-4.312-.731,8.008,8.008,0,0,1-2-.464c-1.9-.785-4.322-4.671-4.786-6.928-1.218-5.812-2.7-17.186-2.934-18L19.414,49.78,19.2,48.552,14.52,32.168l-.762-2.657L12.953,26.7,28.638,11.789l.605.336,15.162,1.629s.382.105,1.018.285c2.857.826,10.822,3.253,11.7,4.756a.2.2,0,0,1,.031.054c1.039,2.032.859,15.957-.667,20.3-.667,1.906-.487,7.328-.105,12.92C56.777,58.1,57.39,64.332,57.4,66.586c0,2.809,1.113,4.894.562,8.611" transform="translate(20.272 18.451)" fill="#ff9c33"/>
            <path id="Trazado_898266" data-name="Trazado 898266" d="M51.7,38.02c0,2.555-1.7,5.1-5.079,7.059-6.751,3.9-17.7,3.9-24.458,0-3.076-1.788-4.758-4.068-5.015-6.4a4.739,4.739,0,0,1-.041-.659,5.151,5.151,0,0,1,.139-1.213,2.506,2.506,0,0,1,.064-.3c.541,2.024,2.15,3.984,4.853,5.538.364.213.746.405,1.129.585,6.805,3.3,16.94,3.1,23.329-.585,2.714-1.554,4.332-3.514,4.866-5.538A6.1,6.1,0,0,1,51.7,38.02" transform="translate(26.767 57.136)" fill="#140e11"/>
            <path id="Trazado_898267" data-name="Trazado 898267" d="M35.906,36.445a1.909,1.909,0,0,0,.467,2.1.154.154,0,0,0,.041.036c.267.277,1.9,1.919,2.057,2.049.236.064,6.613-4.989,6.613-4.989l.685-1.057-2.255-2.257-.015.01a2.712,2.712,0,0,0-2.652-.385,7.428,7.428,0,0,0-4.94,4.494" transform="translate(56.02 49.759)" fill="#fff"/>
            <path id="Trazado_898268" data-name="Trazado 898268" d="M36.753,37.284a1.8,1.8,0,0,0,1.711,2.534,2.46,2.46,0,0,0,.549,0,3.86,3.86,0,0,0,.8-.131,7.441,7.441,0,0,0,4.93-4.5,2.956,2.956,0,0,0,.1-.718,1.635,1.635,0,0,0-.162-.813,1.8,1.8,0,0,0-1.767-1.011,3.664,3.664,0,0,0-1.106.118c-.038.013-.074.015-.113.028a7.789,7.789,0,0,0-4.422,3.329,5.182,5.182,0,0,0-.287.539,4.525,4.525,0,0,0-.231.626" transform="translate(57.349 51.082)" fill="#eff1f1"/>
            <path id="Trazado_898269" data-name="Trazado 898269" d="M36.776,36.659a.977.977,0,0,0,.074.159c.559,1.193,1.013,2.18,1.406,3,.169.362.336.7.487,1,1.649,3.265,2.368,3.624,6.736,8.088,2.042,1.97,9.042,3.127,7.926.162-.459-1.257-1.177-2.9-1.837-4.412-.885-1.924-1.665-3.594-1.747-3.768.123.021.944.223,1.862.357,1.429.241,3.093.346,2.734-.477-.487-1.077-4.045-3.476-5.571-4.463l-.028-.021c-.3-.2-.508-.326-.605-.387a.223.223,0,0,0-.072-.044,27.375,27.375,0,0,1-2.434-1.424c-.405-.264-.823-.531-1.236-.772-.6-.372-1.2-.723-1.765-1.008a3.664,3.664,0,0,0-1.106.118c-.038.013-.074.015-.113.028a7.792,7.792,0,0,0-4.425,3.329,5.722,5.722,0,0,0-.287.539" transform="translate(57.557 51.082)" fill="#faab8b"/>
            <path id="Trazado_898270" data-name="Trazado 898270" d="M20.752,47.642l.005,0v0Z" transform="translate(32.479 74.563)" fill="#24222d"/>
            <path id="Trazado_898271" data-name="Trazado 898271" d="M17.221,37.748V37.13a4.435,4.435,0,0,0,.044.662Z" transform="translate(26.952 58.111)" fill="#3e4052"/>
            <path id="Trazado_898272" data-name="Trazado 898272" d="M37,20.746A76.695,76.695,0,0,1,33.78,31.378c-3.927-.926-13.477-13.7-14.721-15.421a30.384,30.384,0,0,0,1.5-6.644c6.225-1.277,10.345,4.535,13.22,7.121a20.433,20.433,0,0,1,2.873,3.194c.128.321.223.7.351,1.118" transform="translate(29.829 14.293)" fill="#faab8b"/>
            <path id="Trazado_898273" data-name="Trazado 898273" d="M34.536,17.493c.01.351-.105.893-.115,1.231-2.945.657-8.28-.893-10.5-2.863a13.24,13.24,0,0,1-3.3-4.686,12.611,12.611,0,0,0,5.163,4.743,25.833,25.833,0,0,0,8.747,1.575" transform="translate(32.281 17.49)" fill="#f99b79"/>
            <path id="Trazado_898274" data-name="Trazado 898274" d="M27.722,29.984a5.468,5.468,0,0,1-.362,1.288C26.486,33.637,25.029,56.342,25,56.843a48.3,48.3,0,0,1-9.7.187c-1.96-.213-3.46-.372-3.683-.372v.01c-.023-.01-.033,0-.033,0-.5-5.689.6-32.728,3.314-38.376a1.016,1.016,0,0,1,.405-.341c.021-.01.031-.021.054-.031a4.192,4.192,0,0,1,3.63-.257c.277.087.564.2.852.321.3.139.608.3.916.48,3.866,2.214,6.985,7.154,6.985,11.009a1.8,1.8,0,0,1-.01.51" transform="translate(17.936 27.204)" fill="#ffac40"/>
            <path id="Trazado_898275" data-name="Trazado 898275" d="M11.506,34.084c0,4.325,14.8,22.827,14.8,22.827a8.759,8.759,0,0,0,3.665,1.97l7.2-5.648a13.317,13.317,0,0,0-2.052-3.37l-10.1-16.924S11.506,29.76,11.506,34.084" transform="translate(18.008 49.788)" fill="#eff1f1"/>
            <path id="Trazado_898276" data-name="Trazado 898276" d="M18.341,44.134a1.909,1.909,0,0,0,.467,2.1.155.155,0,0,0,.041.036c.269.277,1.9,1.919,2.057,2.049.236.064,6.613-4.989,6.613-4.989l.685-1.057-2.255-2.257-.015.01a2.712,2.712,0,0,0-2.652-.385,7.428,7.428,0,0,0-4.94,4.494" transform="translate(28.53 61.793)" fill="#fff"/>
            <path id="Trazado_898277" data-name="Trazado 898277" d="M33.73,17.641c.01.351.01.693,0,1.029-2.942.659-7.616-.826-9.832-2.791A13.213,13.213,0,0,1,20.6,11.192a12.617,12.617,0,0,0,5.158,4.743,22.177,22.177,0,0,0,7.967,1.706" transform="translate(32.248 17.516)" fill="#f99b79"/>
            <path id="Trazado_898278" data-name="Trazado 898278" d="M43.543,17.424a13.26,13.26,0,0,0-.767,4.312,33.123,33.123,0,0,1-1.4,7.708A15.386,15.386,0,0,1,39.8,32.937v.021c-.277.416-.49.723-.618.936-.608.98-5.974.013-9.134-1.329a12.575,12.575,0,0,1-5.163-4.74,17.283,17.283,0,0,1-.98-1.511c-2.226-3.812-1.588-5.951-6.028-11.648C19.119-.7,30.543.589,30.543.589c13.49,0,13,16.835,13,16.835" transform="translate(27.971 0.881)" fill="#faab8b"/>
            <path id="Trazado_898279" data-name="Trazado 898279" d="M27.477,13.514A5.406,5.406,0,0,1,31.394,13a6.255,6.255,0,0,1,1.429.51c1.778.872,11.668,2.024,11.625-2.075a11.071,11.071,0,0,0-2.055-6.379c-.126-.18-.223-.287-.233-.308C39.04.693,31.471-1.287,24.409.906c-6.472,2.014-7.121,8.1-6.846,12.374.262,4.012,5.222,13.736,4.974,14.308a7.01,7.01,0,0,0,1.044-2.406,18.289,18.289,0,0,0-.534-2.491L24.753,21.4,24.583,24.8l-.041.782a4.895,4.895,0,0,0,.89,3.1l.01.015a12.559,12.559,0,0,0,5.163,4.738c3.163,1.344,8.4,2.5,9.455,1.121.151-.2.023-.31.3-.726v-.021a15.556,15.556,0,0,0,1.585-3.494s-1.426,2.193-3.365,2.206-7.867-1.131-9.4-3.088a9.575,9.575,0,0,1-1.2-2.419A26.3,26.3,0,0,1,26.5,16.656c.031-.667.077-1.318.154-1.939.064-.51.31-1.118.821-1.2" transform="translate(27.408 -0.001)" fill="#100c06"/>
            <path id="Trazado_898280" data-name="Trazado 898280" d="M23.224,11.5A19.55,19.55,0,0,1,22.637,9c-.177-1.111-.785-3.017-2.893-2.627-2.945.544.072,6.754,1.126,7.3S23.224,11.5,23.224,11.5" transform="translate(28.934 9.896)" fill="#faab8b"/>
            <path id="Trazado_898281" data-name="Trazado 898281" d="M29.678,10.5s2.565.236,3.045.923-1.7,6.549-2.865,6.931-5.453-.164-5.453-.164-.618-3.768-.575-4.638,4.237-2.919,5.848-3.052" transform="translate(37.291 16.427)" fill="#100c06"/>
            <path id="Trazado_898282" data-name="Trazado 898282" d="M25.478,14.961c-1.177-.4-1.485-1.626-.431-2.278A7.28,7.28,0,0,1,28.8,11.275a5.009,5.009,0,0,1,2.126.523c.61.464-1.149,3.347-1.937,3.471a7.477,7.477,0,0,1-3.517-.308" transform="translate(38.192 17.639)" fill="#faab8b"/>
            <path id="Trazado_898283" data-name="Trazado 898283" d="M19.189,44.973A1.8,1.8,0,0,0,20.9,47.508a2.458,2.458,0,0,0,.549,0,3.86,3.86,0,0,0,.8-.131,7.447,7.447,0,0,0,4.93-4.5,2.956,2.956,0,0,0,.1-.718,1.635,1.635,0,0,0-.162-.813,1.8,1.8,0,0,0-1.767-1.011,3.664,3.664,0,0,0-1.106.118c-.038.013-.074.015-.113.028a7.778,7.778,0,0,0-4.422,3.329,5.181,5.181,0,0,0-.287.539,4.526,4.526,0,0,0-.231.626" transform="translate(29.858 63.116)" fill="#eff1f1"/>
            <path id="Trazado_898284" data-name="Trazado 898284" d="M19.211,44.348a1.223,1.223,0,0,0,.072.159c.562,1.193,1.016,2.18,1.408,3,.169.362.336.7.487,1,1.649,3.265,2.368,3.624,6.736,8.088,2.039,1.97,9.042,3.127,7.926.162-.459-1.257-1.177-2.9-1.837-4.412-.885-1.924-1.665-3.6-1.747-3.768.123.021.944.223,1.862.357,1.429.241,3.093.346,2.734-.477-.487-1.077-4.045-3.476-5.571-4.466l-.028-.018c-.3-.2-.508-.326-.605-.387a.223.223,0,0,0-.072-.044,27.373,27.373,0,0,1-2.434-1.424c-.405-.264-.823-.531-1.236-.772-.6-.372-1.2-.723-1.765-1.008a3.663,3.663,0,0,0-1.106.118c-.038.013-.074.015-.113.028A7.792,7.792,0,0,0,19.5,43.809a5.721,5.721,0,0,0-.287.539" transform="translate(30.066 63.116)" fill="#faab8b"/>
            <g id="Grupo_1127051" data-name="Grupo 1127051" transform="translate(3.698 144.413)" opacity="0.2" style="mix-blend-mode: multiply;isolation: isolate">
              <g id="Grupo_1127050" data-name="Grupo 1127050">
                <g id="Grupo_1127049" data-name="Grupo 1127049" clip-path="url(#clip-path-3)">
                  <path id="Trazado_898285" data-name="Trazado 898285" d="M1.442,131.09,85.5,179.873l129.546-74.8L131,56.3Z" transform="translate(-1.442 -56.299)" fill="#a0a2c1"/>
                </g>
              </g>
            </g>
            <path id="Trazado_898286" data-name="Trazado 898286" d="M48.888,38.991l-7.472,67.736,4.607,2.655,7.41-67.764Z" transform="translate(64.818 61.024)" fill="#ded3ba"/>
            <path id="Trazado_898287" data-name="Trazado 898287" d="M50.622,40.016l-7.41,67.764,4.622-2.67L54.7,42.373Z" transform="translate(67.629 62.627)" fill="#efe7d5"/>
            <path id="Trazado_898288" data-name="Trazado 898288" d="M65.991,50.467l8.426,83.418,4.607,2.663L70.036,48.13Z" transform="translate(103.28 75.327)" fill="#ded3ba"/>
            <path id="Trazado_898289" data-name="Trazado 898289" d="M67.568,49.76l8.988,88.415,4.63-2.675L72.2,47.09Z" transform="translate(105.748 73.698)" fill="#efe7d5"/>
            <path id="Trazado_898290" data-name="Trazado 898290" d="M1.442,97.363l68.32,39.646,129.546-74.8L131,22.573Z" transform="translate(2.256 35.329)" fill="#efe7d5"/>
            <path id="Trazado_898291" data-name="Trazado 898291" d="M14.611,58.784,7.139,126.52l4.607,2.655,7.41-67.764Z" transform="translate(11.172 92.002)" fill="#ded3ba"/>
            <path id="Trazado_898292" data-name="Trazado 898292" d="M16.345,59.809l-7.41,67.764,4.622-2.67,6.869-62.736Z" transform="translate(13.984 93.605)" fill="#efe7d5"/>
            <path id="Trazado_898293" data-name="Trazado 898293" d="M0,54.172v1.07L25.784,70.126l4.545,2.627L34.41,75.11,75.716,99.158V98.086a6.14,6.14,0,0,0-.3-1.883A9.108,9.108,0,0,0,73.5,92.881a6.072,6.072,0,0,0-1.48-1.2L3.7,52.03a3.632,3.632,0,0,0-1.272-.472,2.341,2.341,0,0,0-1.342.215,1.551,1.551,0,0,0-.349.244A3.094,3.094,0,0,0,0,54.172" transform="translate(0 80.661)" fill="#ded3ba"/>
            <path id="Trazado_898294" data-name="Trazado 898294" d="M31.713,70.26l8.426,83.418,4.607,2.663L35.759,67.923Z" transform="translate(49.634 106.305)" fill="#ded3ba"/>
            <path id="Trazado_898295" data-name="Trazado 898295" d="M33.291,69.553l8.988,88.415,4.63-2.675-8.988-88.41Z" transform="translate(52.102 104.676)" fill="#efe7d5"/>
            <path id="Trazado_898296" data-name="Trazado 898296" d="M129.971,22.612Q65.2,60.015.422,97.41a2.371,2.371,0,0,1,1.344-.215,3.65,3.65,0,0,1,1.27.472l129.556-74.79a5.122,5.122,0,0,0-.618-.305,2.625,2.625,0,0,0-1.357-.167,1.711,1.711,0,0,0-.646.208" transform="translate(0.66 35.025)" fill="#e6ddc7"/>
            <path id="Trazado_898297" data-name="Trazado 898297" d="M157.625,38.026a6.176,6.176,0,0,1,1.48,1.211,9.071,9.071,0,0,1,1.919,3.317,6.089,6.089,0,0,1,.308,1.89v1.062L133.99,61.294l-4.63,2.668L125.32,66.3,46.083,112.046l-4.63,2.668-4.048,2.337-5.63,3.253v-1.07a6.144,6.144,0,0,0-.3-1.885,9.107,9.107,0,0,0-1.919-3.322,6.1,6.1,0,0,0-1.483-1.2Z" transform="translate(43.941 59.513)" fill="#e6ddc7"/>
            <path id="Trazado_898298" data-name="Trazado 898298" d="M141.253,57.206,61.182,103.434,15.517,77.067,95.585,30.84Z" transform="translate(24.284 48.266)" fill="#fffbf0"/>
            <path id="Trazado_898299" data-name="Trazado 898299" d="M90.9,35.445,21.321,75.619,18.43,73.952,88.015,33.778Z" transform="translate(28.844 52.865)" fill="#ffac40"/>
            <path id="Trazado_898300" data-name="Trazado 898300" d="M11.506,34.084c0,4.325,14.8,22.827,14.8,22.827a8.759,8.759,0,0,0,3.665,1.97l7.2-5.648a13.317,13.317,0,0,0-2.052-3.37l-10.1-16.924S11.506,29.76,11.506,34.084" transform="translate(18.008 49.788)" fill="#ffac40"/>
            <path id="Trazado_898301" data-name="Trazado 898301" d="M18.341,44.134a1.909,1.909,0,0,0,.467,2.1.155.155,0,0,0,.041.036c.269.277,1.9,1.919,2.057,2.049.236.064,6.613-4.989,6.613-4.989l.685-1.057-2.255-2.257-.015.01a2.712,2.712,0,0,0-2.652-.385,7.428,7.428,0,0,0-4.94,4.494" transform="translate(28.53 61.793)" fill="#fff"/>
            <path id="Trazado_898302" data-name="Trazado 898302" d="M19.189,44.973A1.8,1.8,0,0,0,20.9,47.508a2.458,2.458,0,0,0,.549,0,3.86,3.86,0,0,0,.8-.131,7.447,7.447,0,0,0,4.93-4.5,2.956,2.956,0,0,0,.1-.718,1.635,1.635,0,0,0-.162-.813,1.8,1.8,0,0,0-1.767-1.011,3.664,3.664,0,0,0-1.106.118c-.038.013-.074.015-.113.028a7.778,7.778,0,0,0-4.422,3.329,5.181,5.181,0,0,0-.287.539,4.526,4.526,0,0,0-.231.626" transform="translate(29.858 63.116)" fill="#eff1f1"/>
            <path id="Trazado_898303" data-name="Trazado 898303" d="M19.211,44.348a1.223,1.223,0,0,0,.072.159c.562,1.193,1.016,2.18,1.408,3,.169.362.336.7.487,1,1.649,3.265,2.368,3.624,6.736,8.088,2.039,1.97,9.042,3.127,7.926.162-.459-1.257-1.177-2.9-1.837-4.412-.885-1.924-1.665-3.6-1.747-3.768.123.021.944.223,1.862.357,1.429.241,3.093.346,2.734-.477-.487-1.077-4.045-3.476-5.571-4.466l-.028-.018c-.3-.2-.508-.326-.605-.387a.223.223,0,0,0-.072-.044,27.373,27.373,0,0,1-2.434-1.424c-.405-.264-.823-.531-1.236-.772-.6-.372-1.2-.723-1.765-1.008a3.663,3.663,0,0,0-1.106.118c-.038.013-.074.015-.113.028A7.792,7.792,0,0,0,19.5,43.809a5.721,5.721,0,0,0-.287.539" transform="translate(30.066 63.116)" fill="#faab8b"/>
            <path id="Trazado_898304" data-name="Trazado 898304" d="M50.08,38.431l-7.151,6.2a8.247,8.247,0,0,1-3.535-1.985l-5.723-5.682-2.065-1.908L41.14,27.9l6.715,7.228a14.171,14.171,0,0,1,2.224,3.3" transform="translate(49.465 43.672)" fill="#ff7f24"/>
            <path id="Trazado_898305" data-name="Trazado 898305" d="M35.906,36.445a1.909,1.909,0,0,0,.467,2.1.154.154,0,0,0,.041.036c.267.277,1.9,1.919,2.057,2.049.236.064,6.613-4.989,6.613-4.989l.685-1.057-2.255-2.257-.015.01a2.712,2.712,0,0,0-2.652-.385,7.428,7.428,0,0,0-4.94,4.494" transform="translate(56.02 49.759)" fill="#fff"/>
            <path id="Trazado_898306" data-name="Trazado 898306" d="M44.86,34.468a2.46,2.46,0,0,1-.121.718,1.707,1.707,0,0,1-.239.557s.041,0,0,.038a7.685,7.685,0,0,1-4.689,3.894,2.949,2.949,0,0,1-.793.121,1.365,1.365,0,0,1-.559,0,1.97,1.97,0,0,1-.99-.318.857.857,0,0,1-.321-.2,1.821,1.821,0,0,1-.4-1.983,1.8,1.8,0,0,1,.239-.636c0-.041.041-.041.041-.08a2.606,2.606,0,0,1,.241-.477,1.563,1.563,0,0,1,.236-.318A7.38,7.38,0,0,1,41.679,32.8a.146.146,0,0,1,.121-.041h.038a3.4,3.4,0,0,1,.6-.08,2,2,0,0,1,.477-.038,1.738,1.738,0,0,1,1.949,1.824" transform="translate(57.348 51.09)" fill="#eff1f1"/>
            <path id="Trazado_898307" data-name="Trazado 898307" d="M48.278,46.476c-.28,1.47-2.108,2.7-4.453,2.781a.735.735,0,0,1-.8-.516c-.675-1.908-2.224-7.113-3.3-7.231a3.778,3.778,0,0,0,.28.636,6.48,6.48,0,0,1,.554,3.576c-.08.357-.834.716-.993.4a7.71,7.71,0,0,0-1.39-2.424,9.174,9.174,0,0,1-.954-1.867,15.051,15.051,0,0,1-.318-1.749v-.872a23.633,23.633,0,0,0-.118-2.7,2.492,2.492,0,0,1,.239-.475,1.536,1.536,0,0,1,.239-.318,7.388,7.388,0,0,1,4.171-2.981.143.143,0,0,1,.121-.041H41.6c.477.6,1.113,1.352,1.826,2.106l.477.477a.04.04,0,0,1,.041.041c.118.118.2.239.318.357,0,0,.038,0,0,.041a14.9,14.9,0,0,1,3.773,8.065,16.577,16.577,0,0,1,.241,2.7" transform="translate(57.585 51.16)" fill="#f99b79"/>
            <path id="Trazado_898308" data-name="Trazado 898308" d="M42.524,69.394l-16.1-9.3.295-.172,30.147-17.4.1.059a9.589,9.589,0,0,0,4.661,1.4h.144c2.439-.054,4.7-1.39,9.66-4.32,1.2-.708,2.56-1.508,4.112-2.406l.1-.056,4.427,2.557-.295.169a5.123,5.123,0,0,0-1.7,1.67,2.953,2.953,0,0,0,.3,4.066,8.742,8.742,0,0,0,1.934,1.57l.295.172-.295.169ZM27.219,60.1l15.306,8.839L79.833,47.4A9.513,9.513,0,0,1,78.1,45.934a3.345,3.345,0,0,1-.349-4.556,5.615,5.615,0,0,1,1.544-1.613l-3.648-2.108c-1.511.875-2.837,1.657-4.009,2.347-5.022,2.965-7.313,4.32-9.858,4.373a9.6,9.6,0,0,1-4.912-1.4Z" transform="translate(41.358 58.22)" fill="#47313d"/>
            <path id="Trazado_898309" data-name="Trazado 898309" d="M51.673,61.659l-.123-.128a1.9,1.9,0,0,0-1.3-.446h-.1c-.159.008-.382.038-.667.077a10.413,10.413,0,0,1-6.951-1.036l-.136-.082c-2.9-1.729-2.185-3.391-1.844-4.186a1.914,1.914,0,0,0,.126-.344c.038-.341-.536-.613-.739-.68l-.5-.169.485-.2L67.356,42.98l4.5,2.6Zm-1.424-.975a2.422,2.422,0,0,1,1.444.449l19.456-15.5-3.825-2.211L40.492,54.654a1,1,0,0,1,.582.905,1.77,1.77,0,0,1-.156.454c-.341.8-.916,2.137,1.678,3.689l.131.08a10.042,10.042,0,0,0,6.705.988c.29-.041.523-.074.705-.082.038,0,.074,0,.113,0" transform="translate(61.726 67.266)" fill="#47313d"/>
          </g>
        </g>
      </g>
    </g>
  </g>
</svg>
