<svg xmlns="http://www.w3.org/2000/svg" xmlns:xlink="http://www.w3.org/1999/xlink" width="92" height="92" viewBox="0 0 92 92">
  <defs>
    <clipPath id="clip-path">
      <rect id="Rectángulo_413433" data-name="Rectángulo 413433" width="55.898" height="52.403" fill="none"/>
    </clipPath>
  </defs>
  <g id="Grupo_1127122" data-name="Grupo 1127122" transform="translate(-218 -8069)">
    <g id="Elipse_11494" data-name="Elipse 11494" transform="translate(218 8069)" fill="#a79dbb" stroke="#fff" stroke-width="2">
      <circle cx="46" cy="46" r="46" stroke="none"/>
      <circle cx="46" cy="46" r="45" fill="none"/>
    </g>
    <g id="Grupo_1124565" data-name="Grupo 1124565" transform="translate(236.051 8089)" clip-path="url(#clip-path)">
      <path id="Trazado_895400" data-name="Trazado 895400" d="M0,49.891V2.511c.038-.033.093-.058.11-.1A3.324,3.324,0,0,1,3.746,0H52.264A3.3,3.3,0,0,1,55.9,3.606q0,22.594,0,45.187A3.308,3.308,0,0,1,52.265,52.4H19.41q-8,0-15.991,0A3.266,3.266,0,0,1,.182,50.2c-.042-.105-.017-.267-.182-.3M27.976,10.917q-12.61,0-25.219-.013c-.5,0-.585.135-.584.6q.022,12.527,0,25.055c0,.444.092.571.556.571q25.22-.02,50.439,0c.465,0,.557-.127.557-.571q-.021-12.527,0-25.055c0-.464-.088-.6-.584-.6q-12.582.027-25.165.013M27.946,39.3q-12.607,0-25.215-.011c-.453,0-.563.1-.559.558.023,2.983.011,5.967.012,8.95,0,1.053.361,1.42,1.4,1.42H52.321c1.03,0,1.393-.373,1.394-1.426,0-2.983-.012-5.967.013-8.95,0-.467-.126-.552-.567-.551q-12.607.022-25.215.01M27.921,8.733q12.634,0,25.267.009c.417,0,.546-.089.538-.527-.03-1.546-.01-3.092-.012-4.638,0-1.018-.369-1.393-1.371-1.394q-2.319,0-4.639,0H3.719c-1.227,0-1.535.313-1.535,1.557,0,1.473.024,2.947-.014,4.42-.013.488.122.585.593.585q12.579-.024,25.158-.011" transform="translate(0 0)"/>
      <path id="Trazado_895401" data-name="Trazado 895401" d="M35.345,47.9q12.583,0,25.165-.013c.5,0,.585.135.584.6q-.022,12.527,0,25.055c0,.444-.092.571-.557.571q-25.22-.02-50.439,0c-.465,0-.557-.127-.556-.571q.021-12.527,0-25.055c0-.465.089-.6.584-.6q12.61.027,25.219.013m-7.67,13.055q0,3.19,0,6.381c0,1.109.759,1.594,1.741,1.1q6.383-3.178,12.761-6.367a1.168,1.168,0,0,0,.777-1.082,1.182,1.182,0,0,0-.793-1.071Q35.8,56.748,29.45,53.571c-1.018-.507-1.773-.033-1.774,1.108q0,3.136,0,6.272" transform="translate(-7.368 -36.979)" fill="#fe644f"/>
      <path id="Trazado_895402" data-name="Trazado 895402" d="M35.311,172.546q12.607,0,25.215-.01c.441,0,.571.084.567.551-.025,2.983-.012,5.967-.013,8.95,0,1.054-.363,1.426-1.394,1.426H10.948c-1.039,0-1.4-.367-1.4-1.42,0-2.983.011-5.967-.012-8.95,0-.455.106-.559.559-.558q12.607.023,25.215.011m7.454,6.55H55.21c.987,0,1.5-.38,1.5-1.1s-.516-1.084-1.514-1.084q-12.5,0-25,.008a.7.7,0,0,1-.733-.441,3.188,3.188,0,0,0-5.433-.448,1.712,1.712,0,0,1-1.869.883,4.154,4.154,0,0,0-.491,0c-2.183,0-4.367-.005-6.55,0a1.1,1.1,0,0,0-1.159,1.391,1.138,1.138,0,0,0,1.227.789c2.6,0,5.2.007,7.806-.006a.651.651,0,0,1,.7.414,3.249,3.249,0,0,0,5.778.011.694.694,0,0,1,.745-.424q6.277.015,12.555.007" transform="translate(-7.365 -133.245)" fill="#ebebf0"/>
      <path id="Trazado_895403" data-name="Trazado 895403" d="M35.278,16.136q-12.579,0-25.158.012c-.471,0-.606-.1-.593-.585.038-1.472.013-2.947.014-4.42,0-1.244.309-1.557,1.535-1.557H55.061q2.319,0,4.639,0c1,0,1.37.376,1.371,1.394,0,1.546-.018,3.093.012,4.638.008.437-.121.527-.537.527q-12.634-.019-25.267-.009M50.9,13.953c1.508,0,3.016,0,4.524,0,.785,0,1.284-.437,1.28-1.1s-.5-1.083-1.293-1.084q-4.5,0-8.994,0c-.786,0-1.284.435-1.279,1.1s.5,1.083,1.293,1.085c1.49,0,2.98,0,4.47,0m-35.92,0a1.09,1.09,0,1,0-1.068-1.139,1.1,1.1,0,0,0,1.068,1.139M22.639,12.9a1.091,1.091,0,1,0-1.161,1.045A1.1,1.1,0,0,0,22.639,12.9m20.307-.071a1.09,1.09,0,1,0-1.09,1.117,1.1,1.1,0,0,0,1.09-1.117" transform="translate(-7.356 -7.403)" fill="#9ce1ea"/>
      <path id="Trazado_895404" data-name="Trazado 895404" d="M89.168,79.554q0-3.136,0-6.272c0-1.141.756-1.615,1.774-1.108q6.357,3.169,12.711,6.345a1.183,1.183,0,0,1,.793,1.071,1.167,1.167,0,0,1-.777,1.082q-6.382,3.182-12.761,6.367c-.983.489-1.739,0-1.741-1.1q-.005-3.19,0-6.381m2.224-4.721v9.534l9.529-4.769-9.529-4.766" transform="translate(-68.862 -55.582)" fill="#010101"/>
      <path id="Trazado_895405" data-name="Trazado 895405" d="M57.6,186.475q-6.277,0-12.555-.007a.694.694,0,0,0-.745.424,3.249,3.249,0,0,1-5.778-.011.651.651,0,0,0-.7-.414c-2.6.013-5.2.009-7.806.006a1.138,1.138,0,0,1-1.227-.789,1.1,1.1,0,0,1,1.159-1.391c2.183-.008,4.367,0,6.55,0a4.147,4.147,0,0,1,.491,0,1.712,1.712,0,0,0,1.869-.883,3.188,3.188,0,0,1,5.433.448.7.7,0,0,0,.733.441q12.5-.015,25-.008c1,0,1.509.366,1.514,1.084s-.513,1.1-1.5,1.1H57.6M42.5,185.4a1.09,1.09,0,1,0-1.133,1.073A1.1,1.1,0,0,0,42.5,185.4" transform="translate(-22.198 -140.623)" fill="#010101"/>
      <path id="Trazado_895406" data-name="Trazado 895406" d="M171.656,21.355c-1.49,0-2.98,0-4.47,0-.792,0-1.288-.424-1.293-1.085s.493-1.1,1.279-1.1q4.5,0,8.994,0c.792,0,1.289.424,1.293,1.084s-.5,1.1-1.28,1.1c-1.508,0-3.016,0-4.524,0" transform="translate(-128.116 -14.804)" fill="#010101"/>
      <path id="Trazado_895407" data-name="Trazado 895407" d="M29.838,21.362A1.09,1.09,0,1,1,30.95,20.32a1.1,1.1,0,0,1-1.111,1.042" transform="translate(-22.218 -14.814)" fill="#050707"/>
      <path id="Trazado_895408" data-name="Trazado 895408" d="M59.715,20.313A1.091,1.091,0,1,1,58.7,19.181a1.1,1.1,0,0,1,1.019,1.132" transform="translate(-44.432 -14.811)" fill="#050707"/>
      <path id="Trazado_895409" data-name="Trazado 895409" d="M148.89,20.246a1.09,1.09,0,1,1-1.09-1.063,1.1,1.1,0,0,1,1.09,1.063" transform="translate(-113.3 -14.815)" fill="#050707"/>
      <path id="Trazado_895410" data-name="Trazado 895410" d="M98.938,84.536l9.529,4.766L98.938,94.07Z" transform="translate(-76.407 -65.285)" fill="#e9e9ee"/>
      <path id="Trazado_895411" data-name="Trazado 895411" d="M81.772,192.872a1.09,1.09,0,1,1-1.046-1.106,1.1,1.1,0,0,1,1.046,1.106" transform="translate(-61.468 -148.095)" fill="#f7614c"/>
    </g>
  </g>
</svg>
